<svg id="Layer_1" data-name="Layer 1" xmlns="http://www.w3.org/2000/svg" viewBox="0 0 400 200"><defs><style>.cls-1{fill:#4e77bb;stroke:#3e66b0;stroke-miterlimit:10;}.cls-2{fill:#fff;}</style></defs><title>API Button</title><rect class="cls-1" x="33.5" y="34.5" width="333" height="131" rx="3" ry="3"/><path class="cls-2" d="M209.7,90.84Q205.5,95,198.48,95V93.19a10.91,10.91,0,0,0,8.1-3.79q3.59-3.79,3.59-10.42,0-4.86-2.42-6.75a10,10,0,0,0-6.23-1.87,8,8,0,0,0-5.58,1.78,6.5,6.5,0,0,0-2,5,7.22,7.22,0,0,0,1.18,4.37,4,4,0,0,0,3.39,1.6,2.26,2.26,0,0,0,2-.92,3.52,3.52,0,0,0,.66-2.09V80a3.68,3.68,0,0,1-.88.12,1.65,1.65,0,0,1-1.6-.92,2.55,2.55,0,0,1-.31-1.13q0-1.27,1.89-2a4.64,4.64,0,0,1,1.6-.33A2.34,2.34,0,0,1,204,77.08a5.43,5.43,0,0,1,.68,2.48,8,8,0,0,1-.39,2.14A4.72,4.72,0,0,1,202.87,84,5.21,5.21,0,0,1,200,85.11a9.88,9.88,0,0,1-1.48.1,14.37,14.37,0,0,1-2.88-.33,7.3,7.3,0,0,1-3.48-2.26,7.4,7.4,0,0,1-1.91-5.43,7.88,7.88,0,0,1,3-6.44q3-2.44,8.22-2.44a14.77,14.77,0,0,1,8.88,2.52q3.47,2.54,3.47,8.14Q213.86,86.71,209.7,90.84Z"/><path class="cls-2" d="M104.06,122.53a1.27,1.27,0,0,0-1.27-1.16,6.76,6.76,0,0,1,.76-2.29,1.09,1.09,0,0,1,1.9-.77l0.54,0.37a0.84,0.84,0,0,0,.44.16,0.55,0.55,0,0,0,.36-0.14,2.71,2.71,0,0,1-.29,1.19,0.84,0.84,0,0,1-.62.45h-0.1a2,2,0,0,1-1-.35,1.13,1.13,0,0,0-.52-0.18q-0.26,0-.38.76,1.88,0.5,1.88,1.17v6a2.57,2.57,0,0,1-1,2.2,5.91,5.91,0,0,1-3.42.73,5.91,5.91,0,0,1-3.42-.73,2.57,2.57,0,0,1-1-2.2v-5.19a1.27,1.27,0,0,0-1.27-1.16,6.24,6.24,0,0,1,.81-2.29A1.89,1.89,0,0,1,97.65,118a1.77,1.77,0,0,1,.88.36l0.54,0.37a1,1,0,0,0,.57.16,1.9,1.9,0,0,0,.36,0,2.54,2.54,0,0,1-.36,1,1,1,0,0,1-.67.51h-0.1a2,2,0,0,1-1-.35,1.13,1.13,0,0,0-.52-0.18q-0.26,0-.38.76,1.79,0.5,1.79,1.17v6a1.76,1.76,0,0,0,.62,1.46,3.25,3.25,0,0,0,2,.49,3.3,3.3,0,0,0,2-.49,1.77,1.77,0,0,0,.61-1.46v-5.19Z"/><path class="cls-2" d="M102.6,112.7q1.27,0,1.27.86a0.67,0.67,0,0,1-.73.78,0.63,0.63,0,0,1-.73-0.41,0.8,0.8,0,0,0,1,.82,4.3,4.3,0,0,0,2.32-.44,1.51,1.51,0,0,0,.61-1.31q0-1-.49-1a0.42,0.42,0,1,1,0-.82,2.24,2.24,0,0,1,1.35.45,1.61,1.61,0,0,1,.61,1.37,2.1,2.1,0,0,1-1.09,1.93,6.69,6.69,0,0,1-3.3.64,3.33,3.33,0,0,1-1.84-.41,1.4,1.4,0,0,1-.61-1.24Q100.94,112.7,102.6,112.7Z"/><path class="cls-2" d="M120,128.69l-2.25,2H116v-9.77a1.77,1.77,0,0,0-.61-1.46,2.56,2.56,0,0,0-1.64-.49,2.52,2.52,0,0,0-1.63.49,1.76,1.76,0,0,0-.62,1.46v4.88a2.47,2.47,0,0,1,1.61.45,1.63,1.63,0,0,1,.54,1.34,3.76,3.76,0,0,1-.61,2.25,2.12,2.12,0,0,1-1.84.85q-1.46,0-1.46-.85v-8.92a2.57,2.57,0,0,1,1-2.2,6.62,6.62,0,0,1,6.05,0,2.57,2.57,0,0,1,1,2.2v8.48l2.25-2,2.25,1.94v-8.47a2.57,2.57,0,0,1,1-2.2,6.62,6.62,0,0,1,6.05,0,2.57,2.57,0,0,1,1,2.2v9.77h-1.76v-9.77a1.77,1.77,0,0,0-.61-1.46,2.56,2.56,0,0,0-1.64-.49,2.52,2.52,0,0,0-1.63.49,1.76,1.76,0,0,0-.62,1.46v9.77h-1.76Zm-8.5-2v2.64a1,1,0,0,0,.88-0.46,2.57,2.57,0,0,0,.29-1.37,0.68,0.68,0,0,0-.29-0.61A1.54,1.54,0,0,0,111.48,126.74Z"/><path class="cls-2" d="M116.07,137v-3.12a1.13,1.13,0,0,0-.71-1.22,6.28,6.28,0,0,0-3.47,0,1.13,1.13,0,0,0-.71,1.22v0.2a1.76,1.76,0,0,1,1.1.29,1.07,1.07,0,0,1,.36.88,1.52,1.52,0,0,1-.73,1.22,2.47,2.47,0,0,1-1.46.54,0.65,0.65,0,0,1-.73-0.73v-2.39A2,2,0,0,1,110.8,132a7.14,7.14,0,0,1,5.66,0,2,2,0,0,1,1.07,1.86v1.8l2.44-2.5,2.44,2.5v-1.8A2,2,0,0,1,123.5,132a7.14,7.14,0,0,1,5.66,0,2,2,0,0,1,1.07,1.86V137h-1.46v-3.12a1.13,1.13,0,0,0-.71-1.22,6.28,6.28,0,0,0-3.47,0,1.13,1.13,0,0,0-.71,1.22V137h-1.46L120,134.5,117.54,137h-1.46Zm-4.88-2v0.75a0.77,0.77,0,0,0,.49-0.55Q111.68,135,111.19,135Z"/><path class="cls-2" d="M134.14,122.53q0-.89-1.46-1.16a6.59,6.59,0,0,1,.8-2.29,1.83,1.83,0,0,1,1.07-1.13,1.88,1.88,0,0,1,.92.36l0.57,0.37a0.9,0.9,0,0,0,.46.16,0.6,0.6,0,0,0,.38-0.14,2.56,2.56,0,0,1-.3,1.19,0.89,0.89,0,0,1-.65.45h-0.1a2.18,2.18,0,0,1-1-.35,1.19,1.19,0,0,0-.54-0.18q-0.28,0-.4.76,2,0.5,2,1.17v12.79a1.17,1.17,0,0,0,.71,1.1A3.1,3.1,0,0,0,138,136a2.45,2.45,0,0,0,1.41-.37,1.22,1.22,0,0,0,.55-1.09v-2.93h1.46v2.93a2,2,0,0,1-.92,1.83,4.44,4.44,0,0,1-2.5.62,5.86,5.86,0,0,1-2.74-.61,2,2,0,0,1-1.16-1.84v-12Z"/><path class="cls-2" d="M146.84,122.53a1.27,1.27,0,0,0-1.27-1.16,6.76,6.76,0,0,1,.76-2.29,1.09,1.09,0,0,1,1.9-.77l0.54,0.37a0.84,0.84,0,0,0,.44.16,0.55,0.55,0,0,0,.36-0.14,2.71,2.71,0,0,1-.29,1.19,0.84,0.84,0,0,1-.62.45h-0.1a2,2,0,0,1-1-.35,1.13,1.13,0,0,0-.52-0.18q-0.26,0-.38.76,1.88,0.5,1.88,1.17v6a2.57,2.57,0,0,1-1,2.2,8.34,8.34,0,0,1-6.84,0,2.57,2.57,0,0,1-1-2.2v-5.19a1.27,1.27,0,0,0-1.27-1.16,6.24,6.24,0,0,1,.81-2.29,1.89,1.89,0,0,1,1.07-1.13,1.77,1.77,0,0,1,.88.36l0.54,0.37a1,1,0,0,0,.57.16,1.9,1.9,0,0,0,.36,0,2.54,2.54,0,0,1-.36,1,1,1,0,0,1-.67.51h-0.1a2,2,0,0,1-1-.35,1.13,1.13,0,0,0-.52-0.18q-0.26,0-.38.76,1.79,0.5,1.79,1.17v6a1.76,1.76,0,0,0,.62,1.46,3.25,3.25,0,0,0,2,.49,3.3,3.3,0,0,0,2-.49,1.77,1.77,0,0,0,.61-1.46v-5.19Z"/><path class="cls-2" d="M153.21,121.79a1.81,1.81,0,0,1-1.2-1.36q0-.65,1.71-1.57a7.52,7.52,0,0,1,2.1-.91,5.15,5.15,0,0,1,1.51.46l1.7,0.71a2.07,2.07,0,0,0,1.59-.07l0.57-.29A4.92,4.92,0,0,1,163,118a4.63,4.63,0,0,1,1.51.43q3.11,1.3,3.12,2.91v9.36h-1.76v-8.77a1.93,1.93,0,0,0-1.44-1.69,6.12,6.12,0,0,0-2.13-.62,3.63,3.63,0,0,0-1.7.62,3.71,3.71,0,0,1-1.51.61,3.3,3.3,0,0,1-1.22-.32l-1.3-.54a3.58,3.58,0,0,0-1.52-.36,2.1,2.1,0,0,0-1,.27,0.88,0.88,0,0,0-.48.82,1,1,0,0,0,.74.63Zm1,8.86H152.5V124.3a2.57,2.57,0,0,1,1-2.2,8.34,8.34,0,0,1,6.84,0,2.57,2.57,0,0,1,1,2.2v6.35h-1.76V124.3a1.77,1.77,0,0,0-.61-1.46,3.3,3.3,0,0,0-2-.49,3.25,3.25,0,0,0-2,.49,1.76,1.76,0,0,0-.62,1.46v6.35Z"/><path class="cls-2" d="M175.69,121.37h0.2a5.8,5.8,0,0,1,3.37.73,2.57,2.57,0,0,1,1,2.2v3.42a1.76,1.76,0,0,0,.62,1.46,2.69,2.69,0,0,0,1.73.49,2.73,2.73,0,0,0,1.74-.49,1.77,1.77,0,0,0,.61-1.46v-5.19a1.27,1.27,0,0,0-1.27-1.16,6.76,6.76,0,0,1,.76-2.29,1.09,1.09,0,0,1,1.9-.77l0.54,0.37a0.84,0.84,0,0,0,.44.16,0.55,0.55,0,0,0,.36-0.14,2.71,2.71,0,0,1-.29,1.19,0.84,0.84,0,0,1-.62.45h-0.1a2,2,0,0,1-1-.35,1.13,1.13,0,0,0-.52-0.18q-0.26,0-.38.76,1.88,0.5,1.88,1.17v6a2.57,2.57,0,0,1-1,2.2,7,7,0,0,1-6.25,0,2.57,2.57,0,0,1-1-2.2V124.3a1.77,1.77,0,0,0-.61-1.46,3.2,3.2,0,0,0-2-.49,3.15,3.15,0,0,0-2,.49,1.76,1.76,0,0,0-.62,1.46v2.12h0.44a1.74,1.74,0,0,1,1.28.42,1.7,1.7,0,0,1,.43,1.27A3.1,3.1,0,0,1,175,130a1.73,1.73,0,0,1-1.46.63,2.69,2.69,0,0,1-1.46-.32,1,1,0,0,1-.49-0.95V124.3a2.57,2.57,0,0,1,1-2.2,3.08,3.08,0,0,1,1-.47,2.7,2.7,0,0,0-1.2-.75,5.77,5.77,0,0,1,1.39-2.06,2.41,2.41,0,0,1,1.4-.87h0.11a3.81,3.81,0,0,1,1.17.55,4.2,4.2,0,0,0,1,.52h0.15a1,1,0,0,0,.33-0.06,3,3,0,0,1-.54,1.14,1,1,0,0,1-.77.39,2,2,0,0,1-1.05-.42,1.93,1.93,0,0,0-1-.42,1.09,1.09,0,0,0-.73.72A7.87,7.87,0,0,1,175.69,121.37Zm-2,6H173.3v2c0,0.13.11,0.2,0.34,0.2a0.72,0.72,0,0,0,.59-0.31,1.93,1.93,0,0,0,.24-1.15,0.71,0.71,0,0,0-.18-0.57A0.87,0.87,0,0,0,173.74,127.39Z"/><path class="cls-2" d="M199.37,129.69a0.85,0.85,0,0,1-1,1h-0.78q-1.46,0-1.46-2.61a1.37,1.37,0,0,1,1.46-1.62v-1.16h-5.27v4.43a0.85,0.85,0,0,1-1,1h-0.78q-1.46,0-1.46-2.61a1.37,1.37,0,0,1,1.46-1.62v-3.89a1.27,1.27,0,0,0-1.27-1.16,6.24,6.24,0,0,1,.81-2.29A1.89,1.89,0,0,1,191.2,118a1.77,1.77,0,0,1,.88.36l0.54,0.37a1,1,0,0,0,.57.16,1.9,1.9,0,0,0,.36,0,2.54,2.54,0,0,1-.36,1,1,1,0,0,1-.67.51h-0.1a2,2,0,0,1-1-.35,1.13,1.13,0,0,0-.52-0.18q-0.26,0-.38.76,1.79,0.5,1.79,1.17v2.52h5.27v-1.86q0-.93-1.33-1.07a3.54,3.54,0,0,1,1.24-2.29,3.29,3.29,0,0,1,2.22-1.07,7,7,0,0,1,2.72.46q3.25,1.39,3.25,3.28v8.92H204v-8.43q0-1.4-2.53-2.27a6.82,6.82,0,0,0-2.15-.28,1.75,1.75,0,0,0-1.59,1q1.68,0.51,1.68,1.21v7.76Zm-8.79-2.29q-0.49,0-.49.64,0,1.5.49,1.5v-2.15Zm7,0q-0.49,0-.49.64,0,1.5.49,1.5v-2.15Z"/><path class="cls-2" d="M218.37,120.26a3.84,3.84,0,0,1,0,.63v9.77h-1.76v-9.77q0-1.54-.78-1.54a1.76,1.76,0,0,0-1.33,1,0.58,0.58,0,0,1-1.05,0,1.74,1.74,0,0,0-1.32-1q-0.79,0-.79,1.54v4.88a2.47,2.47,0,0,1,1.61.45,1.63,1.63,0,0,1,.54,1.34,3.76,3.76,0,0,1-.61,2.25,2.12,2.12,0,0,1-1.84.85q-1.46,0-1.46-.85v-8.92a3.1,3.1,0,0,1,.73-2.06A2.14,2.14,0,0,1,212,118a2.89,2.89,0,0,1,2,1.31,2.92,2.92,0,0,1,2-1.31,2.13,2.13,0,0,1,1.65.87,3.38,3.38,0,0,1,.23.32l1.07-.64a3.41,3.41,0,0,1,1.79-.55,4.44,4.44,0,0,1,2.52,1.1,2.94,2.94,0,0,1,1.46,2v9.55H223V121.1a1.8,1.8,0,0,0-.9-1,3,3,0,0,0-1.71-.64A5.09,5.09,0,0,0,218.37,120.26Zm-7,9.12a1,1,0,0,0,.88-0.46,2.57,2.57,0,0,0,.29-1.37,0.68,0.68,0,0,0-.29-0.61,1.54,1.54,0,0,0-.88-0.21v2.64Z"/><path class="cls-2" d="M228.67,122.53a1.27,1.27,0,0,0-1.27-1.16,6.26,6.26,0,0,1,.81-2.29,1.89,1.89,0,0,1,1.07-1.13,1.77,1.77,0,0,1,.88.36l0.54,0.37a1,1,0,0,0,.57.16,1.89,1.89,0,0,0,.36,0,2.53,2.53,0,0,1-.36,1,1,1,0,0,1-.67.51h-0.1a2,2,0,0,1-1-.35,1.12,1.12,0,0,0-.52-0.18q-0.26,0-.38.76,1.79,0.5,1.79,1.17v6a1.76,1.76,0,0,0,.62,1.46,3.77,3.77,0,0,0,3.71,0,1.77,1.77,0,0,0,.61-1.46v-6.84a2.57,2.57,0,0,1,1-2.2,7.57,7.57,0,0,1,6.5,0,2.57,2.57,0,0,1,1,2.2v9.77h-1.76v-9.77a1.78,1.78,0,0,0-.61-1.46,3.77,3.77,0,0,0-3.71,0,1.76,1.76,0,0,0-.62,1.46v6.84a2.57,2.57,0,0,1-1,2.2,7.56,7.56,0,0,1-6.49,0,2.57,2.57,0,0,1-1-2.2v-5.19Z"/><path class="cls-2" d="M237.41,114.28a1,1,0,0,0,.12.55,0.53,0.53,0,0,0,.47.19q0.49,0,.49-0.18c0-.2.23-0.3,0.68-0.3s0.68,0.1.68,0.3a1,1,0,0,1-.43.87A2.51,2.51,0,0,1,238,116a2.39,2.39,0,0,1-1.67-.43,1.73,1.73,0,0,1-.43-1.28,2.13,2.13,0,0,1,.44-1.33,2.05,2.05,0,0,1,1.71-.58,2.11,2.11,0,0,1,1.71.58,5.5,5.5,0,0,0,1.38-.67,3.38,3.38,0,0,0,1-1.12l0.11,0a0.79,0.79,0,0,1,.56.62,0.29,0.29,0,0,1-.12.23,5.9,5.9,0,0,1-1,1.1,7.17,7.17,0,0,1-1.33.84,2.32,2.32,0,0,1-.68.11,2.06,2.06,0,0,0-1.34-.68,0.93,0.93,0,0,0-.7.27A0.9,0.9,0,0,0,237.41,114.28Z"/><path class="cls-2" d="M251.58,120.33a1.74,1.74,0,0,0-1.32-1q-0.79,0-.79,1.54v4.88a2.47,2.47,0,0,1,1.61.45,1.63,1.63,0,0,1,.54,1.34,3.77,3.77,0,0,1-.61,2.25,2.12,2.12,0,0,1-1.84.85q-1.46,0-1.46-.85v-8.92a3.1,3.1,0,0,1,.73-2.06,2.14,2.14,0,0,1,1.66-.87,2.89,2.89,0,0,1,2,1.31,2.92,2.92,0,0,1,2-1.31,2.13,2.13,0,0,1,1.65.87,3.12,3.12,0,0,1,.72,2.06v9.77h-1.76v-9.77q0-1.54-.78-1.54a1.76,1.76,0,0,0-1.33,1A0.58,0.58,0,0,1,251.58,120.33Zm-2.11,9a1,1,0,0,0,.88-0.46,2.57,2.57,0,0,0,.29-1.37,0.68,0.68,0,0,0-.29-0.61,1.54,1.54,0,0,0-.88-0.21v2.64Z"/><path class="cls-2" d="M247.86,113.56q0-2,3.13-2a5.54,5.54,0,0,1,3.66,1.46l1.71,1.46v1H250.3Q247.86,115.51,247.86,113.56Zm2.44,0.68h4a4.35,4.35,0,0,0-3.32-1.46q-2,0-2,.78T250.3,114.24Z"/><path class="cls-2" d="M269.15,120.26a4,4,0,0,1,0,.63v9.77h-1.76v-9.77q0-1.54-.78-1.54a1.76,1.76,0,0,0-1.33,1,0.58,0.58,0,0,1-1.05,0,1.74,1.74,0,0,0-1.32-1q-0.79,0-.79,1.54v4.88a2.47,2.47,0,0,1,1.61.45,1.63,1.63,0,0,1,.54,1.34,3.77,3.77,0,0,1-.61,2.25,2.12,2.12,0,0,1-1.84.85q-1.46,0-1.46-.85v-8.92a3.1,3.1,0,0,1,.73-2.06,2.14,2.14,0,0,1,1.66-.87,2.89,2.89,0,0,1,2,1.31,2.92,2.92,0,0,1,2-1.31,2.13,2.13,0,0,1,1.65.87,3.38,3.38,0,0,1,.23.32l1.07-.64a3.41,3.41,0,0,1,1.79-.55,4.44,4.44,0,0,1,2.52,1.1,3,3,0,0,1,1.46,2v9.55h-1.76V121.1a1.8,1.8,0,0,0-.9-1,3,3,0,0,0-1.71-.64A5.08,5.08,0,0,0,269.15,120.26Zm-7,9.12a1,1,0,0,0,.88-0.46,2.57,2.57,0,0,0,.29-1.37,0.68,0.68,0,0,0-.29-0.61,1.54,1.54,0,0,0-.88-0.21v2.64Z"/><path class="cls-2" d="M279.45,122.53a1.27,1.27,0,0,0-1.27-1.16,6.24,6.24,0,0,1,.81-2.29,1.89,1.89,0,0,1,1.07-1.13,1.77,1.77,0,0,1,.88.36l0.54,0.37a1,1,0,0,0,.57.16,1.9,1.9,0,0,0,.36,0,2.54,2.54,0,0,1-.36,1,1,1,0,0,1-.67.51h-0.1a2,2,0,0,1-1-.35,1.12,1.12,0,0,0-.52-0.18q-0.26,0-.38.76,1.79,0.5,1.79,1.17v6a1.76,1.76,0,0,0,.62,1.46,3.77,3.77,0,0,0,3.71,0,1.77,1.77,0,0,0,.61-1.46v-6.84a2.57,2.57,0,0,1,1-2.2,7.56,7.56,0,0,1,6.49,0,2.57,2.57,0,0,1,1,2.2v9.77h-1.76v-9.77a1.77,1.77,0,0,0-.61-1.46,3.77,3.77,0,0,0-3.71,0,1.76,1.76,0,0,0-.62,1.46v6.84a2.57,2.57,0,0,1-1,2.2,7.56,7.56,0,0,1-6.49,0,2.57,2.57,0,0,1-1-2.2v-5.19Z"/><path class="cls-2" d="M288.19,114.28a1,1,0,0,0,.12.55,0.53,0.53,0,0,0,.47.19q0.49,0,.49-0.18c0-.2.23-0.3,0.68-0.3s0.68,0.1.68,0.3a1,1,0,0,1-.43.87,2.5,2.5,0,0,1-1.38.29,2.39,2.39,0,0,1-1.67-.43,1.74,1.74,0,0,1-.43-1.28,2.13,2.13,0,0,1,.44-1.33,2.05,2.05,0,0,1,1.71-.58,2.11,2.11,0,0,1,1.71.58,5.47,5.47,0,0,0,1.38-.67,3.37,3.37,0,0,0,1-1.12l0.11,0a0.79,0.79,0,0,1,.56.62,0.29,0.29,0,0,1-.12.23,5.9,5.9,0,0,1-1,1.1,7.2,7.2,0,0,1-1.33.84,2.31,2.31,0,0,1-.68.11,2.05,2.05,0,0,0-1.34-.68,0.93,0.93,0,0,0-.7.27A0.9,0.9,0,0,0,288.19,114.28Z"/><path class="cls-2" d="M298.5,125.61l2.68,3.68h-1.42l-2.64-3.68,2.64-3.68h1.42Zm3.28,0,2.68,3.68H303l-2.64-3.68,2.64-3.68h1.42Z"/></svg>