<svg id="Layer_1" data-name="Layer 1" xmlns="http://www.w3.org/2000/svg" viewBox="0 0 400 200"><defs><style>.cls-1{fill:#4e77bb;stroke:#3e66b0;stroke-miterlimit:10;}.cls-2{fill:#fff;}</style></defs><title>API Button</title><rect class="cls-1" x="33.5" y="34.5" width="333" height="131" rx="3" ry="3"/><path class="cls-2" d="M212.84,67.5q0-2.38-3.08-2.38,0-2.75,2.67-2.75,4.1,0,4.1,5.13V91.43q0,3.55-5.23,3.55t-5.23-3.55V73.65a3.11,3.11,0,0,0-1.29-2.26,1.83,1.83,0,0,0-.92-0.25q-1.64,0-3.81,2.87-2.19-2.87-3.83-2.87a1.83,1.83,0,0,0-.92.25A3.1,3.1,0,0,0,194,73.65V84.32q2.52,0,3.42,1a3.47,3.47,0,0,1,.88,2.24,6.24,6.24,0,0,1-.82,2.93,11.09,11.09,0,0,1-2.38,3A5,5,0,0,1,192.21,95a1.64,1.64,0,0,1-1.93-1.78V73.65a4.5,4.5,0,0,1,2.38-3.75,7.64,7.64,0,0,1,3.67-1.58q1.07,0,3.71,2.38,2.63-2.38,3.71-2.38a7.54,7.54,0,0,1,3.63,1.58,4.5,4.5,0,0,1,2.38,3.75V91.43q0,1,1.54,1t1.54-1V67.5ZM194,91a4.5,4.5,0,0,0,1.56-3,1.13,1.13,0,0,0-.55-1,2,2,0,0,0-1-.33V91Z"/><path class="cls-2" d="M111,120.88a2.57,2.57,0,0,1,1-2.2,8.12,8.12,0,0,1,6.74,0,2.57,2.57,0,0,1,1,2.2v6.84a1.76,1.76,0,0,0,.62,1.46,2.7,2.7,0,0,0,1.73.49,2.74,2.74,0,0,0,1.74-.49,1.77,1.77,0,0,0,.61-1.46v-5.19a1.27,1.27,0,0,0-1.27-1.16,6.77,6.77,0,0,1,.76-2.29,1.78,1.78,0,0,1,1-1.13,1.76,1.76,0,0,1,.88.36l0.54,0.37a0.85,0.85,0,0,0,.44.16,0.56,0.56,0,0,0,.36-0.14,2.7,2.7,0,0,1-.29,1.19,0.84,0.84,0,0,1-.62.45h-0.1a2,2,0,0,1-1-.35,1.12,1.12,0,0,0-.52-0.18q-0.26,0-.38.76,1.89,0.5,1.88,1.17v6a2.57,2.57,0,0,1-1,2.2,7,7,0,0,1-6.25,0,2.57,2.57,0,0,1-1-2.2v-6.84a1.77,1.77,0,0,0-.61-1.46,3.2,3.2,0,0,0-2-.49,3.15,3.15,0,0,0-2,.49,1.76,1.76,0,0,0-.62,1.46v4.88a2.46,2.46,0,0,1,1.61.45,1.63,1.63,0,0,1,.54,1.34,3.76,3.76,0,0,1-.61,2.25,2.12,2.12,0,0,1-1.84.85q-1.46,0-1.46-.85v-8.92Zm1.76,5.86v2.64a1,1,0,0,0,.88-0.46,2.57,2.57,0,0,0,.29-1.37,0.68,0.68,0,0,0-.29-0.61A1.54,1.54,0,0,0,112.79,126.74Z"/><path class="cls-2" d="M117.53,113.56q0-2,3.13-2a5.53,5.53,0,0,1,3.66,1.46l1.71,1.46v1H120Q117.53,115.51,117.53,113.56Zm2.44,0.68h4a4.35,4.35,0,0,0-3.32-1.46q-2,0-2,.78T120,114.24Z"/><path class="cls-2" d="M130.08,125.52l4.28-1.63q2.75-1,2.75-2.55a2.43,2.43,0,0,0-.61-1.81,2.82,2.82,0,0,0-2-.61,2.92,2.92,0,0,0-1.8.46,2.23,2.23,0,0,0-.77,1.38,1.52,1.52,0,0,1,.43.13,1.16,1.16,0,0,1,.49.42,1,1,0,0,1,0,1.14,1.18,1.18,0,0,1-.49.42,1.48,1.48,0,0,1-.65.15,2.28,2.28,0,0,1-.95-0.15,1.19,1.19,0,0,1-.49-0.42,1,1,0,0,1-.18-0.57v-0.55a3.17,3.17,0,0,1,1-2.54,7.3,7.3,0,0,1,6.84,0,3.17,3.17,0,0,1,1,2.54q0,2.15-4,3.62l-3.08,1.23v1.06a2.43,2.43,0,0,0,.62,1.81,2.79,2.79,0,0,0,2,.61,2.83,2.83,0,0,0,2-.61,2.45,2.45,0,0,0,.61-1.81v-1.69h1.76v1.69a3.18,3.18,0,0,1-1,2.54,7.3,7.3,0,0,1-6.84,0,3.19,3.19,0,0,1-1-2.54v-1.74Z"/><path class="cls-2" d="M130.22,113.56q0-2,3.13-2a5.53,5.53,0,0,1,3.66,1.46l1.71,1.46v1h-6.05Q130.23,115.51,130.22,113.56Zm2.44,0.68h4a4.35,4.35,0,0,0-3.32-1.46q-2,0-2,.78T132.67,114.24Z"/><path class="cls-2" d="M142.28,120.23a1.24,1.24,0,0,1,.59-0.87l0.6-.46a4.21,4.21,0,0,1,1.46-.95,2.65,2.65,0,0,1,1.18.61,2.88,2.88,0,0,0,1.12.61,2.78,2.78,0,0,0,1-.61,2.45,2.45,0,0,1,1.11-.61,3.15,3.15,0,0,1,1.28.7,4.1,4.1,0,0,0,1.1.71,0.41,0.41,0,0,0,.29-0.14q-0.32,1.27-1.11,1.27a2.25,2.25,0,0,1-1.09-.47,2.24,2.24,0,0,0-1-.47,1.89,1.89,0,0,0-1,.47,2,2,0,0,1-1.09.47,2.31,2.31,0,0,1-1.32-.47,2.12,2.12,0,0,0-1-.47,0.84,0.84,0,0,0-.59.19,0.6,0.6,0,0,0-.2.46q0,0.38,1.25.63l-1.4.6A1.17,1.17,0,0,1,142.28,120.23Zm2.25,6.19H145a1.74,1.74,0,0,1,1.28.42,1.7,1.7,0,0,1,.43,1.27,3.1,3.1,0,0,1-.49,1.9,1.73,1.73,0,0,1-1.46.63,2.69,2.69,0,0,1-1.46-.32,1,1,0,0,1-.49-0.95V124.3a2.57,2.57,0,0,1,1-2.2,8.34,8.34,0,0,1,6.84,0,2.57,2.57,0,0,1,1,2.2v6.35H149.8V124.3a1.77,1.77,0,0,0-.61-1.46,3.3,3.3,0,0,0-2-.49,3.25,3.25,0,0,0-2,.49,1.76,1.76,0,0,0-.62,1.46v2.12Zm0.44,1h-0.44v2c0,0.13.11,0.2,0.34,0.2a0.72,0.72,0,0,0,.59-0.31,1.93,1.93,0,0,0,.24-1.15,0.7,0.7,0,0,0-.18-0.57A0.86,0.86,0,0,0,145,127.39Z"/><path class="cls-2" d="M162.5,122.53a1.27,1.27,0,0,0-1.27-1.16,6.77,6.77,0,0,1,.76-2.29,1.78,1.78,0,0,1,1-1.13,1.76,1.76,0,0,1,.88.36l0.54,0.37a0.85,0.85,0,0,0,.44.16,0.56,0.56,0,0,0,.36-0.14,2.7,2.7,0,0,1-.29,1.19,0.84,0.84,0,0,1-.62.45h-0.1a2,2,0,0,1-1-.35,1.12,1.12,0,0,0-.52-0.18q-0.26,0-.38.76,1.89,0.5,1.88,1.17v6a2.57,2.57,0,0,1-1,2.2,8.34,8.34,0,0,1-6.84,0,2.57,2.57,0,0,1-1-2.2v-5.19a1.27,1.27,0,0,0-1.27-1.16,6.24,6.24,0,0,1,.81-2.29,1.89,1.89,0,0,1,1.07-1.13,1.76,1.76,0,0,1,.88.36l0.54,0.37a1,1,0,0,0,.57.16,1.89,1.89,0,0,0,.36,0,2.53,2.53,0,0,1-.36,1,1,1,0,0,1-.67.51h-0.1a2,2,0,0,1-1-.35,1.12,1.12,0,0,0-.52-0.18q-0.26,0-.38.76,1.79,0.5,1.79,1.17v6a1.76,1.76,0,0,0,.62,1.46,3.26,3.26,0,0,0,2,.49,3.3,3.3,0,0,0,2-.49,1.77,1.77,0,0,0,.61-1.46v-5.19Z"/><path class="cls-2" d="M183.22,120.28a2.31,2.31,0,0,1,.08.61v9.77h-1.76v-9.77a1.77,1.77,0,0,0-.66-1.37,2.55,2.55,0,0,0-3.25,0,1.76,1.76,0,0,0-.67,1.37v9.77H175.2v-9.77q0-1.54-.78-1.54a1.76,1.76,0,0,0-1.33,1,0.58,0.58,0,0,1-1.05,0,1.74,1.74,0,0,0-1.32-1q-0.79,0-.79,1.54v4.88a2.46,2.46,0,0,1,1.61.45,1.63,1.63,0,0,1,.54,1.34,3.76,3.76,0,0,1-.61,2.25,2.12,2.12,0,0,1-1.84.85q-1.46,0-1.46-.85v-8.92a3.09,3.09,0,0,1,.73-2.06,2.14,2.14,0,0,1,1.66-.87,2.89,2.89,0,0,1,2,1.31,2.92,2.92,0,0,1,2-1.31,2.13,2.13,0,0,1,1.65.87l0,0h0l0,0a4.7,4.7,0,0,1,6.33.42l1.24-.74a3.41,3.41,0,0,1,1.79-.55,4.44,4.44,0,0,1,2.52,1.1,2.94,2.94,0,0,1,1.46,2v9.55h-1.76V121.1a1.8,1.8,0,0,0-.9-1,3,3,0,0,0-1.71-.64A5.19,5.19,0,0,0,183.22,120.28Zm-13.3,9.1a1,1,0,0,0,.88-0.46,2.57,2.57,0,0,0,.29-1.37,0.68,0.68,0,0,0-.29-0.61,1.54,1.54,0,0,0-.88-0.21v2.64Z"/><path class="cls-2" d="M184.49,133.17c0.16,0,.24.11,0.24,0.32a0.66,0.66,0,0,1-.49.63l-0.22.08-0.24.08v0.08a3.62,3.62,0,0,1-.5,1.74,1.58,1.58,0,0,1-1.47.9,2.3,2.3,0,0,1-1-.25,4.33,4.33,0,0,1-1-.78l-0.36-.34L179,136a5.37,5.37,0,0,1-1.07.78,2.12,2.12,0,0,1-1,.25,1.57,1.57,0,0,1-1.46-.91,3.68,3.68,0,0,1-.49-1.74,3.51,3.51,0,0,1,.49-2,1.68,1.68,0,0,1,1.46-.68,0.49,0.49,0,1,1,0,1,0.46,0.46,0,0,0-.36.44,5.07,5.07,0,0,0-.13,1.31,5.93,5.93,0,0,0,.13,1c0.08,0.44.2,0.66,0.36,0.66a1.4,1.4,0,0,0,.62-0.2,4.42,4.42,0,0,0,.84-0.63l1-.91,1,0.91a2.83,2.83,0,0,0,1.48.83c0.16,0,.28-0.21.36-0.62a6.71,6.71,0,0,0,.13-0.87h-0.49a1.47,1.47,0,1,1,0-2.93,1.75,1.75,0,0,1,1.25.44,2.29,2.29,0,0,1,.63,1.31l0.27-.07,0.26-.08,0.1,0,0.07,0h0.07Zm-2.66-.57a0.49,0.49,0,0,0-.36.12,0.5,0.5,0,0,0-.13.37,0.42,0.42,0,0,0,.47.49h0.48Q182.19,132.6,181.84,132.6Z"/><path class="cls-2" d="M193.07,120.23a1.24,1.24,0,0,1,.59-0.87l0.6-.46a4.21,4.21,0,0,1,1.46-.95,2.65,2.65,0,0,1,1.18.61,2.88,2.88,0,0,0,1.12.61,2.78,2.78,0,0,0,1-.61,2.45,2.45,0,0,1,1.11-.61,3.15,3.15,0,0,1,1.28.7,4.1,4.1,0,0,0,1.1.71,0.41,0.41,0,0,0,.29-0.14q-0.32,1.27-1.11,1.27a2.25,2.25,0,0,1-1.09-.47,2.24,2.24,0,0,0-1-.47,1.89,1.89,0,0,0-1,.47,2,2,0,0,1-1.09.47,2.31,2.31,0,0,1-1.32-.47,2.12,2.12,0,0,0-1-.47,0.84,0.84,0,0,0-.59.19,0.6,0.6,0,0,0-.2.46q0,0.38,1.25.63l-1.4.6A1.17,1.17,0,0,1,193.07,120.23Zm2.25,10.42h-1.76V124.3a2.57,2.57,0,0,1,1-2.2,8.34,8.34,0,0,1,6.84,0,2.57,2.57,0,0,1,1,2.2v6.35h-1.76V124.3a1.77,1.77,0,0,0-.61-1.46,3.3,3.3,0,0,0-2-.49,3.25,3.25,0,0,0-2,.49,1.76,1.76,0,0,0-.62,1.46v6.35Z"/><path class="cls-2" d="M198.68,111.6V115a0.76,0.76,0,1,1-1.46,0V111.6h1.46Z"/><path class="cls-2" d="M206.25,122.53q0-.89-1.46-1.16a6.6,6.6,0,0,1,.8-2.29,1.83,1.83,0,0,1,1.07-1.13,1.86,1.86,0,0,1,.92.36l0.57,0.37a0.91,0.91,0,0,0,.46.16,0.61,0.61,0,0,0,.38-0.14,2.56,2.56,0,0,1-.3,1.19,0.89,0.89,0,0,1-.65.45h-0.1a2.19,2.19,0,0,1-1-.35,1.19,1.19,0,0,0-.54-0.18q-0.28,0-.4.76,2,0.5,2,1.17v4.66q1.46,0,1.46,1.72,0,2.51-1.46,2.51h-0.78a0.86,0.86,0,0,1-1-1v-7.16Zm1.76,7q0.49,0,.49-1.41,0-.74-0.49-0.74v2.15Z"/><path class="cls-2" d="M220.7,130.65h-1.46l-2.93-2.54-2.93,2.54h-1.46v-9.19a1.42,1.42,0,0,1-1-1.22,1.23,1.23,0,0,1,.63-1.06l0.64-.39a5,5,0,0,1,1.59-.83,3.41,3.41,0,0,1,1.61.65,6.17,6.17,0,0,0,2.74,1,1,1,0,0,0,.89-0.38,1.82,1.82,0,0,0,.28-1.1q0-.51-0.78-0.51a0.76,0.76,0,0,1-.78-0.93,0.63,0.63,0,0,1,.78-0.63,1.86,1.86,0,0,1,2.15,2.07,2.35,2.35,0,0,1-.78,1.8,2.53,2.53,0,0,1-1.76.73,7.57,7.57,0,0,1-3.54-.62,4.27,4.27,0,0,0-1.39-.61,1,1,0,0,0-.57.19,0.55,0.55,0,0,0-.26.44,2.5,2.5,0,0,0,1.27.83V129l2.64-2.2,2.64,2.29v-3.7H218.7a1.45,1.45,0,0,1-1.08-.43,1.58,1.58,0,0,1-.43-1.18,2.24,2.24,0,0,1,.49-1.4,1.53,1.53,0,0,1,1.27-.63,2.26,2.26,0,0,1,1.27.32,1.14,1.14,0,0,1,.49,1v7.52Zm-1.76-6.22v-1.3q0-.29-0.15-0.29a0.66,0.66,0,0,0-.39.3,1.05,1.05,0,0,0-.24.65,0.6,0.6,0,0,0,.18.49,0.57,0.57,0,0,0,.36.15h0.24Z"/><path class="cls-2" d="M224.61,122.53q0-.89-1.46-1.16a6.6,6.6,0,0,1,.8-2.29A1.83,1.83,0,0,1,225,118a1.86,1.86,0,0,1,.92.36l0.57,0.37a0.91,0.91,0,0,0,.46.16,0.61,0.61,0,0,0,.38-0.14,2.56,2.56,0,0,1-.3,1.19,0.89,0.89,0,0,1-.65.45h-0.1a2.19,2.19,0,0,1-1-.35,1.19,1.19,0,0,0-.54-0.18q-0.28,0-.4.76,2,0.5,2,1.17v7.91a1.42,1.42,0,0,0,.48-0.12,0.41,0.41,0,0,0,.3-0.37,0.42,0.42,0,0,1,.49.49,0.79,0.79,0,0,1-.43.73,1.7,1.7,0,0,1-.84.24V135q0,2-3.71,2-3.42,0-3.42-2v-0.49a1.46,1.46,0,1,1,0-2.93q1.46,0,1.46,1V135q0,1,2,1t2-1v-4.38h-1.46v-1h1.46v-7.14Zm-5.37,10.07a0.49,0.49,0,1,0,0,1v-1Z"/><path class="cls-2" d="M230.27,125.57a1.15,1.15,0,0,1-1-1,1.56,1.56,0,0,1,.39-1.1,1.4,1.4,0,0,1,1.07-.42q1.27,0,1.27.84V129l2.64-2.2,2.64,2.29V123a1.63,1.63,0,0,0-.27-1.15,3.79,3.79,0,0,0-.62-0.45,6,6,0,0,1-2.91.76,4,4,0,0,1-2.35-.59,2.28,2.28,0,0,1-.87-2,3.4,3.4,0,0,1,.24-1.26,3.43,3.43,0,0,0,.24-1.28,0.82,0.82,0,0,0-1-.86,0.81,0.81,0,0,1,1-.84,1.53,1.53,0,0,1,1.76,1.7,3.16,3.16,0,0,1-.24,1.33,2.86,2.86,0,0,0-.24,1.21,1.46,1.46,0,0,0,.39,1.16,1.61,1.61,0,0,0,1.07.33,7.23,7.23,0,0,0,2-.28,2,2,0,0,1-1-1.39q0-1.52,1.86-1.52t1.76,1.52a1.72,1.72,0,0,1-.66,1.26l0.42,0.18a2.12,2.12,0,0,1,1.22,2.12v7.62H237.6l-2.93-2.54-2.93,2.54h-1.46v-5.08Zm6.54-6.09a0.44,0.44,0,0,0-.49-0.51q-0.68,0-.68.51a1.41,1.41,0,0,0,.81.76A1.07,1.07,0,0,0,236.82,119.47Z"/><path class="cls-2" d="M252.25,127.69a2.6,2.6,0,0,1-1,2.23,5.2,5.2,0,0,1-3,.73,9.39,9.39,0,0,1-3-.37,1.23,1.23,0,0,1-1-1.11,0.9,0.9,0,0,1,.29-0.73,1.33,1.33,0,0,1,.87-0.24,1.32,1.32,0,0,0,.72,1.21,4.71,4.71,0,0,0,2.17.39,2.49,2.49,0,0,0,1.75-.53,2,2,0,0,0,.56-1.57v-8.2l-2.29,1.3L246,119.32l-1.34,1.09a0.43,0.43,0,0,0,.16.37,0.69,0.69,0,0,0,.46.13,0.72,0.72,0,0,0,.43-0.11,0.35,0.35,0,0,0,.15-0.31,0.51,0.51,0,0,1,.43.18,0.89,0.89,0,0,1,.15.56,0.63,0.63,0,0,1-.28.57,1.72,1.72,0,0,1-.87.18,3,3,0,0,1-1.8-.41,1.35,1.35,0,0,1-.53-1.14,4.39,4.39,0,0,1,1-1.22,9.86,9.86,0,0,1,1.69-1.24l2.56,1.78L251,118h1.24v9.73Z"/><path class="cls-2" d="M256.15,122.53q0-.89-1.46-1.16a6.58,6.58,0,0,1,.8-2.29,1.82,1.82,0,0,1,1.07-1.13,1.87,1.87,0,0,1,.92.36l0.57,0.37a0.9,0.9,0,0,0,.46.16,0.61,0.61,0,0,0,.38-0.14,2.57,2.57,0,0,1-.3,1.19,0.89,0.89,0,0,1-.65.45h-0.1a2.18,2.18,0,0,1-1-.35,1.19,1.19,0,0,0-.54-0.18q-0.28,0-.4.76,2,0.5,2,1.17v4.66q1.46,0,1.46,1.72,0,2.51-1.46,2.51h-0.78a0.85,0.85,0,0,1-1-1v-7.16Zm1.76,7q0.49,0,.49-1.41,0-.74-0.49-0.74v2.15Z"/><path class="cls-2" d="M270.61,121.3a1,1,0,0,1-.18.57,1.19,1.19,0,0,1-.49.42,2.27,2.27,0,0,1-.95.15,1.49,1.49,0,0,1-.65-0.15,1.19,1.19,0,0,1-.49-0.42,1,1,0,0,1,0-1.14,1.16,1.16,0,0,1,.49-0.42l0.26-.1a2,2,0,0,0-.61-0.82,2.92,2.92,0,0,0-1.8-.46,2.82,2.82,0,0,0-2,.61,2.43,2.43,0,0,0-.61,1.81v0.71a2.63,2.63,0,0,0,1,2.22,4.58,4.58,0,0,0,2.85.74q0-1.56,2-1.56a1.08,1.08,0,0,1,1.22,1.23,1.23,1.23,0,0,1-1.46,1.31v2.12a2.39,2.39,0,0,1-.73,1.9,3.28,3.28,0,0,1-2.2.63,3.84,3.84,0,0,1-2.41-.63,2.27,2.27,0,0,1-.81-1.9v-1.44h1.76v1.44a1.65,1.65,0,0,0,.37,1.17,1.42,1.42,0,0,0,1.09.39,1,1,0,0,0,.88-0.39,1.94,1.94,0,0,0,.29-1.17V126a7.21,7.21,0,0,1-4.17-1,3.38,3.38,0,0,1-1.4-2.95v-0.71a3.17,3.17,0,0,1,1-2.54,7.3,7.3,0,0,1,6.84,0,2.7,2.7,0,0,1,1,2.15v0.35ZM269.14,125c0.33,0,.49-0.11.49-0.33a0.2,0.2,0,0,0-.24-0.21C269.22,124.46,269.14,124.65,269.14,125Z"/><path class="cls-2" d="M274.51,117.56A2.14,2.14,0,0,0,274,116a2,2,0,0,0-1.49-.51h-1.13q-2.44,0-2.44-1.38a2.26,2.26,0,0,1,.2-0.81,2.63,2.63,0,0,0,.2-1q0-.5-0.92-0.5,0-.72,1.34-0.72a1.13,1.13,0,0,1,1.34,1.22,2.39,2.39,0,0,1-.2,1,1.81,1.81,0,0,0-.2.77q0,0.4.68,0.4h1.13a4.43,4.43,0,0,1,2.81.75,2.76,2.76,0,0,1,.94,2.28v17a2,2,0,0,1-.93,1.83,6.6,6.6,0,0,1-5.57,0,2,2,0,0,1-.93-1.83v-2.44h1.76v2.44a1.27,1.27,0,0,0,.49,1.09,3.08,3.08,0,0,0,2.93,0,1.27,1.27,0,0,0,.49-1.09v-17Z"/><path class="cls-2" d="M279.69,120.23a1.24,1.24,0,0,1,.59-0.87l0.6-.46a4.21,4.21,0,0,1,1.46-.95,2.66,2.66,0,0,1,1.18.61,2.87,2.87,0,0,0,1.12.61,2.8,2.8,0,0,0,1-.61,2.45,2.45,0,0,1,1.11-.61,3.15,3.15,0,0,1,1.28.7,4.1,4.1,0,0,0,1.1.71,0.41,0.41,0,0,0,.29-0.14q-0.32,1.27-1.11,1.27a2.25,2.25,0,0,1-1.09-.47,2.24,2.24,0,0,0-1-.47,1.89,1.89,0,0,0-1,.47,2,2,0,0,1-1.09.47,2.31,2.31,0,0,1-1.32-.47,2.12,2.12,0,0,0-1-.47,0.84,0.84,0,0,0-.59.19,0.6,0.6,0,0,0-.2.46q0,0.38,1.25.63l-1.4.6A1.17,1.17,0,0,1,279.69,120.23Zm2.25,6.19h0.44a1.74,1.74,0,0,1,1.28.42,1.7,1.7,0,0,1,.43,1.27,3.1,3.1,0,0,1-.49,1.9,1.73,1.73,0,0,1-1.46.63,2.68,2.68,0,0,1-1.46-.32,1,1,0,0,1-.49-0.95V124.3a2.57,2.57,0,0,1,1-2.2,8.34,8.34,0,0,1,6.84,0,2.57,2.57,0,0,1,1,2.2v6.35h-1.76V124.3a1.77,1.77,0,0,0-.61-1.46,3.3,3.3,0,0,0-2-.49,3.25,3.25,0,0,0-2,.49,1.76,1.76,0,0,0-.62,1.46v2.12Zm0.44,1h-0.44v2c0,0.13.11,0.2,0.34,0.2a0.73,0.73,0,0,0,.59-0.31,1.93,1.93,0,0,0,.24-1.15,0.71,0.71,0,0,0-.18-0.57A0.87,0.87,0,0,0,282.37,127.39Z"/></svg>