<svg id="Layer_1" data-name="Layer 1" xmlns="http://www.w3.org/2000/svg" viewBox="0 0 400 200"><defs><style>.cls-1{fill:#4e77bb;stroke:#3e66b0;stroke-miterlimit:10;}.cls-2{fill:#fff;}</style></defs><title>API Button</title><rect class="cls-1" x="33.5" y="34.5" width="333" height="131" rx="3" ry="3"/><path class="cls-2" d="M209.7,90.84Q205.5,95,198.48,95V93.19a10.91,10.91,0,0,0,8.1-3.79q3.59-3.79,3.59-10.42,0-4.86-2.42-6.75a10,10,0,0,0-6.23-1.87,8,8,0,0,0-5.58,1.78,6.5,6.5,0,0,0-2,5,7.22,7.22,0,0,0,1.18,4.37,4,4,0,0,0,3.39,1.6,2.26,2.26,0,0,0,2-.92,3.52,3.52,0,0,0,.66-2.09V80a3.68,3.68,0,0,1-.88.12,1.65,1.65,0,0,1-1.6-.92,2.55,2.55,0,0,1-.31-1.13q0-1.27,1.89-2a4.64,4.64,0,0,1,1.6-.33A2.34,2.34,0,0,1,204,77.08a5.43,5.43,0,0,1,.68,2.48,8,8,0,0,1-.39,2.14A4.72,4.72,0,0,1,202.87,84,5.21,5.21,0,0,1,200,85.11a9.88,9.88,0,0,1-1.48.1,14.37,14.37,0,0,1-2.88-.33,7.3,7.3,0,0,1-3.48-2.26,7.4,7.4,0,0,1-1.91-5.43,7.88,7.88,0,0,1,3-6.44q3-2.44,8.22-2.44a14.77,14.77,0,0,1,8.88,2.52q3.47,2.54,3.47,8.14Q213.86,86.71,209.7,90.84Z"/><path class="cls-2" d="M92.24,120.88a2.57,2.57,0,0,1,1-2.2,5.8,5.8,0,0,1,3.37-.73,5.8,5.8,0,0,1,3.37.73,2.57,2.57,0,0,1,1,2.2v6.84a1.76,1.76,0,0,0,.62,1.46,2.69,2.69,0,0,0,1.73.49,2.73,2.73,0,0,0,1.74-.49,1.77,1.77,0,0,0,.61-1.46v-5.19a1.27,1.27,0,0,0-1.27-1.16,6.76,6.76,0,0,1,.76-2.29,1.09,1.09,0,0,1,1.9-.77l0.54,0.37a0.84,0.84,0,0,0,.44.16,0.55,0.55,0,0,0,.36-0.14,2.71,2.71,0,0,1-.29,1.19,0.84,0.84,0,0,1-.62.45h-0.1a2,2,0,0,1-1-.35,1.13,1.13,0,0,0-.52-0.18q-0.26,0-.38.76,1.88,0.5,1.88,1.17v6a2.57,2.57,0,0,1-1,2.2,7,7,0,0,1-6.25,0,2.57,2.57,0,0,1-1-2.2v-6.84a1.77,1.77,0,0,0-.61-1.46,3.2,3.2,0,0,0-2-.49,3.15,3.15,0,0,0-2,.49,1.76,1.76,0,0,0-.62,1.46v4.88a2.47,2.47,0,0,1,1.61.45,1.63,1.63,0,0,1,.54,1.34,3.76,3.76,0,0,1-.61,2.25,2.12,2.12,0,0,1-1.84.85q-1.46,0-1.46-.85v-8.92ZM94,126.74v2.64a1,1,0,0,0,.88-0.46,2.57,2.57,0,0,0,.29-1.37,0.68,0.68,0,0,0-.29-0.61A1.54,1.54,0,0,0,94,126.74Z"/><path class="cls-2" d="M98.73,113.56q0-2,3.13-2a5.53,5.53,0,0,1,3.66,1.46l1.71,1.46v1h-6.05Q98.73,115.51,98.73,113.56Zm2.44,0.68h4a4.35,4.35,0,0,0-3.32-1.46q-2,0-2,.78T101.17,114.24Z"/><path class="cls-2" d="M111.28,125.52l4.28-1.63q2.75-1,2.75-2.55a2.43,2.43,0,0,0-.61-1.81,2.82,2.82,0,0,0-2-.61,2.92,2.92,0,0,0-1.8.46,2.24,2.24,0,0,0-.77,1.38,1.56,1.56,0,0,1,.43.13,1.16,1.16,0,0,1,.49.42,1,1,0,0,1,0,1.14,1.18,1.18,0,0,1-.49.42,1.49,1.49,0,0,1-.65.15,2.27,2.27,0,0,1-.95-0.15,1.18,1.18,0,0,1-.49-0.42,1,1,0,0,1-.18-0.57v-0.55a3.17,3.17,0,0,1,1-2.54,7.3,7.3,0,0,1,6.84,0,3.17,3.17,0,0,1,1,2.54q0,2.15-4,3.62L113,126.19v1.06a2.43,2.43,0,0,0,.62,1.81,2.79,2.79,0,0,0,2,.61,2.82,2.82,0,0,0,2-.61,2.45,2.45,0,0,0,.61-1.81v-1.69h1.76v1.69a3.18,3.18,0,0,1-1,2.54,7.3,7.3,0,0,1-6.84,0,3.18,3.18,0,0,1-1-2.54v-1.74Z"/><path class="cls-2" d="M111.43,113.56q0-2,3.13-2a5.53,5.53,0,0,1,3.66,1.46l1.71,1.46v1h-6.05Q111.43,115.51,111.43,113.56Zm2.44,0.68h4a4.35,4.35,0,0,0-3.32-1.46q-2,0-2,.78T113.87,114.24Z"/><path class="cls-2" d="M123.49,120.23a1.24,1.24,0,0,1,.59-0.87l0.6-.46a4.23,4.23,0,0,1,1.46-.95,2.66,2.66,0,0,1,1.18.61,2.86,2.86,0,0,0,1.12.61,2.77,2.77,0,0,0,1-.61,2.45,2.45,0,0,1,1.11-.61,3.16,3.16,0,0,1,1.28.7,4.09,4.09,0,0,0,1.1.71,0.41,0.41,0,0,0,.29-0.14q-0.32,1.27-1.11,1.27A2.25,2.25,0,0,1,131,120a2.24,2.24,0,0,0-1-.47,1.89,1.89,0,0,0-1,.47,2,2,0,0,1-1.09.47,2.31,2.31,0,0,1-1.32-.47,2.12,2.12,0,0,0-1-.47,0.84,0.84,0,0,0-.59.19,0.6,0.6,0,0,0-.2.46q0,0.38,1.25.63l-1.4.6A1.17,1.17,0,0,1,123.49,120.23Zm2.25,6.19h0.44a1.74,1.74,0,0,1,1.28.42,1.7,1.7,0,0,1,.43,1.27,3.1,3.1,0,0,1-.49,1.9,1.73,1.73,0,0,1-1.46.63,2.69,2.69,0,0,1-1.46-.32,1,1,0,0,1-.49-0.95V124.3a2.57,2.57,0,0,1,1-2.2,8.34,8.34,0,0,1,6.84,0,2.57,2.57,0,0,1,1,2.2v6.35H131V124.3a1.77,1.77,0,0,0-.61-1.46,3.3,3.3,0,0,0-2-.49,3.25,3.25,0,0,0-2,.49,1.76,1.76,0,0,0-.62,1.46v2.12Zm0.44,1h-0.44v2c0,0.13.11,0.2,0.34,0.2a0.72,0.72,0,0,0,.59-0.31,1.93,1.93,0,0,0,.24-1.15,0.71,0.71,0,0,0-.18-0.57A0.87,0.87,0,0,0,126.17,127.39Z"/><path class="cls-2" d="M143.7,122.53a1.27,1.27,0,0,0-1.27-1.16,6.76,6.76,0,0,1,.76-2.29,1.09,1.09,0,0,1,1.9-.77l0.54,0.37a0.84,0.84,0,0,0,.44.16,0.55,0.55,0,0,0,.36-0.14,2.71,2.71,0,0,1-.29,1.19,0.84,0.84,0,0,1-.62.45h-0.1a2,2,0,0,1-1-.35,1.13,1.13,0,0,0-.52-0.18q-0.26,0-.38.76,1.88,0.5,1.88,1.17v6a2.57,2.57,0,0,1-1,2.2,8.34,8.34,0,0,1-6.84,0,2.57,2.57,0,0,1-1-2.2v-5.19a1.27,1.27,0,0,0-1.27-1.16,6.24,6.24,0,0,1,.81-2.29,1.89,1.89,0,0,1,1.07-1.13,1.77,1.77,0,0,1,.88.36l0.54,0.37a1,1,0,0,0,.57.16,1.9,1.9,0,0,0,.36,0,2.54,2.54,0,0,1-.36,1,1,1,0,0,1-.67.51h-0.1a2,2,0,0,1-1-.35,1.13,1.13,0,0,0-.52-0.18q-0.26,0-.38.76,1.79,0.5,1.79,1.17v6a1.76,1.76,0,0,0,.62,1.46,3.25,3.25,0,0,0,2,.49,3.3,3.3,0,0,0,2-.49,1.77,1.77,0,0,0,.61-1.46v-5.19Z"/><path class="cls-2" d="M164.42,120.28a2.33,2.33,0,0,1,.08.61v9.77h-1.76v-9.77a1.77,1.77,0,0,0-.66-1.37,2.55,2.55,0,0,0-3.25,0,1.76,1.76,0,0,0-.67,1.37v9.77H156.4v-9.77q0-1.54-.78-1.54a1.76,1.76,0,0,0-1.33,1,0.58,0.58,0,0,1-1.05,0,1.74,1.74,0,0,0-1.32-1q-0.79,0-.79,1.54v4.88a2.47,2.47,0,0,1,1.61.45,1.63,1.63,0,0,1,.54,1.34,3.76,3.76,0,0,1-.61,2.25,2.12,2.12,0,0,1-1.84.85q-1.46,0-1.46-.85v-8.92a3.1,3.1,0,0,1,.73-2.06,2.14,2.14,0,0,1,1.66-.87,2.89,2.89,0,0,1,2,1.31,2.92,2.92,0,0,1,2-1.31,2.13,2.13,0,0,1,1.65.87l0,0h0l0,0a5.39,5.39,0,0,1,5.87,0,4.89,4.89,0,0,1,.46.42l1.24-.74a3.41,3.41,0,0,1,1.79-.55,4.44,4.44,0,0,1,2.52,1.1,2.94,2.94,0,0,1,1.46,2v9.55h-1.76V121.1a1.8,1.8,0,0,0-.9-1,3,3,0,0,0-1.71-.64A5.18,5.18,0,0,0,164.42,120.28Zm-13.3,9.1a1,1,0,0,0,.88-0.46,2.57,2.57,0,0,0,.29-1.37,0.68,0.68,0,0,0-.29-0.61,1.54,1.54,0,0,0-.88-0.21v2.64Z"/><path class="cls-2" d="M165.69,133.17q0.24,0,.24.32a0.66,0.66,0,0,1-.49.63l-0.22.08-0.24.08v0.08a3.62,3.62,0,0,1-.5,1.74,1.58,1.58,0,0,1-1.47.9,2.29,2.29,0,0,1-1-.25,4.3,4.3,0,0,1-1-.78l-0.36-.34-0.38.34a5.39,5.39,0,0,1-1.07.78,2.11,2.11,0,0,1-1,.25,1.57,1.57,0,0,1-1.46-.91,3.68,3.68,0,0,1-.49-1.74,3.51,3.51,0,0,1,.49-2,1.68,1.68,0,0,1,1.46-.68,0.49,0.49,0,0,1,0,1,0.46,0.46,0,0,0-.36.44,5,5,0,0,0-.13,1.31,5.87,5.87,0,0,0,.13,1c0.08,0.44.2,0.66,0.36,0.66a1.39,1.39,0,0,0,.62-0.2,4.45,4.45,0,0,0,.84-0.63l1-.91,1,0.91A2.82,2.82,0,0,0,163,136q0.23,0,.36-0.62a6.77,6.77,0,0,0,.13-0.87H163a1.47,1.47,0,1,1,0-2.93,1.75,1.75,0,0,1,1.25.44,2.29,2.29,0,0,1,.63,1.31l0.27-.07,0.26-.08,0.1,0,0.07,0h0.07ZM163,132.6a0.49,0.49,0,0,0-.36.12,0.5,0.5,0,0,0-.13.37,0.42,0.42,0,0,0,.47.49h0.48Q163.39,132.6,163,132.6Z"/><path class="cls-2" d="M174.27,120.23a1.24,1.24,0,0,1,.59-0.87l0.6-.46a4.23,4.23,0,0,1,1.46-.95,2.66,2.66,0,0,1,1.18.61,2.86,2.86,0,0,0,1.12.61,2.77,2.77,0,0,0,1-.61,2.45,2.45,0,0,1,1.11-.61,3.16,3.16,0,0,1,1.28.7,4.09,4.09,0,0,0,1.1.71,0.41,0.41,0,0,0,.29-0.14q-0.32,1.27-1.11,1.27a2.25,2.25,0,0,1-1.09-.47,2.24,2.24,0,0,0-1-.47,1.89,1.89,0,0,0-1,.47,2,2,0,0,1-1.09.47,2.31,2.31,0,0,1-1.32-.47,2.12,2.12,0,0,0-1-.47,0.84,0.84,0,0,0-.59.19,0.6,0.6,0,0,0-.2.46q0,0.38,1.25.63l-1.4.6A1.17,1.17,0,0,1,174.27,120.23Zm2.25,10.42h-1.76V124.3a2.57,2.57,0,0,1,1-2.2,8.34,8.34,0,0,1,6.84,0,2.57,2.57,0,0,1,1,2.2v6.35h-1.76V124.3a1.77,1.77,0,0,0-.61-1.46,3.3,3.3,0,0,0-2-.49,3.25,3.25,0,0,0-2,.49,1.76,1.76,0,0,0-.62,1.46v6.35Z"/><path class="cls-2" d="M179.88,111.6V115a0.76,0.76,0,1,1-1.46,0V111.6h1.46Z"/><path class="cls-2" d="M187.45,122.53q0-.89-1.46-1.16a6.59,6.59,0,0,1,.8-2.29,1.83,1.83,0,0,1,1.07-1.13,1.88,1.88,0,0,1,.92.36l0.57,0.37a0.9,0.9,0,0,0,.46.16,0.6,0.6,0,0,0,.38-0.14,2.56,2.56,0,0,1-.3,1.19,0.89,0.89,0,0,1-.65.45h-0.1a2.18,2.18,0,0,1-1-.35,1.19,1.19,0,0,0-.54-0.18q-0.28,0-.4.76,2,0.5,2,1.17v4.66q1.46,0,1.46,1.72,0,2.51-1.46,2.51h-0.78a0.85,0.85,0,0,1-1-1v-7.16Zm1.76,7q0.49,0,.49-1.41,0-.74-0.49-0.74v2.15Z"/><path class="cls-2" d="M193.12,120.88a2.57,2.57,0,0,1,1-2.2,8.12,8.12,0,0,1,6.74,0,2.57,2.57,0,0,1,1,2.2v6.84a1.76,1.76,0,0,0,.62,1.46,2.69,2.69,0,0,0,1.73.49,2.73,2.73,0,0,0,1.74-.49,1.77,1.77,0,0,0,.61-1.46v-5.19a1.27,1.27,0,0,0-1.27-1.16,6.74,6.74,0,0,1,.76-2.29,1.09,1.09,0,0,1,1.9-.77l0.54,0.37a0.84,0.84,0,0,0,.44.16,0.56,0.56,0,0,0,.36-0.14,2.72,2.72,0,0,1-.29,1.19,0.84,0.84,0,0,1-.62.45h-0.1a2,2,0,0,1-1-.35,1.13,1.13,0,0,0-.52-0.18q-0.26,0-.38.76,1.88,0.5,1.88,1.17v6a2.57,2.57,0,0,1-1,2.2,7,7,0,0,1-6.25,0,2.57,2.57,0,0,1-1-2.2v-6.84a1.77,1.77,0,0,0-.61-1.46,3.2,3.2,0,0,0-2-.49,3.15,3.15,0,0,0-2,.49,1.76,1.76,0,0,0-.62,1.46v4.88a2.47,2.47,0,0,1,1.61.45,1.63,1.63,0,0,1,.54,1.34,3.76,3.76,0,0,1-.61,2.25,2.12,2.12,0,0,1-1.84.85q-1.46,0-1.46-.85v-8.92Zm1.76,5.86v2.64a1,1,0,0,0,.88-0.46,2.57,2.57,0,0,0,.29-1.37,0.68,0.68,0,0,0-.29-0.61A1.54,1.54,0,0,0,194.87,126.74Z"/><path class="cls-2" d="M206.84,113.45V111.6h1.27v3.91h-6.05q-2.44,0-2.44-2t3.13-2a5.54,5.54,0,0,1,3.66,1.46Zm-4.79.79h4a4.35,4.35,0,0,0-3.32-1.46q-2,0-2,.78T202.05,114.24Z"/><path class="cls-2" d="M212.87,121.79a1.81,1.81,0,0,1-1.2-1.36q0-.65,1.71-1.57a7.52,7.52,0,0,1,2.1-.91,5.15,5.15,0,0,1,1.51.46l1.7,0.71a1.89,1.89,0,0,0,.74.13,1.91,1.91,0,0,0,.85-0.2l0.57-.29a4.91,4.91,0,0,1,1.81-.81,4.64,4.64,0,0,1,1.51.43q3.11,1.3,3.12,2.91v9.36h-1.76v-8.77a1.93,1.93,0,0,0-1.44-1.69,6.12,6.12,0,0,0-2.13-.62,3.63,3.63,0,0,0-1.7.62,3.72,3.72,0,0,1-1.51.61,3.29,3.29,0,0,1-1.22-.32l-1.3-.54a3.58,3.58,0,0,0-1.52-.36,2.1,2.1,0,0,0-1,.27,0.88,0.88,0,0,0-.48.82,1,1,0,0,0,.74.63Zm1,8.86h-1.76V124.3a2.57,2.57,0,0,1,1-2.2,8.34,8.34,0,0,1,6.84,0,2.57,2.57,0,0,1,1,2.2v6.35h-1.76V124.3a1.77,1.77,0,0,0-.61-1.46,3.3,3.3,0,0,0-2-.49,3.25,3.25,0,0,0-2,.49,1.76,1.76,0,0,0-.62,1.46v6.35Z"/><path class="cls-2" d="M233,129.69a0.85,0.85,0,0,1-1,1H231.2q-1.46,0-1.46-2.61a1.37,1.37,0,0,1,1.46-1.62v-3.89q0-.89-1.46-1.16a6.57,6.57,0,0,1,.8-2.29,1.82,1.82,0,0,1,1.07-1.13,1.88,1.88,0,0,1,.92.36l0.57,0.37a0.9,0.9,0,0,0,.46.16,0.6,0.6,0,0,0,.38-0.14,2.58,2.58,0,0,1-.3,1.19,0.89,0.89,0,0,1-.65.45h-0.1a2.18,2.18,0,0,1-1-.35,1.19,1.19,0,0,0-.54-0.18c-0.19,0-.32.25-0.4,0.76q2,0.5,2,1.17v7.93Zm-1.76-2.29c-0.33,0-.49.21-0.49,0.64q0,1.5.49,1.5v-2.15Z"/><path class="cls-2" d="M244.25,120.83l0.19,0.08a2.12,2.12,0,0,1,1.22,2.12v7.62h-1.46l-2.93-2.54-2.93,2.54h-1.46v-5.08a1.15,1.15,0,0,1-1-1,1.55,1.55,0,0,1,.39-1.1,1.4,1.4,0,0,1,1.07-.42q1.27,0,1.27.84V129l2.64-2.2,2.64,2.29V123a1.63,1.63,0,0,0-.27-1.15,3.89,3.89,0,0,0-.62-0.45,6,6,0,0,1-2.91.76,4,4,0,0,1-2.35-.59,2.27,2.27,0,0,1-.87-2,3.38,3.38,0,0,1,.24-1.26,3.45,3.45,0,0,0,.24-1.28,0.82,0.82,0,0,0-1-.86,0.81,0.81,0,0,1,1-.84,1.53,1.53,0,0,1,1.76,1.7,3.18,3.18,0,0,1-.24,1.33,2.85,2.85,0,0,0-.24,1.21,1.46,1.46,0,0,0,.39,1.16,1.61,1.61,0,0,0,1.07.33,7.2,7.2,0,0,0,2-.28,2,2,0,0,1-1-1.39q0-1.52,1.86-1.52t1.76,1.51l1.56-1A3.41,3.41,0,0,1,248,118a4.44,4.44,0,0,1,2.52,1.1,3,3,0,0,1,1.46,2v9.55h-1.76V121.1a1.8,1.8,0,0,0-.9-1,3,3,0,0,0-1.71-.64A12.14,12.14,0,0,0,244.25,120.83Zm-0.84-1.36a0.44,0.44,0,0,0-.49-0.51q-0.68,0-.68.51a1.4,1.4,0,0,0,.81.76A1.07,1.07,0,0,0,243.41,119.47Z"/><path class="cls-2" d="M257.67,129.69a0.85,0.85,0,0,1-1,1h-0.78q-1.46,0-1.46-2.61a1.37,1.37,0,0,1,1.46-1.62v-3.89q0-.89-1.46-1.16a6.59,6.59,0,0,1,.8-2.29,1.82,1.82,0,0,1,1.07-1.13,1.88,1.88,0,0,1,.92.36l0.57,0.37a0.9,0.9,0,0,0,.46.16,0.6,0.6,0,0,0,.38-0.14,2.56,2.56,0,0,1-.3,1.19,0.89,0.89,0,0,1-.65.45h-0.1a2.18,2.18,0,0,1-1-.35,1.19,1.19,0,0,0-.54-0.18q-0.28,0-.4.76,2,0.5,2,1.17v7.93Zm-1.76-2.29q-0.49,0-.49.64,0,1.5.49,1.5v-2.15Z"/><path class="cls-2" d="M261.57,125.52l4.28-1.63q2.75-1,2.75-2.55a2.43,2.43,0,0,0-.61-1.81,2.82,2.82,0,0,0-2-.61,2.92,2.92,0,0,0-1.8.46,2.24,2.24,0,0,0-.77,1.38,1.56,1.56,0,0,1,.43.13,1.16,1.16,0,0,1,.49.42,1,1,0,0,1,0,1.14,1.18,1.18,0,0,1-.49.42,1.49,1.49,0,0,1-.65.15,2.27,2.27,0,0,1-.95-0.15,1.18,1.18,0,0,1-.49-0.42,1,1,0,0,1-.18-0.57v-0.55a3.17,3.17,0,0,1,1-2.54,7.3,7.3,0,0,1,6.84,0,3.17,3.17,0,0,1,1,2.54q0,2.15-4,3.62l-3.08,1.23v1.06a2.43,2.43,0,0,0,.62,1.81,2.79,2.79,0,0,0,2,.61,2.82,2.82,0,0,0,2-.61,2.45,2.45,0,0,0,.61-1.81v-1.69h1.76v1.69a3.18,3.18,0,0,1-1,2.54,7.3,7.3,0,0,1-6.84,0,3.18,3.18,0,0,1-1-2.54v-1.74Z"/><path class="cls-2" d="M265.58,131.62c0.34,0,.51.12,0.51,0.36a1.06,1.06,0,0,1-.11.41l-0.4.93a4,4,0,0,1-1,1.07q-0.66.47-1.2,0.79a0.67,0.67,0,0,0,.36.63,2.34,2.34,0,0,0,1.1.21,2.6,2.6,0,0,0,1.16-.28,4.55,4.55,0,0,0,1.16-.84l0.49-.48a1.16,1.16,0,0,1-.86-1.13,1.31,1.31,0,0,1,.36-1,1.57,1.57,0,0,1,1.1-.34,1.22,1.22,0,0,1,.95.34,1.41,1.41,0,0,1,.32,1,1,1,0,0,1-.16.45h0.35a2.8,2.8,0,0,0,1-.36,1.3,1.3,0,0,1-1,1.27h-0.95l-0.28.35-0.32.39a4.72,4.72,0,0,1-1.51,1.22,4,4,0,0,1-1.81.41,4.28,4.28,0,0,1-2.2-.45,1.49,1.49,0,0,1-.73-1.36q0-.93.49-1a4.53,4.53,0,0,0,1.26-.49,1.78,1.78,0,0,0,.84-0.92l0.28-.7A0.72,0.72,0,0,1,265.58,131.62Zm2.93,1.66a0.47,0.47,0,0,0,.06-0.21c0-.14-0.12-0.21-0.35-0.21a0.4,0.4,0,0,0-.49.42c0,0.18.18,0.31,0.54,0.37A1.71,1.71,0,0,0,268.51,133.28Z"/><path class="cls-2" d="M268.95,113.45V111.6h1.27v3.91h-6.05q-2.44,0-2.44-2t3.13-2a5.54,5.54,0,0,1,3.66,1.46Zm-4.79.79h4a4.35,4.35,0,0,0-3.32-1.46q-2,0-2,.78T264.16,114.24Z"/><path class="cls-2" d="M274.27,122.53q0-.89-1.46-1.16a6.59,6.59,0,0,1,.8-2.29,1.82,1.82,0,0,1,1.07-1.13,1.88,1.88,0,0,1,.92.36l0.57,0.37a0.9,0.9,0,0,0,.46.16,0.6,0.6,0,0,0,.38-0.14,2.56,2.56,0,0,1-.3,1.19,0.89,0.89,0,0,1-.65.45h-0.1a2.18,2.18,0,0,1-1-.35,1.19,1.19,0,0,0-.54-0.18q-0.28,0-.4.76,2,0.5,2,1.17v12.79a1.18,1.18,0,0,0,.71,1.1,3.1,3.1,0,0,0,1.44.37,2.45,2.45,0,0,0,1.41-.37,1.22,1.22,0,0,0,.55-1.09v-2.93h1.46v2.93a2,2,0,0,1-.92,1.83,4.44,4.44,0,0,1-2.5.62,5.85,5.85,0,0,1-2.74-.61,2,2,0,0,1-1.16-1.84v-12Z"/><path class="cls-2" d="M287,127.23v-5.47h1.76v9.38H287v-1.66l0,0a4.16,4.16,0,0,1-3.08,1.12,4.86,4.86,0,0,1-2.93-.73,2.57,2.57,0,0,1-1-2.2v-6.05a1.26,1.26,0,0,1-1-1.24,1.33,1.33,0,0,1,.91-1.06l0.92-.46a7.4,7.4,0,0,1,2.34-.95,5,5,0,0,1,1.65.46l1.7,0.71a2.07,2.07,0,0,0,1.59-.07l0.57-.29a4.92,4.92,0,0,1,1.81-.81,4.63,4.63,0,0,1,1.51.43q3.12,1.3,3.12,2.91v9.36h-1.76v-8.77a1.93,1.93,0,0,0-1.44-1.69,6.12,6.12,0,0,0-2.13-.62,3.63,3.63,0,0,0-1.7.62,3.72,3.72,0,0,1-1.51.61,3.29,3.29,0,0,1-1.22-.32l-1.3-.54a3.66,3.66,0,0,0-1.56-.36,5.21,5.21,0,0,0-1.44.19,0.71,0.71,0,0,0-.64.65q0,0.38,1.32.72v6.59a1.76,1.76,0,0,0,.62,1.46,2.36,2.36,0,0,0,1.53.49,3.19,3.19,0,0,0,2.13-.88A2.35,2.35,0,0,0,287,127.23Z"/><path class="cls-2" d="M298.49,120.23a1.24,1.24,0,0,1,.59-0.87l0.6-.46a4.23,4.23,0,0,1,1.46-.95,2.66,2.66,0,0,1,1.18.61,2.86,2.86,0,0,0,1.12.61,2.78,2.78,0,0,0,1-.61,2.45,2.45,0,0,1,1.11-.61,3.15,3.15,0,0,1,1.28.7,4.1,4.1,0,0,0,1.1.71,0.41,0.41,0,0,0,.29-0.14q-0.32,1.27-1.11,1.27A2.25,2.25,0,0,1,306,120a2.24,2.24,0,0,0-1-.47,1.89,1.89,0,0,0-1,.47,2,2,0,0,1-1.09.47,2.31,2.31,0,0,1-1.32-.47,2.12,2.12,0,0,0-1-.47,0.84,0.84,0,0,0-.59.19,0.6,0.6,0,0,0-.2.46q0,0.38,1.25.63l-1.4.6A1.17,1.17,0,0,1,298.49,120.23Zm2.25,10.42H299V124.3a2.57,2.57,0,0,1,1-2.2,8.34,8.34,0,0,1,6.84,0,2.57,2.57,0,0,1,1,2.2v6.35H306V124.3a1.77,1.77,0,0,0-.61-1.46,3.3,3.3,0,0,0-2-.49,3.25,3.25,0,0,0-2,.49,1.76,1.76,0,0,0-.62,1.46v6.35Z"/><path class="cls-2" d="M304.1,111.6V115a0.76,0.76,0,1,1-1.46,0V111.6h1.46Z"/></svg>