<svg id="Layer_1" data-name="Layer 1" xmlns="http://www.w3.org/2000/svg" viewBox="0 0 400 200"><defs><style>.cls-1{fill:#4e77bb;stroke:#3e66b0;stroke-miterlimit:10;}.cls-2{fill:#fff;}</style></defs><title>API Button</title><rect class="cls-1" x="33.5" y="34.5" width="333" height="131" rx="3" ry="3"/><path class="cls-2" d="M209.7,90.84Q205.5,95,198.48,95V93.19a10.91,10.91,0,0,0,8.1-3.79q3.59-3.79,3.59-10.42,0-4.86-2.42-6.75a10,10,0,0,0-6.23-1.87,8,8,0,0,0-5.58,1.78,6.5,6.5,0,0,0-2,5,7.21,7.21,0,0,0,1.18,4.37,4,4,0,0,0,3.39,1.6,2.26,2.26,0,0,0,2-.92,3.52,3.52,0,0,0,.66-2.09V80a3.68,3.68,0,0,1-.88.12,1.65,1.65,0,0,1-1.6-.92,2.55,2.55,0,0,1-.31-1.13q0-1.27,1.89-2a4.64,4.64,0,0,1,1.6-.33A2.34,2.34,0,0,1,204,77.08a5.43,5.43,0,0,1,.68,2.48,8,8,0,0,1-.39,2.14A4.72,4.72,0,0,1,202.87,84,5.21,5.21,0,0,1,200,85.11a9.88,9.88,0,0,1-1.48.1,14.38,14.38,0,0,1-2.88-.33,7.3,7.3,0,0,1-3.48-2.26,7.4,7.4,0,0,1-1.91-5.43,7.88,7.88,0,0,1,3-6.44q3-2.44,8.22-2.44a14.77,14.77,0,0,1,8.88,2.52q3.47,2.54,3.47,8.14Q213.86,86.71,209.7,90.84Z"/><path class="cls-2" d="M143.8,121.37H144a5.79,5.79,0,0,1,3.37.73,2.57,2.57,0,0,1,1,2.2v3.42a1.76,1.76,0,0,0,.62,1.46,2.7,2.7,0,0,0,1.73.49,2.74,2.74,0,0,0,1.74-.49,1.77,1.77,0,0,0,.61-1.46v-5.19a1.27,1.27,0,0,0-1.27-1.16,6.73,6.73,0,0,1,.76-2.29,1.09,1.09,0,0,1,1.9-.77l0.54,0.37a0.84,0.84,0,0,0,.44.16,0.56,0.56,0,0,0,.36-0.14,2.73,2.73,0,0,1-.29,1.19,0.84,0.84,0,0,1-.62.45h-0.1a2,2,0,0,1-1-.35,1.13,1.13,0,0,0-.52-0.18q-0.26,0-.38.76,1.88,0.5,1.88,1.17v6a2.57,2.57,0,0,1-1,2.2,7,7,0,0,1-6.25,0,2.57,2.57,0,0,1-1-2.2V124.3a1.77,1.77,0,0,0-.61-1.46,3.2,3.2,0,0,0-2-.49,3.15,3.15,0,0,0-2,.49,1.76,1.76,0,0,0-.62,1.46v2.12h0.44a1.74,1.74,0,0,1,1.28.42,1.7,1.7,0,0,1,.43,1.27,3.1,3.1,0,0,1-.49,1.9,1.74,1.74,0,0,1-1.46.63,2.69,2.69,0,0,1-1.46-.32,1,1,0,0,1-.49-0.95V124.3a2.57,2.57,0,0,1,1-2.2,3.07,3.07,0,0,1,1-.47,2.69,2.69,0,0,0-1.2-.75,5.77,5.77,0,0,1,1.39-2.06,2.41,2.41,0,0,1,1.4-.87h0.11a3.77,3.77,0,0,1,1.17.55,4.22,4.22,0,0,0,1,.52h0.15A1,1,0,0,0,146,119a3,3,0,0,1-.54,1.14,1,1,0,0,1-.77.39,2,2,0,0,1-1.05-.42,1.93,1.93,0,0,0-1-.42,1.09,1.09,0,0,0-.73.72A7.88,7.88,0,0,1,143.8,121.37Zm-2,6h-0.44v2c0,0.13.11,0.2,0.34,0.2a0.72,0.72,0,0,0,.59-0.31,1.94,1.94,0,0,0,.24-1.15,0.71,0.71,0,0,0-.18-0.57A0.86,0.86,0,0,0,141.85,127.39Z"/><path class="cls-2" d="M150.39,111.6a2.26,2.26,0,0,1,1.08.28,2,2,0,0,1,.82.81,2.22,2.22,0,0,1,0,2.2,2,2,0,0,1-.81.82,2.22,2.22,0,0,1-2.19,0,2,2,0,0,1-.82-0.82,2.19,2.19,0,0,1,0-2.2,2,2,0,0,1,.82-0.81A2.23,2.23,0,0,1,150.39,111.6ZM149.91,113a0.91,0.91,0,0,0-.37.36,1,1,0,0,0,0,1,0.91,0.91,0,0,0,.37.36,1,1,0,0,0,.48.13,1,1,0,0,0,.49-0.13,0.88,0.88,0,0,0,.36-0.36,1,1,0,0,0,.13-0.49,1,1,0,0,0-.13-0.49,0.91,0.91,0,0,0-.36-0.36,1,1,0,0,0-.48-0.13A1,1,0,0,0,149.91,113Z"/><path class="cls-2" d="M165.72,122.53a1.27,1.27,0,0,0-1.27-1.16,6.73,6.73,0,0,1,.76-2.29,1.09,1.09,0,0,1,1.9-.77l0.54,0.37a0.84,0.84,0,0,0,.44.16,0.56,0.56,0,0,0,.36-0.14,2.73,2.73,0,0,1-.29,1.19,0.84,0.84,0,0,1-.62.45h-0.1a2,2,0,0,1-1-.35,1.13,1.13,0,0,0-.52-0.18q-0.26,0-.38.76,1.88,0.5,1.88,1.17v6a2.57,2.57,0,0,1-1,2.2,8.34,8.34,0,0,1-6.84,0,2.57,2.57,0,0,1-1-2.2v-5.19a1.27,1.27,0,0,0-1.27-1.16,6.23,6.23,0,0,1,.81-2.29,1.89,1.89,0,0,1,1.07-1.13,1.77,1.77,0,0,1,.88.36l0.54,0.37a1,1,0,0,0,.57.16,1.9,1.9,0,0,0,.36,0,2.55,2.55,0,0,1-.36,1,1,1,0,0,1-.67.51h-0.1a2,2,0,0,1-1-.35,1.13,1.13,0,0,0-.52-0.18q-0.26,0-.38.76,1.79,0.5,1.79,1.17v6a1.76,1.76,0,0,0,.62,1.46,3.26,3.26,0,0,0,2,.49,3.3,3.3,0,0,0,2-.49,1.77,1.77,0,0,0,.61-1.46v-5.19Z"/><path class="cls-2" d="M167,132.6V137h-1.46v-3.42a0.79,0.79,0,0,1-.78-1,1,1,0,0,1,1.17-1A0.91,0.91,0,0,1,167,132.6Z"/><path class="cls-2" d="M171.39,122.53q0-.89-1.46-1.16a6.58,6.58,0,0,1,.8-2.29A1.83,1.83,0,0,1,171.8,118a1.86,1.86,0,0,1,.92.36l0.57,0.37a0.91,0.91,0,0,0,.46.16,0.61,0.61,0,0,0,.38-0.14,2.57,2.57,0,0,1-.3,1.19,0.89,0.89,0,0,1-.65.45h-0.1a2.19,2.19,0,0,1-1-.35,1.19,1.19,0,0,0-.54-0.18c-0.19,0-.32.25-0.4,0.76q2,0.5,2,1.17v12.79a1.18,1.18,0,0,0,.71,1.1,3.1,3.1,0,0,0,1.44.37,2.46,2.46,0,0,0,1.41-.37,1.22,1.22,0,0,0,.55-1.09v-2.93h1.46v2.93a2,2,0,0,1-.92,1.83,4.44,4.44,0,0,1-2.5.62,5.87,5.87,0,0,1-2.74-.61,2,2,0,0,1-1.16-1.84v-12Z"/><path class="cls-2" d="M176.56,120.23a1.24,1.24,0,0,1,.59-0.87l0.6-.46a4.21,4.21,0,0,1,1.46-.95,2.66,2.66,0,0,1,1.18.61,2.88,2.88,0,0,0,1.12.61,2.78,2.78,0,0,0,1-.61,2.45,2.45,0,0,1,1.11-.61,3.16,3.16,0,0,1,1.28.7,4.09,4.09,0,0,0,1.1.71,0.41,0.41,0,0,0,.29-0.14q-0.32,1.27-1.11,1.27a2.25,2.25,0,0,1-1.09-.47,2.24,2.24,0,0,0-1-.47,1.89,1.89,0,0,0-1,.47,2,2,0,0,1-1.09.47,2.31,2.31,0,0,1-1.32-.47,2.12,2.12,0,0,0-1-.47,0.84,0.84,0,0,0-.59.19,0.6,0.6,0,0,0-.2.46q0,0.38,1.25.63l-1.4.6A1.17,1.17,0,0,1,176.56,120.23Zm2.25,6.19h0.44a1.74,1.74,0,0,1,1.28.42,1.7,1.7,0,0,1,.43,1.27,3.1,3.1,0,0,1-.49,1.9,1.74,1.74,0,0,1-1.46.63,2.69,2.69,0,0,1-1.46-.32,1,1,0,0,1-.49-0.95V124.3a2.57,2.57,0,0,1,1-2.2,8.34,8.34,0,0,1,6.84,0,2.57,2.57,0,0,1,1,2.2v6.35h-1.76V124.3a1.77,1.77,0,0,0-.61-1.46,3.3,3.3,0,0,0-2-.49,3.25,3.25,0,0,0-2,.49,1.76,1.76,0,0,0-.62,1.46v2.12Zm0.44,1h-0.44v2c0,0.13.11,0.2,0.34,0.2a0.72,0.72,0,0,0,.59-0.31,1.94,1.94,0,0,0,.24-1.15,0.71,0.71,0,0,0-.18-0.57A0.86,0.86,0,0,0,179.25,127.39Z"/><path class="cls-2" d="M191.5,124.28h5.27v-1.75a1.27,1.27,0,0,0-1.27-1.16,6.73,6.73,0,0,1,.76-2.29,1.09,1.09,0,0,1,1.9-.77l0.54,0.37a0.84,0.84,0,0,0,.44.16,0.56,0.56,0,0,0,.36-0.14,2.73,2.73,0,0,1-.29,1.19,0.84,0.84,0,0,1-.62.45h-0.1a2,2,0,0,1-1-.35,1.13,1.13,0,0,0-.52-0.18q-0.26,0-.38.76,1.88,0.5,1.88,1.17v6a2.57,2.57,0,0,1-1,2.2,8.34,8.34,0,0,1-6.84,0,2.57,2.57,0,0,1-1-2.2v-5.19a1.27,1.27,0,0,0-1.27-1.16,6.23,6.23,0,0,1,.81-2.29,1.89,1.89,0,0,1,1.07-1.13,1.77,1.77,0,0,1,.88.36l0.54,0.37a1,1,0,0,0,.57.16,1.9,1.9,0,0,0,.36,0,2.55,2.55,0,0,1-.36,1,1,1,0,0,1-.67.51h-0.1a2,2,0,0,1-1-.35,1.13,1.13,0,0,0-.52-0.18q-0.26,0-.38.76,1.79,0.5,1.79,1.17v2.52Zm0,1v2.46a1.76,1.76,0,0,0,.62,1.46,3.26,3.26,0,0,0,2,.49,3.3,3.3,0,0,0,2-.49,1.77,1.77,0,0,0,.61-1.46v-2.46H191.5Z"/><path class="cls-2" d="M204.2,129.69a0.86,0.86,0,0,1-1,1h-0.78q-1.46,0-1.46-2.61a1.37,1.37,0,0,1,1.46-1.62v-3.89q0-.89-1.46-1.16a6.58,6.58,0,0,1,.8-2.29,1.83,1.83,0,0,1,1.07-1.13,1.86,1.86,0,0,1,.92.36l0.57,0.37a0.91,0.91,0,0,0,.46.16,0.61,0.61,0,0,0,.38-0.14,2.57,2.57,0,0,1-.3,1.19,0.89,0.89,0,0,1-.65.45h-0.1a2.19,2.19,0,0,1-1-.35,1.19,1.19,0,0,0-.54-0.18c-0.19,0-.32.25-0.4,0.76q2,0.5,2,1.17v7.93Zm-1.76-2.29c-0.33,0-.49.21-0.49,0.64q0,1.5.49,1.5v-2.15Z"/><path class="cls-2" d="M218.36,128.69l-2.25,2h-1.76v-9.77a1.77,1.77,0,0,0-.61-1.46,2.56,2.56,0,0,0-1.64-.49,2.52,2.52,0,0,0-1.63.49,1.76,1.76,0,0,0-.62,1.46v4.88a2.46,2.46,0,0,1,1.61.45,1.63,1.63,0,0,1,.54,1.34,3.76,3.76,0,0,1-.61,2.25,2.12,2.12,0,0,1-1.84.85q-1.46,0-1.46-.85v-8.92a2.57,2.57,0,0,1,1-2.2,6.62,6.62,0,0,1,6.05,0,2.57,2.57,0,0,1,1,2.2v8.48l2.25-2,2.25,1.94v-8.47a2.57,2.57,0,0,1,1-2.2,6.62,6.62,0,0,1,6.05,0,2.57,2.57,0,0,1,1,2.2v9.77h-1.76v-9.77a1.77,1.77,0,0,0-.61-1.46,2.56,2.56,0,0,0-1.64-.49,2.52,2.52,0,0,0-1.63.49,1.76,1.76,0,0,0-.62,1.46v9.77h-1.76Zm-8.5-2v2.64a1,1,0,0,0,.88-0.46,2.57,2.57,0,0,0,.29-1.37,0.68,0.68,0,0,0-.29-0.61A1.54,1.54,0,0,0,209.86,126.74Z"/><path class="cls-2" d="M233.5,122.1a8.34,8.34,0,0,1,6.84,0,2.57,2.57,0,0,1,1,2.2v6.35h-1.76V124.3a1.77,1.77,0,0,0-.61-1.46,3.3,3.3,0,0,0-2-.49,3.25,3.25,0,0,0-2,.49,1.76,1.76,0,0,0-.62,1.46,4.75,4.75,0,0,0,.49,1.55,5.83,5.83,0,0,1,.49,2.37q0,2.42-2,2.42-1.76,0-1.76-2.12t1.46-2.11h0.19A2.69,2.69,0,0,0,233,126a3.61,3.61,0,0,1-.49-1.7A2.57,2.57,0,0,1,233.5,122.1Zm-0.26-.31a1.81,1.81,0,0,1-1.2-1.36q0-.65,1.71-1.57a7.5,7.5,0,0,1,2.1-.91,5.15,5.15,0,0,1,1.51.46l1.7,0.71a1.89,1.89,0,0,0,.74.13,1.92,1.92,0,0,0,.85-0.2l0.57-.29A4.92,4.92,0,0,1,243,118a4.63,4.63,0,0,1,1.51.43q3.12,1.3,3.12,2.91v9.36H245.9v-8.77a1.93,1.93,0,0,0-1.44-1.69,6.1,6.1,0,0,0-2.13-.62,3.63,3.63,0,0,0-1.7.62,3.73,3.73,0,0,1-1.51.61,3.3,3.3,0,0,1-1.22-.32l-1.3-.54a3.56,3.56,0,0,0-1.52-.36,2.09,2.09,0,0,0-1,.27,0.88,0.88,0,0,0-.48.82,1,1,0,0,0,.74.63Zm0.19,5.61H233q-0.49,0-.49,1.13t0.49,1q0.49,0,.49-1.32A3.51,3.51,0,0,0,233.42,127.39Z"/><path class="cls-2" d="M255.43,120.33a1.74,1.74,0,0,0-1.32-1q-0.79,0-.79,1.54v4.88a2.46,2.46,0,0,1,1.61.45,1.63,1.63,0,0,1,.54,1.34,3.77,3.77,0,0,1-.61,2.25,2.12,2.12,0,0,1-1.84.85q-1.46,0-1.46-.85v-8.92a3.09,3.09,0,0,1,.73-2.06A2.14,2.14,0,0,1,254,118a2.89,2.89,0,0,1,2,1.31,2.92,2.92,0,0,1,2-1.31,2.13,2.13,0,0,1,1.65.87,3.12,3.12,0,0,1,.72,2.06v9.77h-1.76v-9.77q0-1.54-.78-1.54a1.76,1.76,0,0,0-1.33,1A0.58,0.58,0,0,1,255.43,120.33Zm-2.11,9a1,1,0,0,0,.88-0.46,2.57,2.57,0,0,0,.29-1.37,0.68,0.68,0,0,0-.29-0.61,1.54,1.54,0,0,0-.88-0.21v2.64Z"/></svg>