<svg id="Layer_1" data-name="Layer 1" xmlns="http://www.w3.org/2000/svg" viewBox="0 0 400 200"><defs><style>.cls-1{fill:#4e77bb;stroke:#3e66b0;stroke-miterlimit:10;}.cls-2{fill:#fff;}</style></defs><title>API Button</title><rect class="cls-1" x="33.5" y="34.5" width="333" height="131" rx="3" ry="3"/><path class="cls-2" d="M194,89.34a3.78,3.78,0,0,1,2.44.64,2.41,2.41,0,0,1,.76,1.93q0,3.08-3.2,3.08-3.69,0-3.69-2.05V74.53a5.6,5.6,0,0,1,1.93-4.66q1.93-1.56,5.76-1.56,4.25,0,6.15,1.91,1.91-1.91,6.15-1.91,3.86,0,5.76,1.56A5.6,5.6,0,0,1,218,74.53V95h-3.69V74.53a4.29,4.29,0,0,0-1-3.12,3.93,3.93,0,0,0-3-1,4.43,4.43,0,0,0-3.22,1A4.09,4.09,0,0,0,206,74.53V95h-3.69V74.53a4.14,4.14,0,0,0-1.07-3.12,4.5,4.5,0,0,0-3.24-1,4,4,0,0,0-3,1,4.29,4.29,0,0,0-1,3.12V89.34Zm0,2.05v1.54a1,1,0,0,0,1.15-1,0.43,0.43,0,0,0-.27-0.39A2.18,2.18,0,0,0,194,91.39Z"/><path class="cls-2" d="M145.07,129.69a0.86,0.86,0,0,1-1,1h-0.78q-1.46,0-1.46-2.61a1.37,1.37,0,0,1,1.46-1.62v-1.16H138v4.43a0.86,0.86,0,0,1-1,1h-0.78q-1.46,0-1.46-2.61a1.37,1.37,0,0,1,1.46-1.62v-3.89a1.27,1.27,0,0,0-1.27-1.16,6.23,6.23,0,0,1,.81-2.29,1.89,1.89,0,0,1,1.07-1.13,1.77,1.77,0,0,1,.88.36l0.54,0.37a1,1,0,0,0,.57.16,1.9,1.9,0,0,0,.36,0,2.55,2.55,0,0,1-.36,1,1,1,0,0,1-.67.51h-0.1a2,2,0,0,1-1-.35,1.13,1.13,0,0,0-.52-0.18q-0.26,0-.38.76,1.79,0.5,1.79,1.17v2.52h5.27v-1.75a1.27,1.27,0,0,0-1.27-1.16,6.73,6.73,0,0,1,.76-2.29,1.09,1.09,0,0,1,1.9-.77l0.54,0.37a0.84,0.84,0,0,0,.44.16,0.56,0.56,0,0,0,.36-0.14,2.73,2.73,0,0,1-.29,1.19,0.84,0.84,0,0,1-.62.45H145a2,2,0,0,1-1-.35,1.13,1.13,0,0,0-.52-0.18q-0.26,0-.38.76,1.88,0.5,1.88,1.17v7.93Zm-8.79-2.29c-0.33,0-.49.21-0.49,0.64q0,1.5.49,1.5v-2.15Zm7,0c-0.33,0-.49.21-0.49,0.64q0,1.5.49,1.5v-2.15Z"/><path class="cls-2" d="M148.49,120.23a1.24,1.24,0,0,1,.59-0.87l0.6-.46a4.21,4.21,0,0,1,1.46-.95,2.66,2.66,0,0,1,1.18.61,2.88,2.88,0,0,0,1.12.61,2.78,2.78,0,0,0,1-.61,2.45,2.45,0,0,1,1.11-.61,3.16,3.16,0,0,1,1.28.7,4.09,4.09,0,0,0,1.1.71,0.41,0.41,0,0,0,.29-0.14q-0.32,1.27-1.11,1.27A2.25,2.25,0,0,1,156,120a2.24,2.24,0,0,0-1-.47,1.89,1.89,0,0,0-1,.47,2,2,0,0,1-1.09.47,2.31,2.31,0,0,1-1.32-.47,2.12,2.12,0,0,0-1-.47,0.84,0.84,0,0,0-.59.19,0.6,0.6,0,0,0-.2.46q0,0.38,1.25.63l-1.4.6A1.17,1.17,0,0,1,148.49,120.23Zm2.25,6.19h0.44a1.74,1.74,0,0,1,1.28.42,1.7,1.7,0,0,1,.43,1.27,3.1,3.1,0,0,1-.49,1.9,1.74,1.74,0,0,1-1.46.63,2.69,2.69,0,0,1-1.46-.32,1,1,0,0,1-.49-0.95V124.3a2.57,2.57,0,0,1,1-2.2,8.34,8.34,0,0,1,6.84,0,2.57,2.57,0,0,1,1,2.2v6.35H156V124.3a1.77,1.77,0,0,0-.61-1.46,3.3,3.3,0,0,0-2-.49,3.25,3.25,0,0,0-2,.49,1.76,1.76,0,0,0-.62,1.46v2.12Zm0.44,1h-0.44v2c0,0.13.11,0.2,0.34,0.2a0.72,0.72,0,0,0,.59-0.31,1.94,1.94,0,0,0,.24-1.15,0.71,0.71,0,0,0-.18-0.57A0.86,0.86,0,0,0,151.17,127.39Z"/><path class="cls-2" d="M150.93,134.06h0.49a1.17,1.17,0,0,1,1.37,1.27q0,1.66-1.86,1.66-1.46,0-1.46-1v-2.44a1.56,1.56,0,0,1,1-1.46,9,9,0,0,1,5.86,0,1.56,1.56,0,0,1,1,1.46V137h-1.46v-3.42a0.8,0.8,0,0,0-.62-0.73,7,7,0,0,0-3.65,0,0.8,0.8,0,0,0-.62.73v0.49Zm0,2q0.88,0,.88-0.67a0.31,0.31,0,0,0-.39-0.3h-0.49v1Z"/><path class="cls-2" d="M165.82,121.37H166a5.79,5.79,0,0,1,3.37.73,2.57,2.57,0,0,1,1,2.2v3.42a1.76,1.76,0,0,0,.62,1.46,2.7,2.7,0,0,0,1.73.49,2.74,2.74,0,0,0,1.74-.49,1.77,1.77,0,0,0,.61-1.46v-5.19a1.27,1.27,0,0,0-1.27-1.16,6.73,6.73,0,0,1,.76-2.29,1.09,1.09,0,0,1,1.9-.77l0.54,0.37a0.84,0.84,0,0,0,.44.16,0.56,0.56,0,0,0,.36-0.14,2.73,2.73,0,0,1-.29,1.19,0.84,0.84,0,0,1-.62.45h-0.1a2,2,0,0,1-1-.35,1.13,1.13,0,0,0-.52-0.18q-0.26,0-.38.76,1.88,0.5,1.88,1.17v6a2.57,2.57,0,0,1-1,2.2,7,7,0,0,1-6.25,0,2.57,2.57,0,0,1-1-2.2V124.3a1.77,1.77,0,0,0-.61-1.46,3.2,3.2,0,0,0-2-.49,3.15,3.15,0,0,0-2,.49,1.76,1.76,0,0,0-.62,1.46v2.12h0.44a1.74,1.74,0,0,1,1.28.42,1.7,1.7,0,0,1,.43,1.27,3.1,3.1,0,0,1-.49,1.9,1.74,1.74,0,0,1-1.46.63,2.69,2.69,0,0,1-1.46-.32,1,1,0,0,1-.49-0.95V124.3a2.57,2.57,0,0,1,1-2.2,3.07,3.07,0,0,1,1-.47,2.69,2.69,0,0,0-1.2-.75,5.77,5.77,0,0,1,1.39-2.06,2.41,2.41,0,0,1,1.4-.87h0.11a3.77,3.77,0,0,1,1.17.55,4.22,4.22,0,0,0,1,.52h0.15A1,1,0,0,0,168,119a3,3,0,0,1-.54,1.14,1,1,0,0,1-.77.39,2,2,0,0,1-1.05-.42,1.93,1.93,0,0,0-1-.42,1.09,1.09,0,0,0-.73.72A7.88,7.88,0,0,1,165.82,121.37Zm-2,6h-0.44v2c0,0.13.11,0.2,0.34,0.2a0.72,0.72,0,0,0,.59-0.31,1.94,1.94,0,0,0,.24-1.15,0.71,0.71,0,0,0-.18-0.57A0.86,0.86,0,0,0,163.87,127.39Z"/><path class="cls-2" d="M195.77,120.28a2.31,2.31,0,0,1,.08.61v9.77h-1.76v-9.77a1.77,1.77,0,0,0-.66-1.37,2.55,2.55,0,0,0-3.25,0,1.76,1.76,0,0,0-.67,1.37v9.77h-1.76v-9.77q0-1.54-.78-1.54a1.76,1.76,0,0,0-1.33,1,0.58,0.58,0,0,1-1.05,0,1.74,1.74,0,0,0-1.32-1q-0.79,0-.79,1.54v4.88a2.46,2.46,0,0,1,1.61.45,1.63,1.63,0,0,1,.54,1.34,3.76,3.76,0,0,1-.61,2.25,2.12,2.12,0,0,1-1.84.85q-1.46,0-1.46-.85v-8.92a3.09,3.09,0,0,1,.73-2.06,2.14,2.14,0,0,1,1.66-.87,2.89,2.89,0,0,1,2,1.31,2.91,2.91,0,0,1,2-1.31,2.13,2.13,0,0,1,1.65.87l0,0h0l0,0a4.7,4.7,0,0,1,6.33.42l1.24-.74a3.41,3.41,0,0,1,1.79-.55,4.45,4.45,0,0,1,2.52,1.1,2.94,2.94,0,0,1,1.46,2v9.55h-1.76V121.1a1.8,1.8,0,0,0-.9-1,3,3,0,0,0-1.71-.64A5.19,5.19,0,0,0,195.77,120.28Zm-13.3,9.1a1,1,0,0,0,.88-0.46,2.57,2.57,0,0,0,.29-1.37,0.68,0.68,0,0,0-.29-0.61,1.54,1.54,0,0,0-.88-0.21v2.64Z"/><path class="cls-2" d="M196.34,135.3h-1.46V133.5a7.94,7.94,0,0,0-2.36-1.2,9.42,9.42,0,0,0-2.52,1.1v1.9h-1.46v-2.17a1.87,1.87,0,0,0-1-.8,3.4,3.4,0,0,0-1.36,1.21,5.58,5.58,0,0,0-1.57-1.21,1.83,1.83,0,0,0-1,.77v0.24q1,0,1,.55a1.54,1.54,0,0,1-.34,1,1.28,1.28,0,0,1-1.07.44q-1,0-1-1.55a2.42,2.42,0,0,1,1-1.74,2.82,2.82,0,0,1,1.43-.87,3.94,3.94,0,0,1,1.6,1.1,3.12,3.12,0,0,1,1.4-1.1,5.36,5.36,0,0,1,1.85,1.35,13.82,13.82,0,0,1,3.2-1.35,6.32,6.32,0,0,1,2.1.87l0.81,0.45a1.7,1.7,0,0,1,.8,1.64v1.21Zm0,1.85a1,1,0,0,1-.85.93,8,8,0,0,1-2.57.31,14.13,14.13,0,0,1-4.35-.62,11.21,11.21,0,0,0-3.47-.62,5.53,5.53,0,0,0-2.93.74v-0.41a1,1,0,0,1,.61-0.79,4.88,4.88,0,0,1,2.32-.38,12.74,12.74,0,0,1,3.91.63,12.94,12.94,0,0,0,3.91.62q2,0,2-.41t-1-.41a0.81,0.81,0,0,1,1-.83,1.67,1.67,0,0,1,1.1.31A1.16,1.16,0,0,1,196.34,137.15Z"/><path class="cls-2" d="M216.36,128.69l-2.25,2h-1.76v-9.77a1.77,1.77,0,0,0-.61-1.46,2.56,2.56,0,0,0-1.64-.49,2.52,2.52,0,0,0-1.63.49,1.76,1.76,0,0,0-.62,1.46v4.88a2.46,2.46,0,0,1,1.61.45,1.63,1.63,0,0,1,.54,1.34,3.76,3.76,0,0,1-.61,2.25,2.12,2.12,0,0,1-1.84.85q-1.46,0-1.46-.85v-8.92a2.57,2.57,0,0,1,1-2.2,6.62,6.62,0,0,1,6.05,0,2.57,2.57,0,0,1,1,2.2v8.48l2.25-2,2.25,1.94v-8.47a2.57,2.57,0,0,1,1-2.2,6.62,6.62,0,0,1,6.05,0,2.57,2.57,0,0,1,1,2.2v9.77h-1.76v-9.77a1.77,1.77,0,0,0-.61-1.46,2.56,2.56,0,0,0-1.64-.49,2.52,2.52,0,0,0-1.63.49,1.76,1.76,0,0,0-.62,1.46v9.77H218.6Zm-8.5-2v2.64a1,1,0,0,0,.88-0.46,2.57,2.57,0,0,0,.29-1.37,0.68,0.68,0,0,0-.29-0.61A1.54,1.54,0,0,0,207.86,126.74Z"/><path class="cls-2" d="M237.55,122.53a1.27,1.27,0,0,0-1.27-1.16,6.73,6.73,0,0,1,.76-2.29,1.09,1.09,0,0,1,1.9-.77l0.54,0.37a0.84,0.84,0,0,0,.44.16,0.56,0.56,0,0,0,.36-0.14,2.73,2.73,0,0,1-.29,1.19,0.84,0.84,0,0,1-.62.45h-0.1a2,2,0,0,1-1-.35,1.13,1.13,0,0,0-.52-0.18q-0.26,0-.38.76,1.88,0.5,1.88,1.17v6a2.57,2.57,0,0,1-1,2.2,8.34,8.34,0,0,1-6.84,0,2.57,2.57,0,0,1-1-2.2v-5.19a1.27,1.27,0,0,0-1.27-1.16,6.23,6.23,0,0,1,.81-2.29,1.89,1.89,0,0,1,1.07-1.13,1.77,1.77,0,0,1,.88.36l0.54,0.37a1,1,0,0,0,.57.16,1.9,1.9,0,0,0,.36,0,2.55,2.55,0,0,1-.36,1,1,1,0,0,1-.67.51h-0.1a2,2,0,0,1-1-.35,1.13,1.13,0,0,0-.52-0.18q-0.26,0-.38.76,1.79,0.5,1.79,1.17v6a1.76,1.76,0,0,0,.62,1.46,3.26,3.26,0,0,0,2,.49,3.3,3.3,0,0,0,2-.49,1.77,1.77,0,0,0,.61-1.46v-5.19Z"/><path class="cls-2" d="M236.08,112.7q1.27,0,1.27.86a0.67,0.67,0,0,1-.73.78,0.63,0.63,0,0,1-.73-0.41,0.8,0.8,0,0,0,1,.82,4.3,4.3,0,0,0,2.32-.44,1.51,1.51,0,0,0,.61-1.31q0-1-.49-1a0.42,0.42,0,1,1,0-.82,2.23,2.23,0,0,1,1.35.45,1.61,1.61,0,0,1,.61,1.37,2.1,2.1,0,0,1-1.09,1.93,6.69,6.69,0,0,1-3.3.64,3.33,3.33,0,0,1-1.84-.41,1.4,1.4,0,0,1-.61-1.24Q234.42,112.7,236.08,112.7Z"/><path class="cls-2" d="M253.47,128.69l-2.25,2h-1.76v-9.77a1.77,1.77,0,0,0-.61-1.46,2.56,2.56,0,0,0-1.64-.49,2.52,2.52,0,0,0-1.63.49,1.76,1.76,0,0,0-.62,1.46v4.88a2.46,2.46,0,0,1,1.61.45,1.63,1.63,0,0,1,.54,1.34,3.77,3.77,0,0,1-.61,2.25,2.12,2.12,0,0,1-1.84.85q-1.46,0-1.46-.85v-8.92a2.57,2.57,0,0,1,1-2.2,6.62,6.62,0,0,1,6.05,0,2.57,2.57,0,0,1,1,2.2v8.48l2.25-2,2.25,1.94v-8.47a2.57,2.57,0,0,1,1-2.2,6.62,6.62,0,0,1,6.05,0,2.57,2.57,0,0,1,1,2.2v9.77H262v-9.77a1.77,1.77,0,0,0-.61-1.46,2.56,2.56,0,0,0-1.64-.49,2.52,2.52,0,0,0-1.63.49,1.76,1.76,0,0,0-.62,1.46v9.77h-1.76Zm-8.5-2v2.64a1,1,0,0,0,.88-0.46,2.57,2.57,0,0,0,.29-1.37,0.68,0.68,0,0,0-.29-0.61A1.54,1.54,0,0,0,245,126.74Z"/><path class="cls-2" d="M249.56,137v-3.12a1.13,1.13,0,0,0-.71-1.22,6.28,6.28,0,0,0-3.47,0,1.13,1.13,0,0,0-.71,1.22v0.2a1.76,1.76,0,0,1,1.1.29,1.06,1.06,0,0,1,.36.88,1.52,1.52,0,0,1-.73,1.22,2.47,2.47,0,0,1-1.46.54,0.65,0.65,0,0,1-.73-0.73v-2.39a2,2,0,0,1,1.07-1.86,7.14,7.14,0,0,1,5.66,0,2,2,0,0,1,1.07,1.86v1.8l2.44-2.5,2.44,2.5v-1.8A2,2,0,0,1,257,132a7.14,7.14,0,0,1,5.66,0,2,2,0,0,1,1.07,1.86V137h-1.46v-3.12a1.13,1.13,0,0,0-.71-1.22,6.28,6.28,0,0,0-3.47,0,1.13,1.13,0,0,0-.71,1.22V137h-1.46l-2.44-2.49L251,137h-1.46Zm-4.88-2v0.75a0.77,0.77,0,0,0,.49-0.55Q245.17,135,244.68,135Z"/></svg>