<svg id="Layer_1" data-name="Layer 1" xmlns="http://www.w3.org/2000/svg" viewBox="0 0 400 200"><defs><style>.cls-1{fill:#4e77bb;stroke:#3e66b0;stroke-miterlimit:10;}.cls-2{fill:#fff;}</style></defs><title>API Button</title><rect class="cls-1" x="33.5" y="34.5" width="333" height="131" rx="3" ry="3"/><path class="cls-2" d="M209.7,90.84Q205.5,95,198.48,95V93.2a10.91,10.91,0,0,0,8.1-3.79q3.59-3.79,3.59-10.42,0-4.86-2.42-6.75a10,10,0,0,0-6.23-1.87,8,8,0,0,0-5.58,1.78,6.5,6.5,0,0,0-2,5,7.21,7.21,0,0,0,1.18,4.37,4,4,0,0,0,3.39,1.6,2.26,2.26,0,0,0,2-.92,3.52,3.52,0,0,0,.66-2.09V80a3.68,3.68,0,0,1-.88.12,1.65,1.65,0,0,1-1.6-.92,2.55,2.55,0,0,1-.31-1.13q0-1.27,1.89-2a4.64,4.64,0,0,1,1.6-.33A2.34,2.34,0,0,1,204,77.08a5.43,5.43,0,0,1,.68,2.48,8,8,0,0,1-.39,2.14A4.72,4.72,0,0,1,202.87,84,5.21,5.21,0,0,1,200,85.12a9.88,9.88,0,0,1-1.48.1,14.38,14.38,0,0,1-2.88-.33,7.3,7.3,0,0,1-3.48-2.26,7.4,7.4,0,0,1-1.91-5.43,7.88,7.88,0,0,1,3-6.44q3-2.44,8.22-2.44a14.77,14.77,0,0,1,8.88,2.52q3.47,2.54,3.47,8.14Q213.86,86.71,209.7,90.84Z"/><path class="cls-2" d="M146.87,122.53q0-.89-1.46-1.16a6.58,6.58,0,0,1,.8-2.29,1.83,1.83,0,0,1,1.07-1.13,1.86,1.86,0,0,1,.92.36l0.57,0.37a0.91,0.91,0,0,0,.46.16,0.61,0.61,0,0,0,.38-0.14,2.57,2.57,0,0,1-.3,1.19,0.89,0.89,0,0,1-.65.45h-0.1a2.19,2.19,0,0,1-1-.35,1.19,1.19,0,0,0-.54-0.18c-0.19,0-.32.25-0.4,0.76q2,0.5,2,1.17v4.66q1.46,0,1.46,1.72,0,2.51-1.46,2.51h-0.78a0.86,0.86,0,0,1-1-1v-7.16Zm1.76,7q0.49,0,.49-1.41,0-.74-0.49-0.74v2.15Z"/><path class="cls-2" d="M156.69,121.37h0.2a5.79,5.79,0,0,1,3.37.73,2.57,2.57,0,0,1,1,2.2v3.42a1.76,1.76,0,0,0,.62,1.46,2.7,2.7,0,0,0,1.73.49,2.74,2.74,0,0,0,1.74-.49,1.77,1.77,0,0,0,.61-1.46v-5.19a1.27,1.27,0,0,0-1.27-1.16,6.73,6.73,0,0,1,.76-2.29,1.09,1.09,0,0,1,1.9-.77l0.54,0.37a0.84,0.84,0,0,0,.44.16,0.56,0.56,0,0,0,.36-0.14,2.73,2.73,0,0,1-.29,1.19,0.84,0.84,0,0,1-.62.45h-0.1a2,2,0,0,1-1-.35,1.13,1.13,0,0,0-.52-0.18q-0.26,0-.38.76,1.88,0.5,1.88,1.17v6a2.57,2.57,0,0,1-1,2.2,7,7,0,0,1-6.25,0,2.57,2.57,0,0,1-1-2.2V124.3a1.77,1.77,0,0,0-.61-1.46,3.2,3.2,0,0,0-2-.49,3.15,3.15,0,0,0-2,.49,1.76,1.76,0,0,0-.62,1.46v2.12h0.44a1.74,1.74,0,0,1,1.28.42,1.7,1.7,0,0,1,.43,1.27A3.1,3.1,0,0,1,156,130a1.74,1.74,0,0,1-1.46.63,2.69,2.69,0,0,1-1.46-.32,1,1,0,0,1-.49-0.95V124.3a2.57,2.57,0,0,1,1-2.2,3.07,3.07,0,0,1,1-.47,2.69,2.69,0,0,0-1.2-.75,5.77,5.77,0,0,1,1.39-2.06,2.41,2.41,0,0,1,1.4-.87h0.11a3.77,3.77,0,0,1,1.17.55,4.22,4.22,0,0,0,1,.52h0.15a1,1,0,0,0,.33-0.06,3,3,0,0,1-.54,1.14,1,1,0,0,1-.77.39,2,2,0,0,1-1.05-.42,1.93,1.93,0,0,0-1-.42,1.09,1.09,0,0,0-.73.72A7.88,7.88,0,0,1,156.69,121.37Zm-2,6H154.3v2c0,0.13.11,0.2,0.34,0.2a0.72,0.72,0,0,0,.59-0.31,1.94,1.94,0,0,0,.24-1.15,0.71,0.71,0,0,0-.18-0.57A0.86,0.86,0,0,0,154.74,127.39Z"/><path class="cls-2" d="M171.58,117.56a2.14,2.14,0,0,0-.5-1.54,2,2,0,0,0-1.49-.51h-1.13q-2.44,0-2.44-1.38a2.23,2.23,0,0,1,.2-0.81,2.61,2.61,0,0,0,.2-1q0-.5-0.92-0.5,0-.72,1.34-0.72a1.13,1.13,0,0,1,1.34,1.22,2.37,2.37,0,0,1-.2,1,1.79,1.79,0,0,0-.2.77c0,0.27.23,0.4,0.68,0.4h1.13a4.43,4.43,0,0,1,2.81.75,2.76,2.76,0,0,1,.94,2.28v17a2,2,0,0,1-.93,1.83,6.6,6.6,0,0,1-5.57,0,2,2,0,0,1-.93-1.83v-2.44h1.76v2.44a1.27,1.27,0,0,0,.49,1.09,3.08,3.08,0,0,0,2.93,0,1.27,1.27,0,0,0,.49-1.09v-17Z"/><path class="cls-2" d="M179,129.69a0.86,0.86,0,0,1-1,1h-0.78q-1.46,0-1.46-2.61a1.37,1.37,0,0,1,1.46-1.62v-3.89q0-.89-1.46-1.16a5.39,5.39,0,0,1,.66-2.29,1.09,1.09,0,0,1,1.9-.77l0.25,0.18,0.1,0c0.2,0,.3-0.26.3-0.77s-0.33-.62-1-0.62a0.81,0.81,0,1,1,0-1.59q2,0,2,2.22v0.48a3.15,3.15,0,0,1-.39,1.75,1,1,0,0,1-.71.39,2,2,0,0,1-1-.35,1.13,1.13,0,0,0-.52-0.18q-0.36,0-.48.76,2.08,0.5,2.08,1.17v7.93Zm-1.76-2.29c-0.33,0-.49.21-0.49,0.64q0,1.5.49,1.5v-2.15Z"/><path class="cls-2" d="M182.91,122.53q0-.89-1.46-1.16a6.58,6.58,0,0,1,.8-2.29,1.83,1.83,0,0,1,1.07-1.13,1.86,1.86,0,0,1,.92.36l0.57,0.37a0.91,0.91,0,0,0,.46.16,0.61,0.61,0,0,0,.38-0.14,2.57,2.57,0,0,1-.3,1.19,0.89,0.89,0,0,1-.65.45h-0.1a2.19,2.19,0,0,1-1-.35,1.19,1.19,0,0,0-.54-0.18c-0.19,0-.32.25-0.4,0.76q2,0.5,2,1.17v4.66q1.46,0,1.46,1.72,0,2.51-1.46,2.51h-0.78a0.86,0.86,0,0,1-1-1v-7.16Zm1.76,7q0.49,0,.49-1.41,0-.74-0.49-0.74v2.15Z"/><path class="cls-2" d="M189.55,122.1a8.34,8.34,0,0,1,6.84,0,2.57,2.57,0,0,1,1,2.2v6.35h-1.76V124.3a1.77,1.77,0,0,0-.61-1.46,3.3,3.3,0,0,0-2-.49,3.25,3.25,0,0,0-2,.49,1.76,1.76,0,0,0-.62,1.46,4.75,4.75,0,0,0,.49,1.55,5.83,5.83,0,0,1,.49,2.37q0,2.42-2,2.42-1.76,0-1.76-2.12t1.46-2.11h0.19a2.69,2.69,0,0,0-.19-0.42,3.61,3.61,0,0,1-.49-1.7A2.57,2.57,0,0,1,189.55,122.1Zm14-1.5a1.66,1.66,0,0,1,.16.69v9.36H202v-8.77a1.93,1.93,0,0,0-1.44-1.69,6.09,6.09,0,0,0-2.13-.62,3.64,3.64,0,0,0-1.7.62,3.73,3.73,0,0,1-1.51.61,3.3,3.3,0,0,1-1.22-.32l-1.3-.54a3.56,3.56,0,0,0-1.52-.36,2.09,2.09,0,0,0-1,.27,0.88,0.88,0,0,0-.48.82,1,1,0,0,0,.74.63l-1.05.51a1.81,1.81,0,0,1-1.2-1.36q0-.65,1.71-1.57a7.5,7.5,0,0,1,2.1-.91,5.15,5.15,0,0,1,1.51.46l1.7,0.71a1.89,1.89,0,0,0,.74.13,1.92,1.92,0,0,0,.85-0.2l0.57-.29a4.92,4.92,0,0,1,1.81-.81,4.64,4.64,0,0,1,1.51.43,9.82,9.82,0,0,1,1.85,1v-3.11a0.81,0.81,0,0,0-1-.84q0-.85,1.22-0.85a1.42,1.42,0,0,1,1.51,1.69v2.54A3.6,3.6,0,0,1,203.55,120.6Zm-14.08,6.8h-0.41q-0.49,0-.49,1.13t0.49,1q0.49,0,.49-1.32A3.51,3.51,0,0,0,189.47,127.39Z"/><path class="cls-2" d="M207.62,122.53q0-.89-1.46-1.16a6.58,6.58,0,0,1,.8-2.29A1.83,1.83,0,0,1,208,118a1.86,1.86,0,0,1,.92.36l0.57,0.37a0.91,0.91,0,0,0,.46.16,0.61,0.61,0,0,0,.38-0.14,2.57,2.57,0,0,1-.3,1.19,0.89,0.89,0,0,1-.65.45h-0.1a2.19,2.19,0,0,1-1-.35,1.19,1.19,0,0,0-.54-0.18c-0.19,0-.32.25-0.4,0.76q2,0.5,2,1.17v12.79a1.18,1.18,0,0,0,.71,1.1,3.1,3.1,0,0,0,1.44.37,2.46,2.46,0,0,0,1.41-.37,1.22,1.22,0,0,0,.55-1.09v-2.93h1.46v2.93a2,2,0,0,1-.92,1.83,4.44,4.44,0,0,1-2.5.62,5.87,5.87,0,0,1-2.74-.61,2,2,0,0,1-1.16-1.84v-12Z"/><path class="cls-2" d="M212.79,120.23a1.24,1.24,0,0,1,.59-0.87l0.6-.46a4.21,4.21,0,0,1,1.46-.95,2.66,2.66,0,0,1,1.18.61,2.88,2.88,0,0,0,1.12.61,2.78,2.78,0,0,0,1-.61,2.45,2.45,0,0,1,1.11-.61,3.16,3.16,0,0,1,1.28.7,4.09,4.09,0,0,0,1.1.71,0.41,0.41,0,0,0,.29-0.14q-0.32,1.27-1.11,1.27a2.25,2.25,0,0,1-1.09-.47,2.24,2.24,0,0,0-1-.47,1.89,1.89,0,0,0-1,.47,2,2,0,0,1-1.09.47,2.31,2.31,0,0,1-1.32-.47,2.12,2.12,0,0,0-1-.47,0.84,0.84,0,0,0-.59.19,0.6,0.6,0,0,0-.2.46q0,0.38,1.25.63l-1.4.6A1.17,1.17,0,0,1,212.79,120.23Zm2.25,7.22a2.67,2.67,0,0,1,2-1q1.46,0,1.46,1.05,0,0.78-1.07.78c0-.18-0.13-0.27-0.39-0.27a1.55,1.55,0,0,0-1.46,1l-0.49.86v0.85h-1.76V124.3a2.57,2.57,0,0,1,1-2.2,8.34,8.34,0,0,1,6.84,0,2.57,2.57,0,0,1,1,2.2v6.35h-1.76V124.3a1.77,1.77,0,0,0-.61-1.46,3.3,3.3,0,0,0-2-.49,3.25,3.25,0,0,0-2,.49,1.76,1.76,0,0,0-.62,1.46v3.14Z"/><path class="cls-2" d="M219.81,135.56a3.75,3.75,0,0,1-2.66,1.44q-0.94,0-.94-1.26a4,4,0,0,1,1.27-2.16,0.73,0.73,0,0,0,.21-0.45,0.68,0.68,0,0,0-.61-0.53,0.89,0.89,0,0,1,1-1q1,0,1,.65a3.59,3.59,0,0,1-.62,1.7,5.22,5.22,0,0,0-.77,1.64,0.09,0.09,0,0,0,.09.11q0.9,0,2.28-1.78,0.4,1.78,1,1.78,0.42,0,.76-2.05t0.71-2.05q0.38,0,.38,1a11.8,11.8,0,0,1-.17,2q-0.36,2.46-1.69,2.46Q220.35,137,219.81,135.56Z"/><path class="cls-2" d="M241.11,127.72a2.57,2.57,0,0,1-1,2.2,7,7,0,0,1-6.25,0,2.57,2.57,0,0,1-1-2.2V124.3a1.77,1.77,0,0,0-.61-1.46,3.2,3.2,0,0,0-2-.49,3.15,3.15,0,0,0-2,.49,1.76,1.76,0,0,0-.62,1.46v2.12h0.44a1.74,1.74,0,0,1,1.28.42,1.7,1.7,0,0,1,.43,1.27,3.1,3.1,0,0,1-.49,1.9,1.74,1.74,0,0,1-1.46.63,2.69,2.69,0,0,1-1.46-.32,1,1,0,0,1-.49-0.95V124.3a2.57,2.57,0,0,1,1-2.2,3.07,3.07,0,0,1,1-.47,2.69,2.69,0,0,0-1.2-.75,5.77,5.77,0,0,1,1.39-2.06,2.41,2.41,0,0,1,1.4-.87h0.11a3.77,3.77,0,0,1,1.17.55,4.22,4.22,0,0,0,1,.52H232a1,1,0,0,0,.33-0.06,3,3,0,0,1-.54,1.14,1,1,0,0,1-.77.39,2,2,0,0,1-1.05-.42,1.93,1.93,0,0,0-1-.42,1.09,1.09,0,0,0-.73.72,7.88,7.88,0,0,1,1.89,1h0.2a5.79,5.79,0,0,1,3.37.73,2.57,2.57,0,0,1,1,2.2v3.42a1.76,1.76,0,0,0,.62,1.46,2.7,2.7,0,0,0,1.73.49,2.74,2.74,0,0,0,1.74-.49,1.77,1.77,0,0,0,.61-1.46v-5.29q0-.93-1.33-1.07a3.54,3.54,0,0,1,1.24-2.29,3.29,3.29,0,0,1,2.22-1.07,7,7,0,0,1,2.72.46q3.25,1.39,3.25,3.28v8.92H245.7v-8.43q0-1.4-2.53-2.27a6.82,6.82,0,0,0-2.15-.28,1.75,1.75,0,0,0-1.59,1q1.68,0.51,1.68,1.21v5.79Zm-12.94-.32h-0.44v2c0,0.13.11,0.2,0.34,0.2a0.72,0.72,0,0,0,.59-0.31,1.94,1.94,0,0,0,.24-1.15,0.71,0.71,0,0,0-.18-0.57A0.86,0.86,0,0,0,228.17,127.39Z"/><path class="cls-2" d="M253.12,129.69a0.85,0.85,0,0,1-1,1h-0.78q-1.46,0-1.46-2.61a1.37,1.37,0,0,1,1.46-1.62v-3.89q0-.89-1.46-1.16a6.58,6.58,0,0,1,.8-2.29,1.82,1.82,0,0,1,1.07-1.13,1.87,1.87,0,0,1,.92.36l0.57,0.37a0.9,0.9,0,0,0,.46.16,0.61,0.61,0,0,0,.38-0.14,2.57,2.57,0,0,1-.3,1.19,0.89,0.89,0,0,1-.65.45H253a2.18,2.18,0,0,1-1-.35,1.19,1.19,0,0,0-.54-0.18q-0.28,0-.4.76,2,0.5,2,1.17v7.93Zm-1.76-2.29q-0.49,0-.49.64,0,1.5.49,1.5v-2.15Z"/></svg>