<svg id="Layer_1" data-name="Layer 1" xmlns="http://www.w3.org/2000/svg" viewBox="0 0 400 200"><defs><style>.cls-1{fill:#4e77bb;stroke:#3e66b0;stroke-miterlimit:10;}.cls-2{fill:#fff;}</style></defs><title>API Button</title><rect class="cls-1" x="33.5" y="34.5" width="333" height="131" rx="3" ry="3"/><path class="cls-2" d="M194,89.34a3.78,3.78,0,0,1,2.44.64,2.41,2.41,0,0,1,.76,1.93q0,3.08-3.2,3.08-3.69,0-3.69-2.05V74.53a5.6,5.6,0,0,1,1.93-4.66q1.93-1.56,5.76-1.56,4.25,0,6.15,1.91,1.91-1.91,6.15-1.91,3.86,0,5.76,1.56A5.6,5.6,0,0,1,218,74.53V95h-3.69V74.53a4.29,4.29,0,0,0-1-3.12,3.93,3.93,0,0,0-3-1,4.43,4.43,0,0,0-3.22,1A4.09,4.09,0,0,0,206,74.53V95h-3.69V74.53a4.14,4.14,0,0,0-1.07-3.12,4.5,4.5,0,0,0-3.24-1,4,4,0,0,0-3,1,4.29,4.29,0,0,0-1,3.12V89.34Zm0,2.05v1.54a1,1,0,0,0,1.15-1,0.43,0.43,0,0,0-.27-0.39A2.18,2.18,0,0,0,194,91.39Z"/><path class="cls-2" d="M105.08,122.53q0-.89-1.46-1.16a6.58,6.58,0,0,1,.8-2.29,1.83,1.83,0,0,1,1.07-1.13,1.86,1.86,0,0,1,.92.36l0.57,0.37a0.91,0.91,0,0,0,.46.16,0.61,0.61,0,0,0,.38-0.14,2.57,2.57,0,0,1-.3,1.19,0.89,0.89,0,0,1-.65.45h-0.1a2.19,2.19,0,0,1-1-.35,1.19,1.19,0,0,0-.54-0.18c-0.19,0-.32.25-0.4,0.76q2,0.5,2,1.17v4.66q1.46,0,1.46,1.72,0,2.51-1.46,2.51h-0.78a0.86,0.86,0,0,1-1-1v-7.16Zm1.76,7q0.49,0,.49-1.41,0-.74-0.49-0.74v2.15Z"/><path class="cls-2" d="M114.89,121.37h0.2a5.79,5.79,0,0,1,3.37.73,2.57,2.57,0,0,1,1,2.2v3.42a1.76,1.76,0,0,0,.62,1.46,2.7,2.7,0,0,0,1.73.49,2.74,2.74,0,0,0,1.74-.49,1.77,1.77,0,0,0,.61-1.46v-5.19a1.27,1.27,0,0,0-1.27-1.16,6.73,6.73,0,0,1,.76-2.29,1.09,1.09,0,0,1,1.9-.77l0.54,0.37a0.84,0.84,0,0,0,.44.16,0.56,0.56,0,0,0,.36-0.14,2.73,2.73,0,0,1-.29,1.19,0.84,0.84,0,0,1-.62.45h-0.1a2,2,0,0,1-1-.35,1.13,1.13,0,0,0-.52-0.18q-0.26,0-.38.76,1.88,0.5,1.88,1.17v6a2.57,2.57,0,0,1-1,2.2,7,7,0,0,1-6.25,0,2.57,2.57,0,0,1-1-2.2V124.3a1.77,1.77,0,0,0-.61-1.46,3.2,3.2,0,0,0-2-.49,3.15,3.15,0,0,0-2,.49,1.76,1.76,0,0,0-.62,1.46v2.12h0.44a1.74,1.74,0,0,1,1.28.42,1.7,1.7,0,0,1,.43,1.27,3.1,3.1,0,0,1-.49,1.9,1.74,1.74,0,0,1-1.46.63,2.69,2.69,0,0,1-1.46-.32,1,1,0,0,1-.49-0.95V124.3a2.57,2.57,0,0,1,1-2.2,3.07,3.07,0,0,1,1-.47,2.69,2.69,0,0,0-1.2-.75,5.77,5.77,0,0,1,1.39-2.06,2.41,2.41,0,0,1,1.4-.87h0.11a3.77,3.77,0,0,1,1.17.55,4.22,4.22,0,0,0,1,.52h0.15a1,1,0,0,0,.33-0.06,3,3,0,0,1-.54,1.14,1,1,0,0,1-.77.39,2,2,0,0,1-1.05-.42,1.93,1.93,0,0,0-1-.42,1.09,1.09,0,0,0-.73.72A7.88,7.88,0,0,1,114.89,121.37Zm-2,6H112.5v2c0,0.13.11,0.2,0.34,0.2a0.72,0.72,0,0,0,.59-0.31,1.94,1.94,0,0,0,.24-1.15,0.71,0.71,0,0,0-.18-0.57A0.86,0.86,0,0,0,112.94,127.39Z"/><path class="cls-2" d="M136.82,124.3a1.09,1.09,0,0,1-.68-1,1.58,1.58,0,0,1,.39-1.1,1.39,1.39,0,0,1,1.07-.42,0.81,0.81,0,0,1,1,.85v5.11a2.57,2.57,0,0,1-1,2.2,8.34,8.34,0,0,1-6.84,0,2.57,2.57,0,0,1-1-2.2v-6.05a1.61,1.61,0,0,1-1-1.44,1.24,1.24,0,0,1,.62-0.87l0.63-.46a4.43,4.43,0,0,1,1.54-.95,2.89,2.89,0,0,1,1.24.61,3.06,3.06,0,0,0,1.17.61,2.94,2.94,0,0,0,1.08-.61,2.62,2.62,0,0,1,1.16-.61,3.36,3.36,0,0,1,1.35.7,4.35,4.35,0,0,0,1.16.71,0.45,0.45,0,0,0,.3-0.14,1.35,1.35,0,0,1-1.17,1.27,2.4,2.4,0,0,1-1.14-.47,2.44,2.44,0,0,0-1-.47,2.07,2.07,0,0,0-1.06.47,2.14,2.14,0,0,1-1.14.47,2.53,2.53,0,0,1-1.39-.47,2.26,2.26,0,0,0-1.05-.47,0.91,0.91,0,0,0-.62.19,0.59,0.59,0,0,0-.21.46q0,0.38,1.32.92v6.59a1.76,1.76,0,0,0,.62,1.46,3.26,3.26,0,0,0,2,.49,3.3,3.3,0,0,0,2-.49,1.77,1.77,0,0,0,.61-1.46V124.3Z"/><path class="cls-2" d="M142,120.23a1.24,1.24,0,0,1,.59-0.87l0.6-.46a4.21,4.21,0,0,1,1.46-.95,2.66,2.66,0,0,1,1.18.61,2.88,2.88,0,0,0,1.12.61,2.78,2.78,0,0,0,1-.61,2.45,2.45,0,0,1,1.11-.61,3.16,3.16,0,0,1,1.28.7,4.09,4.09,0,0,0,1.1.71,0.41,0.41,0,0,0,.29-0.14q-0.32,1.27-1.11,1.27a2.25,2.25,0,0,1-1.09-.47,2.24,2.24,0,0,0-1-.47,1.89,1.89,0,0,0-1,.47,2,2,0,0,1-1.09.47,2.31,2.31,0,0,1-1.32-.47,2.12,2.12,0,0,0-1-.47,0.84,0.84,0,0,0-.59.19,0.6,0.6,0,0,0-.2.46q0,0.38,1.25.63l-1.4.6A1.17,1.17,0,0,1,142,120.23Zm2.25,10.42h-1.76V124.3a2.57,2.57,0,0,1,1-2.2,8.34,8.34,0,0,1,6.84,0,2.57,2.57,0,0,1,1,2.2v6.35h-1.76V124.3a1.77,1.77,0,0,0-.61-1.46,3.3,3.3,0,0,0-2-.49,3.25,3.25,0,0,0-2,.49,1.76,1.76,0,0,0-.62,1.46v6.35Z"/><path class="cls-2" d="M144.43,134.06h0.49a1.17,1.17,0,0,1,1.37,1.27q0,1.66-1.86,1.66-1.46,0-1.46-1v-2.44a1.56,1.56,0,0,1,1-1.46,9,9,0,0,1,5.86,0,1.56,1.56,0,0,1,1,1.46V137h-1.46v-3.42a0.8,0.8,0,0,0-.62-0.73,7,7,0,0,0-3.65,0,0.8,0.8,0,0,0-.62.73v0.49Zm0,2q0.88,0,.88-0.67a0.31,0.31,0,0,0-.39-0.3h-0.49v1Z"/><path class="cls-2" d="M149.85,113.45V111.6h1.27v3.91h-6.05q-2.44,0-2.44-2t3.13-2a5.53,5.53,0,0,1,3.66,1.46Zm-4.79.79h4a4.35,4.35,0,0,0-3.32-1.46q-2,0-2,.78T145.07,114.24Z"/><path class="cls-2" d="M162.21,124.3a1.09,1.09,0,0,1-.68-1,1.58,1.58,0,0,1,.39-1.1,1.39,1.39,0,0,1,1.07-.42,0.81,0.81,0,0,1,1,.85v5.11a2.57,2.57,0,0,1-1,2.2,8.34,8.34,0,0,1-6.84,0,2.57,2.57,0,0,1-1-2.2v-6.05a1.61,1.61,0,0,1-1-1.44,1.24,1.24,0,0,1,.62-0.87l0.63-.46A4.43,4.43,0,0,1,157,118a2.89,2.89,0,0,1,1.24.61,3.06,3.06,0,0,0,1.17.61,2.94,2.94,0,0,0,1.08-.61,2.62,2.62,0,0,1,1.16-.61,3.36,3.36,0,0,1,1.35.7,4.35,4.35,0,0,0,1.16.71,0.45,0.45,0,0,0,.3-0.14,1.35,1.35,0,0,1-1.17,1.27,2.4,2.4,0,0,1-1.14-.47,2.44,2.44,0,0,0-1-.47A2.07,2.07,0,0,0,160,120a2.14,2.14,0,0,1-1.14.47,2.53,2.53,0,0,1-1.39-.47,2.26,2.26,0,0,0-1.05-.47,0.91,0.91,0,0,0-.62.19,0.59,0.59,0,0,0-.21.46q0,0.38,1.32.92v6.59a1.76,1.76,0,0,0,.62,1.46,3.26,3.26,0,0,0,2,.49,3.3,3.3,0,0,0,2-.49,1.77,1.77,0,0,0,.61-1.46V124.3Z"/><path class="cls-2" d="M169.63,124.28h5.27v-1.75a1.27,1.27,0,0,0-1.27-1.16,6.73,6.73,0,0,1,.76-2.29,1.09,1.09,0,0,1,1.9-.77l0.54,0.37a0.84,0.84,0,0,0,.44.16,0.56,0.56,0,0,0,.36-0.14,2.73,2.73,0,0,1-.29,1.19,0.84,0.84,0,0,1-.62.45h-0.1a2,2,0,0,1-1-.35,1.13,1.13,0,0,0-.52-0.18q-0.26,0-.38.76,1.88,0.5,1.88,1.17v6a2.57,2.57,0,0,1-1,2.2,8.34,8.34,0,0,1-6.84,0,2.57,2.57,0,0,1-1-2.2v-5.19a1.27,1.27,0,0,0-1.27-1.16,6.23,6.23,0,0,1,.81-2.29,1.89,1.89,0,0,1,1.07-1.13,1.77,1.77,0,0,1,.88.36l0.54,0.37a1,1,0,0,0,.57.16,1.9,1.9,0,0,0,.36,0,2.55,2.55,0,0,1-.36,1,1,1,0,0,1-.67.51h-0.1a2,2,0,0,1-1-.35,1.13,1.13,0,0,0-.52-0.18q-0.26,0-.38.76,1.79,0.5,1.79,1.17v2.52Zm0,1v2.46a1.76,1.76,0,0,0,.62,1.46,3.26,3.26,0,0,0,2,.49,3.3,3.3,0,0,0,2-.49,1.77,1.77,0,0,0,.61-1.46v-2.46h-5.27Z"/><path class="cls-2" d="M166.8,135a4,4,0,0,1,.73-2.44,2.57,2.57,0,0,1,2.2-1,2.9,2.9,0,0,1,2,.69,4.56,4.56,0,0,1,1.22,1.67,7.72,7.72,0,0,0,.81,1.5,1.07,1.07,0,0,0,.78.53q0.38,0,.78-1.22t0.81-3.17h1.48a21.61,21.61,0,0,1-1.42,3.91q-0.75,1.46-1.58,1.46a2.75,2.75,0,0,1-1.79-.58,3.52,3.52,0,0,1-1.07-1.55,5.92,5.92,0,0,0-.87-1.62,1.42,1.42,0,0,0-1.13-.64,1.16,1.16,0,0,0-1.09.73,3.72,3.72,0,0,0-.37,1.71q0,1,.49,1t0.49-1a0.86,0.86,0,0,1,1,1,0.82,0.82,0,0,1-.37.73A1.91,1.91,0,0,1,166.8,135Z"/><path class="cls-2" d="M180.57,125.57a1.15,1.15,0,0,1-1-1,1.56,1.56,0,0,1,.39-1.1,1.39,1.39,0,0,1,1.07-.42q1.27,0,1.27.84V129l2.64-2.2,2.64,2.29V123a1.63,1.63,0,0,0-.27-1.15,3.79,3.79,0,0,0-.62-0.45,6,6,0,0,1-2.91.76,4,4,0,0,1-2.35-.59,2.27,2.27,0,0,1-.87-2,3.4,3.4,0,0,1,.24-1.26,3.45,3.45,0,0,0,.24-1.28,0.82,0.82,0,0,0-1-.86,0.81,0.81,0,0,1,1-.84,1.53,1.53,0,0,1,1.76,1.7,3.18,3.18,0,0,1-.24,1.33,2.86,2.86,0,0,0-.24,1.21,1.46,1.46,0,0,0,.39,1.16,1.61,1.61,0,0,0,1.07.33,7.23,7.23,0,0,0,2-.28,2,2,0,0,1-1-1.39q0-1.52,1.86-1.52t1.76,1.52a1.72,1.72,0,0,1-.66,1.26l0.42,0.18a2.12,2.12,0,0,1,1.22,2.12v7.62h-1.46L185,128.11,182,130.65h-1.46v-5.08Zm6.54-6.09a0.44,0.44,0,0,0-.49-0.51q-0.68,0-.68.51a1.4,1.4,0,0,0,.81.76A1.08,1.08,0,0,0,187.11,119.47Z"/><path class="cls-2" d="M197.41,121.37h0.2a5.79,5.79,0,0,1,3.37.73,2.57,2.57,0,0,1,1,2.2v3.42a1.76,1.76,0,0,0,.62,1.46,2.7,2.7,0,0,0,1.73.49,2.74,2.74,0,0,0,1.74-.49,1.77,1.77,0,0,0,.61-1.46v-5.19a1.27,1.27,0,0,0-1.27-1.16,6.73,6.73,0,0,1,.76-2.29,1.09,1.09,0,0,1,1.9-.77l0.54,0.37a0.84,0.84,0,0,0,.44.16,0.56,0.56,0,0,0,.36-0.14,2.73,2.73,0,0,1-.29,1.19,0.84,0.84,0,0,1-.62.45h-0.1a2,2,0,0,1-1-.35,1.13,1.13,0,0,0-.52-0.18q-0.26,0-.38.76,1.88,0.5,1.88,1.17v6a2.57,2.57,0,0,1-1,2.2,7,7,0,0,1-6.25,0,2.57,2.57,0,0,1-1-2.2V124.3a1.77,1.77,0,0,0-.61-1.46,3.2,3.2,0,0,0-2-.49,3.15,3.15,0,0,0-2,.49,1.76,1.76,0,0,0-.62,1.46v2.12h0.44a1.74,1.74,0,0,1,1.28.42,1.7,1.7,0,0,1,.43,1.27,3.1,3.1,0,0,1-.49,1.9,1.74,1.74,0,0,1-1.46.63,2.69,2.69,0,0,1-1.46-.32,1,1,0,0,1-.49-0.95V124.3a2.57,2.57,0,0,1,1-2.2,3.07,3.07,0,0,1,1-.47,2.69,2.69,0,0,0-1.2-.75,5.77,5.77,0,0,1,1.39-2.06,2.41,2.41,0,0,1,1.4-.87h0.11a3.77,3.77,0,0,1,1.17.55,4.22,4.22,0,0,0,1,.52h0.15a1,1,0,0,0,.33-0.06,3,3,0,0,1-.54,1.14,1,1,0,0,1-.77.39,2,2,0,0,1-1.05-.42,1.93,1.93,0,0,0-1-.42,1.09,1.09,0,0,0-.73.72A7.88,7.88,0,0,1,197.41,121.37Zm-2,6H195v2c0,0.13.11,0.2,0.34,0.2a0.72,0.72,0,0,0,.59-0.31,1.94,1.94,0,0,0,.24-1.15,0.71,0.71,0,0,0-.18-0.57A0.86,0.86,0,0,0,195.46,127.39Z"/><path class="cls-2" d="M204,111.6a2.26,2.26,0,0,1,1.08.28,2,2,0,0,1,.82.81,2.22,2.22,0,0,1,0,2.2,2,2,0,0,1-.81.82,2.22,2.22,0,0,1-2.19,0,2,2,0,0,1-.82-0.82,2.19,2.19,0,0,1,0-2.2,2,2,0,0,1,.82-0.81A2.23,2.23,0,0,1,204,111.6ZM203.53,113a0.91,0.91,0,0,0-.37.36,1,1,0,0,0,0,1,0.91,0.91,0,0,0,.37.36,1,1,0,0,0,.48.13,1,1,0,0,0,.49-0.13,0.88,0.88,0,0,0,.36-0.36,1,1,0,0,0,.13-0.49,1,1,0,0,0-.13-0.49,0.91,0.91,0,0,0-.36-0.36,1,1,0,0,0-.48-0.13A1,1,0,0,0,203.53,113Z"/><path class="cls-2" d="M219.34,122.53a1.27,1.27,0,0,0-1.27-1.16,6.73,6.73,0,0,1,.76-2.29,1.09,1.09,0,0,1,1.9-.77l0.54,0.37a0.84,0.84,0,0,0,.44.16,0.56,0.56,0,0,0,.36-0.14,2.73,2.73,0,0,1-.29,1.19,0.84,0.84,0,0,1-.62.45h-0.1a2,2,0,0,1-1-.35,1.13,1.13,0,0,0-.52-0.18q-0.26,0-.38.76,1.88,0.5,1.88,1.17v6a2.57,2.57,0,0,1-1,2.2,8.34,8.34,0,0,1-6.84,0,2.57,2.57,0,0,1-1-2.2v-5.19a1.27,1.27,0,0,0-1.27-1.16,6.23,6.23,0,0,1,.81-2.29,1.89,1.89,0,0,1,1.07-1.13,1.77,1.77,0,0,1,.88.36l0.54,0.37a1,1,0,0,0,.57.16,1.9,1.9,0,0,0,.36,0,2.55,2.55,0,0,1-.36,1,1,1,0,0,1-.67.51h-0.1a2,2,0,0,1-1-.35,1.13,1.13,0,0,0-.52-0.18q-0.26,0-.38.76,1.79,0.5,1.79,1.17v6a1.76,1.76,0,0,0,.62,1.46,3.26,3.26,0,0,0,2,.49,3.3,3.3,0,0,0,2-.49,1.77,1.77,0,0,0,.61-1.46v-5.19Z"/><path class="cls-2" d="M220.61,132.6V137h-1.46v-3.42a0.79,0.79,0,0,1-.78-1,1,1,0,0,1,1.17-1A0.91,0.91,0,0,1,220.61,132.6Z"/><path class="cls-2" d="M225,122.53q0-.89-1.46-1.16a6.58,6.58,0,0,1,.8-2.29,1.83,1.83,0,0,1,1.07-1.13,1.86,1.86,0,0,1,.92.36l0.57,0.37a0.91,0.91,0,0,0,.46.16,0.61,0.61,0,0,0,.38-0.14,2.57,2.57,0,0,1-.3,1.19,0.89,0.89,0,0,1-.65.45h-0.1a2.19,2.19,0,0,1-1-.35,1.19,1.19,0,0,0-.54-0.18c-0.19,0-.32.25-0.4,0.76q2,0.5,2,1.17v12.79a1.18,1.18,0,0,0,.71,1.1,3.1,3.1,0,0,0,1.44.37,2.46,2.46,0,0,0,1.41-.37,1.22,1.22,0,0,0,.55-1.09v-2.93h1.46v2.93a2,2,0,0,1-.92,1.83,4.44,4.44,0,0,1-2.5.62,5.87,5.87,0,0,1-2.74-.61,2,2,0,0,1-1.16-1.84v-12Z"/><path class="cls-2" d="M230.18,120.23a1.24,1.24,0,0,1,.59-0.87l0.6-.46a4.21,4.21,0,0,1,1.46-.95,2.66,2.66,0,0,1,1.18.61,2.88,2.88,0,0,0,1.12.61,2.78,2.78,0,0,0,1-.61,2.45,2.45,0,0,1,1.11-.61,3.16,3.16,0,0,1,1.28.7,4.09,4.09,0,0,0,1.1.71,0.41,0.41,0,0,0,.29-0.14q-0.32,1.27-1.11,1.27a2.25,2.25,0,0,1-1.09-.47,2.24,2.24,0,0,0-1-.47,1.89,1.89,0,0,0-1,.47,2,2,0,0,1-1.09.47,2.31,2.31,0,0,1-1.32-.47,2.12,2.12,0,0,0-1-.47,0.84,0.84,0,0,0-.59.19,0.6,0.6,0,0,0-.2.46q0,0.38,1.25.63l-1.4.6A1.17,1.17,0,0,1,230.18,120.23Zm2.25,6.19h0.44a1.74,1.74,0,0,1,1.28.42,1.7,1.7,0,0,1,.43,1.27,3.1,3.1,0,0,1-.49,1.9,1.74,1.74,0,0,1-1.46.63,2.69,2.69,0,0,1-1.46-.32,1,1,0,0,1-.49-0.95V124.3a2.57,2.57,0,0,1,1-2.2,8.34,8.34,0,0,1,6.84,0,2.57,2.57,0,0,1,1,2.2v6.35H237.7V124.3a1.77,1.77,0,0,0-.61-1.46,3.3,3.3,0,0,0-2-.49,3.25,3.25,0,0,0-2,.49,1.76,1.76,0,0,0-.62,1.46v2.12Zm0.44,1h-0.44v2c0,0.13.11,0.2,0.34,0.2a0.72,0.72,0,0,0,.59-0.31,1.94,1.94,0,0,0,.24-1.15,0.71,0.71,0,0,0-.18-0.57A0.86,0.86,0,0,0,232.86,127.39Z"/><path class="cls-2" d="M242.87,120.23a1.24,1.24,0,0,1,.59-0.87l0.6-.46a4.21,4.21,0,0,1,1.46-.95,2.66,2.66,0,0,1,1.18.61,2.87,2.87,0,0,0,1.12.61,2.8,2.8,0,0,0,1-.61A2.45,2.45,0,0,1,250,118a3.15,3.15,0,0,1,1.28.7,4.1,4.1,0,0,0,1.1.71,0.41,0.41,0,0,0,.29-0.14q-0.32,1.27-1.11,1.27a2.25,2.25,0,0,1-1.09-.47,2.24,2.24,0,0,0-1-.47,1.89,1.89,0,0,0-1,.47,2,2,0,0,1-1.09.47A2.31,2.31,0,0,1,246,120a2.12,2.12,0,0,0-1-.47,0.84,0.84,0,0,0-.59.19,0.6,0.6,0,0,0-.2.46q0,0.38,1.25.63l-1.4.6A1.17,1.17,0,0,1,242.87,120.23Zm2.25,10.42h-1.76V124.3a2.57,2.57,0,0,1,1-2.2,8.34,8.34,0,0,1,6.84,0,2.57,2.57,0,0,1,1,2.2v6.35h-1.76V124.3a1.77,1.77,0,0,0-.61-1.46,3.3,3.3,0,0,0-2-.49,3.25,3.25,0,0,0-2,.49,1.76,1.76,0,0,0-.62,1.46v6.35Z"/><path class="cls-2" d="M247.75,111.6a2.26,2.26,0,0,1,1.08.28,2,2,0,0,1,.82.81,2.22,2.22,0,0,1,0,2.2,2,2,0,0,1-.81.82,2.22,2.22,0,0,1-2.19,0,2,2,0,0,1-.82-0.82,2.19,2.19,0,0,1,0-2.2,2,2,0,0,1,.82-0.81A2.23,2.23,0,0,1,247.75,111.6ZM247.28,113a0.91,0.91,0,0,0-.37.36,1,1,0,0,0,0,1,0.91,0.91,0,0,0,.37.36,1,1,0,0,0,.48.13,1,1,0,0,0,.49-0.13,0.88,0.88,0,0,0,.36-0.36,1,1,0,0,0,.13-0.49,1,1,0,0,0-.13-0.49,0.91,0.91,0,0,0-.36-0.36A1,1,0,0,0,247.28,113Z"/><path class="cls-2" d="M256.05,122.53q0-.89-1.46-1.16a6.58,6.58,0,0,1,.8-2.29,1.82,1.82,0,0,1,1.07-1.13,1.87,1.87,0,0,1,.92.36l0.57,0.37a0.9,0.9,0,0,0,.46.16,0.61,0.61,0,0,0,.38-0.14,2.57,2.57,0,0,1-.3,1.19,0.89,0.89,0,0,1-.65.45h-0.1a2.18,2.18,0,0,1-1-.35,1.19,1.19,0,0,0-.54-0.18q-0.28,0-.4.76,2,0.5,2,1.17v4.66q1.46,0,1.46,1.72,0,2.51-1.46,2.51H257a0.85,0.85,0,0,1-1-1v-7.16Zm1.76,7q0.49,0,.49-1.41,0-.74-0.49-0.74v2.15Z"/><path class="cls-2" d="M272,128.69l-2.25,2H268v-9.77a1.77,1.77,0,0,0-.61-1.46,2.56,2.56,0,0,0-1.64-.49,2.52,2.52,0,0,0-1.63.49,1.76,1.76,0,0,0-.62,1.46v4.88a2.46,2.46,0,0,1,1.61.45,1.63,1.63,0,0,1,.54,1.34,3.77,3.77,0,0,1-.61,2.25,2.12,2.12,0,0,1-1.84.85q-1.46,0-1.46-.85v-8.92a2.57,2.57,0,0,1,1-2.2,6.62,6.62,0,0,1,6.05,0,2.57,2.57,0,0,1,1,2.2v8.48l2.25-2,2.25,1.94v-8.47a2.57,2.57,0,0,1,1-2.2,6.62,6.62,0,0,1,6.05,0,2.57,2.57,0,0,1,1,2.2v9.77h-1.76v-9.77a1.77,1.77,0,0,0-.61-1.46,2.56,2.56,0,0,0-1.64-.49,2.52,2.52,0,0,0-1.63.49,1.76,1.76,0,0,0-.62,1.46v9.77h-1.76Zm-8.5-2v2.64a1,1,0,0,0,.88-0.46,2.57,2.57,0,0,0,.29-1.37,0.68,0.68,0,0,0-.29-0.61A1.54,1.54,0,0,0,263.48,126.74Z"/><path class="cls-2" d="M280.81,113.45V111.6h1.27v3.91H276q-2.44,0-2.44-2t3.13-2a5.54,5.54,0,0,1,3.66,1.46Zm-4.79.79h4a4.35,4.35,0,0,0-3.32-1.46q-2,0-2,.78T276,114.24Z"/><path class="cls-2" d="M285.64,120.23a1.24,1.24,0,0,1,.59-0.87l0.6-.46a4.21,4.21,0,0,1,1.46-.95,2.66,2.66,0,0,1,1.18.61,2.87,2.87,0,0,0,1.12.61,2.8,2.8,0,0,0,1-.61,2.45,2.45,0,0,1,1.11-.61,3.15,3.15,0,0,1,1.28.7,4.1,4.1,0,0,0,1.1.71,0.41,0.41,0,0,0,.29-0.14q-0.32,1.27-1.11,1.27a2.25,2.25,0,0,1-1.09-.47,2.24,2.24,0,0,0-1-.47,1.89,1.89,0,0,0-1,.47,2,2,0,0,1-1.09.47,2.31,2.31,0,0,1-1.32-.47,2.12,2.12,0,0,0-1-.47,0.84,0.84,0,0,0-.59.19,0.6,0.6,0,0,0-.2.46q0,0.38,1.25.63l-1.4.6A1.17,1.17,0,0,1,285.64,120.23Zm2.25,6.19h0.44a1.74,1.74,0,0,1,1.28.42,1.7,1.7,0,0,1,.43,1.27,3.1,3.1,0,0,1-.49,1.9,1.73,1.73,0,0,1-1.46.63,2.68,2.68,0,0,1-1.46-.32,1,1,0,0,1-.49-0.95V124.3a2.57,2.57,0,0,1,1-2.2,8.34,8.34,0,0,1,6.84,0,2.57,2.57,0,0,1,1,2.2v6.35h-1.76V124.3a1.77,1.77,0,0,0-.61-1.46,3.3,3.3,0,0,0-2-.49,3.25,3.25,0,0,0-2,.49,1.76,1.76,0,0,0-.62,1.46v2.12Zm0.44,1h-0.44v2c0,0.13.11,0.2,0.34,0.2a0.73,0.73,0,0,0,.59-0.31,1.93,1.93,0,0,0,.24-1.15,0.71,0.71,0,0,0-.18-0.57A0.87,0.87,0,0,0,288.33,127.39Z"/></svg>