<svg id="Layer_1" data-name="Layer 1" xmlns="http://www.w3.org/2000/svg" viewBox="0 0 400 200"><defs><style>.cls-1{fill:#4e77bb;stroke:#3e66b0;stroke-miterlimit:10;}.cls-2{fill:#fff;}</style></defs><title>API Button</title><rect class="cls-1" x="33.5" y="34.5" width="333" height="131" rx="3" ry="3"/><path class="cls-2" d="M190.28,67.91q0-2.38-3.08-2.38,0-2.75,2.67-2.75,4.1,0,4.1,5.13v20a4.29,4.29,0,0,0,2,3.67,9.65,9.65,0,0,0,5.6,1.39h1a9.65,9.65,0,0,0,5.6-1.39,4.29,4.29,0,0,0,2-3.67V73.65A3.45,3.45,0,0,0,209,71.31l-0.14,0q-0.72,0-3.16,3.24-2.4-3.24-3.14-3.24l-0.14,0a3.39,3.39,0,0,0-1.25,2.34V81.2a4.2,4.2,0,0,1,2.44.55,2,2,0,0,1,.76,1.68q0,2.67-3.2,2.67-3.69,0-3.69-1.78V73.65a4.55,4.55,0,0,1,2.24-3.75,8,8,0,0,1,2.85-1.58q0.62,0,3.14,2.38,2.52-2.38,3.12-2.38a7.87,7.87,0,0,1,2.83,1.58,4.55,4.55,0,0,1,2.24,3.75V87.86A6,6,0,0,1,211,92.93Q208.12,95,202.58,95h-1q-5.54,0-8.41-2.05a6,6,0,0,1-2.87-5.07v-20ZM201.15,83v1.33q1.15,0,1.15-.88a0.38,0.38,0,0,0-.27-0.35A2.58,2.58,0,0,0,201.15,83Z"/><path class="cls-2" d="M140.19,122.53q0-.89-1.46-1.16a6.58,6.58,0,0,1,.8-2.29A1.83,1.83,0,0,1,140.6,118a1.86,1.86,0,0,1,.92.36l0.57,0.37a0.91,0.91,0,0,0,.46.16,0.61,0.61,0,0,0,.38-0.14,2.57,2.57,0,0,1-.3,1.19,0.89,0.89,0,0,1-.65.45h-0.1a2.19,2.19,0,0,1-1-.35,1.19,1.19,0,0,0-.54-0.18c-0.19,0-.32.25-0.4,0.76q2,0.5,2,1.17v4.66q1.46,0,1.46,1.72,0,2.51-1.46,2.51h-0.78a0.86,0.86,0,0,1-1-1v-7.16Zm1.76,7q0.49,0,.49-1.41,0-.74-0.49-0.74v2.15Z"/><path class="cls-2" d="M150,121.37h0.2a5.79,5.79,0,0,1,3.37.73,2.57,2.57,0,0,1,1,2.2v3.42a1.76,1.76,0,0,0,.62,1.46,2.7,2.7,0,0,0,1.73.49,2.74,2.74,0,0,0,1.74-.49,1.77,1.77,0,0,0,.61-1.46v-5.19a1.27,1.27,0,0,0-1.27-1.16,6.73,6.73,0,0,1,.76-2.29,1.09,1.09,0,0,1,1.9-.77l0.54,0.37a0.84,0.84,0,0,0,.44.16,0.56,0.56,0,0,0,.36-0.14,2.73,2.73,0,0,1-.29,1.19,0.84,0.84,0,0,1-.62.45H161a2,2,0,0,1-1-.35,1.13,1.13,0,0,0-.52-0.18q-0.26,0-.38.76,1.88,0.5,1.88,1.17v6a2.57,2.57,0,0,1-1,2.2,7,7,0,0,1-6.25,0,2.57,2.57,0,0,1-1-2.2V124.3a1.77,1.77,0,0,0-.61-1.46,3.2,3.2,0,0,0-2-.49,3.15,3.15,0,0,0-2,.49,1.76,1.76,0,0,0-.62,1.46v2.12H148a1.74,1.74,0,0,1,1.28.42,1.7,1.7,0,0,1,.43,1.27,3.1,3.1,0,0,1-.49,1.9,1.74,1.74,0,0,1-1.46.63,2.69,2.69,0,0,1-1.46-.32,1,1,0,0,1-.49-0.95V124.3a2.57,2.57,0,0,1,1-2.2,3.07,3.07,0,0,1,1-.47,2.69,2.69,0,0,0-1.2-.75,5.77,5.77,0,0,1,1.39-2.06,2.41,2.41,0,0,1,1.4-.87h0.11a3.77,3.77,0,0,1,1.17.55,4.22,4.22,0,0,0,1,.52h0.15a1,1,0,0,0,.33-0.06,3,3,0,0,1-.54,1.14,1,1,0,0,1-.77.39,2,2,0,0,1-1.05-.42,1.93,1.93,0,0,0-1-.42,1.09,1.09,0,0,0-.73.72A7.88,7.88,0,0,1,150,121.37Zm-2,6h-0.44v2c0,0.13.11,0.2,0.34,0.2a0.72,0.72,0,0,0,.59-0.31,1.94,1.94,0,0,0,.24-1.15,0.71,0.71,0,0,0-.18-0.57A0.86,0.86,0,0,0,148,127.39Z"/><path class="cls-2" d="M164.89,117.56a2.14,2.14,0,0,0-.5-1.54,2,2,0,0,0-1.49-.51h-1.13q-2.44,0-2.44-1.38a2.23,2.23,0,0,1,.2-0.81,2.61,2.61,0,0,0,.2-1q0-.5-0.92-0.5,0-.72,1.34-0.72a1.13,1.13,0,0,1,1.34,1.22,2.37,2.37,0,0,1-.2,1,1.79,1.79,0,0,0-.2.77c0,0.27.23,0.4,0.68,0.4h1.13a4.43,4.43,0,0,1,2.81.75,2.76,2.76,0,0,1,.94,2.28v17a2,2,0,0,1-.93,1.83,6.6,6.6,0,0,1-5.57,0,2,2,0,0,1-.93-1.83v-2.44H161v2.44a1.27,1.27,0,0,0,.49,1.09,3.08,3.08,0,0,0,2.93,0,1.27,1.27,0,0,0,.49-1.09v-17Z"/><path class="cls-2" d="M172.31,129.69a0.86,0.86,0,0,1-1,1h-0.78q-1.46,0-1.46-2.61a1.37,1.37,0,0,1,1.46-1.62v-3.89q0-.89-1.46-1.16a5.39,5.39,0,0,1,.66-2.29,1.09,1.09,0,0,1,1.9-.77l0.25,0.18,0.1,0c0.2,0,.3-0.26.3-0.77s-0.33-.62-1-0.62a0.81,0.81,0,1,1,0-1.59q2,0,2,2.22v0.48a3.15,3.15,0,0,1-.39,1.75,1,1,0,0,1-.71.39,2,2,0,0,1-1-.35,1.13,1.13,0,0,0-.52-0.18q-0.36,0-.48.76,2.08,0.5,2.08,1.17v7.93Zm-1.76-2.29c-0.33,0-.49.21-0.49,0.64q0,1.5.49,1.5v-2.15Z"/><path class="cls-2" d="M176.22,122.53q0-.89-1.46-1.16a6.58,6.58,0,0,1,.8-2.29,1.83,1.83,0,0,1,1.07-1.13,1.86,1.86,0,0,1,.92.36l0.57,0.37a0.91,0.91,0,0,0,.46.16,0.61,0.61,0,0,0,.38-0.14,2.57,2.57,0,0,1-.3,1.19,0.89,0.89,0,0,1-.65.45h-0.1a2.19,2.19,0,0,1-1-.35,1.19,1.19,0,0,0-.54-0.18c-0.19,0-.32.25-0.4,0.76q2,0.5,2,1.17v4.66q1.46,0,1.46,1.72,0,2.51-1.46,2.51H177.2a0.86,0.86,0,0,1-1-1v-7.16Zm1.76,7q0.49,0,.49-1.41,0-.74-0.49-0.74v2.15Z"/><path class="cls-2" d="M182.86,122.1a8.34,8.34,0,0,1,6.84,0,2.57,2.57,0,0,1,1,2.2v6.35h-1.76V124.3a1.77,1.77,0,0,0-.61-1.46,3.3,3.3,0,0,0-2-.49,3.25,3.25,0,0,0-2,.49,1.76,1.76,0,0,0-.62,1.46,4.75,4.75,0,0,0,.49,1.55,5.83,5.83,0,0,1,.49,2.37q0,2.42-2,2.42-1.76,0-1.76-2.12t1.46-2.11h0.19a2.69,2.69,0,0,0-.19-0.42,3.61,3.61,0,0,1-.49-1.7A2.57,2.57,0,0,1,182.86,122.1Zm14-1.5a1.66,1.66,0,0,1,.16.69v9.36h-1.76v-8.77a1.93,1.93,0,0,0-1.44-1.69,6.09,6.09,0,0,0-2.13-.62,3.64,3.64,0,0,0-1.7.62,3.73,3.73,0,0,1-1.51.61,3.3,3.3,0,0,1-1.22-.32l-1.3-.54a3.56,3.56,0,0,0-1.52-.36,2.09,2.09,0,0,0-1,.27,0.88,0.88,0,0,0-.48.82,1,1,0,0,0,.74.63l-1.05.51a1.81,1.81,0,0,1-1.2-1.36q0-.65,1.71-1.57a7.5,7.5,0,0,1,2.1-.91,5.15,5.15,0,0,1,1.51.46l1.7,0.71a1.89,1.89,0,0,0,.74.13,1.92,1.92,0,0,0,.85-0.2l0.57-.29a4.92,4.92,0,0,1,1.81-.81,4.64,4.64,0,0,1,1.51.43,9.82,9.82,0,0,1,1.85,1v-3.11a0.81,0.81,0,0,0-1-.84q0-.85,1.22-0.85a1.42,1.42,0,0,1,1.51,1.69v2.54A3.6,3.6,0,0,1,196.87,120.6Zm-14.08,6.8h-0.41q-0.49,0-.49,1.13t0.49,1q0.49,0,.49-1.32A3.51,3.51,0,0,0,182.78,127.39Z"/><path class="cls-2" d="M216.06,127.72a2.57,2.57,0,0,1-1,2.2,7,7,0,0,1-6.25,0,2.57,2.57,0,0,1-1-2.2V124.3a1.77,1.77,0,0,0-.61-1.46,3.2,3.2,0,0,0-2-.49,3.15,3.15,0,0,0-2,.49,1.76,1.76,0,0,0-.62,1.46v2.12h0.44a1.74,1.74,0,0,1,1.28.42,1.7,1.7,0,0,1,.43,1.27,3.1,3.1,0,0,1-.49,1.9,1.74,1.74,0,0,1-1.46.63,2.69,2.69,0,0,1-1.46-.32,1,1,0,0,1-.49-0.95V124.3a2.57,2.57,0,0,1,1-2.2,3.07,3.07,0,0,1,1-.47,2.69,2.69,0,0,0-1.2-.75,5.77,5.77,0,0,1,1.39-2.06,2.41,2.41,0,0,1,1.4-.87h0.11a3.77,3.77,0,0,1,1.17.55,4.22,4.22,0,0,0,1,.52h0.15a1,1,0,0,0,.33-0.06,3,3,0,0,1-.54,1.14,1,1,0,0,1-.77.39,2,2,0,0,1-1.05-.42,1.93,1.93,0,0,0-1-.42,1.09,1.09,0,0,0-.73.72,7.88,7.88,0,0,1,1.89,1h0.2a5.79,5.79,0,0,1,3.37.73,2.57,2.57,0,0,1,1,2.2v3.42a1.76,1.76,0,0,0,.62,1.46,2.7,2.7,0,0,0,1.73.49,2.74,2.74,0,0,0,1.74-.49,1.77,1.77,0,0,0,.61-1.46v-5.29q0-.93-1.33-1.07a3.54,3.54,0,0,1,1.24-2.29,3.29,3.29,0,0,1,2.22-1.07,7,7,0,0,1,2.72.46q3.25,1.39,3.25,3.28v8.92h-1.76v-8.43q0-1.4-2.53-2.27a6.82,6.82,0,0,0-2.15-.28,1.75,1.75,0,0,0-1.59,1q1.68,0.51,1.68,1.21v5.79Zm-12.94-.32h-0.44v2c0,0.13.11,0.2,0.34,0.2a0.72,0.72,0,0,0,.59-0.31,1.94,1.94,0,0,0,.24-1.15,0.71,0.71,0,0,0-.18-0.57A0.86,0.86,0,0,0,203.12,127.39Z"/><path class="cls-2" d="M209.47,135.84q-2.44,0-2.44-1.73T210,132.4h3.42v-0.78h1.46v0.78h1.46v1h-1.46v1.17a0.88,0.88,0,0,1,.73.3,1.45,1.45,0,0,1,.24.92,1.25,1.25,0,0,1-.3.92,1.27,1.27,0,0,1-.92.3,1.13,1.13,0,0,1-.92-0.37,1.68,1.68,0,0,1-.3-1.09l-2.93.29h-1Zm-1-1.73a0.78,0.78,0,0,0,1,.76c0.47,0,.8,0,1,0l2.93-.29v-1.17H210Q208.5,133.38,208.5,134.11Z"/><path class="cls-2" d="M225.83,120.23a1.24,1.24,0,0,1,.59-0.87l0.6-.46a4.21,4.21,0,0,1,1.46-.95,2.66,2.66,0,0,1,1.18.61,2.88,2.88,0,0,0,1.12.61,2.78,2.78,0,0,0,1-.61,2.45,2.45,0,0,1,1.11-.61,3.16,3.16,0,0,1,1.28.7,4.09,4.09,0,0,0,1.1.71,0.41,0.41,0,0,0,.29-0.14q-0.32,1.27-1.11,1.27a2.25,2.25,0,0,1-1.09-.47,2.24,2.24,0,0,0-1-.47,1.89,1.89,0,0,0-1,.47,2,2,0,0,1-1.09.47A2.31,2.31,0,0,1,229,120a2.12,2.12,0,0,0-1-.47,0.84,0.84,0,0,0-.59.19,0.6,0.6,0,0,0-.2.46q0,0.38,1.25.63l-1.4.6A1.17,1.17,0,0,1,225.83,120.23Zm2.25,10.42h-1.76V124.3a2.57,2.57,0,0,1,1-2.2,8.34,8.34,0,0,1,6.84,0,2.57,2.57,0,0,1,1,2.2v6.35h-1.76V124.3a1.77,1.77,0,0,0-.61-1.46,3.3,3.3,0,0,0-2-.49,3.25,3.25,0,0,0-2,.49,1.76,1.76,0,0,0-.62,1.46v6.35Z"/><path class="cls-2" d="M231.45,111.6V115a0.76,0.76,0,1,1-1.46,0V111.6h1.46Z"/><path class="cls-2" d="M239,122.53q0-.89-1.46-1.16a6.58,6.58,0,0,1,.8-2.29,1.83,1.83,0,0,1,1.07-1.13,1.86,1.86,0,0,1,.92.36l0.57,0.37a0.9,0.9,0,0,0,.46.16,0.61,0.61,0,0,0,.38-0.14,2.57,2.57,0,0,1-.3,1.19,0.89,0.89,0,0,1-.65.45h-0.1a2.19,2.19,0,0,1-1-.35,1.19,1.19,0,0,0-.54-0.18c-0.19,0-.32.25-0.4,0.76q2,0.5,2,1.17v4.66q1.46,0,1.46,1.72,0,2.51-1.46,2.51H240a0.86,0.86,0,0,1-1-1v-7.16Zm1.76,7q0.49,0,.49-1.41,0-.74-0.49-0.74v2.15Z"/><path class="cls-2" d="M259.7,120.55a1.43,1.43,0,0,1,.12.55v9.55h-1.76V121.1a1.8,1.8,0,0,0-.9-1,3,3,0,0,0-1.71-.64,5.25,5.25,0,0,0-2.09.86,4.83,4.83,0,0,1,.11,1.05v0.55a1,1,0,0,1-.18.57,1.19,1.19,0,0,1-.49.42,2.27,2.27,0,0,1-.95.15,1.49,1.49,0,0,1-.65-0.15,1.19,1.19,0,0,1-.49-0.42,1,1,0,0,1,0-1.14,1.16,1.16,0,0,1,.49-0.42,1.53,1.53,0,0,1,.43-0.13,2.23,2.23,0,0,0-.77-1.38,2.92,2.92,0,0,0-1.8-.46,2.82,2.82,0,0,0-2,.61,2.43,2.43,0,0,0-.61,1.81,2.2,2.2,0,0,0,.88,1.67,8.19,8.19,0,0,0,2.64,1.38l3.52,1.23v2.49q0,2.54-2.78,2.54a3,3,0,0,1-2.29-1.21,2.74,2.74,0,0,0-2-1.2v2.41h-1.76v-5.08h1.76v1.69a3.23,3.23,0,0,1,2.34,1.2,3,3,0,0,0,1.9,1.21q1,0,1-1.56v-1.89L248.19,125a6.57,6.57,0,0,1-2.64-1.52,3,3,0,0,1-.88-2.14,3.17,3.17,0,0,1,1-2.54,7.3,7.3,0,0,1,6.84,0,2.67,2.67,0,0,1,.38.4l1.18-.7a3.41,3.41,0,0,1,1.79-.55,4.44,4.44,0,0,1,2.52,1.1l0.19,0.15v-2.95a0.81,0.81,0,0,0-1-.84q0-.85,1.22-0.85a1.42,1.42,0,0,1,1.51,1.69v2.54A3.59,3.59,0,0,1,259.7,120.55Z"/></svg>