<svg id="Layer_1" data-name="Layer 1" xmlns="http://www.w3.org/2000/svg" viewBox="0 0 400 200"><defs><style>.cls-1{fill:#4e77bb;stroke:#3e66b0;stroke-miterlimit:10;}.cls-2{fill:#fff;}</style></defs><title>API Button</title><rect class="cls-1" x="33.5" y="34.5" width="333" height="131" rx="3" ry="3"/><path class="cls-2" d="M209.7,90.84Q205.5,95,198.48,95V93.2a10.91,10.91,0,0,0,8.1-3.79q3.59-3.79,3.59-10.42,0-4.86-2.42-6.75a10,10,0,0,0-6.23-1.87,8,8,0,0,0-5.58,1.78,6.5,6.5,0,0,0-2,5,7.21,7.21,0,0,0,1.18,4.37,4,4,0,0,0,3.39,1.6,2.26,2.26,0,0,0,2-.92,3.52,3.52,0,0,0,.66-2.09V80a3.68,3.68,0,0,1-.88.12,1.65,1.65,0,0,1-1.6-.92,2.55,2.55,0,0,1-.31-1.13q0-1.27,1.89-2a4.64,4.64,0,0,1,1.6-.33A2.34,2.34,0,0,1,204,77.08a5.43,5.43,0,0,1,.68,2.48,8,8,0,0,1-.39,2.14A4.72,4.72,0,0,1,202.87,84,5.21,5.21,0,0,1,200,85.12a9.88,9.88,0,0,1-1.48.1,14.38,14.38,0,0,1-2.88-.33,7.3,7.3,0,0,1-3.48-2.26,7.4,7.4,0,0,1-1.91-5.43,7.88,7.88,0,0,1,3-6.44q3-2.44,8.22-2.44a14.77,14.77,0,0,1,8.88,2.52q3.47,2.54,3.47,8.14Q213.86,86.71,209.7,90.84Z"/><path class="cls-2" d="M121.17,121.79a1.81,1.81,0,0,1-1.2-1.36q0-.65,1.71-1.57a7.5,7.5,0,0,1,2.1-.91,5.15,5.15,0,0,1,1.51.46l1.7,0.71a1.89,1.89,0,0,0,.74.13,1.92,1.92,0,0,0,.85-0.2l0.57-.29A4.92,4.92,0,0,1,131,118a4.64,4.64,0,0,1,1.51.43q3.11,1.3,3.12,2.91v9.36h-1.76v-8.77a1.93,1.93,0,0,0-1.44-1.69,6.09,6.09,0,0,0-2.13-.62,3.64,3.64,0,0,0-1.7.62,3.73,3.73,0,0,1-1.51.61,3.3,3.3,0,0,1-1.22-.32l-1.3-.54a3.56,3.56,0,0,0-1.52-.36,2.09,2.09,0,0,0-1,.27,0.88,0.88,0,0,0-.48.82,1,1,0,0,0,.74.63Zm1,8.86h-1.76V124.3a2.57,2.57,0,0,1,1-2.2,8.34,8.34,0,0,1,6.84,0,2.57,2.57,0,0,1,1,2.2v6.35h-1.76V124.3a1.77,1.77,0,0,0-.61-1.46,3.3,3.3,0,0,0-2-.49,3.25,3.25,0,0,0-2,.49,1.76,1.76,0,0,0-.62,1.46v6.35Z"/><path class="cls-2" d="M141.26,129.69a0.86,0.86,0,0,1-1,1H139.5q-1.46,0-1.46-2.61a1.37,1.37,0,0,1,1.46-1.62v-3.89q0-.89-1.46-1.16a6.58,6.58,0,0,1,.8-2.29,1.83,1.83,0,0,1,1.07-1.13,1.86,1.86,0,0,1,.92.36l0.57,0.37a0.91,0.91,0,0,0,.46.16,0.61,0.61,0,0,0,.38-0.14,2.57,2.57,0,0,1-.3,1.19,0.89,0.89,0,0,1-.65.45h-0.1a2.19,2.19,0,0,1-1-.35,1.19,1.19,0,0,0-.54-0.18c-0.19,0-.32.25-0.4,0.76q2,0.5,2,1.17v7.93Zm-1.76-2.29c-0.33,0-.49.21-0.49,0.64q0,1.5.49,1.5v-2.15Z"/><path class="cls-2" d="M152.55,120.83l0.19,0.08A2.12,2.12,0,0,1,154,123v7.62h-1.46l-2.93-2.54-2.93,2.54h-1.46v-5.08a1.15,1.15,0,0,1-1-1,1.56,1.56,0,0,1,.39-1.1,1.39,1.39,0,0,1,1.07-.42q1.27,0,1.27.84V129l2.64-2.2,2.64,2.29V123a1.63,1.63,0,0,0-.27-1.15,3.79,3.79,0,0,0-.62-0.45,6,6,0,0,1-2.91.76,4,4,0,0,1-2.35-.59,2.27,2.27,0,0,1-.87-2,3.4,3.4,0,0,1,.24-1.26,3.45,3.45,0,0,0,.24-1.28,0.82,0.82,0,0,0-1-.86,0.81,0.81,0,0,1,1-.84,1.53,1.53,0,0,1,1.76,1.7,3.18,3.18,0,0,1-.24,1.33,2.86,2.86,0,0,0-.24,1.21,1.46,1.46,0,0,0,.39,1.16,1.61,1.61,0,0,0,1.07.33,7.23,7.23,0,0,0,2-.28,2,2,0,0,1-1-1.39q0-1.52,1.86-1.52t1.76,1.51l1.56-1a3.41,3.41,0,0,1,1.79-.55,4.45,4.45,0,0,1,2.52,1.1,2.94,2.94,0,0,1,1.46,2v9.55h-1.76V121.1a1.8,1.8,0,0,0-.9-1,3,3,0,0,0-1.71-.64A12.15,12.15,0,0,0,152.55,120.83Zm-0.84-1.36a0.44,0.44,0,0,0-.49-0.51q-0.68,0-.68.51a1.4,1.4,0,0,0,.81.76A1.08,1.08,0,0,0,151.71,119.47Z"/><path class="cls-2" d="M166,129.69a0.86,0.86,0,0,1-1,1h-0.78q-1.46,0-1.46-2.61a1.37,1.37,0,0,1,1.46-1.62v-3.89q0-.89-1.46-1.16a6.58,6.58,0,0,1,.8-2.29,1.83,1.83,0,0,1,1.07-1.13,1.86,1.86,0,0,1,.92.36l0.57,0.37a0.91,0.91,0,0,0,.46.16,0.61,0.61,0,0,0,.38-0.14,2.57,2.57,0,0,1-.3,1.19,0.89,0.89,0,0,1-.65.45h-0.1a2.19,2.19,0,0,1-1-.35,1.19,1.19,0,0,0-.54-0.18c-0.19,0-.32.25-0.4,0.76q2,0.5,2,1.17v7.93Zm-1.76-2.29c-0.33,0-.49.21-0.49,0.64q0,1.5.49,1.5v-2.15Z"/><path class="cls-2" d="M178.66,129.69a0.86,0.86,0,0,1-1,1H176.9q-1.46,0-1.46-2.61a1.37,1.37,0,0,1,1.46-1.62v-1.16h-5.27v4.43a0.86,0.86,0,0,1-1,1h-0.78q-1.46,0-1.46-2.61a1.37,1.37,0,0,1,1.46-1.62v-3.89a1.27,1.27,0,0,0-1.27-1.16,6.23,6.23,0,0,1,.81-2.29,1.89,1.89,0,0,1,1.07-1.13,1.77,1.77,0,0,1,.88.36l0.54,0.37a1,1,0,0,0,.57.16,1.9,1.9,0,0,0,.36,0,2.55,2.55,0,0,1-.36,1,1,1,0,0,1-.67.51h-0.1a2,2,0,0,1-1-.35,1.13,1.13,0,0,0-.52-0.18q-0.26,0-.38.76,1.79,0.5,1.79,1.17v2.52h5.27v-1.75a1.27,1.27,0,0,0-1.27-1.16,6.73,6.73,0,0,1,.76-2.29,1.09,1.09,0,0,1,1.9-.77l0.54,0.37a0.84,0.84,0,0,0,.44.16,0.56,0.56,0,0,0,.36-0.14,2.73,2.73,0,0,1-.29,1.19,0.84,0.84,0,0,1-.62.45h-0.1a2,2,0,0,1-1-.35,1.13,1.13,0,0,0-.52-0.18q-0.26,0-.38.76,1.88,0.5,1.88,1.17v7.93Zm-8.79-2.29c-0.33,0-.49.21-0.49,0.64q0,1.5.49,1.5v-2.15Zm7,0c-0.33,0-.49.21-0.49,0.64q0,1.5.49,1.5v-2.15Z"/><path class="cls-2" d="M182.57,122.53q0-.89-1.46-1.16a6.58,6.58,0,0,1,.8-2.29A1.83,1.83,0,0,1,183,118a1.86,1.86,0,0,1,.92.36l0.57,0.37a0.91,0.91,0,0,0,.46.16,0.61,0.61,0,0,0,.38-0.14,2.57,2.57,0,0,1-.3,1.19,0.89,0.89,0,0,1-.65.45h-0.1a2.19,2.19,0,0,1-1-.35,1.19,1.19,0,0,0-.54-0.18c-0.19,0-.32.25-0.4,0.76q2,0.5,2,1.17v12.79a1.18,1.18,0,0,0,.71,1.1,3.1,3.1,0,0,0,1.44.37,2.46,2.46,0,0,0,1.41-.37,1.22,1.22,0,0,0,.55-1.09v-2.93h1.46v2.93a2,2,0,0,1-.92,1.83,4.44,4.44,0,0,1-2.5.62,5.87,5.87,0,0,1-2.74-.61,2,2,0,0,1-1.16-1.84v-12Z"/><path class="cls-2" d="M188.95,121.79a1.81,1.81,0,0,1-1.2-1.36q0-.65,1.71-1.57a7.5,7.5,0,0,1,2.1-.91,5.15,5.15,0,0,1,1.51.46l1.7,0.71a1.89,1.89,0,0,0,.74.13,1.92,1.92,0,0,0,.85-0.2l0.57-.29a4.92,4.92,0,0,1,1.81-.81,4.64,4.64,0,0,1,1.51.43q3.11,1.3,3.12,2.91v9.36h-1.76v-8.77a1.93,1.93,0,0,0-1.44-1.69,6.09,6.09,0,0,0-2.13-.62,3.64,3.64,0,0,0-1.7.62,3.73,3.73,0,0,1-1.51.61,3.3,3.3,0,0,1-1.22-.32l-1.3-.54a3.56,3.56,0,0,0-1.52-.36,2.09,2.09,0,0,0-1,.27,0.88,0.88,0,0,0-.48.82,1,1,0,0,0,.74.63Zm1,4.63h0.44a1.74,1.74,0,0,1,1.28.42,1.7,1.7,0,0,1,.43,1.27,3.1,3.1,0,0,1-.49,1.9,1.74,1.74,0,0,1-1.46.63,2.69,2.69,0,0,1-1.46-.32,1,1,0,0,1-.49-0.95V124.3a2.57,2.57,0,0,1,1-2.2,8.34,8.34,0,0,1,6.84,0,2.57,2.57,0,0,1,1,2.2v6.35h-1.76V124.3a1.77,1.77,0,0,0-.61-1.46,3.3,3.3,0,0,0-2-.49,3.25,3.25,0,0,0-2,.49,1.76,1.76,0,0,0-.62,1.46v2.12Zm0.44,1H190v2c0,0.13.11,0.2,0.34,0.2a0.72,0.72,0,0,0,.59-0.31,1.94,1.94,0,0,0,.24-1.15,0.71,0.71,0,0,0-.18-0.57A0.86,0.86,0,0,0,190.43,127.39Z"/><path class="cls-2" d="M209,121.34a2.2,2.2,0,0,0,.88,1.67,8.19,8.19,0,0,0,2.64,1.38l3.52,1.23v2.49q0,2.54-2.78,2.54a3,3,0,0,1-2.29-1.21,2.74,2.74,0,0,0-2-1.2v2.41h-1.76v-5.08H209v1.69a3.23,3.23,0,0,1,2.34,1.2,3,3,0,0,0,1.9,1.21q1,0,1-1.56v-1.89L210.79,125a6.57,6.57,0,0,1-2.64-1.52,3,3,0,0,1-.88-2.14,3.17,3.17,0,0,1,1-2.54,7.3,7.3,0,0,1,6.84,0,3.17,3.17,0,0,1,1,2.54v0.55a1,1,0,0,1-.18.57,1.18,1.18,0,0,1-.49.42,2.27,2.27,0,0,1-.95.15,1.49,1.49,0,0,1-.65-0.15,1.18,1.18,0,0,1-.49-0.42,1,1,0,0,1,0-1.14,1.16,1.16,0,0,1,.49-0.42,1.53,1.53,0,0,1,.43-0.13,2.23,2.23,0,0,0-.77-1.38,2.92,2.92,0,0,0-1.8-.46,2.83,2.83,0,0,0-2,.61A2.43,2.43,0,0,0,209,121.34Z"/><path class="cls-2" d="M215.58,132.6V137h-1.46v-3.42a0.79,0.79,0,0,1-.78-1,1,1,0,0,1,1.17-1A0.91,0.91,0,0,1,215.58,132.6Z"/><path class="cls-2" d="M219.48,120.23a1.24,1.24,0,0,1,.59-0.87l0.6-.46a4.21,4.21,0,0,1,1.46-.95,2.66,2.66,0,0,1,1.18.61,2.88,2.88,0,0,0,1.12.61,2.78,2.78,0,0,0,1-.61,2.45,2.45,0,0,1,1.11-.61,3.16,3.16,0,0,1,1.28.7,4.09,4.09,0,0,0,1.1.71,0.41,0.41,0,0,0,.29-0.14q-0.32,1.27-1.11,1.27A2.25,2.25,0,0,1,227,120a2.24,2.24,0,0,0-1-.47,1.89,1.89,0,0,0-1,.47,2,2,0,0,1-1.09.47,2.31,2.31,0,0,1-1.32-.47,2.12,2.12,0,0,0-1-.47,0.84,0.84,0,0,0-.59.19,0.6,0.6,0,0,0-.2.46q0,0.38,1.25.63l-1.4.6A1.17,1.17,0,0,1,219.48,120.23Zm2.25,10.42H220V124.3a2.57,2.57,0,0,1,1-2.2,8.34,8.34,0,0,1,6.84,0,2.57,2.57,0,0,1,1,2.2v6.35H227V124.3a1.77,1.77,0,0,0-.61-1.46,3.3,3.3,0,0,0-2-.49,3.25,3.25,0,0,0-2,.49,1.76,1.76,0,0,0-.62,1.46v6.35Z"/><path class="cls-2" d="M226.32,137a2,2,0,0,1-1.74-.64,1.58,1.58,0,0,1-.31-0.91,1.35,1.35,0,0,1,.06-0.39l0.49-1.47a0.79,0.79,0,0,1-.78-1,1,1,0,0,1,1.17-1,1.07,1.07,0,0,1,1.2,1.22,4.54,4.54,0,0,1-.21,1.22l-0.4,1.26a0.89,0.89,0,0,0-.07.31q0,0.38.59,0.38t1.52-2.2q0.81-2.2,1.33-2.2c0.16,0,.24.22,0.24,0.67a9.86,9.86,0,0,1-.66,2.77A2.46,2.46,0,0,1,226.32,137Z"/><path class="cls-2" d="M232.67,120.88a2.57,2.57,0,0,1,1-2.2,8.12,8.12,0,0,1,6.74,0,2.57,2.57,0,0,1,1,2.2v6.84a1.76,1.76,0,0,0,.62,1.46,2.69,2.69,0,0,0,1.73.49,2.74,2.74,0,0,0,1.74-.49,1.77,1.77,0,0,0,.61-1.46v-5.19a1.27,1.27,0,0,0-1.27-1.16,6.77,6.77,0,0,1,.76-2.29,1.78,1.78,0,0,1,1-1.13,1.76,1.76,0,0,1,.88.36l0.54,0.37a0.85,0.85,0,0,0,.44.16,0.56,0.56,0,0,0,.36-0.14,2.71,2.71,0,0,1-.29,1.19,0.84,0.84,0,0,1-.62.45h-0.1a2,2,0,0,1-1-.35,1.12,1.12,0,0,0-.52-0.18q-0.26,0-.38.76,1.89,0.5,1.88,1.17v6a2.57,2.57,0,0,1-1,2.2,7,7,0,0,1-6.25,0,2.57,2.57,0,0,1-1-2.2v-6.84a1.77,1.77,0,0,0-.61-1.46,3.2,3.2,0,0,0-2-.49,3.15,3.15,0,0,0-2,.49,1.76,1.76,0,0,0-.62,1.46v4.88a2.46,2.46,0,0,1,1.61.45,1.63,1.63,0,0,1,.54,1.34,3.76,3.76,0,0,1-.61,2.25,2.12,2.12,0,0,1-1.84.85q-1.46,0-1.46-.85v-8.92Zm1.76,5.86v2.64a1,1,0,0,0,.88-0.46,2.57,2.57,0,0,0,.29-1.37,0.68,0.68,0,0,0-.29-0.61A1.54,1.54,0,0,0,234.42,126.74Z"/><path class="cls-2" d="M259.94,120.11a4.25,4.25,0,0,1-.42.42,5.1,5.1,0,0,1-3.32.85l-0.94,0q-3.56-.17-3.55-1.7a1.71,1.71,0,0,1,.46-1.31,2.2,2.2,0,0,1,2.61.06,1.34,1.34,0,0,1,.35,1,1.44,1.44,0,0,1-.31,1l0.57,0,0.82,0q2,0,2.4-.5a1.65,1.65,0,0,0,.43-1.12,0.62,0.62,0,0,0-.68-0.71,0.76,0.76,0,0,1-.78-0.93,0.64,0.64,0,0,1,.78-0.64,2.12,2.12,0,0,1,1.61.57,2.44,2.44,0,0,1,.54,1.72v0.07l0.59-.35a3.41,3.41,0,0,1,1.79-.55,4.44,4.44,0,0,1,2.52,1.1,3,3,0,0,1,1.46,2v9.55h-1.76V121.1a1.8,1.8,0,0,0-.9-1,3,3,0,0,0-1.71-.64A11.44,11.44,0,0,0,259.94,120.11ZM253.47,129l2.64-2.2,2.64,2.29v-7h1.76v8.5H259l-2.93-2.54-2.93,2.54h-1.46v-8.5h1.76V129Zm0-9.06h0.22c0.33,0,.49-0.12.49-0.36a0.31,0.31,0,0,0-.11-0.25,0.62,0.62,0,0,0-.38-0.1,0.65,0.65,0,0,0-.37.09,0.31,0.31,0,0,0-.12.26A0.42,0.42,0,0,0,253.44,120Z"/><path class="cls-2" d="M258.06,132.06a0.64,0.64,0,0,1,.24-0.55,1.2,1.2,0,0,1,.73-0.19,0.82,0.82,0,0,1,.73.37,2,2,0,0,1,.24,1.09v3.29a0.85,0.85,0,0,1-.26.68,1.16,1.16,0,0,1-.78.22l-2.7-1.54-1.1,1.16a1,1,0,0,1-.58.38,0.74,0.74,0,0,1-.48-0.42l-1.66-2a1.38,1.38,0,0,1-.24-0.79,0.79,0.79,0,0,1,.86-0.73q0.89-.13,1.6-0.19t1.34-.06h2.55a0.43,0.43,0,0,1-.37-0.2A1,1,0,0,1,258.06,132.06Zm0.49,1.72h-2.67q-0.59,0-1.13,0a10.25,10.25,0,0,0-1.07.18l1.07,1.72,1.37-1.44,2.43,1.44v-1.94Z"/><path class="cls-2" d="M272.51,121.34a2.2,2.2,0,0,0,.88,1.67,8.19,8.19,0,0,0,2.64,1.38l3.52,1.23v2.49q0,2.54-2.78,2.54a3,3,0,0,1-2.29-1.21,2.74,2.74,0,0,0-2-1.2v2.41h-1.76v-5.08h1.76v1.69a3.23,3.23,0,0,1,2.34,1.2,3,3,0,0,0,1.9,1.21q1,0,1-1.56v-1.89L274.27,125a6.57,6.57,0,0,1-2.64-1.52,3,3,0,0,1-.88-2.14,3.17,3.17,0,0,1,1-2.54,7.3,7.3,0,0,1,6.84,0,3.17,3.17,0,0,1,1,2.54v0.55a1,1,0,0,1-.18.57,1.19,1.19,0,0,1-.49.42,2.27,2.27,0,0,1-.95.15,1.49,1.49,0,0,1-.65-0.15,1.19,1.19,0,0,1-.49-0.42,1,1,0,0,1,0-1.14,1.16,1.16,0,0,1,.49-0.42,1.53,1.53,0,0,1,.43-0.13,2.23,2.23,0,0,0-.77-1.38,2.92,2.92,0,0,0-1.8-.46,2.82,2.82,0,0,0-2,.61A2.43,2.43,0,0,0,272.51,121.34Z"/></svg>