<svg id="Layer_1" data-name="Layer 1" xmlns="http://www.w3.org/2000/svg" viewBox="0 0 400 200"><defs><style>.cls-1{fill:#4e77bb;stroke:#3e66b0;stroke-miterlimit:10;}.cls-2{fill:#fff;}</style></defs><title>API Button</title><rect class="cls-1" x="33.5" y="34.5" width="333" height="131" rx="3" ry="3"/><path class="cls-2" d="M194,89.34a3.78,3.78,0,0,1,2.44.64,2.41,2.41,0,0,1,.76,1.93q0,3.08-3.2,3.08-3.69,0-3.69-2.05V74.53a5.6,5.6,0,0,1,1.93-4.66q1.93-1.56,5.76-1.56,4.25,0,6.15,1.91,1.91-1.91,6.15-1.91,3.86,0,5.76,1.56A5.6,5.6,0,0,1,218,74.53V95h-3.69V74.53a4.29,4.29,0,0,0-1-3.12,3.93,3.93,0,0,0-3-1,4.43,4.43,0,0,0-3.22,1A4.09,4.09,0,0,0,206,74.53V95h-3.69V74.53a4.14,4.14,0,0,0-1.07-3.12,4.5,4.5,0,0,0-3.24-1,4,4,0,0,0-3,1,4.29,4.29,0,0,0-1,3.12V89.34Zm0,2.05v1.54a1,1,0,0,0,1.15-1,0.43,0.43,0,0,0-.27-0.39A2.18,2.18,0,0,0,194,91.39Z"/><path class="cls-2" d="M126.12,120.88a2.57,2.57,0,0,1,1-2.2,8.12,8.12,0,0,1,6.74,0,2.57,2.57,0,0,1,1,2.2v6.84a1.76,1.76,0,0,0,.62,1.46,2.69,2.69,0,0,0,1.73.49,2.73,2.73,0,0,0,1.74-.49,1.77,1.77,0,0,0,.61-1.46v-5.19a1.27,1.27,0,0,0-1.27-1.16,6.74,6.74,0,0,1,.76-2.29,1.09,1.09,0,0,1,1.9-.77l0.54,0.37a0.84,0.84,0,0,0,.44.16,0.55,0.55,0,0,0,.36-0.14,2.72,2.72,0,0,1-.29,1.19,0.84,0.84,0,0,1-.62.45h-0.1a2,2,0,0,1-1-.35,1.13,1.13,0,0,0-.52-0.18q-0.26,0-.38.76,1.88,0.5,1.88,1.17v6a2.57,2.57,0,0,1-1,2.2,7,7,0,0,1-6.25,0,2.57,2.57,0,0,1-1-2.2v-6.84a1.77,1.77,0,0,0-.61-1.46,3.2,3.2,0,0,0-2-.49,3.15,3.15,0,0,0-2,.49,1.76,1.76,0,0,0-.62,1.46v4.88a2.47,2.47,0,0,1,1.61.45,1.63,1.63,0,0,1,.54,1.34,3.76,3.76,0,0,1-.61,2.25,2.12,2.12,0,0,1-1.84.85q-1.46,0-1.46-.85v-8.92Zm1.76,5.86v2.64a1,1,0,0,0,.88-0.46,2.57,2.57,0,0,0,.29-1.37,0.68,0.68,0,0,0-.29-0.61A1.54,1.54,0,0,0,127.88,126.74Z"/><path class="cls-2" d="M132.62,113.56q0-2,3.13-2a5.53,5.53,0,0,1,3.66,1.46l1.71,1.46v1h-6.05Q132.62,115.51,132.62,113.56Zm2.44,0.68h4a4.35,4.35,0,0,0-3.32-1.46q-2,0-2,.78T135.06,114.24Z"/><path class="cls-2" d="M145.17,125.52l4.28-1.63q2.75-1,2.75-2.55a2.43,2.43,0,0,0-.61-1.81,2.83,2.83,0,0,0-2-.61,2.92,2.92,0,0,0-1.8.46,2.24,2.24,0,0,0-.77,1.38,1.56,1.56,0,0,1,.43.13,1.16,1.16,0,0,1,.49.42,1,1,0,0,1,0,1.14,1.17,1.17,0,0,1-.49.42,1.49,1.49,0,0,1-.65.15,2.27,2.27,0,0,1-.95-0.15,1.17,1.17,0,0,1-.49-0.42,1,1,0,0,1-.18-0.57v-0.55a3.17,3.17,0,0,1,1-2.54,7.3,7.3,0,0,1,6.84,0,3.17,3.17,0,0,1,1,2.54q0,2.15-4,3.62l-3.08,1.23v1.06a2.43,2.43,0,0,0,.62,1.81,2.79,2.79,0,0,0,2,.61,2.83,2.83,0,0,0,2-.61,2.45,2.45,0,0,0,.61-1.81v-1.69H154v1.69a3.19,3.19,0,0,1-1,2.54,7.3,7.3,0,0,1-6.84,0,3.19,3.19,0,0,1-1-2.54v-1.74Z"/><path class="cls-2" d="M145.31,113.56q0-2,3.13-2a5.53,5.53,0,0,1,3.66,1.46l1.71,1.46v1h-6.05Q145.31,115.51,145.31,113.56Zm2.44,0.68h4a4.35,4.35,0,0,0-3.32-1.46q-2,0-2,.78T147.75,114.24Z"/><path class="cls-2" d="M157.37,120.23a1.24,1.24,0,0,1,.59-0.87l0.6-.46A4.23,4.23,0,0,1,160,118a2.66,2.66,0,0,1,1.18.61,2.87,2.87,0,0,0,1.12.61,2.77,2.77,0,0,0,1-.61,2.45,2.45,0,0,1,1.11-.61,3.16,3.16,0,0,1,1.28.7,4.09,4.09,0,0,0,1.1.71,0.41,0.41,0,0,0,.29-0.14q-0.32,1.27-1.11,1.27a2.25,2.25,0,0,1-1.09-.47,2.24,2.24,0,0,0-1-.47,1.89,1.89,0,0,0-1,.47,2,2,0,0,1-1.09.47,2.31,2.31,0,0,1-1.32-.47,2.12,2.12,0,0,0-1-.47,0.85,0.85,0,0,0-.59.19,0.6,0.6,0,0,0-.2.46q0,0.38,1.25.63l-1.4.6A1.17,1.17,0,0,1,157.37,120.23Zm2.25,6.19h0.44a1.74,1.74,0,0,1,1.28.42,1.7,1.7,0,0,1,.43,1.27,3.1,3.1,0,0,1-.49,1.9,1.73,1.73,0,0,1-1.46.63,2.69,2.69,0,0,1-1.46-.32,1,1,0,0,1-.49-0.95V124.3a2.57,2.57,0,0,1,1-2.2,8.34,8.34,0,0,1,6.84,0,2.57,2.57,0,0,1,1,2.2v6.35h-1.76V124.3a1.77,1.77,0,0,0-.61-1.46,3.3,3.3,0,0,0-2-.49,3.25,3.25,0,0,0-2,.49,1.76,1.76,0,0,0-.62,1.46v2.12Zm0.44,1h-0.44v2c0,0.13.11,0.2,0.34,0.2a0.72,0.72,0,0,0,.59-0.31,1.94,1.94,0,0,0,.24-1.15,0.71,0.71,0,0,0-.18-0.57A0.86,0.86,0,0,0,160.06,127.39Z"/><path class="cls-2" d="M177.59,122.53a1.27,1.27,0,0,0-1.27-1.16,6.74,6.74,0,0,1,.76-2.29,1.09,1.09,0,0,1,1.9-.77l0.54,0.37a0.84,0.84,0,0,0,.44.16,0.55,0.55,0,0,0,.36-0.14,2.72,2.72,0,0,1-.29,1.19,0.84,0.84,0,0,1-.62.45h-0.1a2,2,0,0,1-1-.35,1.13,1.13,0,0,0-.52-0.18q-0.26,0-.38.76,1.88,0.5,1.88,1.17v6a2.57,2.57,0,0,1-1,2.2,8.34,8.34,0,0,1-6.84,0,2.57,2.57,0,0,1-1-2.2v-5.19a1.27,1.27,0,0,0-1.27-1.16,6.24,6.24,0,0,1,.81-2.29,1.89,1.89,0,0,1,1.07-1.13,1.78,1.78,0,0,1,.88.36l0.54,0.37a1,1,0,0,0,.57.16,1.9,1.9,0,0,0,.36,0,2.54,2.54,0,0,1-.36,1,1,1,0,0,1-.67.51h-0.1a2,2,0,0,1-1-.35,1.13,1.13,0,0,0-.52-0.18q-0.26,0-.38.76,1.79,0.5,1.79,1.17v6a1.76,1.76,0,0,0,.62,1.46,3.25,3.25,0,0,0,2,.49,3.3,3.3,0,0,0,2-.49,1.77,1.77,0,0,0,.61-1.46v-5.19Z"/><path class="cls-2" d="M198.31,120.28a2.31,2.31,0,0,1,.08.61v9.77h-1.76v-9.77a1.77,1.77,0,0,0-.66-1.37,2.55,2.55,0,0,0-3.25,0,1.76,1.76,0,0,0-.67,1.37v9.77h-1.76v-9.77q0-1.54-.78-1.54a1.76,1.76,0,0,0-1.33,1,0.58,0.58,0,0,1-1.05,0,1.74,1.74,0,0,0-1.32-1q-0.79,0-.79,1.54v4.88a2.47,2.47,0,0,1,1.61.45,1.63,1.63,0,0,1,.54,1.34,3.76,3.76,0,0,1-.61,2.25,2.12,2.12,0,0,1-1.84.85q-1.46,0-1.46-.85v-8.92a3.1,3.1,0,0,1,.73-2.06,2.14,2.14,0,0,1,1.66-.87,2.89,2.89,0,0,1,2,1.31,2.91,2.91,0,0,1,2-1.31,2.13,2.13,0,0,1,1.65.87l0,0h0l0,0a5.39,5.39,0,0,1,5.87,0,4.83,4.83,0,0,1,.46.42l1.24-.74a3.41,3.41,0,0,1,1.79-.55,4.45,4.45,0,0,1,2.52,1.1,2.94,2.94,0,0,1,1.46,2v9.55H203V121.1a1.8,1.8,0,0,0-.9-1,3,3,0,0,0-1.71-.64A5.19,5.19,0,0,0,198.31,120.28Zm-13.3,9.1a1,1,0,0,0,.88-0.46,2.57,2.57,0,0,0,.29-1.37,0.68,0.68,0,0,0-.29-0.61,1.54,1.54,0,0,0-.88-0.21v2.64Z"/><path class="cls-2" d="M199.58,133.17c0.16,0,.24.11,0.24,0.32a0.66,0.66,0,0,1-.49.63l-0.22.08-0.24.08v0.08a3.62,3.62,0,0,1-.5,1.74,1.58,1.58,0,0,1-1.47.9,2.29,2.29,0,0,1-1-.25,4.29,4.29,0,0,1-1-.78l-0.36-.34-0.38.34a5.37,5.37,0,0,1-1.07.78,2.11,2.11,0,0,1-1,.25,1.57,1.57,0,0,1-1.46-.91,3.67,3.67,0,0,1-.49-1.74,3.5,3.5,0,0,1,.49-2,1.69,1.69,0,0,1,1.46-.68,0.49,0.49,0,1,1,0,1,0.46,0.46,0,0,0-.36.44,5.07,5.07,0,0,0-.13,1.31,5.92,5.92,0,0,0,.13,1c0.08,0.44.2,0.66,0.36,0.66a1.4,1.4,0,0,0,.62-0.2,4.45,4.45,0,0,0,.84-0.63l1-.91,1,0.91a2.82,2.82,0,0,0,1.48.83c0.16,0,.28-0.21.36-0.62a6.68,6.68,0,0,0,.13-0.87h-0.49a1.47,1.47,0,1,1,0-2.93,1.75,1.75,0,0,1,1.25.44,2.29,2.29,0,0,1,.63,1.31l0.27-.07,0.26-.08,0.1,0,0.07,0h0.07Zm-2.66-.57a0.49,0.49,0,0,0-.36.12,0.51,0.51,0,0,0-.13.37,0.42,0.42,0,0,0,.47.49h0.48Q197.27,132.6,196.92,132.6Z"/><path class="cls-2" d="M208.15,120.23a1.24,1.24,0,0,1,.59-0.87l0.6-.46a4.23,4.23,0,0,1,1.46-.95,2.66,2.66,0,0,1,1.18.61,2.87,2.87,0,0,0,1.12.61,2.77,2.77,0,0,0,1-.61,2.45,2.45,0,0,1,1.11-.61,3.16,3.16,0,0,1,1.28.7,4.09,4.09,0,0,0,1.1.71,0.41,0.41,0,0,0,.29-0.14q-0.32,1.27-1.11,1.27a2.25,2.25,0,0,1-1.09-.47,2.24,2.24,0,0,0-1-.47,1.89,1.89,0,0,0-1,.47,2,2,0,0,1-1.09.47,2.31,2.31,0,0,1-1.32-.47,2.12,2.12,0,0,0-1-.47,0.85,0.85,0,0,0-.59.19,0.6,0.6,0,0,0-.2.46q0,0.38,1.25.63l-1.4.6A1.17,1.17,0,0,1,208.15,120.23Zm2.25,10.42h-1.76V124.3a2.57,2.57,0,0,1,1-2.2,8.34,8.34,0,0,1,6.84,0,2.57,2.57,0,0,1,1,2.2v6.35h-1.76V124.3a1.77,1.77,0,0,0-.61-1.46,3.3,3.3,0,0,0-2-.49,3.25,3.25,0,0,0-2,.49,1.76,1.76,0,0,0-.62,1.46v6.35Z"/><path class="cls-2" d="M213.77,111.6V115a0.76,0.76,0,1,1-1.46,0V111.6h1.46Z"/><path class="cls-2" d="M230.13,121.3a1,1,0,0,1-.18.57,1.17,1.17,0,0,1-.49.42,2.27,2.27,0,0,1-.95.15,1.49,1.49,0,0,1-.65-0.15,1.17,1.17,0,0,1-.49-0.42,1,1,0,0,1,0-1.14,1.16,1.16,0,0,1,.49-0.42l0.26-.1a2.06,2.06,0,0,0-.61-0.82,2.92,2.92,0,0,0-1.8-.46,2.83,2.83,0,0,0-2,.61,2.43,2.43,0,0,0-.61,1.81v0.71a2.63,2.63,0,0,0,1,2.22,4.58,4.58,0,0,0,2.85.74q0-1.56,2-1.56a1.08,1.08,0,0,1,1.22,1.23,1.23,1.23,0,0,1-1.46,1.31v2.12a2.39,2.39,0,0,1-.73,1.9,3.27,3.27,0,0,1-2.2.63,3.83,3.83,0,0,1-2.41-.63,2.27,2.27,0,0,1-.81-1.9v-1.44h1.76v1.44a1.64,1.64,0,0,0,.37,1.17,1.42,1.42,0,0,0,1.09.39,1,1,0,0,0,.88-0.39,1.94,1.94,0,0,0,.29-1.17V126a7.2,7.2,0,0,1-4.17-1,3.37,3.37,0,0,1-1.4-2.95v-0.71a3.17,3.17,0,0,1,1-2.54,7.3,7.3,0,0,1,6.84,0,2.71,2.71,0,0,1,1,2.15v0.35ZM228.66,125c0.33,0,.49-0.11.49-0.33a0.2,0.2,0,0,0-.24-0.21C228.74,124.46,228.66,124.65,228.66,125Z"/><path class="cls-2" d="M228.71,113.45V111.6H230v3.91h-6.05q-2.44,0-2.44-2t3.13-2a5.53,5.53,0,0,1,3.66,1.46Zm-4.79.79h4a4.35,4.35,0,0,0-3.32-1.46q-2,0-2,.78T223.93,114.24Z"/><path class="cls-2" d="M234,120.88a2.57,2.57,0,0,1,1-2.2,8.12,8.12,0,0,1,6.74,0,2.57,2.57,0,0,1,1,2.2v6.84a1.76,1.76,0,0,0,.62,1.46,2.69,2.69,0,0,0,1.73.49,2.73,2.73,0,0,0,1.74-.49,1.77,1.77,0,0,0,.61-1.46v-5.19a1.27,1.27,0,0,0-1.27-1.16,6.78,6.78,0,0,1,.76-2.29,1.09,1.09,0,0,1,1.9-.77l0.54,0.37a0.85,0.85,0,0,0,.44.16,0.55,0.55,0,0,0,.36-0.14,2.71,2.71,0,0,1-.29,1.19,0.84,0.84,0,0,1-.62.45h-0.1a2,2,0,0,1-1-.35,1.12,1.12,0,0,0-.52-0.18q-0.26,0-.38.76,1.89,0.5,1.88,1.17v6a2.57,2.57,0,0,1-1,2.2,7,7,0,0,1-6.25,0,2.57,2.57,0,0,1-1-2.2v-6.84a1.77,1.77,0,0,0-.61-1.46,3.2,3.2,0,0,0-2-.49,3.15,3.15,0,0,0-2,.49,1.76,1.76,0,0,0-.62,1.46v4.88a2.47,2.47,0,0,1,1.61.45,1.63,1.63,0,0,1,.54,1.34,3.76,3.76,0,0,1-.61,2.25,2.12,2.12,0,0,1-1.84.85q-1.46,0-1.46-.85v-8.92Zm1.76,5.86v2.64a1,1,0,0,0,.88-0.46,2.57,2.57,0,0,0,.29-1.37,0.68,0.68,0,0,0-.29-0.61A1.54,1.54,0,0,0,235.79,126.74Z"/><path class="cls-2" d="M244.78,111.6a2.26,2.26,0,0,1,1.08.28,2,2,0,0,1,.82.81,2.22,2.22,0,0,1,0,2.2,2,2,0,0,1-.81.82,2.22,2.22,0,0,1-2.19,0,2,2,0,0,1-.82-0.82,2.19,2.19,0,0,1,0-2.2,2,2,0,0,1,.82-0.81A2.23,2.23,0,0,1,244.78,111.6ZM244.3,113a0.91,0.91,0,0,0-.37.36,1,1,0,0,0,0,1,0.91,0.91,0,0,0,.37.36,1,1,0,0,0,.48.13,1,1,0,0,0,.49-0.13,0.88,0.88,0,0,0,.36-0.36,1,1,0,0,0,.13-0.49,1,1,0,0,0-.13-0.49,0.91,0.91,0,0,0-.36-0.36A1,1,0,0,0,244.3,113Z"/><path class="cls-2" d="M253.08,122.53q0-.89-1.46-1.16a6.59,6.59,0,0,1,.8-2.29,1.82,1.82,0,0,1,1.07-1.13,1.88,1.88,0,0,1,.92.36l0.57,0.37a0.9,0.9,0,0,0,.46.16,0.6,0.6,0,0,0,.38-0.14,2.56,2.56,0,0,1-.3,1.19,0.89,0.89,0,0,1-.65.45h-0.1a2.18,2.18,0,0,1-1-.35,1.19,1.19,0,0,0-.54-0.18q-0.28,0-.4.76,2,0.5,2,1.17v4.66q1.46,0,1.46,1.72,0,2.51-1.46,2.51h-0.78a0.85,0.85,0,0,1-1-1v-7.16Zm1.76,7q0.49,0,.49-1.41,0-.74-0.49-0.74v2.15Z"/><path class="cls-2" d="M273.76,120.55a1.43,1.43,0,0,1,.12.55v9.55h-1.76V121.1a1.8,1.8,0,0,0-.9-1,3,3,0,0,0-1.71-.64,5.27,5.27,0,0,0-2.09.86,4.83,4.83,0,0,1,.11,1.05v0.55a1,1,0,0,1-.18.57,1.18,1.18,0,0,1-.49.42,2.27,2.27,0,0,1-.95.15,1.49,1.49,0,0,1-.65-0.15,1.18,1.18,0,0,1-.49-0.42,1,1,0,0,1,0-1.14,1.16,1.16,0,0,1,.49-0.42,1.56,1.56,0,0,1,.43-0.13,2.24,2.24,0,0,0-.77-1.38,2.92,2.92,0,0,0-1.8-.46,2.82,2.82,0,0,0-2,.61,2.43,2.43,0,0,0-.61,1.81,2.2,2.2,0,0,0,.88,1.67,8.19,8.19,0,0,0,2.64,1.38l3.52,1.23v2.49q0,2.54-2.78,2.54a3,3,0,0,1-2.29-1.21,2.74,2.74,0,0,0-2-1.2v2.41h-1.76v-5.08h1.76v1.69a3.23,3.23,0,0,1,2.34,1.2,3,3,0,0,0,1.9,1.21q1,0,1-1.56v-1.89L262.26,125a6.57,6.57,0,0,1-2.64-1.52,3,3,0,0,1-.88-2.14,3.17,3.17,0,0,1,1-2.54,7.3,7.3,0,0,1,6.84,0,2.72,2.72,0,0,1,.38.4l1.18-.7a3.41,3.41,0,0,1,1.79-.55,4.44,4.44,0,0,1,2.52,1.1l0.19,0.15v-2.95a0.81,0.81,0,0,0-1-.84q0-.85,1.22-0.85a1.42,1.42,0,0,1,1.51,1.69v2.54A3.59,3.59,0,0,1,273.76,120.55Z"/></svg>