<svg id="Layer_1" data-name="Layer 1" xmlns="http://www.w3.org/2000/svg" viewBox="0 0 400 200"><defs><style>.cls-1{fill:#4e77bb;stroke:#3e66b0;stroke-miterlimit:10;}.cls-2{fill:#fff;}</style></defs><title>API Button</title><rect class="cls-1" x="33.5" y="34.5" width="333" height="131" rx="3" ry="3"/><path class="cls-2" d="M201.87,73.51L206,74a5.48,5.48,0,0,0,.64,0q1.5,0,1.5-2.56V67.29q0-3.08,3.69-3.08,2.05,0,2.05,1.8-2.05,0-2.05,1.27v4.16q0,5.43-4.61,5.43l-7.92-1.19q-0.64.37-1.42,0.74a5.94,5.94,0,0,0-3.9,5.7v7.4q0,1,1.68,1.89a8.51,8.51,0,0,0,3.86.84H208q-3.32-3.1-3.32-4.53V84.13q0-3.63,3-3.63a5.78,5.78,0,0,1,2.45.44,2.71,2.71,0,0,1,1.33,1.25,4.08,4.08,0,0,1,.4,1.83,3,3,0,0,1-.72,1.91,3.41,3.41,0,0,1-2.77.9v0.9q0,1.83,3.49,5V95h-12.3a12.83,12.83,0,0,1-6.67-1.54,4.5,4.5,0,0,1-2.56-3.9v-7.4q0-5.09,5.46-7.38a3.13,3.13,0,0,1-2.05-2.91q0-4,4.35-4t4.35,4A3,3,0,0,1,201.87,73.51Zm-2.93-.45a1.69,1.69,0,0,0,.7-1.21,1.6,1.6,0,0,0-3.2,0Q196.43,72.65,198.93,73.06Zm10.42,11.07a0.82,0.82,0,0,0,.21-0.64q0-.57-1.23-0.92v1.74A1.77,1.77,0,0,0,209.35,84.13Z"/><path class="cls-2" d="M101.76,120.88a2.57,2.57,0,0,1,1-2.2,8.12,8.12,0,0,1,6.74,0,2.57,2.57,0,0,1,1,2.2v6.84a1.76,1.76,0,0,0,.62,1.46,2.69,2.69,0,0,0,1.73.49,2.73,2.73,0,0,0,1.74-.49,1.77,1.77,0,0,0,.61-1.46v-5.19a1.27,1.27,0,0,0-1.27-1.16,6.74,6.74,0,0,1,.76-2.29,1.09,1.09,0,0,1,1.9-.77l0.54,0.37a0.84,0.84,0,0,0,.44.16,0.55,0.55,0,0,0,.36-0.14,2.72,2.72,0,0,1-.29,1.19,0.84,0.84,0,0,1-.62.45h-0.1a2,2,0,0,1-1-.35,1.13,1.13,0,0,0-.52-0.18q-0.26,0-.38.76,1.88,0.5,1.88,1.17v6a2.57,2.57,0,0,1-1,2.2,7,7,0,0,1-6.25,0,2.57,2.57,0,0,1-1-2.2v-6.84a1.77,1.77,0,0,0-.61-1.46,3.2,3.2,0,0,0-2-.49,3.15,3.15,0,0,0-2,.49,1.76,1.76,0,0,0-.62,1.46v4.88a2.47,2.47,0,0,1,1.61.45,1.63,1.63,0,0,1,.54,1.34,3.76,3.76,0,0,1-.61,2.25,2.12,2.12,0,0,1-1.84.85q-1.46,0-1.46-.85v-8.92Zm1.76,5.86v2.64a1,1,0,0,0,.88-0.46,2.57,2.57,0,0,0,.29-1.37,0.68,0.68,0,0,0-.29-0.61A1.54,1.54,0,0,0,103.52,126.74Z"/><path class="cls-2" d="M108.25,113.56q0-2,3.13-2a5.53,5.53,0,0,1,3.66,1.46l1.71,1.46v1h-6.05Q108.25,115.51,108.25,113.56Zm2.44,0.68h4a4.35,4.35,0,0,0-3.32-1.46q-2,0-2,.78T110.69,114.24Z"/><path class="cls-2" d="M120.8,125.52l4.28-1.63q2.75-1,2.75-2.55a2.43,2.43,0,0,0-.61-1.81,2.83,2.83,0,0,0-2-.61,2.92,2.92,0,0,0-1.8.46,2.24,2.24,0,0,0-.77,1.38,1.56,1.56,0,0,1,.43.13,1.16,1.16,0,0,1,.49.42,1,1,0,0,1,0,1.14,1.17,1.17,0,0,1-.49.42,1.49,1.49,0,0,1-.65.15,2.27,2.27,0,0,1-.95-0.15,1.17,1.17,0,0,1-.49-0.42,1,1,0,0,1-.18-0.57v-0.55a3.17,3.17,0,0,1,1-2.54,7.3,7.3,0,0,1,6.84,0,3.17,3.17,0,0,1,1,2.54q0,2.15-4,3.62l-3.08,1.23v1.06a2.43,2.43,0,0,0,.62,1.81,2.79,2.79,0,0,0,2,.61,2.83,2.83,0,0,0,2-.61,2.45,2.45,0,0,0,.61-1.81v-1.69h1.76v1.69a3.19,3.19,0,0,1-1,2.54,7.3,7.3,0,0,1-6.84,0,3.19,3.19,0,0,1-1-2.54v-1.74Z"/><path class="cls-2" d="M120.95,113.56q0-2,3.13-2a5.53,5.53,0,0,1,3.66,1.46l1.71,1.46v1h-6.05Q120.95,115.51,120.95,113.56Zm2.44,0.68h4a4.35,4.35,0,0,0-3.32-1.46q-2,0-2,.78T123.39,114.24Z"/><path class="cls-2" d="M133,120.23a1.24,1.24,0,0,1,.59-0.87l0.6-.46a4.23,4.23,0,0,1,1.46-.95,2.66,2.66,0,0,1,1.18.61,2.87,2.87,0,0,0,1.12.61,2.77,2.77,0,0,0,1-.61,2.45,2.45,0,0,1,1.11-.61,3.16,3.16,0,0,1,1.28.7,4.09,4.09,0,0,0,1.1.71,0.41,0.41,0,0,0,.29-0.14q-0.32,1.27-1.11,1.27a2.25,2.25,0,0,1-1.09-.47,2.24,2.24,0,0,0-1-.47,1.89,1.89,0,0,0-1,.47,2,2,0,0,1-1.09.47,2.31,2.31,0,0,1-1.32-.47,2.12,2.12,0,0,0-1-.47,0.85,0.85,0,0,0-.59.19,0.6,0.6,0,0,0-.2.46q0,0.38,1.25.63l-1.4.6A1.17,1.17,0,0,1,133,120.23Zm2.25,6.19h0.44a1.74,1.74,0,0,1,1.28.42,1.7,1.7,0,0,1,.43,1.27,3.1,3.1,0,0,1-.49,1.9,1.73,1.73,0,0,1-1.46.63,2.69,2.69,0,0,1-1.46-.32,1,1,0,0,1-.49-0.95V124.3a2.57,2.57,0,0,1,1-2.2,8.34,8.34,0,0,1,6.84,0,2.57,2.57,0,0,1,1,2.2v6.35h-1.76V124.3a1.77,1.77,0,0,0-.61-1.46,3.3,3.3,0,0,0-2-.49,3.25,3.25,0,0,0-2,.49,1.76,1.76,0,0,0-.62,1.46v2.12Zm0.44,1h-0.44v2c0,0.13.11,0.2,0.34,0.2a0.72,0.72,0,0,0,.59-0.31,1.94,1.94,0,0,0,.24-1.15,0.71,0.71,0,0,0-.18-0.57A0.86,0.86,0,0,0,135.69,127.39Z"/><path class="cls-2" d="M153.22,122.53a1.27,1.27,0,0,0-1.27-1.16,6.74,6.74,0,0,1,.76-2.29,1.09,1.09,0,0,1,1.9-.77l0.54,0.37a0.84,0.84,0,0,0,.44.16,0.55,0.55,0,0,0,.36-0.14,2.72,2.72,0,0,1-.29,1.19,0.84,0.84,0,0,1-.62.45H155a2,2,0,0,1-1-.35,1.13,1.13,0,0,0-.52-0.18q-0.26,0-.38.76,1.88,0.5,1.88,1.17v6a2.57,2.57,0,0,1-1,2.2,8.34,8.34,0,0,1-6.84,0,2.57,2.57,0,0,1-1-2.2v-5.19a1.27,1.27,0,0,0-1.27-1.16,6.24,6.24,0,0,1,.81-2.29,1.89,1.89,0,0,1,1.07-1.13,1.78,1.78,0,0,1,.88.36l0.54,0.37a1,1,0,0,0,.57.16,1.9,1.9,0,0,0,.36,0,2.54,2.54,0,0,1-.36,1,1,1,0,0,1-.67.51H148a2,2,0,0,1-1-.35,1.13,1.13,0,0,0-.52-0.18q-0.26,0-.38.76,1.79,0.5,1.79,1.17v6a1.76,1.76,0,0,0,.62,1.46,3.25,3.25,0,0,0,2,.49,3.3,3.3,0,0,0,2-.49,1.77,1.77,0,0,0,.61-1.46v-5.19Z"/><path class="cls-2" d="M173.95,120.28a2.31,2.31,0,0,1,.08.61v9.77h-1.76v-9.77a1.77,1.77,0,0,0-.66-1.37,2.55,2.55,0,0,0-3.25,0,1.76,1.76,0,0,0-.67,1.37v9.77h-1.76v-9.77q0-1.54-.78-1.54a1.76,1.76,0,0,0-1.33,1,0.58,0.58,0,0,1-1.05,0,1.74,1.74,0,0,0-1.32-1q-0.79,0-.79,1.54v4.88a2.47,2.47,0,0,1,1.61.45,1.63,1.63,0,0,1,.54,1.34,3.76,3.76,0,0,1-.61,2.25,2.12,2.12,0,0,1-1.84.85q-1.46,0-1.46-.85v-8.92a3.1,3.1,0,0,1,.73-2.06,2.14,2.14,0,0,1,1.66-.87,2.89,2.89,0,0,1,2,1.31,2.91,2.91,0,0,1,2-1.31,2.13,2.13,0,0,1,1.65.87l0,0h0l0,0a5.39,5.39,0,0,1,5.87,0,4.83,4.83,0,0,1,.46.42l1.24-.74a3.41,3.41,0,0,1,1.79-.55,4.45,4.45,0,0,1,2.52,1.1,2.94,2.94,0,0,1,1.46,2v9.55h-1.76V121.1a1.8,1.8,0,0,0-.9-1,3,3,0,0,0-1.71-.64A5.19,5.19,0,0,0,173.95,120.28Zm-13.3,9.1a1,1,0,0,0,.88-0.46,2.57,2.57,0,0,0,.29-1.37,0.68,0.68,0,0,0-.29-0.61,1.54,1.54,0,0,0-.88-0.21v2.64Z"/><path class="cls-2" d="M175.21,133.17c0.16,0,.24.11,0.24,0.32a0.66,0.66,0,0,1-.49.63l-0.22.08-0.24.08v0.08a3.62,3.62,0,0,1-.5,1.74,1.58,1.58,0,0,1-1.47.9,2.29,2.29,0,0,1-1-.25,4.29,4.29,0,0,1-1-.78l-0.36-.34-0.38.34a5.37,5.37,0,0,1-1.07.78,2.11,2.11,0,0,1-1,.25,1.57,1.57,0,0,1-1.46-.91,3.67,3.67,0,0,1-.49-1.74,3.5,3.5,0,0,1,.49-2,1.69,1.69,0,0,1,1.46-.68,0.49,0.49,0,1,1,0,1,0.46,0.46,0,0,0-.36.44,5.07,5.07,0,0,0-.13,1.31,5.92,5.92,0,0,0,.13,1c0.08,0.44.2,0.66,0.36,0.66a1.4,1.4,0,0,0,.62-0.2,4.45,4.45,0,0,0,.84-0.63l1-.91,1,0.91a2.82,2.82,0,0,0,1.48.83c0.16,0,.28-0.21.36-0.62a6.68,6.68,0,0,0,.13-0.87h-0.49a1.47,1.47,0,1,1,0-2.93,1.75,1.75,0,0,1,1.25.44,2.29,2.29,0,0,1,.63,1.31l0.27-.07,0.26-.08,0.1,0,0.07,0h0.07Zm-2.66-.57a0.49,0.49,0,0,0-.36.12,0.51,0.51,0,0,0-.13.37,0.42,0.42,0,0,0,.47.49H173Q172.91,132.6,172.56,132.6Z"/><path class="cls-2" d="M183.79,120.23a1.24,1.24,0,0,1,.59-0.87l0.6-.46a4.23,4.23,0,0,1,1.46-.95,2.66,2.66,0,0,1,1.18.61,2.87,2.87,0,0,0,1.12.61,2.77,2.77,0,0,0,1-.61,2.45,2.45,0,0,1,1.11-.61,3.16,3.16,0,0,1,1.28.7,4.09,4.09,0,0,0,1.1.71,0.41,0.41,0,0,0,.29-0.14q-0.32,1.27-1.11,1.27a2.25,2.25,0,0,1-1.09-.47,2.24,2.24,0,0,0-1-.47,1.89,1.89,0,0,0-1,.47,2,2,0,0,1-1.09.47,2.31,2.31,0,0,1-1.32-.47,2.12,2.12,0,0,0-1-.47,0.85,0.85,0,0,0-.59.19,0.6,0.6,0,0,0-.2.46q0,0.38,1.25.63l-1.4.6A1.17,1.17,0,0,1,183.79,120.23ZM186,130.65h-1.76V124.3a2.57,2.57,0,0,1,1-2.2,8.34,8.34,0,0,1,6.84,0,2.57,2.57,0,0,1,1,2.2v6.35h-1.76V124.3a1.77,1.77,0,0,0-.61-1.46,3.3,3.3,0,0,0-2-.49,3.25,3.25,0,0,0-2,.49,1.76,1.76,0,0,0-.62,1.46v6.35Z"/><path class="cls-2" d="M189.4,111.6V115a0.76,0.76,0,1,1-1.46,0V111.6h1.46Z"/><path class="cls-2" d="M197,122.53q0-.89-1.46-1.16a6.59,6.59,0,0,1,.8-2.29,1.83,1.83,0,0,1,1.07-1.13,1.87,1.87,0,0,1,.92.36l0.57,0.37a0.91,0.91,0,0,0,.46.16,0.6,0.6,0,0,0,.38-0.14,2.56,2.56,0,0,1-.3,1.19,0.89,0.89,0,0,1-.65.45h-0.1a2.19,2.19,0,0,1-1-.35,1.19,1.19,0,0,0-.54-0.18c-0.19,0-.32.25-0.4,0.76q2,0.5,2,1.17v12.79a1.18,1.18,0,0,0,.71,1.1,3.1,3.1,0,0,0,1.44.37,2.45,2.45,0,0,0,1.41-.37,1.22,1.22,0,0,0,.55-1.09v-2.93h1.46v2.93a2,2,0,0,1-.92,1.83,4.44,4.44,0,0,1-2.5.62,5.86,5.86,0,0,1-2.74-.61,2,2,0,0,1-1.16-1.84v-12Z"/><path class="cls-2" d="M209.67,122.53a1.27,1.27,0,0,0-1.27-1.16,6.74,6.74,0,0,1,.76-2.29,1.09,1.09,0,0,1,1.9-.77l0.54,0.37a0.84,0.84,0,0,0,.44.16,0.55,0.55,0,0,0,.36-0.14,2.72,2.72,0,0,1-.29,1.19,0.84,0.84,0,0,1-.62.45h-0.1a2,2,0,0,1-1-.35,1.13,1.13,0,0,0-.52-0.18q-0.26,0-.38.76,1.88,0.5,1.88,1.17v6a2.57,2.57,0,0,1-1,2.2,8.34,8.34,0,0,1-6.84,0,2.57,2.57,0,0,1-1-2.2v-5.19a1.27,1.27,0,0,0-1.27-1.16,6.24,6.24,0,0,1,.81-2.29,1.89,1.89,0,0,1,1.07-1.13,1.78,1.78,0,0,1,.88.36l0.54,0.37a1,1,0,0,0,.57.16,1.9,1.9,0,0,0,.36,0,2.54,2.54,0,0,1-.36,1,1,1,0,0,1-.67.51h-0.1a2,2,0,0,1-1-.35,1.13,1.13,0,0,0-.52-0.18q-0.26,0-.38.76,1.79,0.5,1.79,1.17v6a1.76,1.76,0,0,0,.62,1.46,3.25,3.25,0,0,0,2,.49,3.3,3.3,0,0,0,2-.49,1.77,1.77,0,0,0,.61-1.46v-5.19Z"/><path class="cls-2" d="M217.09,129.69a0.85,0.85,0,0,1-1,1h-0.78q-1.46,0-1.46-2.61a1.37,1.37,0,0,1,1.46-1.62v-3.89q0-.89-1.46-1.16a5.39,5.39,0,0,1,.66-2.29,1.09,1.09,0,0,1,1.9-.77l0.25,0.18,0.1,0c0.2,0,.3-0.26.3-0.77s-0.33-.62-1-0.62a0.81,0.81,0,1,1,0-1.59q2,0,2,2.22v0.48a3.14,3.14,0,0,1-.39,1.75,1,1,0,0,1-.71.39,2,2,0,0,1-1-.35,1.13,1.13,0,0,0-.52-0.18q-0.36,0-.48.76,2.08,0.5,2.08,1.17v7.93Zm-1.76-2.29c-0.33,0-.49.21-0.49,0.64q0,1.5.49,1.5v-2.15Z"/><path class="cls-2" d="M220.51,120.23a1.24,1.24,0,0,1,.59-0.87l0.6-.46a4.23,4.23,0,0,1,1.46-.95,2.66,2.66,0,0,1,1.18.61,2.87,2.87,0,0,0,1.12.61,2.77,2.77,0,0,0,1-.61,2.45,2.45,0,0,1,1.11-.61,3.16,3.16,0,0,1,1.28.7,4.09,4.09,0,0,0,1.1.71,0.41,0.41,0,0,0,.29-0.14q-0.32,1.27-1.11,1.27a2.25,2.25,0,0,1-1.09-.47,2.24,2.24,0,0,0-1-.47,1.89,1.89,0,0,0-1,.47,2,2,0,0,1-1.09.47,2.31,2.31,0,0,1-1.32-.47,2.12,2.12,0,0,0-1-.47,0.85,0.85,0,0,0-.59.19,0.6,0.6,0,0,0-.2.46q0,0.38,1.25.63l-1.4.6A1.17,1.17,0,0,1,220.51,120.23Zm2.25,6.19h0.44a1.74,1.74,0,0,1,1.28.42,1.7,1.7,0,0,1,.43,1.27,3.1,3.1,0,0,1-.49,1.9,1.73,1.73,0,0,1-1.46.63,2.69,2.69,0,0,1-1.46-.32,1,1,0,0,1-.49-0.95V124.3a2.57,2.57,0,0,1,1-2.2,8.34,8.34,0,0,1,6.84,0,2.57,2.57,0,0,1,1,2.2v6.35H228V124.3a1.77,1.77,0,0,0-.61-1.46,3.3,3.3,0,0,0-2-.49,3.25,3.25,0,0,0-2,.49,1.76,1.76,0,0,0-.62,1.46v2.12Zm0.44,1h-0.44v2c0,0.13.11,0.2,0.34,0.2a0.72,0.72,0,0,0,.59-0.31,1.94,1.94,0,0,0,.24-1.15,0.71,0.71,0,0,0-.18-0.57A0.86,0.86,0,0,0,223.19,127.39Z"/><path class="cls-2" d="M222.95,134.06h0.49a1.17,1.17,0,0,1,1.37,1.27q0,1.66-1.86,1.66-1.46,0-1.46-1v-2.44a1.57,1.57,0,0,1,1-1.46,9,9,0,0,1,5.86,0,1.57,1.57,0,0,1,1,1.46V137h-1.46v-3.42a0.8,0.8,0,0,0-.62-0.73,7,7,0,0,0-3.65,0,0.8,0.8,0,0,0-.62.73v0.49Zm0,2q0.88,0,.88-0.67a0.31,0.31,0,0,0-.39-0.3h-0.49v1Z"/><path class="cls-2" d="M221.14,113.56q0-2,3.13-2a5.53,5.53,0,0,1,3.66,1.46l1.71,1.46v1h-6.05Q221.14,115.51,221.14,113.56Zm2.44,0.68h4a4.35,4.35,0,0,0-3.32-1.46q-2,0-2,.78T223.58,114.24Z"/><path class="cls-2" d="M235.45,129.69a0.85,0.85,0,0,1-1,1h-0.78q-1.46,0-1.46-2.61a1.37,1.37,0,0,1,1.46-1.62v-3.89q0-.89-1.46-1.16a6.59,6.59,0,0,1,.8-2.29A1.83,1.83,0,0,1,234.1,118a1.87,1.87,0,0,1,.92.36l0.57,0.37a0.91,0.91,0,0,0,.46.16,0.6,0.6,0,0,0,.38-0.14,2.56,2.56,0,0,1-.3,1.19,0.89,0.89,0,0,1-.65.45h-0.1a2.19,2.19,0,0,1-1-.35,1.19,1.19,0,0,0-.54-0.18c-0.19,0-.32.25-0.4,0.76q2,0.5,2,1.17v7.93Zm-1.76-2.29c-0.33,0-.49.21-0.49,0.64q0,1.5.49,1.5v-2.15Z"/><path class="cls-2" d="M233,137a2,2,0,0,1-1.74-.64,1.57,1.57,0,0,1-.31-0.91,1.35,1.35,0,0,1,.06-0.39l0.49-1.47a0.79,0.79,0,0,1-.78-1,1,1,0,0,1,1.17-1,1.07,1.07,0,0,1,1.2,1.22,4.53,4.53,0,0,1-.21,1.22l-0.4,1.26a0.89,0.89,0,0,0-.07.31q0,0.38.59,0.38t1.52-2.2q0.81-2.2,1.33-2.2c0.16,0,.24.22,0.24,0.67a9.86,9.86,0,0,1-.66,2.77A2.46,2.46,0,0,1,233,137Z"/><path class="cls-2" d="M246.39,122.53a1.27,1.27,0,0,0-1.27-1.16,6.78,6.78,0,0,1,.76-2.29,1.09,1.09,0,0,1,1.9-.77l0.54,0.37a0.85,0.85,0,0,0,.44.16,0.55,0.55,0,0,0,.36-0.14,2.71,2.71,0,0,1-.29,1.19,0.84,0.84,0,0,1-.62.45h-0.1a2,2,0,0,1-1-.35,1.12,1.12,0,0,0-.52-0.18q-0.26,0-.38.76,1.89,0.5,1.88,1.17v6a2.57,2.57,0,0,1-1,2.2,8.34,8.34,0,0,1-6.84,0,2.57,2.57,0,0,1-1-2.2v-5.19a1.27,1.27,0,0,0-1.27-1.16,6.24,6.24,0,0,1,.81-2.29A1.89,1.89,0,0,1,240,118a1.78,1.78,0,0,1,.88.36l0.54,0.37a1,1,0,0,0,.57.16,1.9,1.9,0,0,0,.36,0,2.54,2.54,0,0,1-.36,1,1,1,0,0,1-.67.51h-0.1a2,2,0,0,1-1-.35,1.13,1.13,0,0,0-.52-0.18q-0.26,0-.38.76,1.79,0.5,1.79,1.17v6a1.76,1.76,0,0,0,.62,1.46,3.25,3.25,0,0,0,2,.49,3.3,3.3,0,0,0,2-.49,1.77,1.77,0,0,0,.61-1.46v-5.19Z"/><path class="cls-2" d="M256.2,121.37h0.2a5.8,5.8,0,0,1,3.37.73,2.57,2.57,0,0,1,1,2.2v3.42a1.76,1.76,0,0,0,.62,1.46,2.69,2.69,0,0,0,1.73.49,2.73,2.73,0,0,0,1.74-.49,1.77,1.77,0,0,0,.61-1.46v-5.19a1.27,1.27,0,0,0-1.27-1.16,6.78,6.78,0,0,1,.76-2.29,1.09,1.09,0,0,1,1.9-.77l0.54,0.37a0.85,0.85,0,0,0,.44.16,0.55,0.55,0,0,0,.36-0.14,2.71,2.71,0,0,1-.29,1.19,0.84,0.84,0,0,1-.62.45h-0.1a2,2,0,0,1-1-.35,1.12,1.12,0,0,0-.52-0.18q-0.26,0-.38.76,1.89,0.5,1.88,1.17v6a2.57,2.57,0,0,1-1,2.2,7,7,0,0,1-6.25,0,2.57,2.57,0,0,1-1-2.2V124.3a1.77,1.77,0,0,0-.61-1.46,3.2,3.2,0,0,0-2-.49,3.15,3.15,0,0,0-2,.49,1.76,1.76,0,0,0-.62,1.46v2.12h0.44a1.74,1.74,0,0,1,1.28.42,1.7,1.7,0,0,1,.43,1.27,3.1,3.1,0,0,1-.49,1.9,1.73,1.73,0,0,1-1.46.63,2.68,2.68,0,0,1-1.46-.32,1,1,0,0,1-.49-0.95V124.3a2.57,2.57,0,0,1,1-2.2,3.09,3.09,0,0,1,1-.47,2.7,2.7,0,0,0-1.2-.75,5.76,5.76,0,0,1,1.39-2.06,2.41,2.41,0,0,1,1.4-.87h0.11a3.79,3.79,0,0,1,1.17.55,4.18,4.18,0,0,0,1,.52H258a1,1,0,0,0,.33-0.06,3,3,0,0,1-.54,1.14,1,1,0,0,1-.77.39,2,2,0,0,1-1.05-.42,1.93,1.93,0,0,0-1-.42,1.09,1.09,0,0,0-.73.72A7.86,7.86,0,0,1,256.2,121.37Zm-2,6h-0.44v2c0,0.13.11,0.2,0.34,0.2a0.72,0.72,0,0,0,.59-0.31,1.93,1.93,0,0,0,.24-1.15,0.71,0.71,0,0,0-.18-0.57A0.87,0.87,0,0,0,254.25,127.39Z"/><path class="cls-2" d="M271.09,122.53q0-.89-1.46-1.16a6.59,6.59,0,0,1,.8-2.29A1.82,1.82,0,0,1,271.5,118a1.88,1.88,0,0,1,.92.36l0.57,0.37a0.9,0.9,0,0,0,.46.16,0.6,0.6,0,0,0,.38-0.14,2.56,2.56,0,0,1-.3,1.19,0.89,0.89,0,0,1-.65.45h-0.1a2.18,2.18,0,0,1-1-.35,1.19,1.19,0,0,0-.54-0.18q-0.28,0-.4.76,2,0.5,2,1.17v4.66q1.46,0,1.46,1.72,0,2.51-1.46,2.51h-0.78a0.85,0.85,0,0,1-1-1v-7.16Zm1.76,7q0.49,0,.49-1.41,0-.74-0.49-0.74v2.15Z"/><path class="cls-2" d="M276.76,125.57a1.15,1.15,0,0,1-1-1,1.55,1.55,0,0,1,.39-1.1,1.4,1.4,0,0,1,1.07-.42q1.27,0,1.27.84V129l2.64-2.2,2.64,2.29V123a1.63,1.63,0,0,0-.27-1.15,3.89,3.89,0,0,0-.62-0.45,6,6,0,0,1-2.91.76,4,4,0,0,1-2.35-.59,2.27,2.27,0,0,1-.87-2,3.38,3.38,0,0,1,.24-1.26,3.43,3.43,0,0,0,.24-1.28,0.82,0.82,0,0,0-1-.86,0.81,0.81,0,0,1,1-.84,1.53,1.53,0,0,1,1.76,1.7,3.16,3.16,0,0,1-.24,1.33,2.85,2.85,0,0,0-.24,1.21,1.46,1.46,0,0,0,.39,1.16,1.61,1.61,0,0,0,1.07.33,7.2,7.2,0,0,0,2-.28,2,2,0,0,1-1-1.39q0-1.52,1.86-1.52t1.76,1.52a1.73,1.73,0,0,1-.66,1.26l0.42,0.18a2.12,2.12,0,0,1,1.22,2.12v7.62h-1.46l-2.93-2.54-2.93,2.54h-1.46v-5.08Zm6.54-6.09a0.44,0.44,0,0,0-.49-0.51q-0.68,0-.68.51a1.4,1.4,0,0,0,.81.76A1.07,1.07,0,0,0,283.3,119.47Z"/><path class="cls-2" d="M281.15,137a7.05,7.05,0,0,1-2.93-.47,1.44,1.44,0,0,1-1-1.35,0.73,0.73,0,0,1,.65-0.85l3.08-.43a8.64,8.64,0,0,0,2-.43,0.79,0.79,0,0,0,.63-0.62,0.75,0.75,0,0,0-.6-0.51,5.27,5.27,0,0,0-1.81-.23,3.63,3.63,0,0,0-2,.35,1.39,1.39,0,0,0-.41,1.11q-1.46,0-1.46-.9a1.42,1.42,0,0,1,1.22-1.1,8,8,0,0,1,2.69-.43,6.77,6.77,0,0,1,2.73.51,1.53,1.53,0,0,1,1.17,1.15,1.42,1.42,0,0,1-.85,1.23,7.17,7.17,0,0,1-2.55.71l-3,.41a0.72,0.72,0,0,0,.61.66,6.3,6.3,0,0,0,1.84.2,5.22,5.22,0,0,0,1.83-.24,0.82,0.82,0,0,0,.61-0.78l1.46-.36a1.92,1.92,0,0,1-1,1.76A5.65,5.65,0,0,1,281.15,137Z"/><path class="cls-2" d="M296.48,122.53a1.27,1.27,0,0,0-1.27-1.16,6.78,6.78,0,0,1,.76-2.29,1.09,1.09,0,0,1,1.9-.77l0.54,0.37a0.85,0.85,0,0,0,.44.16,0.55,0.55,0,0,0,.36-0.14,2.71,2.71,0,0,1-.29,1.19,0.84,0.84,0,0,1-.62.45h-0.1a2,2,0,0,1-1-.35,1.12,1.12,0,0,0-.52-0.18q-0.26,0-.38.76,1.89,0.5,1.88,1.17v6a2.57,2.57,0,0,1-1,2.2,8.34,8.34,0,0,1-6.84,0,2.57,2.57,0,0,1-1-2.2v-5.19a1.27,1.27,0,0,0-1.27-1.16,6.24,6.24,0,0,1,.81-2.29,1.89,1.89,0,0,1,1.07-1.13,1.77,1.77,0,0,1,.88.36l0.54,0.37a1,1,0,0,0,.57.16,1.9,1.9,0,0,0,.36,0,2.54,2.54,0,0,1-.36,1,1,1,0,0,1-.67.51h-0.1a2,2,0,0,1-1-.35,1.12,1.12,0,0,0-.52-0.18q-0.26,0-.38.76,1.79,0.5,1.79,1.17v6a1.76,1.76,0,0,0,.62,1.46,3.25,3.25,0,0,0,2,.49,3.3,3.3,0,0,0,2-.49,1.77,1.77,0,0,0,.61-1.46v-5.19Z"/></svg>