<svg id="Layer_1" data-name="Layer 1" xmlns="http://www.w3.org/2000/svg" viewBox="0 0 400 200"><defs><style>.cls-1{fill:#4e77bb;stroke:#3e66b0;stroke-miterlimit:10;}.cls-2{fill:#fff;}</style></defs><title>API Button</title><rect class="cls-1" x="33.5" y="34.5" width="333" height="131" rx="3" ry="3"/><path class="cls-2" d="M190.28,67.91q0-2.38-3.08-2.38,0-2.75,2.67-2.75,4.1,0,4.1,5.13v20a4.29,4.29,0,0,0,2,3.67,9.65,9.65,0,0,0,5.6,1.39h1a9.65,9.65,0,0,0,5.6-1.39,4.29,4.29,0,0,0,2-3.67V73.65A3.45,3.45,0,0,0,209,71.31l-0.14,0q-0.72,0-3.16,3.24-2.4-3.24-3.14-3.24l-0.14,0a3.39,3.39,0,0,0-1.25,2.34V81.2a4.2,4.2,0,0,1,2.44.55,2,2,0,0,1,.76,1.68q0,2.67-3.2,2.67-3.69,0-3.69-1.78V73.65a4.55,4.55,0,0,1,2.24-3.75,8,8,0,0,1,2.85-1.58q0.62,0,3.14,2.38,2.52-2.38,3.12-2.38a7.87,7.87,0,0,1,2.83,1.58,4.55,4.55,0,0,1,2.24,3.75V87.86A6,6,0,0,1,211,92.93Q208.12,95,202.58,95h-1q-5.54,0-8.41-2.05a6,6,0,0,1-2.87-5.07v-20ZM201.15,83v1.33q1.15,0,1.15-.88a0.38,0.38,0,0,0-.27-0.35A2.58,2.58,0,0,0,201.15,83Z"/><path class="cls-2" d="M117.66,121.79a1.81,1.81,0,0,1-1.2-1.36q0-.65,1.71-1.57a7.5,7.5,0,0,1,2.1-.91,5.15,5.15,0,0,1,1.51.46l1.7,0.71a1.89,1.89,0,0,0,.74.13,1.92,1.92,0,0,0,.85-0.2l0.57-.29a4.92,4.92,0,0,1,1.81-.81,4.64,4.64,0,0,1,1.51.43q3.11,1.3,3.12,2.91v9.36h-1.76v-8.77a1.93,1.93,0,0,0-1.44-1.69,6.09,6.09,0,0,0-2.13-.62,3.64,3.64,0,0,0-1.7.62,3.73,3.73,0,0,1-1.51.61,3.3,3.3,0,0,1-1.22-.32l-1.3-.54a3.56,3.56,0,0,0-1.52-.36,2.09,2.09,0,0,0-1,.27,0.88,0.88,0,0,0-.48.82,1,1,0,0,0,.74.63Zm1,8.86h-1.76V124.3a2.57,2.57,0,0,1,1-2.2,8.34,8.34,0,0,1,6.84,0,2.57,2.57,0,0,1,1,2.2v6.35H124V124.3a1.77,1.77,0,0,0-.61-1.46,3.3,3.3,0,0,0-2-.49,3.25,3.25,0,0,0-2,.49,1.76,1.76,0,0,0-.62,1.46v6.35Z"/><path class="cls-2" d="M137.74,129.69a0.86,0.86,0,0,1-1,1H136q-1.46,0-1.46-2.61a1.37,1.37,0,0,1,1.46-1.62v-3.89q0-.89-1.46-1.16a6.58,6.58,0,0,1,.8-2.29A1.83,1.83,0,0,1,136.4,118a1.86,1.86,0,0,1,.92.36l0.57,0.37a0.91,0.91,0,0,0,.46.16,0.61,0.61,0,0,0,.38-0.14,2.57,2.57,0,0,1-.3,1.19,0.89,0.89,0,0,1-.65.45h-0.1a2.19,2.19,0,0,1-1-.35,1.19,1.19,0,0,0-.54-0.18c-0.19,0-.32.25-0.4,0.76q2,0.5,2,1.17v7.93ZM136,127.39c-0.33,0-.49.21-0.49,0.64q0,1.5.49,1.5v-2.15Z"/><path class="cls-2" d="M141.65,122.53q0-.89-1.46-1.16a6.58,6.58,0,0,1,.8-2.29,1.83,1.83,0,0,1,1.07-1.13,1.86,1.86,0,0,1,.92.36l0.57,0.37a0.91,0.91,0,0,0,.46.16,0.61,0.61,0,0,0,.38-0.14,2.57,2.57,0,0,1-.3,1.19,0.89,0.89,0,0,1-.65.45h-0.1a2.19,2.19,0,0,1-1-.35,1.19,1.19,0,0,0-.54-0.18c-0.19,0-.32.25-0.4,0.76q2,0.5,2,1.17v4.66q1.46,0,1.46,1.72,0,2.51-1.46,2.51h-0.78a0.86,0.86,0,0,1-1-1v-7.16Zm1.76,7q0.49,0,.49-1.41,0-.74-0.49-0.74v2.15Z"/><path class="cls-2" d="M154.35,124.3a1.09,1.09,0,0,1-.68-1,1.58,1.58,0,0,1,.39-1.1,1.39,1.39,0,0,1,1.07-.42,0.81,0.81,0,0,1,1,.85v5.11a2.57,2.57,0,0,1-1,2.2,8.34,8.34,0,0,1-6.84,0,2.57,2.57,0,0,1-1-2.2v-6.05a1.61,1.61,0,0,1-1-1.44,1.24,1.24,0,0,1,.62-0.87l0.63-.46a4.43,4.43,0,0,1,1.54-.95,2.89,2.89,0,0,1,1.24.61,3.06,3.06,0,0,0,1.17.61,2.94,2.94,0,0,0,1.08-.61,2.62,2.62,0,0,1,1.16-.61,3.36,3.36,0,0,1,1.35.7,4.35,4.35,0,0,0,1.16.71,0.45,0.45,0,0,0,.3-0.14,1.35,1.35,0,0,1-1.17,1.27,2.4,2.4,0,0,1-1.14-.47,2.44,2.44,0,0,0-1-.47,2.07,2.07,0,0,0-1.06.47,2.14,2.14,0,0,1-1.14.47,2.53,2.53,0,0,1-1.39-.47,2.26,2.26,0,0,0-1.05-.47,0.91,0.91,0,0,0-.62.19,0.59,0.59,0,0,0-.21.46q0,0.38,1.32.92v6.59a1.76,1.76,0,0,0,.62,1.46,3.26,3.26,0,0,0,2,.49,3.3,3.3,0,0,0,2-.49,1.77,1.77,0,0,0,.61-1.46V124.3Z"/><path class="cls-2" d="M168.8,130.65H167v-9.77q0-1.54-.78-1.54a1.76,1.76,0,0,0-1.33,1,0.58,0.58,0,0,1-1.05,0,1.74,1.74,0,0,0-1.32-1q-0.79,0-.79,1.54v4.88a2.46,2.46,0,0,1,1.61.45,1.63,1.63,0,0,1,.54,1.34,3.76,3.76,0,0,1-.61,2.25,2.12,2.12,0,0,1-1.84.85q-1.46,0-1.46-.85v-8.92a3.09,3.09,0,0,1,.73-2.06,2.14,2.14,0,0,1,1.66-.87,2.89,2.89,0,0,1,2,1.31,2.91,2.91,0,0,1,2-1.31,2.13,2.13,0,0,1,1.65.87l0,0h0l0,0a5.39,5.39,0,0,1,5.87,0,2.56,2.56,0,0,1,1.11,2.06v9.77h-1.76v-9.77a1.77,1.77,0,0,0-.66-1.37,2.55,2.55,0,0,0-3.25,0,1.76,1.76,0,0,0-.67,1.37v9.77Zm4.59,2.6a0.52,0.52,0,0,0-.63-0.52,0.55,0.55,0,1,1,0-1.1q2.39,0,2.39,1.62a2.5,2.5,0,0,1-1.12,2.15q-1.57,1.11-5.33,1.11a11.48,11.48,0,0,1-4.82-1,9.35,9.35,0,0,1-3.46-2.71A1.19,1.19,0,0,1,160,132a0.41,0.41,0,0,1,.51-0.4,1,1,0,0,1,.8.4,9.31,9.31,0,0,0,3.24,2.26,10.74,10.74,0,0,0,4.13.76q3.08,0,3.9-.56A1.55,1.55,0,0,0,173.39,133.24Zm-11.62-3.87a1,1,0,0,0,.88-0.46,2.57,2.57,0,0,0,.29-1.37,0.68,0.68,0,0,0-.29-0.61,1.54,1.54,0,0,0-.88-0.21v2.64Z"/><path class="cls-2" d="M179.05,120.88a2.57,2.57,0,0,1,1-2.2,8.12,8.12,0,0,1,6.74,0,2.57,2.57,0,0,1,1,2.2v6.84a1.76,1.76,0,0,0,.62,1.46,2.7,2.7,0,0,0,1.73.49,2.74,2.74,0,0,0,1.74-.49,1.77,1.77,0,0,0,.61-1.46v-5.19a1.27,1.27,0,0,0-1.27-1.16,6.73,6.73,0,0,1,.76-2.29,1.09,1.09,0,0,1,1.9-.77l0.54,0.37a0.84,0.84,0,0,0,.44.16,0.56,0.56,0,0,0,.36-0.14,2.73,2.73,0,0,1-.29,1.19,0.84,0.84,0,0,1-.62.45h-0.1a2,2,0,0,1-1-.35,1.13,1.13,0,0,0-.52-0.18q-0.26,0-.38.76,1.88,0.5,1.88,1.17v6a2.57,2.57,0,0,1-1,2.2,7,7,0,0,1-6.25,0,2.57,2.57,0,0,1-1-2.2v-6.84a1.77,1.77,0,0,0-.61-1.46,3.2,3.2,0,0,0-2-.49,3.15,3.15,0,0,0-2,.49,1.76,1.76,0,0,0-.62,1.46v4.88a2.46,2.46,0,0,1,1.61.45,1.63,1.63,0,0,1,.54,1.34,3.76,3.76,0,0,1-.61,2.25,2.12,2.12,0,0,1-1.84.85q-1.46,0-1.46-.85v-8.92Zm1.76,5.86v2.64a1,1,0,0,0,.88-0.46,2.57,2.57,0,0,0,.29-1.37,0.68,0.68,0,0,0-.29-0.61A1.54,1.54,0,0,0,180.81,126.74Z"/><path class="cls-2" d="M185.55,113.56q0-2,3.13-2a5.53,5.53,0,0,1,3.66,1.46l1.71,1.46v1H188Q185.55,115.51,185.55,113.56Zm2.44,0.68h4a4.35,4.35,0,0,0-3.32-1.46q-2,0-2,.78T188,114.24Z"/><path class="cls-2" d="M198.1,125.52l4.28-1.63q2.75-1,2.75-2.55a2.43,2.43,0,0,0-.61-1.81,2.83,2.83,0,0,0-2-.61,2.92,2.92,0,0,0-1.8.46,2.23,2.23,0,0,0-.77,1.38,1.53,1.53,0,0,1,.43.13,1.16,1.16,0,0,1,.49.42,1,1,0,0,1,0,1.14,1.18,1.18,0,0,1-.49.42,1.49,1.49,0,0,1-.65.15,2.27,2.27,0,0,1-.95-0.15,1.18,1.18,0,0,1-.49-0.42,1,1,0,0,1-.18-0.57v-0.55a3.17,3.17,0,0,1,1-2.54,7.3,7.3,0,0,1,6.84,0,3.17,3.17,0,0,1,1,2.54q0,2.15-4,3.62l-3.08,1.23v1.06a2.43,2.43,0,0,0,.62,1.81,2.79,2.79,0,0,0,2,.61,2.83,2.83,0,0,0,2-.61,2.45,2.45,0,0,0,.61-1.81v-1.69h1.76v1.69a3.19,3.19,0,0,1-1,2.54,7.3,7.3,0,0,1-6.84,0,3.19,3.19,0,0,1-1-2.54v-1.74Z"/><path class="cls-2" d="M198.24,113.56q0-2,3.13-2a5.53,5.53,0,0,1,3.66,1.46l1.71,1.46v1h-6.05Q198.24,115.51,198.24,113.56Zm2.44,0.68h4a4.35,4.35,0,0,0-3.32-1.46q-2,0-2,.78T200.68,114.24Z"/><path class="cls-2" d="M210.3,120.23a1.24,1.24,0,0,1,.59-0.87l0.6-.46a4.21,4.21,0,0,1,1.46-.95,2.66,2.66,0,0,1,1.18.61,2.88,2.88,0,0,0,1.12.61,2.78,2.78,0,0,0,1-.61,2.45,2.45,0,0,1,1.11-.61,3.16,3.16,0,0,1,1.28.7,4.09,4.09,0,0,0,1.1.71,0.41,0.41,0,0,0,.29-0.14q-0.32,1.27-1.11,1.27a2.25,2.25,0,0,1-1.09-.47,2.24,2.24,0,0,0-1-.47,1.89,1.89,0,0,0-1,.47,2,2,0,0,1-1.09.47,2.31,2.31,0,0,1-1.32-.47,2.12,2.12,0,0,0-1-.47,0.84,0.84,0,0,0-.59.19,0.6,0.6,0,0,0-.2.46q0,0.38,1.25.63l-1.4.6A1.17,1.17,0,0,1,210.3,120.23Zm2.25,6.19H213a1.74,1.74,0,0,1,1.28.42,1.7,1.7,0,0,1,.43,1.27,3.1,3.1,0,0,1-.49,1.9,1.74,1.74,0,0,1-1.46.63,2.69,2.69,0,0,1-1.46-.32,1,1,0,0,1-.49-0.95V124.3a2.57,2.57,0,0,1,1-2.2,8.34,8.34,0,0,1,6.84,0,2.57,2.57,0,0,1,1,2.2v6.35h-1.76V124.3a1.77,1.77,0,0,0-.61-1.46,3.3,3.3,0,0,0-2-.49,3.25,3.25,0,0,0-2,.49,1.76,1.76,0,0,0-.62,1.46v2.12Zm0.44,1h-0.44v2c0,0.13.11,0.2,0.34,0.2a0.72,0.72,0,0,0,.59-0.31,1.94,1.94,0,0,0,.24-1.15,0.71,0.71,0,0,0-.18-0.57A0.86,0.86,0,0,0,213,127.39Z"/><path class="cls-2" d="M232.28,129.69a0.86,0.86,0,0,1-1,1h-0.78q-1.46,0-1.46-2.61a1.37,1.37,0,0,1,1.46-1.62v-1.16h-5.27v4.43a0.86,0.86,0,0,1-1,1h-0.78q-1.46,0-1.46-2.61a1.37,1.37,0,0,1,1.46-1.62v-3.89a1.27,1.27,0,0,0-1.27-1.16,6.23,6.23,0,0,1,.81-2.29A1.89,1.89,0,0,1,224.1,118a1.77,1.77,0,0,1,.88.36l0.54,0.37a1,1,0,0,0,.57.16,1.9,1.9,0,0,0,.36,0,2.55,2.55,0,0,1-.36,1,1,1,0,0,1-.67.51h-0.1a2,2,0,0,1-1-.35,1.13,1.13,0,0,0-.52-0.18q-0.26,0-.38.76,1.79,0.5,1.79,1.17v2.52h5.27v-1.75a1.27,1.27,0,0,0-1.27-1.16,6.73,6.73,0,0,1,.76-2.29,1.09,1.09,0,0,1,1.9-.77l0.54,0.37a0.84,0.84,0,0,0,.44.16,0.56,0.56,0,0,0,.36-0.14,2.73,2.73,0,0,1-.29,1.19,0.84,0.84,0,0,1-.62.45h-0.1a2,2,0,0,1-1-.35,1.13,1.13,0,0,0-.52-0.18q-0.26,0-.38.76,1.88,0.5,1.88,1.17v7.93Zm-8.79-2.29c-0.33,0-.49.21-0.49,0.64q0,1.5.49,1.5v-2.15Zm7,0c-0.33,0-.49.21-0.49,0.64q0,1.5.49,1.5v-2.15Z"/><path class="cls-2" d="M237.94,121.34a2.2,2.2,0,0,0,.88,1.67,8.19,8.19,0,0,0,2.64,1.38l3.52,1.23v2.49q0,2.54-2.78,2.54a3,3,0,0,1-2.29-1.21,2.74,2.74,0,0,0-2-1.2v2.41h-1.76v-5.08h1.76v1.69a3.23,3.23,0,0,1,2.34,1.2,3,3,0,0,0,1.9,1.21q1,0,1-1.56v-1.89L239.7,125a6.57,6.57,0,0,1-2.64-1.52,3,3,0,0,1-.88-2.14,3.17,3.17,0,0,1,1-2.54,7.3,7.3,0,0,1,6.84,0,3.17,3.17,0,0,1,1,2.54v0.55a1,1,0,0,1-.18.57,1.19,1.19,0,0,1-.49.42,2.27,2.27,0,0,1-.95.15,1.49,1.49,0,0,1-.65-0.15,1.19,1.19,0,0,1-.49-0.42,1,1,0,0,1,0-1.14,1.16,1.16,0,0,1,.49-0.42,1.53,1.53,0,0,1,.43-0.13,2.23,2.23,0,0,0-.77-1.38,2.92,2.92,0,0,0-1.8-.46,2.83,2.83,0,0,0-2,.61A2.43,2.43,0,0,0,237.94,121.34Z"/><path class="cls-2" d="M244.48,132.6V137H243v-3.42a0.79,0.79,0,0,1-.78-1,1,1,0,0,1,1.17-1A0.91,0.91,0,0,1,244.48,132.6Z"/><path class="cls-2" d="M263.94,120.28a2.35,2.35,0,0,1,.08.61v9.77h-1.76v-9.77a1.78,1.78,0,0,0-.66-1.37,2.55,2.55,0,0,0-3.25,0,1.76,1.76,0,0,0-.67,1.37v9.77h-1.76v-9.77q0-1.54-.78-1.54a1.76,1.76,0,0,0-1.33,1,0.58,0.58,0,0,1-1.05,0,1.74,1.74,0,0,0-1.32-1q-0.79,0-.79,1.54v4.88a2.46,2.46,0,0,1,1.61.45,1.63,1.63,0,0,1,.54,1.34,3.77,3.77,0,0,1-.61,2.25,2.12,2.12,0,0,1-1.84.85q-1.46,0-1.46-.85v-8.92a3.09,3.09,0,0,1,.73-2.06,2.14,2.14,0,0,1,1.66-.87,2.89,2.89,0,0,1,2,1.31,2.92,2.92,0,0,1,2-1.31,2.13,2.13,0,0,1,1.65.87l0,0h0l0,0a5.39,5.39,0,0,1,5.87,0,4.82,4.82,0,0,1,.46.42l1.24-.74a3.41,3.41,0,0,1,1.79-.55,4.44,4.44,0,0,1,2.52,1.1,3,3,0,0,1,1.46,2v9.55H268.6V121.1a1.8,1.8,0,0,0-.9-1,3,3,0,0,0-1.71-.64A5.18,5.18,0,0,0,263.94,120.28Zm-13.3,9.1a1,1,0,0,0,.88-0.46,2.57,2.57,0,0,0,.29-1.37,0.68,0.68,0,0,0-.29-0.61,1.54,1.54,0,0,0-.88-0.21v2.64Z"/><path class="cls-2" d="M264.5,135.3H263V133.5a8,8,0,0,0-2.36-1.2,9.42,9.42,0,0,0-2.52,1.1v1.9h-1.46v-2.17a1.86,1.86,0,0,0-1-.8,3.4,3.4,0,0,0-1.36,1.21,5.58,5.58,0,0,0-1.57-1.21,1.84,1.84,0,0,0-1,.77v0.24q1,0,1,.55a1.54,1.54,0,0,1-.34,1,1.28,1.28,0,0,1-1.07.44q-1,0-1-1.55a2.42,2.42,0,0,1,1-1.74,2.82,2.82,0,0,1,1.43-.87,3.93,3.93,0,0,1,1.6,1.1,3.12,3.12,0,0,1,1.4-1.1,5.34,5.34,0,0,1,1.85,1.35,13.82,13.82,0,0,1,3.2-1.35,6.33,6.33,0,0,1,2.1.87l0.81,0.45a1.7,1.7,0,0,1,.8,1.64v1.21Zm0,1.85a1,1,0,0,1-.85.93,8,8,0,0,1-2.57.31,14.12,14.12,0,0,1-4.35-.62,11.2,11.2,0,0,0-3.47-.62,5.53,5.53,0,0,0-2.93.74v-0.41a1,1,0,0,1,.61-0.79,4.88,4.88,0,0,1,2.32-.38,12.74,12.74,0,0,1,3.91.63,12.94,12.94,0,0,0,3.91.62q2,0,2-.41t-1-.41a0.8,0.8,0,0,1,1-.83,1.67,1.67,0,0,1,1.1.31A1.16,1.16,0,0,1,264.5,137.15Z"/><path class="cls-2" d="M273.78,120.23a1.24,1.24,0,0,1,.59-0.87l0.6-.46a4.21,4.21,0,0,1,1.46-.95,2.66,2.66,0,0,1,1.18.61,2.87,2.87,0,0,0,1.12.61,2.8,2.8,0,0,0,1-.61,2.45,2.45,0,0,1,1.11-.61,3.15,3.15,0,0,1,1.28.7,4.1,4.1,0,0,0,1.1.71,0.41,0.41,0,0,0,.29-0.14q-0.32,1.27-1.11,1.27a2.25,2.25,0,0,1-1.09-.47,2.24,2.24,0,0,0-1-.47,1.89,1.89,0,0,0-1,.47,2,2,0,0,1-1.09.47,2.31,2.31,0,0,1-1.32-.47,2.12,2.12,0,0,0-1-.47,0.84,0.84,0,0,0-.59.19,0.6,0.6,0,0,0-.2.46q0,0.38,1.25.63l-1.4.6A1.17,1.17,0,0,1,273.78,120.23Zm2.25,6.19h0.44a1.74,1.74,0,0,1,1.28.42,1.7,1.7,0,0,1,.43,1.27,3.1,3.1,0,0,1-.49,1.9,1.73,1.73,0,0,1-1.46.63,2.68,2.68,0,0,1-1.46-.32,1,1,0,0,1-.49-0.95V124.3a2.57,2.57,0,0,1,1-2.2,8.34,8.34,0,0,1,6.84,0,2.57,2.57,0,0,1,1,2.2v6.35H281.3V124.3a1.77,1.77,0,0,0-.61-1.46,3.3,3.3,0,0,0-2-.49,3.25,3.25,0,0,0-2,.49,1.76,1.76,0,0,0-.62,1.46v2.12Zm0.44,1H276v2c0,0.13.11,0.2,0.34,0.2a0.73,0.73,0,0,0,.59-0.31,1.93,1.93,0,0,0,.24-1.15,0.71,0.71,0,0,0-.18-0.57A0.87,0.87,0,0,0,276.46,127.39Z"/><path class="cls-2" d="M274.41,113.56q0-2,3.13-2a5.54,5.54,0,0,1,3.66,1.46l1.71,1.46v1h-6.05Q274.41,115.51,274.41,113.56Zm2.44,0.68h4a4.35,4.35,0,0,0-3.32-1.46q-2,0-2,.78T276.86,114.24Z"/></svg>