<svg id="Layer_1" data-name="Layer 1" xmlns="http://www.w3.org/2000/svg" viewBox="0 0 400 200"><defs><style>.cls-1{fill:#4e77bb;stroke:#3e66b0;stroke-miterlimit:10;}.cls-2{fill:#fff;}</style></defs><title>API Button</title><rect class="cls-1" x="33.5" y="34.5" width="333" height="131" rx="3" ry="3"/><path class="cls-2" d="M190.28,67.91q0-2.38-3.08-2.38,0-2.75,2.67-2.75,4.1,0,4.1,5.13v20a4.29,4.29,0,0,0,2,3.67,9.65,9.65,0,0,0,5.6,1.39h1a9.65,9.65,0,0,0,5.6-1.39,4.29,4.29,0,0,0,2-3.67V73.65A3.45,3.45,0,0,0,209,71.31l-0.14,0q-0.72,0-3.16,3.24-2.4-3.24-3.14-3.24l-0.14,0a3.39,3.39,0,0,0-1.25,2.34V81.2a4.2,4.2,0,0,1,2.44.55,2,2,0,0,1,.76,1.68q0,2.67-3.2,2.67-3.69,0-3.69-1.78V73.65a4.55,4.55,0,0,1,2.24-3.75,8,8,0,0,1,2.85-1.58q0.62,0,3.14,2.38,2.52-2.38,3.12-2.38a7.87,7.87,0,0,1,2.83,1.58,4.55,4.55,0,0,1,2.24,3.75V87.86A6,6,0,0,1,211,92.93Q208.12,95,202.58,95h-1q-5.54,0-8.41-2.05a6,6,0,0,1-2.87-5.07v-20ZM201.15,83v1.33q1.15,0,1.15-.88a0.38,0.38,0,0,0-.27-0.35A2.58,2.58,0,0,0,201.15,83Z"/><path class="cls-2" d="M127.1,121.37h0.2a5.79,5.79,0,0,1,3.37.73,2.57,2.57,0,0,1,1,2.2v3.42a1.76,1.76,0,0,0,.62,1.46,2.7,2.7,0,0,0,1.73.49,2.74,2.74,0,0,0,1.74-.49,1.77,1.77,0,0,0,.61-1.46v-5.19a1.27,1.27,0,0,0-1.27-1.16,6.77,6.77,0,0,1,.76-2.29,1.78,1.78,0,0,1,1-1.13,1.76,1.76,0,0,1,.88.36l0.54,0.37a0.85,0.85,0,0,0,.44.16,0.56,0.56,0,0,0,.36-0.14,2.7,2.7,0,0,1-.29,1.19,0.84,0.84,0,0,1-.62.45h-0.1a2,2,0,0,1-1-.35,1.12,1.12,0,0,0-.52-0.18q-0.26,0-.38.76,1.89,0.5,1.88,1.17v6a2.57,2.57,0,0,1-1,2.2,7,7,0,0,1-6.25,0,2.57,2.57,0,0,1-1-2.2V124.3a1.77,1.77,0,0,0-.61-1.46,3.2,3.2,0,0,0-2-.49,3.15,3.15,0,0,0-2,.49,1.76,1.76,0,0,0-.62,1.46v2.12h0.44a1.74,1.74,0,0,1,1.28.42,1.7,1.7,0,0,1,.43,1.27,3.1,3.1,0,0,1-.49,1.9,1.73,1.73,0,0,1-1.46.63,2.69,2.69,0,0,1-1.46-.32,1,1,0,0,1-.49-0.95V124.3a2.57,2.57,0,0,1,1-2.2,3.09,3.09,0,0,1,1-.47,2.69,2.69,0,0,0-1.2-.75,5.77,5.77,0,0,1,1.39-2.06,2.41,2.41,0,0,1,1.4-.87h0.11a3.75,3.75,0,0,1,1.17.55,4.22,4.22,0,0,0,1,.52h0.15a1,1,0,0,0,.33-0.06,3,3,0,0,1-.54,1.14,1,1,0,0,1-.77.39,2,2,0,0,1-1.05-.42,1.93,1.93,0,0,0-1-.42,1.09,1.09,0,0,0-.73.72A7.86,7.86,0,0,1,127.1,121.37Zm-2,6h-0.44v2c0,0.13.11,0.2,0.34,0.2a0.72,0.72,0,0,0,.59-0.31,1.93,1.93,0,0,0,.24-1.15,0.7,0.7,0,0,0-.18-0.57A0.86,0.86,0,0,0,125.15,127.39Z"/><path class="cls-2" d="M133.69,111.6a2.26,2.26,0,0,1,1.08.28,2,2,0,0,1,.82.81,2.22,2.22,0,0,1,0,2.2,2,2,0,0,1-.81.82,2.22,2.22,0,0,1-2.19,0,2.05,2.05,0,0,1-.82-0.82,2.19,2.19,0,0,1,0-2.2,2.05,2.05,0,0,1,.82-0.81A2.23,2.23,0,0,1,133.69,111.6ZM133.21,113a0.91,0.91,0,0,0-.37.36,1,1,0,0,0,0,1,0.91,0.91,0,0,0,.37.36,1,1,0,0,0,.48.13,1,1,0,0,0,.49-0.13,0.88,0.88,0,0,0,.36-0.36,1,1,0,0,0,.13-0.49,1,1,0,0,0-.13-0.49,0.91,0.91,0,0,0-.36-0.36,1,1,0,0,0-.48-0.13A1,1,0,0,0,133.21,113Z"/><path class="cls-2" d="M149,122.53a1.27,1.27,0,0,0-1.27-1.16,6.77,6.77,0,0,1,.76-2.29,1.78,1.78,0,0,1,1-1.13,1.76,1.76,0,0,1,.88.36l0.54,0.37a0.85,0.85,0,0,0,.44.16,0.56,0.56,0,0,0,.36-0.14,2.7,2.7,0,0,1-.29,1.19,0.84,0.84,0,0,1-.62.45h-0.1a2,2,0,0,1-1-.35,1.12,1.12,0,0,0-.52-0.18q-0.26,0-.38.76,1.89,0.5,1.88,1.17v6a2.57,2.57,0,0,1-1,2.2,8.34,8.34,0,0,1-6.84,0,2.57,2.57,0,0,1-1-2.2v-5.19a1.27,1.27,0,0,0-1.27-1.16,6.24,6.24,0,0,1,.81-2.29,1.89,1.89,0,0,1,1.07-1.13,1.76,1.76,0,0,1,.88.36l0.54,0.37a1,1,0,0,0,.57.16,1.89,1.89,0,0,0,.36,0,2.53,2.53,0,0,1-.36,1,1,1,0,0,1-.67.51h-0.1a2,2,0,0,1-1-.35,1.12,1.12,0,0,0-.52-0.18q-0.26,0-.38.76,1.79,0.5,1.79,1.17v6a1.76,1.76,0,0,0,.62,1.46,3.26,3.26,0,0,0,2,.49,3.3,3.3,0,0,0,2-.49,1.77,1.77,0,0,0,.61-1.46v-5.19Z"/><path class="cls-2" d="M150.29,132.6V137h-1.46v-3.42a0.79,0.79,0,0,1-.78-1,1,1,0,0,1,1.17-1A0.91,0.91,0,0,1,150.29,132.6Z"/><path class="cls-2" d="M154.69,122.53q0-.89-1.46-1.16a6.6,6.6,0,0,1,.8-2.29A1.83,1.83,0,0,1,155.1,118a1.86,1.86,0,0,1,.92.36l0.57,0.37a0.91,0.91,0,0,0,.46.16,0.61,0.61,0,0,0,.38-0.14,2.56,2.56,0,0,1-.3,1.19,0.89,0.89,0,0,1-.65.45h-0.1a2.19,2.19,0,0,1-1-.35,1.19,1.19,0,0,0-.54-0.18q-0.28,0-.4.76,2,0.5,2,1.17v12.79a1.18,1.18,0,0,0,.71,1.1,3.11,3.11,0,0,0,1.44.37,2.46,2.46,0,0,0,1.41-.37,1.22,1.22,0,0,0,.55-1.09v-2.93H162v2.93a2,2,0,0,1-.92,1.83,4.44,4.44,0,0,1-2.5.62,5.87,5.87,0,0,1-2.74-.61,2,2,0,0,1-1.16-1.84v-12Z"/><path class="cls-2" d="M159.86,120.23a1.24,1.24,0,0,1,.59-0.87l0.6-.46a4.21,4.21,0,0,1,1.46-.95,2.65,2.65,0,0,1,1.18.61,2.88,2.88,0,0,0,1.12.61,2.78,2.78,0,0,0,1-.61A2.45,2.45,0,0,1,167,118a3.15,3.15,0,0,1,1.28.7,4.1,4.1,0,0,0,1.1.71,0.41,0.41,0,0,0,.29-0.14q-0.32,1.27-1.11,1.27a2.25,2.25,0,0,1-1.09-.47,2.24,2.24,0,0,0-1-.47,1.89,1.89,0,0,0-1,.47,2,2,0,0,1-1.09.47A2.31,2.31,0,0,1,163,120a2.12,2.12,0,0,0-1-.47,0.84,0.84,0,0,0-.59.19,0.6,0.6,0,0,0-.2.46q0,0.38,1.25.63l-1.4.6A1.17,1.17,0,0,1,159.86,120.23Zm2.25,6.19h0.44a1.74,1.74,0,0,1,1.28.42,1.7,1.7,0,0,1,.43,1.27,3.1,3.1,0,0,1-.49,1.9,1.73,1.73,0,0,1-1.46.63,2.69,2.69,0,0,1-1.46-.32,1,1,0,0,1-.49-0.95V124.3a2.57,2.57,0,0,1,1-2.2,8.34,8.34,0,0,1,6.84,0,2.57,2.57,0,0,1,1,2.2v6.35h-1.76V124.3a1.77,1.77,0,0,0-.61-1.46,3.3,3.3,0,0,0-2-.49,3.25,3.25,0,0,0-2,.49,1.76,1.76,0,0,0-.62,1.46v2.12Zm0.44,1h-0.44v2c0,0.13.11,0.2,0.34,0.2a0.72,0.72,0,0,0,.59-0.31,1.93,1.93,0,0,0,.24-1.15,0.7,0.7,0,0,0-.18-0.57A0.86,0.86,0,0,0,162.55,127.39Z"/><path class="cls-2" d="M181.84,129.69a0.85,0.85,0,0,1-1,1h-0.78q-1.46,0-1.46-2.61a1.37,1.37,0,0,1,1.46-1.62v-1.16H174.8v4.43a0.85,0.85,0,0,1-1,1H173q-1.46,0-1.46-2.61a1.37,1.37,0,0,1,1.46-1.62v-3.89a1.27,1.27,0,0,0-1.27-1.16,6.24,6.24,0,0,1,.81-2.29,1.89,1.89,0,0,1,1.07-1.13,1.76,1.76,0,0,1,.88.36l0.54,0.37a1,1,0,0,0,.57.16,1.89,1.89,0,0,0,.36,0,2.53,2.53,0,0,1-.36,1,1,1,0,0,1-.67.51h-0.1a2,2,0,0,1-1-.35,1.12,1.12,0,0,0-.52-0.18q-0.26,0-.38.76,1.79,0.5,1.79,1.17v2.52h5.27v-1.86q0-.93-1.33-1.07a3.54,3.54,0,0,1,1.24-2.29,3.29,3.29,0,0,1,2.22-1.07,7,7,0,0,1,2.72.46q3.25,1.39,3.25,3.28v8.92h-1.76v-8.43q0-1.4-2.53-2.27a6.82,6.82,0,0,0-2.15-.28,1.75,1.75,0,0,0-1.59,1q1.68,0.51,1.68,1.21v7.76ZM173,127.39q-0.49,0-.49.64,0,1.5.49,1.5v-2.15Zm7,0q-0.49,0-.49.64,0,1.5.49,1.5v-2.15Z"/><path class="cls-2" d="M200.83,120.26a3.84,3.84,0,0,1,0,.63v9.77h-1.76v-9.77q0-1.54-.78-1.54a1.76,1.76,0,0,0-1.33,1,0.58,0.58,0,0,1-1.05,0,1.74,1.74,0,0,0-1.32-1q-0.79,0-.79,1.54v4.88a2.46,2.46,0,0,1,1.61.45,1.63,1.63,0,0,1,.54,1.34,3.76,3.76,0,0,1-.61,2.25,2.12,2.12,0,0,1-1.84.85q-1.46,0-1.46-.85v-8.92a3.09,3.09,0,0,1,.73-2.06,2.14,2.14,0,0,1,1.66-.87,2.89,2.89,0,0,1,2,1.31,2.92,2.92,0,0,1,2-1.31,2.13,2.13,0,0,1,1.65.87,3.38,3.38,0,0,1,.23.32l1.07-.64a3.41,3.41,0,0,1,1.79-.55,4.44,4.44,0,0,1,2.52,1.1,2.94,2.94,0,0,1,1.46,2v9.55h-1.76V121.1a1.8,1.8,0,0,0-.9-1,3,3,0,0,0-1.71-.64A5.07,5.07,0,0,0,200.83,120.26Zm-7,9.12a1,1,0,0,0,.88-0.46,2.57,2.57,0,0,0,.29-1.37,0.68,0.68,0,0,0-.29-0.61,1.54,1.54,0,0,0-.88-0.21v2.64Z"/><path class="cls-2" d="M211.13,122.53a1.27,1.27,0,0,0-1.27-1.16,6.24,6.24,0,0,1,.81-2.29,1.89,1.89,0,0,1,1.07-1.13,1.76,1.76,0,0,1,.88.36l0.54,0.37a1,1,0,0,0,.57.16,1.89,1.89,0,0,0,.36,0,2.53,2.53,0,0,1-.36,1,1,1,0,0,1-.67.51H213a2,2,0,0,1-1-.35,1.12,1.12,0,0,0-.52-0.18q-0.26,0-.38.76,1.79,0.5,1.79,1.17v6a1.76,1.76,0,0,0,.62,1.46,3.77,3.77,0,0,0,3.71,0,1.77,1.77,0,0,0,.61-1.46v-6.84a2.57,2.57,0,0,1,1-2.2,7.56,7.56,0,0,1,6.49,0,2.57,2.57,0,0,1,1,2.2v9.77h-1.76v-9.77a1.77,1.77,0,0,0-.61-1.46,3.77,3.77,0,0,0-3.71,0,1.76,1.76,0,0,0-.62,1.46v6.84a2.57,2.57,0,0,1-1,2.2,7.56,7.56,0,0,1-6.49,0,2.57,2.57,0,0,1-1-2.2v-5.19Z"/><path class="cls-2" d="M219.87,114.28a1,1,0,0,0,.12.55,0.53,0.53,0,0,0,.47.19c0.33,0,.49-0.06.49-0.18s0.23-.3.68-0.3,0.68,0.1.68,0.3a1,1,0,0,1-.43.87,2.5,2.5,0,0,1-1.38.29,2.4,2.4,0,0,1-1.67-.43,1.74,1.74,0,0,1-.43-1.28,2.13,2.13,0,0,1,.44-1.33,2.05,2.05,0,0,1,1.71-.58,2.11,2.11,0,0,1,1.71.58,5.53,5.53,0,0,0,1.38-.67,3.38,3.38,0,0,0,1-1.12l0.11,0a0.79,0.79,0,0,1,.56.62,0.3,0.3,0,0,1-.12.23,5.9,5.9,0,0,1-1,1.1,7.22,7.22,0,0,1-1.33.84,2.34,2.34,0,0,1-.68.11,2,2,0,0,0-1.34-.68,0.93,0.93,0,0,0-.7.27A0.9,0.9,0,0,0,219.87,114.28Z"/><path class="cls-2" d="M234,120.33a1.74,1.74,0,0,0-1.32-1q-0.79,0-.79,1.54v4.88a2.46,2.46,0,0,1,1.61.45,1.63,1.63,0,0,1,.54,1.34,3.76,3.76,0,0,1-.61,2.25,2.12,2.12,0,0,1-1.84.85q-1.46,0-1.46-.85v-8.92a3.09,3.09,0,0,1,.73-2.06,2.14,2.14,0,0,1,1.66-.87,2.89,2.89,0,0,1,2,1.31,2.92,2.92,0,0,1,2-1.31,2.13,2.13,0,0,1,1.65.87,3.12,3.12,0,0,1,.72,2.06v9.77h-1.76v-9.77q0-1.54-.78-1.54a1.76,1.76,0,0,0-1.33,1A0.58,0.58,0,0,1,234,120.33Zm-2.11,9a1,1,0,0,0,.88-0.46,2.57,2.57,0,0,0,.29-1.37,0.68,0.68,0,0,0-.29-0.61,1.54,1.54,0,0,0-.88-0.21v2.64Z"/><path class="cls-2" d="M230.32,113.56q0-2,3.13-2a5.53,5.53,0,0,1,3.66,1.46l1.71,1.46v1h-6.05Q230.32,115.51,230.32,113.56Zm2.44,0.68h4a4.35,4.35,0,0,0-3.32-1.46q-2,0-2,.78T232.76,114.24Z"/><path class="cls-2" d="M251.61,120.26a4,4,0,0,1,0,.63v9.77H249.9v-9.77q0-1.54-.78-1.54a1.76,1.76,0,0,0-1.33,1,0.58,0.58,0,0,1-1.05,0,1.74,1.74,0,0,0-1.32-1q-0.79,0-.79,1.54v4.88a2.46,2.46,0,0,1,1.61.45,1.63,1.63,0,0,1,.54,1.34,3.77,3.77,0,0,1-.61,2.25,2.12,2.12,0,0,1-1.84.85q-1.46,0-1.46-.85v-8.92a3.09,3.09,0,0,1,.73-2.06,2.14,2.14,0,0,1,1.66-.87,2.89,2.89,0,0,1,2,1.31,2.92,2.92,0,0,1,2-1.31,2.13,2.13,0,0,1,1.65.87,3.38,3.38,0,0,1,.23.32l1.07-.64A3.41,3.41,0,0,1,254,118a4.44,4.44,0,0,1,2.52,1.1,3,3,0,0,1,1.46,2v9.55h-1.76V121.1a1.8,1.8,0,0,0-.9-1,3,3,0,0,0-1.71-.64A5.07,5.07,0,0,0,251.61,120.26Zm-7,9.12a1,1,0,0,0,.88-0.46,2.57,2.57,0,0,0,.29-1.37,0.68,0.68,0,0,0-.29-0.61,1.54,1.54,0,0,0-.88-0.21v2.64Z"/><path class="cls-2" d="M261.91,122.53a1.27,1.27,0,0,0-1.27-1.16,6.23,6.23,0,0,1,.81-2.29,1.89,1.89,0,0,1,1.07-1.13,1.76,1.76,0,0,1,.88.36l0.54,0.37a1,1,0,0,0,.57.16,1.9,1.9,0,0,0,.36,0,2.55,2.55,0,0,1-.36,1,1,1,0,0,1-.67.51h-0.1a2,2,0,0,1-1-.35,1.12,1.12,0,0,0-.52-0.18q-0.26,0-.38.76,1.79,0.5,1.79,1.17v6a1.76,1.76,0,0,0,.62,1.46,3.77,3.77,0,0,0,3.71,0,1.77,1.77,0,0,0,.61-1.46v-6.84a2.57,2.57,0,0,1,1-2.2,7.56,7.56,0,0,1,6.49,0,2.57,2.57,0,0,1,1,2.2v9.77h-1.76v-9.77a1.77,1.77,0,0,0-.61-1.46,3.77,3.77,0,0,0-3.71,0,1.76,1.76,0,0,0-.62,1.46v6.84a2.57,2.57,0,0,1-1,2.2,7.56,7.56,0,0,1-6.49,0,2.57,2.57,0,0,1-1-2.2v-5.19Z"/><path class="cls-2" d="M270.65,114.28a1,1,0,0,0,.12.55,0.53,0.53,0,0,0,.47.19q0.49,0,.49-0.18t0.68-.3q0.68,0,.68.3a1,1,0,0,1-.43.87,2.5,2.5,0,0,1-1.38.29,2.4,2.4,0,0,1-1.67-.43,1.74,1.74,0,0,1-.43-1.28,2.13,2.13,0,0,1,.44-1.33,2.05,2.05,0,0,1,1.71-.58A2.11,2.11,0,0,1,273,113a5.53,5.53,0,0,0,1.38-.67,3.38,3.38,0,0,0,1-1.12l0.11,0a0.79,0.79,0,0,1,.56.62,0.3,0.3,0,0,1-.12.23,5.9,5.9,0,0,1-1,1.1,7.26,7.26,0,0,1-1.33.84,2.34,2.34,0,0,1-.68.11,2,2,0,0,0-1.34-.68,0.93,0.93,0,0,0-.7.27A0.9,0.9,0,0,0,270.65,114.28Z"/></svg>