<svg id="Layer_1" data-name="Layer 1" xmlns="http://www.w3.org/2000/svg" viewBox="0 0 400 200"><defs><style>.cls-1{fill:#4e77bb;stroke:#3e66b0;stroke-miterlimit:10;}.cls-2{fill:#fff;}</style></defs><title>API Button</title><rect class="cls-1" x="33.5" y="34.5" width="333" height="131" rx="3" ry="3"/><path class="cls-2" d="M194,89.34a3.78,3.78,0,0,1,2.44.64,2.41,2.41,0,0,1,.76,1.93q0,3.08-3.2,3.08-3.69,0-3.69-2.05V74.53a5.6,5.6,0,0,1,1.93-4.66q1.93-1.56,5.76-1.56,4.25,0,6.15,1.91,1.91-1.91,6.15-1.91,3.86,0,5.76,1.56A5.6,5.6,0,0,1,218,74.53V95h-3.69V74.53a4.29,4.29,0,0,0-1-3.12,3.93,3.93,0,0,0-3-1,4.43,4.43,0,0,0-3.22,1A4.09,4.09,0,0,0,206,74.53V95h-3.69V74.53a4.14,4.14,0,0,0-1.07-3.12,4.5,4.5,0,0,0-3.24-1,4,4,0,0,0-3,1,4.29,4.29,0,0,0-1,3.12V89.34Zm0,2.05v1.54a1,1,0,0,0,1.15-1,0.43,0.43,0,0,0-.27-0.39A2.18,2.18,0,0,0,194,91.39Z"/><path class="cls-2" d="M78.86,122.53q0-.89-1.46-1.16a6.58,6.58,0,0,1,.8-2.29A1.83,1.83,0,0,1,79.27,118a1.86,1.86,0,0,1,.92.36l0.57,0.37a0.91,0.91,0,0,0,.46.16,0.61,0.61,0,0,0,.38-0.14,2.57,2.57,0,0,1-.3,1.19,0.89,0.89,0,0,1-.65.45h-0.1a2.19,2.19,0,0,1-1-.35,1.19,1.19,0,0,0-.54-0.18c-0.19,0-.32.25-0.4,0.76q2,0.5,2,1.17v4.66q1.46,0,1.46,1.72,0,2.51-1.46,2.51H79.83a0.86,0.86,0,0,1-1-1v-7.16Zm1.76,7q0.49,0,.49-1.41,0-.74-0.49-0.74v2.15Z"/><path class="cls-2" d="M88.67,121.37h0.2a5.79,5.79,0,0,1,3.37.73,2.57,2.57,0,0,1,1,2.2v3.42a1.76,1.76,0,0,0,.62,1.46,2.7,2.7,0,0,0,1.73.49,2.74,2.74,0,0,0,1.74-.49,1.77,1.77,0,0,0,.61-1.46v-5.19a1.27,1.27,0,0,0-1.27-1.16,6.73,6.73,0,0,1,.76-2.29,1.09,1.09,0,0,1,1.9-.77l0.54,0.37a0.84,0.84,0,0,0,.44.16,0.56,0.56,0,0,0,.36-0.14,2.73,2.73,0,0,1-.29,1.19,0.84,0.84,0,0,1-.62.45h-0.1a2,2,0,0,1-1-.35,1.13,1.13,0,0,0-.52-0.18q-0.26,0-.38.76,1.88,0.5,1.88,1.17v6a2.57,2.57,0,0,1-1,2.2,7,7,0,0,1-6.25,0,2.57,2.57,0,0,1-1-2.2V124.3a1.77,1.77,0,0,0-.61-1.46,3.2,3.2,0,0,0-2-.49,3.15,3.15,0,0,0-2,.49,1.76,1.76,0,0,0-.62,1.46v2.12h0.44a1.74,1.74,0,0,1,1.28.42,1.7,1.7,0,0,1,.43,1.27,3.1,3.1,0,0,1-.49,1.9,1.74,1.74,0,0,1-1.46.63,2.69,2.69,0,0,1-1.46-.32,1,1,0,0,1-.49-0.95V124.3a2.57,2.57,0,0,1,1-2.2,3.07,3.07,0,0,1,1-.47,2.69,2.69,0,0,0-1.2-.75,5.77,5.77,0,0,1,1.39-2.06,2.41,2.41,0,0,1,1.4-.87h0.11a3.77,3.77,0,0,1,1.17.55,4.22,4.22,0,0,0,1,.52H90.5a1,1,0,0,0,.33-0.06,3,3,0,0,1-.54,1.14,1,1,0,0,1-.77.39,2,2,0,0,1-1.05-.42,1.93,1.93,0,0,0-1-.42,1.09,1.09,0,0,0-.73.72A7.88,7.88,0,0,1,88.67,121.37Zm-2,6H86.28v2c0,0.13.11,0.2,0.34,0.2a0.72,0.72,0,0,0,.59-0.31,1.94,1.94,0,0,0,.24-1.15,0.71,0.71,0,0,0-.18-0.57A0.86,0.86,0,0,0,86.72,127.39Z"/><path class="cls-2" d="M110.6,124.3a1.09,1.09,0,0,1-.68-1,1.58,1.58,0,0,1,.39-1.1,1.39,1.39,0,0,1,1.07-.42,0.81,0.81,0,0,1,1,.85v5.11a2.57,2.57,0,0,1-1,2.2,8.34,8.34,0,0,1-6.84,0,2.57,2.57,0,0,1-1-2.2v-6.05a1.61,1.61,0,0,1-1-1.44,1.24,1.24,0,0,1,.62-0.87l0.63-.46a4.43,4.43,0,0,1,1.54-.95,2.89,2.89,0,0,1,1.24.61,3.06,3.06,0,0,0,1.17.61,2.94,2.94,0,0,0,1.08-.61A2.62,2.62,0,0,1,110,118a3.36,3.36,0,0,1,1.35.7,4.35,4.35,0,0,0,1.16.71,0.45,0.45,0,0,0,.3-0.14,1.35,1.35,0,0,1-1.17,1.27,2.4,2.4,0,0,1-1.14-.47,2.44,2.44,0,0,0-1-.47,2.07,2.07,0,0,0-1.06.47,2.14,2.14,0,0,1-1.14.47,2.53,2.53,0,0,1-1.39-.47,2.26,2.26,0,0,0-1.05-.47,0.91,0.91,0,0,0-.62.19,0.59,0.59,0,0,0-.21.46q0,0.38,1.32.92v6.59a1.76,1.76,0,0,0,.62,1.46,3.26,3.26,0,0,0,2,.49,3.3,3.3,0,0,0,2-.49,1.77,1.77,0,0,0,.61-1.46V124.3Z"/><path class="cls-2" d="M115.77,120.23a1.24,1.24,0,0,1,.59-0.87l0.6-.46a4.21,4.21,0,0,1,1.46-.95,2.66,2.66,0,0,1,1.18.61,2.88,2.88,0,0,0,1.12.61,2.78,2.78,0,0,0,1-.61,2.45,2.45,0,0,1,1.11-.61,3.16,3.16,0,0,1,1.28.7,4.09,4.09,0,0,0,1.1.71,0.41,0.41,0,0,0,.29-0.14q-0.32,1.27-1.11,1.27a2.25,2.25,0,0,1-1.09-.47,2.24,2.24,0,0,0-1-.47,1.89,1.89,0,0,0-1,.47,2,2,0,0,1-1.09.47,2.31,2.31,0,0,1-1.32-.47,2.12,2.12,0,0,0-1-.47,0.84,0.84,0,0,0-.59.19,0.6,0.6,0,0,0-.2.46q0,0.38,1.25.63l-1.4.6A1.17,1.17,0,0,1,115.77,120.23ZM118,130.65h-1.76V124.3a2.57,2.57,0,0,1,1-2.2,8.34,8.34,0,0,1,6.84,0,2.57,2.57,0,0,1,1,2.2v6.35h-1.76V124.3a1.77,1.77,0,0,0-.61-1.46,3.3,3.3,0,0,0-2-.49,3.25,3.25,0,0,0-2,.49,1.76,1.76,0,0,0-.62,1.46v6.35Z"/><path class="cls-2" d="M118.21,134.06h0.49a1.17,1.17,0,0,1,1.37,1.27q0,1.66-1.86,1.66-1.46,0-1.46-1v-2.44a1.56,1.56,0,0,1,1-1.46,9,9,0,0,1,5.86,0,1.56,1.56,0,0,1,1,1.46V137H123.1v-3.42a0.8,0.8,0,0,0-.62-0.73,7,7,0,0,0-3.65,0,0.8,0.8,0,0,0-.62.73v0.49Zm0,2q0.88,0,.88-0.67a0.31,0.31,0,0,0-.39-0.3h-0.49v1Z"/><path class="cls-2" d="M123.63,113.45V111.6h1.27v3.91h-6.05q-2.44,0-2.44-2t3.13-2a5.53,5.53,0,0,1,3.66,1.46Zm-4.79.79h4a4.35,4.35,0,0,0-3.32-1.46q-2,0-2,.78T118.85,114.24Z"/><path class="cls-2" d="M136,124.3a1.09,1.09,0,0,1-.68-1,1.58,1.58,0,0,1,.39-1.1,1.39,1.39,0,0,1,1.07-.42,0.81,0.81,0,0,1,1,.85v5.11a2.57,2.57,0,0,1-1,2.2,8.34,8.34,0,0,1-6.84,0,2.57,2.57,0,0,1-1-2.2v-6.05a1.61,1.61,0,0,1-1-1.44,1.24,1.24,0,0,1,.62-0.87l0.63-.46a4.43,4.43,0,0,1,1.54-.95,2.89,2.89,0,0,1,1.24.61,3.06,3.06,0,0,0,1.17.61,2.94,2.94,0,0,0,1.08-.61,2.62,2.62,0,0,1,1.16-.61,3.36,3.36,0,0,1,1.35.7,4.35,4.35,0,0,0,1.16.71,0.45,0.45,0,0,0,.3-0.14,1.35,1.35,0,0,1-1.17,1.27,2.4,2.4,0,0,1-1.14-.47,2.44,2.44,0,0,0-1-.47,2.07,2.07,0,0,0-1.06.47,2.14,2.14,0,0,1-1.14.47,2.53,2.53,0,0,1-1.39-.47,2.26,2.26,0,0,0-1.05-.47,0.91,0.91,0,0,0-.62.19,0.59,0.59,0,0,0-.21.46q0,0.38,1.32.92v6.59a1.76,1.76,0,0,0,.62,1.46,3.26,3.26,0,0,0,2,.49,3.3,3.3,0,0,0,2-.49,1.77,1.77,0,0,0,.61-1.46V124.3Z"/><path class="cls-2" d="M143.41,124.28h5.27v-1.75a1.27,1.27,0,0,0-1.27-1.16,6.73,6.73,0,0,1,.76-2.29,1.09,1.09,0,0,1,1.9-.77l0.54,0.37a0.84,0.84,0,0,0,.44.16,0.56,0.56,0,0,0,.36-0.14,2.73,2.73,0,0,1-.29,1.19,0.84,0.84,0,0,1-.62.45h-0.1a2,2,0,0,1-1-.35,1.13,1.13,0,0,0-.52-0.18q-0.26,0-.38.76,1.88,0.5,1.88,1.17v6a2.57,2.57,0,0,1-1,2.2,8.34,8.34,0,0,1-6.84,0,2.57,2.57,0,0,1-1-2.2v-5.19a1.27,1.27,0,0,0-1.27-1.16,6.23,6.23,0,0,1,.81-2.29,1.89,1.89,0,0,1,1.07-1.13,1.77,1.77,0,0,1,.88.36l0.54,0.37a1,1,0,0,0,.57.16,1.9,1.9,0,0,0,.36,0,2.55,2.55,0,0,1-.36,1,1,1,0,0,1-.67.51h-0.1a2,2,0,0,1-1-.35,1.13,1.13,0,0,0-.52-0.18q-0.26,0-.38.76,1.79,0.5,1.79,1.17v2.52Zm0,1v2.46a1.76,1.76,0,0,0,.62,1.46,3.26,3.26,0,0,0,2,.49,3.3,3.3,0,0,0,2-.49,1.77,1.77,0,0,0,.61-1.46v-2.46h-5.27Z"/><path class="cls-2" d="M140.58,135a4,4,0,0,1,.73-2.44,2.57,2.57,0,0,1,2.2-1,2.9,2.9,0,0,1,2,.69A4.56,4.56,0,0,1,146.7,134a7.72,7.72,0,0,0,.81,1.5,1.07,1.07,0,0,0,.78.53q0.38,0,.78-1.22t0.81-3.17h1.48a21.61,21.61,0,0,1-1.42,3.91Q149.2,137,148.37,137a2.75,2.75,0,0,1-1.79-.58,3.52,3.52,0,0,1-1.07-1.55,5.92,5.92,0,0,0-.87-1.62,1.42,1.42,0,0,0-1.13-.64,1.16,1.16,0,0,0-1.09.73A3.72,3.72,0,0,0,142,135q0,1,.49,1t0.49-1a0.86,0.86,0,0,1,1,1,0.82,0.82,0,0,1-.37.73A1.91,1.91,0,0,1,140.58,135Z"/><path class="cls-2" d="M154.35,125.57a1.15,1.15,0,0,1-1-1,1.56,1.56,0,0,1,.39-1.1,1.39,1.39,0,0,1,1.07-.42q1.27,0,1.27.84V129l2.64-2.2,2.64,2.29V123a1.63,1.63,0,0,0-.27-1.15,3.79,3.79,0,0,0-.62-0.45,6,6,0,0,1-2.91.76,4,4,0,0,1-2.35-.59,2.27,2.27,0,0,1-.87-2,3.4,3.4,0,0,1,.24-1.26,3.45,3.45,0,0,0,.24-1.28,0.82,0.82,0,0,0-1-.86,0.81,0.81,0,0,1,1-.84,1.53,1.53,0,0,1,1.76,1.7,3.18,3.18,0,0,1-.24,1.33,2.86,2.86,0,0,0-.24,1.21,1.46,1.46,0,0,0,.39,1.16,1.61,1.61,0,0,0,1.07.33,7.23,7.23,0,0,0,2-.28,2,2,0,0,1-1-1.39q0-1.52,1.86-1.52t1.76,1.52a1.72,1.72,0,0,1-.66,1.26l0.42,0.18a2.12,2.12,0,0,1,1.22,2.12v7.62h-1.46l-2.93-2.54-2.93,2.54h-1.46v-5.08Zm6.54-6.09a0.44,0.44,0,0,0-.49-0.51q-0.68,0-.68.51a1.4,1.4,0,0,0,.81.76A1.08,1.08,0,0,0,160.89,119.47Z"/><path class="cls-2" d="M171.19,121.37h0.2a5.79,5.79,0,0,1,3.37.73,2.57,2.57,0,0,1,1,2.2v3.42a1.76,1.76,0,0,0,.62,1.46,2.7,2.7,0,0,0,1.73.49,2.74,2.74,0,0,0,1.74-.49,1.77,1.77,0,0,0,.61-1.46v-5.19a1.27,1.27,0,0,0-1.27-1.16,6.73,6.73,0,0,1,.76-2.29,1.09,1.09,0,0,1,1.9-.77l0.54,0.37a0.84,0.84,0,0,0,.44.16,0.56,0.56,0,0,0,.36-0.14,2.73,2.73,0,0,1-.29,1.19,0.84,0.84,0,0,1-.62.45h-0.1a2,2,0,0,1-1-.35,1.13,1.13,0,0,0-.52-0.18q-0.26,0-.38.76,1.88,0.5,1.88,1.17v6a2.57,2.57,0,0,1-1,2.2,7,7,0,0,1-6.25,0,2.57,2.57,0,0,1-1-2.2V124.3a1.77,1.77,0,0,0-.61-1.46,3.2,3.2,0,0,0-2-.49,3.15,3.15,0,0,0-2,.49,1.76,1.76,0,0,0-.62,1.46v2.12h0.44a1.74,1.74,0,0,1,1.28.42,1.7,1.7,0,0,1,.43,1.27,3.1,3.1,0,0,1-.49,1.9,1.74,1.74,0,0,1-1.46.63,2.69,2.69,0,0,1-1.46-.32,1,1,0,0,1-.49-0.95V124.3a2.57,2.57,0,0,1,1-2.2,3.07,3.07,0,0,1,1-.47,2.69,2.69,0,0,0-1.2-.75,5.77,5.77,0,0,1,1.39-2.06,2.41,2.41,0,0,1,1.4-.87h0.11a3.77,3.77,0,0,1,1.17.55,4.22,4.22,0,0,0,1,.52H173a1,1,0,0,0,.33-0.06,3,3,0,0,1-.54,1.14,1,1,0,0,1-.77.39,2,2,0,0,1-1.05-.42,1.93,1.93,0,0,0-1-.42,1.09,1.09,0,0,0-.73.72A7.88,7.88,0,0,1,171.19,121.37Zm-2,6H168.8v2c0,0.13.11,0.2,0.34,0.2a0.72,0.72,0,0,0,.59-0.31,1.94,1.94,0,0,0,.24-1.15,0.71,0.71,0,0,0-.18-0.57A0.86,0.86,0,0,0,169.24,127.39Z"/><path class="cls-2" d="M177.78,111.6a2.26,2.26,0,0,1,1.08.28,2,2,0,0,1,.82.81,2.22,2.22,0,0,1,0,2.2,2,2,0,0,1-.81.82,2.22,2.22,0,0,1-2.19,0,2,2,0,0,1-.82-0.82,2.19,2.19,0,0,1,0-2.2,2,2,0,0,1,.82-0.81A2.23,2.23,0,0,1,177.78,111.6ZM177.3,113a0.91,0.91,0,0,0-.37.36,1,1,0,0,0,0,1,0.91,0.91,0,0,0,.37.36,1,1,0,0,0,.48.13,1,1,0,0,0,.49-0.13,0.88,0.88,0,0,0,.36-0.36,1,1,0,0,0,.13-0.49,1,1,0,0,0-.13-0.49,0.91,0.91,0,0,0-.36-0.36,1,1,0,0,0-.48-0.13A1,1,0,0,0,177.3,113Z"/><path class="cls-2" d="M193.12,122.53a1.27,1.27,0,0,0-1.27-1.16,6.73,6.73,0,0,1,.76-2.29,1.09,1.09,0,0,1,1.9-.77l0.54,0.37a0.84,0.84,0,0,0,.44.16,0.56,0.56,0,0,0,.36-0.14,2.73,2.73,0,0,1-.29,1.19,0.84,0.84,0,0,1-.62.45h-0.1a2,2,0,0,1-1-.35,1.13,1.13,0,0,0-.52-0.18q-0.26,0-.38.76,1.88,0.5,1.88,1.17v6a2.57,2.57,0,0,1-1,2.2,8.34,8.34,0,0,1-6.84,0,2.57,2.57,0,0,1-1-2.2v-5.19a1.27,1.27,0,0,0-1.27-1.16,6.23,6.23,0,0,1,.81-2.29A1.89,1.89,0,0,1,186.7,118a1.77,1.77,0,0,1,.88.36l0.54,0.37a1,1,0,0,0,.57.16,1.9,1.9,0,0,0,.36,0,2.55,2.55,0,0,1-.36,1,1,1,0,0,1-.67.51h-0.1a2,2,0,0,1-1-.35,1.13,1.13,0,0,0-.52-0.18q-0.26,0-.38.76,1.79,0.5,1.79,1.17v6a1.76,1.76,0,0,0,.62,1.46,3.26,3.26,0,0,0,2,.49,3.3,3.3,0,0,0,2-.49,1.77,1.77,0,0,0,.61-1.46v-5.19Z"/><path class="cls-2" d="M194.38,132.6V137h-1.46v-3.42a0.79,0.79,0,0,1-.78-1,1,1,0,0,1,1.17-1A0.91,0.91,0,0,1,194.38,132.6Z"/><path class="cls-2" d="M198.78,122.53q0-.89-1.46-1.16a6.58,6.58,0,0,1,.8-2.29,1.83,1.83,0,0,1,1.07-1.13,1.86,1.86,0,0,1,.92.36l0.57,0.37a0.91,0.91,0,0,0,.46.16,0.61,0.61,0,0,0,.38-0.14,2.57,2.57,0,0,1-.3,1.19,0.89,0.89,0,0,1-.65.45h-0.1a2.19,2.19,0,0,1-1-.35,1.19,1.19,0,0,0-.54-0.18c-0.19,0-.32.25-0.4,0.76q2,0.5,2,1.17v12.79a1.18,1.18,0,0,0,.71,1.1,3.1,3.1,0,0,0,1.44.37,2.46,2.46,0,0,0,1.41-.37,1.22,1.22,0,0,0,.55-1.09v-2.93h1.46v2.93a2,2,0,0,1-.92,1.83,4.44,4.44,0,0,1-2.5.62,5.87,5.87,0,0,1-2.74-.61,2,2,0,0,1-1.16-1.84v-12Z"/><path class="cls-2" d="M204,120.23a1.24,1.24,0,0,1,.59-0.87l0.6-.46a4.21,4.21,0,0,1,1.46-.95,2.66,2.66,0,0,1,1.18.61,2.88,2.88,0,0,0,1.12.61,2.78,2.78,0,0,0,1-.61A2.45,2.45,0,0,1,211,118a3.16,3.16,0,0,1,1.28.7,4.09,4.09,0,0,0,1.1.71,0.41,0.41,0,0,0,.29-0.14q-0.32,1.27-1.11,1.27a2.25,2.25,0,0,1-1.09-.47,2.24,2.24,0,0,0-1-.47,1.89,1.89,0,0,0-1,.47,2,2,0,0,1-1.09.47,2.31,2.31,0,0,1-1.32-.47,2.12,2.12,0,0,0-1-.47,0.84,0.84,0,0,0-.59.19,0.6,0.6,0,0,0-.2.46q0,0.38,1.25.63l-1.4.6A1.17,1.17,0,0,1,204,120.23Zm2.25,6.19h0.44a1.74,1.74,0,0,1,1.28.42,1.7,1.7,0,0,1,.43,1.27,3.1,3.1,0,0,1-.49,1.9,1.74,1.74,0,0,1-1.46.63,2.69,2.69,0,0,1-1.46-.32,1,1,0,0,1-.49-0.95V124.3a2.57,2.57,0,0,1,1-2.2,8.34,8.34,0,0,1,6.84,0,2.57,2.57,0,0,1,1,2.2v6.35h-1.76V124.3a1.77,1.77,0,0,0-.61-1.46,3.3,3.3,0,0,0-2-.49,3.25,3.25,0,0,0-2,.49,1.76,1.76,0,0,0-.62,1.46v2.12Zm0.44,1H206.2v2c0,0.13.11,0.2,0.34,0.2a0.72,0.72,0,0,0,.59-0.31,1.94,1.94,0,0,0,.24-1.15,0.71,0.71,0,0,0-.18-0.57A0.86,0.86,0,0,0,206.64,127.39Z"/><path class="cls-2" d="M225.93,129.69a0.86,0.86,0,0,1-1,1h-0.78q-1.46,0-1.46-2.61a1.37,1.37,0,0,1,1.46-1.62v-1.16H218.9v4.43a0.86,0.86,0,0,1-1,1h-0.78q-1.46,0-1.46-2.61a1.37,1.37,0,0,1,1.46-1.62v-3.89a1.27,1.27,0,0,0-1.27-1.16,6.23,6.23,0,0,1,.81-2.29,1.89,1.89,0,0,1,1.07-1.13,1.77,1.77,0,0,1,.88.36l0.54,0.37a1,1,0,0,0,.57.16,1.9,1.9,0,0,0,.36,0,2.55,2.55,0,0,1-.36,1,1,1,0,0,1-.67.51H219a2,2,0,0,1-1-.35,1.13,1.13,0,0,0-.52-0.18q-0.26,0-.38.76,1.79,0.5,1.79,1.17v2.52h5.27v-1.86q0-.93-1.33-1.07a3.54,3.54,0,0,1,1.24-2.29A3.29,3.29,0,0,1,226.3,118a7,7,0,0,1,2.72.46q3.25,1.39,3.25,3.28v8.92h-1.76v-8.43q0-1.4-2.53-2.27a6.82,6.82,0,0,0-2.15-.28,1.75,1.75,0,0,0-1.59,1q1.68,0.51,1.68,1.21v7.76Zm-8.79-2.29c-0.33,0-.49.21-0.49,0.64q0,1.5.49,1.5v-2.15Zm7,0c-0.33,0-.49.21-0.49,0.64q0,1.5.49,1.5v-2.15Z"/><path class="cls-2" d="M244.92,120.26a4,4,0,0,1,0,.63v9.77h-1.76v-9.77q0-1.54-.78-1.54a1.76,1.76,0,0,0-1.33,1,0.58,0.58,0,0,1-1.05,0,1.74,1.74,0,0,0-1.32-1q-0.79,0-.79,1.54v4.88a2.46,2.46,0,0,1,1.61.45,1.63,1.63,0,0,1,.54,1.34,3.76,3.76,0,0,1-.61,2.25,2.12,2.12,0,0,1-1.84.85q-1.46,0-1.46-.85v-8.92a3.09,3.09,0,0,1,.73-2.06,2.14,2.14,0,0,1,1.66-.87,2.89,2.89,0,0,1,2,1.31,2.92,2.92,0,0,1,2-1.31,2.13,2.13,0,0,1,1.65.87,3.38,3.38,0,0,1,.23.32l1.07-.64a3.41,3.41,0,0,1,1.79-.55,4.44,4.44,0,0,1,2.52,1.1,3,3,0,0,1,1.46,2v9.55h-1.76V121.1a1.8,1.8,0,0,0-.9-1,3,3,0,0,0-1.71-.64A5.07,5.07,0,0,0,244.92,120.26Zm-7,9.12a1,1,0,0,0,.88-0.46,2.57,2.57,0,0,0,.29-1.37,0.68,0.68,0,0,0-.29-0.61,1.54,1.54,0,0,0-.88-0.21v2.64Z"/><path class="cls-2" d="M255.22,122.53a1.27,1.27,0,0,0-1.27-1.16,6.23,6.23,0,0,1,.81-2.29,1.89,1.89,0,0,1,1.07-1.13,1.76,1.76,0,0,1,.88.36l0.54,0.37a1,1,0,0,0,.57.16,1.9,1.9,0,0,0,.36,0,2.55,2.55,0,0,1-.36,1,1,1,0,0,1-.67.51h-0.1a2,2,0,0,1-1-.35,1.12,1.12,0,0,0-.52-0.18q-0.26,0-.38.76,1.79,0.5,1.79,1.17v6a1.76,1.76,0,0,0,.62,1.46,3.77,3.77,0,0,0,3.71,0,1.77,1.77,0,0,0,.61-1.46v-6.84a2.57,2.57,0,0,1,1-2.2,7.56,7.56,0,0,1,6.49,0,2.57,2.57,0,0,1,1,2.2v9.77H268.6v-9.77a1.77,1.77,0,0,0-.61-1.46,3.77,3.77,0,0,0-3.71,0,1.76,1.76,0,0,0-.62,1.46v6.84a2.57,2.57,0,0,1-1,2.2,7.56,7.56,0,0,1-6.49,0,2.57,2.57,0,0,1-1-2.2v-5.19Z"/><path class="cls-2" d="M264,114.28a1,1,0,0,0,.12.55,0.53,0.53,0,0,0,.47.19q0.49,0,.49-0.18t0.68-.3q0.68,0,.68.3a1,1,0,0,1-.43.87,2.5,2.5,0,0,1-1.38.29,2.4,2.4,0,0,1-1.67-.43,1.74,1.74,0,0,1-.43-1.28,2.13,2.13,0,0,1,.44-1.33,2.05,2.05,0,0,1,1.71-.58,2.11,2.11,0,0,1,1.71.58,5.53,5.53,0,0,0,1.38-.67,3.38,3.38,0,0,0,1-1.12l0.11,0a0.79,0.79,0,0,1,.56.62,0.3,0.3,0,0,1-.12.23,5.9,5.9,0,0,1-1,1.1,7.26,7.26,0,0,1-1.33.84,2.34,2.34,0,0,1-.68.11,2,2,0,0,0-1.34-.68,0.93,0.93,0,0,0-.7.27A0.9,0.9,0,0,0,264,114.28Z"/><path class="cls-2" d="M278.13,120.33a1.74,1.74,0,0,0-1.32-1q-0.79,0-.79,1.54v4.88a2.46,2.46,0,0,1,1.61.45,1.63,1.63,0,0,1,.54,1.34,3.77,3.77,0,0,1-.61,2.25,2.12,2.12,0,0,1-1.84.85q-1.46,0-1.46-.85v-8.92a3.09,3.09,0,0,1,.73-2.06,2.14,2.14,0,0,1,1.66-.87,2.89,2.89,0,0,1,2,1.31,2.92,2.92,0,0,1,2-1.31,2.13,2.13,0,0,1,1.65.87,3.12,3.12,0,0,1,.72,2.06v9.77H281.3v-9.77q0-1.54-.78-1.54a1.76,1.76,0,0,0-1.33,1A0.58,0.58,0,0,1,278.13,120.33Zm-2.11,9a1,1,0,0,0,.88-0.46,2.57,2.57,0,0,0,.29-1.37,0.68,0.68,0,0,0-.29-0.61,1.54,1.54,0,0,0-.88-0.21v2.64Z"/><path class="cls-2" d="M274.41,113.56q0-2,3.13-2a5.54,5.54,0,0,1,3.66,1.46l1.71,1.46v1h-6.05Q274.41,115.51,274.41,113.56Zm2.44,0.68h4a4.35,4.35,0,0,0-3.32-1.46q-2,0-2,.78T276.86,114.24Z"/><path class="cls-2" d="M295.7,120.26a4,4,0,0,1,0,.63v9.77H294v-9.77q0-1.54-.78-1.54a1.76,1.76,0,0,0-1.33,1,0.58,0.58,0,0,1-1.05,0,1.74,1.74,0,0,0-1.32-1q-0.79,0-.79,1.54v4.88a2.46,2.46,0,0,1,1.61.45,1.63,1.63,0,0,1,.54,1.34,3.77,3.77,0,0,1-.61,2.25,2.12,2.12,0,0,1-1.84.85q-1.46,0-1.46-.85v-8.92a3.09,3.09,0,0,1,.73-2.06,2.14,2.14,0,0,1,1.66-.87,2.89,2.89,0,0,1,2,1.31,2.92,2.92,0,0,1,2-1.31,2.13,2.13,0,0,1,1.65.87,3.38,3.38,0,0,1,.23.32l1.07-.64a3.41,3.41,0,0,1,1.79-.55,4.44,4.44,0,0,1,2.52,1.1,3,3,0,0,1,1.46,2v9.55h-1.76V121.1a1.8,1.8,0,0,0-.9-1,3,3,0,0,0-1.71-.64A5.07,5.07,0,0,0,295.7,120.26Zm-7,9.12a1,1,0,0,0,.88-0.46,2.57,2.57,0,0,0,.29-1.37,0.68,0.68,0,0,0-.29-0.61,1.54,1.54,0,0,0-.88-0.21v2.64Z"/><path class="cls-2" d="M306,122.53a1.27,1.27,0,0,0-1.27-1.16,6.23,6.23,0,0,1,.81-2.29,1.89,1.89,0,0,1,1.07-1.13,1.76,1.76,0,0,1,.88.36l0.54,0.37a1,1,0,0,0,.57.16,1.9,1.9,0,0,0,.36,0,2.55,2.55,0,0,1-.36,1,1,1,0,0,1-.67.51h-0.1a2,2,0,0,1-1-.35,1.12,1.12,0,0,0-.52-0.18q-0.26,0-.38.76,1.79,0.5,1.79,1.17v6a1.76,1.76,0,0,0,.62,1.46,3.77,3.77,0,0,0,3.71,0,1.77,1.77,0,0,0,.61-1.46v-6.84a2.57,2.57,0,0,1,1-2.2,7.56,7.56,0,0,1,6.49,0,2.57,2.57,0,0,1,1,2.2v9.77h-1.76v-9.77a1.77,1.77,0,0,0-.61-1.46,3.77,3.77,0,0,0-3.71,0,1.76,1.76,0,0,0-.62,1.46v6.84a2.57,2.57,0,0,1-1,2.2,7.56,7.56,0,0,1-6.49,0,2.57,2.57,0,0,1-1-2.2v-5.19Z"/><path class="cls-2" d="M314.75,114.28a1,1,0,0,0,.12.55,0.53,0.53,0,0,0,.47.19q0.49,0,.49-0.18t0.68-.3q0.68,0,.68.3a1,1,0,0,1-.43.87,2.5,2.5,0,0,1-1.38.29,2.4,2.4,0,0,1-1.67-.43,1.74,1.74,0,0,1-.43-1.28,2.13,2.13,0,0,1,.44-1.33,2.05,2.05,0,0,1,1.71-.58,2.11,2.11,0,0,1,1.71.58,5.53,5.53,0,0,0,1.38-.67,3.38,3.38,0,0,0,1-1.12l0.11,0a0.79,0.79,0,0,1,.56.62,0.3,0.3,0,0,1-.12.23,5.9,5.9,0,0,1-1,1.1,7.26,7.26,0,0,1-1.33.84,2.34,2.34,0,0,1-.68.11,2,2,0,0,0-1.34-.68,0.93,0.93,0,0,0-.7.27A0.9,0.9,0,0,0,314.75,114.28Z"/></svg>