<svg id="Layer_1" data-name="Layer 1" xmlns="http://www.w3.org/2000/svg" viewBox="0 0 400 200"><defs><style>.cls-1{fill:#4e77bb;stroke:#3e66b0;stroke-miterlimit:10;}.cls-2{fill:#fff;}</style></defs><title>API Button</title><rect class="cls-1" x="33.5" y="34.5" width="333" height="131" rx="3" ry="3"/><path class="cls-2" d="M190.28,67.91q0-2.38-3.08-2.38,0-2.75,2.67-2.75,4.1,0,4.1,5.13v20a4.29,4.29,0,0,0,2,3.67,9.65,9.65,0,0,0,5.6,1.39h1a9.65,9.65,0,0,0,5.6-1.39,4.29,4.29,0,0,0,2-3.67V73.65A3.45,3.45,0,0,0,209,71.31l-0.14,0q-0.72,0-3.16,3.24-2.4-3.24-3.14-3.24l-0.14,0a3.39,3.39,0,0,0-1.25,2.34V81.2a4.2,4.2,0,0,1,2.44.55,2,2,0,0,1,.76,1.68q0,2.67-3.2,2.67-3.69,0-3.69-1.78V73.65a4.55,4.55,0,0,1,2.24-3.75,8,8,0,0,1,2.85-1.58q0.62,0,3.14,2.38,2.52-2.38,3.12-2.38a7.87,7.87,0,0,1,2.83,1.58,4.55,4.55,0,0,1,2.24,3.75V87.86A6,6,0,0,1,211,92.93Q208.12,95,202.58,95h-1q-5.54,0-8.41-2.05a6,6,0,0,1-2.87-5.07v-20ZM201.15,83v1.33q1.15,0,1.15-.88a0.38,0.38,0,0,0-.27-0.35A2.58,2.58,0,0,0,201.15,83Z"/><path class="cls-2" d="M85.89,122.53q0-.89-1.46-1.16a6.6,6.6,0,0,1,.8-2.29A1.83,1.83,0,0,1,86.3,118a1.86,1.86,0,0,1,.92.36l0.57,0.37a0.91,0.91,0,0,0,.46.16,0.61,0.61,0,0,0,.38-0.14,2.56,2.56,0,0,1-.3,1.19,0.89,0.89,0,0,1-.65.45h-0.1a2.19,2.19,0,0,1-1-.35,1.19,1.19,0,0,0-.54-0.18q-0.28,0-.4.76,2,0.5,2,1.17v4.66q1.46,0,1.46,1.72,0,2.51-1.46,2.51H86.87a0.86,0.86,0,0,1-1-1v-7.16Zm1.76,7q0.49,0,.49-1.41,0-.74-0.49-0.74v2.15Z"/><path class="cls-2" d="M95.7,121.37h0.2a5.79,5.79,0,0,1,3.37.73,2.57,2.57,0,0,1,1,2.2v3.42a1.76,1.76,0,0,0,.62,1.46,2.7,2.7,0,0,0,1.73.49,2.74,2.74,0,0,0,1.74-.49,1.77,1.77,0,0,0,.61-1.46v-5.19a1.27,1.27,0,0,0-1.27-1.16,6.77,6.77,0,0,1,.76-2.29,1.78,1.78,0,0,1,1-1.13,1.76,1.76,0,0,1,.88.36l0.54,0.37a0.85,0.85,0,0,0,.44.16,0.56,0.56,0,0,0,.36-0.14,2.7,2.7,0,0,1-.29,1.19,0.84,0.84,0,0,1-.62.45h-0.1a2,2,0,0,1-1-.35,1.12,1.12,0,0,0-.52-0.18q-0.26,0-.38.76,1.89,0.5,1.88,1.17v6a2.57,2.57,0,0,1-1,2.2,7,7,0,0,1-6.25,0,2.57,2.57,0,0,1-1-2.2V124.3a1.77,1.77,0,0,0-.61-1.46,3.2,3.2,0,0,0-2-.49,3.15,3.15,0,0,0-2,.49,1.76,1.76,0,0,0-.62,1.46v2.12h0.44a1.74,1.74,0,0,1,1.28.42,1.7,1.7,0,0,1,.43,1.27A3.1,3.1,0,0,1,95,130a1.73,1.73,0,0,1-1.46.63,2.69,2.69,0,0,1-1.46-.32,1,1,0,0,1-.49-0.95V124.3a2.57,2.57,0,0,1,1-2.2,3.09,3.09,0,0,1,1-.47,2.69,2.69,0,0,0-1.2-.75,5.77,5.77,0,0,1,1.39-2.06,2.41,2.41,0,0,1,1.4-.87h0.11a3.75,3.75,0,0,1,1.17.55,4.22,4.22,0,0,0,1,.52h0.15a1,1,0,0,0,.33-0.06,3,3,0,0,1-.54,1.14,1,1,0,0,1-.77.39,2,2,0,0,1-1.05-.42,1.93,1.93,0,0,0-1-.42,1.09,1.09,0,0,0-.73.72A7.86,7.86,0,0,1,95.7,121.37Zm-2,6H93.31v2c0,0.13.11,0.2,0.34,0.2a0.72,0.72,0,0,0,.59-0.31,1.93,1.93,0,0,0,.24-1.15,0.7,0.7,0,0,0-.18-0.57A0.86,0.86,0,0,0,93.75,127.39Z"/><path class="cls-2" d="M112.82,120.09a0.86,0.86,0,0,1-.59.26,2,2,0,0,1-1-.35,1.12,1.12,0,0,0-.52-0.18q-0.36,0-.48.76,2.08,0.5,2.08,1.17v7.93a0.85,0.85,0,0,1-1,1H110.6q-1.46,0-1.46-2.61a1.37,1.37,0,0,1,1.46-1.62v-3.89q0-.89-1.46-1.16a5.4,5.4,0,0,1,.66-2.29,1.78,1.78,0,0,1,1-1.13,1.76,1.76,0,0,1,.88.36l0.25,0.18,0.1,0c0.2,0,.3-0.26.3-0.77s-0.33-.62-1-0.62a0.81,0.81,0,1,1,0-1.59q2,0,2,2.22v0.48c0,0.21,0,.4,0,0.58a3.84,3.84,0,0,1,1.92-.84,3.45,3.45,0,0,1,2.32,1.07,3,3,0,0,1,1.16,2.07v9.55h-1.76V121.1a1.61,1.61,0,0,0-.87-1.17,2.84,2.84,0,0,0-1.25-.6,2.89,2.89,0,0,0-1.12.34Zm-2.23,7.3q-0.49,0-.49.64,0,1.5.49,1.5v-2.15Z"/><path class="cls-2" d="M124.37,121.34a2.2,2.2,0,0,0,.88,1.67,8.19,8.19,0,0,0,2.64,1.38l3.52,1.23v2.49q0,2.54-2.78,2.54a3,3,0,0,1-2.29-1.21,2.74,2.74,0,0,0-2-1.2v2.41h-1.76v-5.08h1.76v1.69a3.23,3.23,0,0,1,2.34,1.2,3,3,0,0,0,1.9,1.21q1,0,1-1.56v-1.89L126.12,125a6.57,6.57,0,0,1-2.64-1.52,3,3,0,0,1-.88-2.14,3.17,3.17,0,0,1,1-2.54,7.3,7.3,0,0,1,6.84,0,3.17,3.17,0,0,1,1,2.54v0.55a1,1,0,0,1-.18.57,1.18,1.18,0,0,1-.49.42,2.27,2.27,0,0,1-.95.15,1.49,1.49,0,0,1-.65-0.15,1.19,1.19,0,0,1-.49-0.42,1,1,0,0,1,0-1.14,1.17,1.17,0,0,1,.49-0.42,1.54,1.54,0,0,1,.43-0.13,2.23,2.23,0,0,0-.77-1.38,2.92,2.92,0,0,0-1.8-.46,2.83,2.83,0,0,0-2,.61A2.43,2.43,0,0,0,124.37,121.34Z"/><path class="cls-2" d="M134.81,120.23a1.24,1.24,0,0,1,.59-0.87l0.6-.46a4.21,4.21,0,0,1,1.46-.95,2.65,2.65,0,0,1,1.18.61,2.88,2.88,0,0,0,1.12.61,2.78,2.78,0,0,0,1-.61,2.45,2.45,0,0,1,1.11-.61,3.15,3.15,0,0,1,1.28.7,4.1,4.1,0,0,0,1.1.71,0.41,0.41,0,0,0,.29-0.14q-0.32,1.27-1.11,1.27a2.25,2.25,0,0,1-1.09-.47,2.24,2.24,0,0,0-1-.47,1.89,1.89,0,0,0-1,.47,2,2,0,0,1-1.09.47A2.31,2.31,0,0,1,138,120a2.12,2.12,0,0,0-1-.47,0.84,0.84,0,0,0-.59.19,0.6,0.6,0,0,0-.2.46q0,0.38,1.25.63l-1.4.6A1.17,1.17,0,0,1,134.81,120.23Zm2.25,7.22a2.68,2.68,0,0,1,2-1q1.46,0,1.46,1.05,0,0.78-1.07.78,0-.27-0.39-0.27a1.55,1.55,0,0,0-1.46,1l-0.49.86v0.85H135.3V124.3a2.57,2.57,0,0,1,1-2.2,8.34,8.34,0,0,1,6.84,0,2.57,2.57,0,0,1,1,2.2v6.35h-1.76V124.3a1.77,1.77,0,0,0-.61-1.46,3.3,3.3,0,0,0-2-.49,3.25,3.25,0,0,0-2,.49,1.76,1.76,0,0,0-.62,1.46v3.14Z"/><path class="cls-2" d="M149.76,129.69a0.85,0.85,0,0,1-1,1H148q-1.46,0-1.46-2.61a1.37,1.37,0,0,1,1.46-1.62v-3.89q0-.89-1.46-1.16a6.6,6.6,0,0,1,.8-2.29,1.83,1.83,0,0,1,1.07-1.13,1.86,1.86,0,0,1,.92.36l0.57,0.37a0.91,0.91,0,0,0,.46.16,0.61,0.61,0,0,0,.38-0.14,2.56,2.56,0,0,1-.3,1.19,0.89,0.89,0,0,1-.65.45h-0.1a2.19,2.19,0,0,1-1-.35,1.19,1.19,0,0,0-.54-0.18q-0.28,0-.4.76,2,0.5,2,1.17v7.93ZM148,127.39q-0.49,0-.49.64,0,1.5.49,1.5v-2.15Z"/><path class="cls-2" d="M160.69,127.23v-5.47h1.76v9.38h-1.76v-1.66l0,0a4.16,4.16,0,0,1-3.08,1.12,4.86,4.86,0,0,1-2.93-.73,2.57,2.57,0,0,1-1-2.2v-6.05a1.26,1.26,0,0,1-1-1.24,1.33,1.33,0,0,1,.91-1.06l0.92-.46a7.38,7.38,0,0,1,2.34-.95,5,5,0,0,1,1.65.46l1.7,0.71a1.89,1.89,0,0,0,.74.13,1.92,1.92,0,0,0,.85-0.2l0.57-.29a4.92,4.92,0,0,1,1.81-.81,4.63,4.63,0,0,1,1.51.43q3.12,1.3,3.12,2.91v9.36H167v-8.77a1.93,1.93,0,0,0-1.44-1.69,6.09,6.09,0,0,0-2.13-.62,3.64,3.64,0,0,0-1.7.62,3.73,3.73,0,0,1-1.51.61,3.3,3.3,0,0,1-1.22-.32l-1.3-.54a3.64,3.64,0,0,0-1.56-.36,5.17,5.17,0,0,0-1.44.19,0.71,0.71,0,0,0-.64.65q0,0.38,1.32.72v6.59a1.76,1.76,0,0,0,.62,1.46,2.37,2.37,0,0,0,1.53.49,3.19,3.19,0,0,0,2.13-.88A2.35,2.35,0,0,0,160.69,127.23Z"/><path class="cls-2" d="M172.7,120.88a2.57,2.57,0,0,1,1-2.2,8.12,8.12,0,0,1,6.74,0,2.57,2.57,0,0,1,1,2.2v6.84a1.76,1.76,0,0,0,.62,1.46,2.7,2.7,0,0,0,1.73.49,2.74,2.74,0,0,0,1.74-.49,1.77,1.77,0,0,0,.61-1.46v-5.19a1.27,1.27,0,0,0-1.27-1.16,6.77,6.77,0,0,1,.76-2.29,1.78,1.78,0,0,1,1-1.13,1.76,1.76,0,0,1,.88.36l0.54,0.37a0.85,0.85,0,0,0,.44.16,0.56,0.56,0,0,0,.36-0.14,2.7,2.7,0,0,1-.29,1.19,0.84,0.84,0,0,1-.62.45h-0.1a2,2,0,0,1-1-.35,1.12,1.12,0,0,0-.52-0.18q-0.26,0-.38.76,1.89,0.5,1.88,1.17v6a2.57,2.57,0,0,1-1,2.2,7,7,0,0,1-6.25,0,2.57,2.57,0,0,1-1-2.2v-6.84a1.77,1.77,0,0,0-.61-1.46,3.2,3.2,0,0,0-2-.49,3.15,3.15,0,0,0-2,.49,1.76,1.76,0,0,0-.62,1.46v4.88a2.46,2.46,0,0,1,1.61.45,1.63,1.63,0,0,1,.54,1.34,3.76,3.76,0,0,1-.61,2.25,2.12,2.12,0,0,1-1.84.85q-1.46,0-1.46-.85v-8.92Zm1.76,5.86v2.64a1,1,0,0,0,.88-0.46,2.57,2.57,0,0,0,.29-1.37,0.68,0.68,0,0,0-.29-0.61A1.54,1.54,0,0,0,174.46,126.74Z"/><path class="cls-2" d="M193.51,129.69a0.85,0.85,0,0,1-1,1h-0.78q-1.46,0-1.46-2.61a1.37,1.37,0,0,1,1.46-1.62v-3.89q0-.89-1.46-1.16a6.6,6.6,0,0,1,.8-2.29,1.83,1.83,0,0,1,1.07-1.13,1.86,1.86,0,0,1,.92.36l0.57,0.37a0.91,0.91,0,0,0,.46.16,0.61,0.61,0,0,0,.38-0.14,2.56,2.56,0,0,1-.3,1.19,0.89,0.89,0,0,1-.65.45h-0.1a2.19,2.19,0,0,1-1-.35,1.19,1.19,0,0,0-.54-0.18q-0.28,0-.4.76,2,0.5,2,1.17v7.93Zm-1.76-2.29q-0.49,0-.49.64,0,1.5.49,1.5v-2.15Z"/><path class="cls-2" d="M201.08,120.38l0.82,0q2,0,2.4-.5a1.65,1.65,0,0,0,.43-1.12,0.62,0.62,0,0,0-.68-0.71,0.76,0.76,0,0,1-.78-0.93,0.64,0.64,0,0,1,.78-0.64,2.12,2.12,0,0,1,1.61.57,2.44,2.44,0,0,1,.54,1.72,2.37,2.37,0,0,1-1,1.75,5.1,5.1,0,0,1-3.32.85l-0.94,0q-3.55-.17-3.55-1.7a1.71,1.71,0,0,1,.46-1.31,2.2,2.2,0,0,1,2.61.06,1.34,1.34,0,0,1,.35,1,1.43,1.43,0,0,1-.31,1ZM199.17,129l2.64-2.2,2.64,2.29v-7h1.76v8.5h-1.46l-2.93-2.54-2.93,2.54h-1.46v-8.5h1.76V129Zm0-9.06h0.22c0.33,0,.49-0.12.49-0.36a0.31,0.31,0,0,0-.11-0.25,0.61,0.61,0,0,0-.38-0.1,0.65,0.65,0,0,0-.37.09,0.31,0.31,0,0,0-.12.26A0.42,0.42,0,0,0,199.14,120Z"/><path class="cls-2" d="M203.76,132.06a0.64,0.64,0,0,1,.24-0.55,1.2,1.2,0,0,1,.73-0.19,0.82,0.82,0,0,1,.73.37,2,2,0,0,1,.24,1.09v3.29a0.85,0.85,0,0,1-.26.68,1.16,1.16,0,0,1-.78.22l-2.7-1.54-1.1,1.16a1,1,0,0,1-.58.38,0.74,0.74,0,0,1-.48-0.42l-1.66-2a1.39,1.39,0,0,1-.24-0.79,0.8,0.8,0,0,1,.86-0.73q0.89-.13,1.6-0.19t1.34-.06h2.55a0.43,0.43,0,0,1-.37-0.2A1,1,0,0,1,203.76,132.06Zm0.49,1.72h-2.67q-0.59,0-1.13,0a10.29,10.29,0,0,0-1.07.18l1.07,1.72,1.37-1.44,2.43,1.44v-1.94Z"/><path class="cls-2" d="M217.14,127.23v-5.47h1.76v9.38h-1.76v-1.66l0,0a4.16,4.16,0,0,1-3.08,1.12,4.86,4.86,0,0,1-2.93-.73,2.57,2.57,0,0,1-1-2.2v-6.05a1.26,1.26,0,0,1-1-1.24,1.33,1.33,0,0,1,.91-1.06l0.92-.46a7.38,7.38,0,0,1,2.34-.95,5,5,0,0,1,1.65.46l1.7,0.71a1.89,1.89,0,0,0,.74.13,1.92,1.92,0,0,0,.85-0.2l0.57-.29a4.92,4.92,0,0,1,1.81-.81,4.63,4.63,0,0,1,1.51.43q3.12,1.3,3.12,2.91v9.36h-1.76v-8.77a1.93,1.93,0,0,0-1.44-1.69,6.09,6.09,0,0,0-2.13-.62,3.64,3.64,0,0,0-1.7.62,3.73,3.73,0,0,1-1.51.61,3.3,3.3,0,0,1-1.22-.32l-1.3-.54a3.64,3.64,0,0,0-1.56-.36,5.17,5.17,0,0,0-1.44.19,0.71,0.71,0,0,0-.64.65q0,0.38,1.32.72v6.59a1.76,1.76,0,0,0,.62,1.46,2.37,2.37,0,0,0,1.53.49,3.19,3.19,0,0,0,2.13-.88A2.35,2.35,0,0,0,217.14,127.23Z"/><path class="cls-2" d="M229.15,120.88a2.57,2.57,0,0,1,1-2.2,8.12,8.12,0,0,1,6.74,0,2.57,2.57,0,0,1,1,2.2v6.84a1.76,1.76,0,0,0,.62,1.46,2.7,2.7,0,0,0,1.73.49,2.74,2.74,0,0,0,1.74-.49,1.77,1.77,0,0,0,.61-1.46v-5.19a1.27,1.27,0,0,0-1.27-1.16,6.77,6.77,0,0,1,.76-2.29,1.78,1.78,0,0,1,1-1.13,1.76,1.76,0,0,1,.88.36l0.54,0.37a0.85,0.85,0,0,0,.44.16,0.56,0.56,0,0,0,.36-0.14,2.71,2.71,0,0,1-.29,1.19,0.84,0.84,0,0,1-.62.45h-0.1a2,2,0,0,1-1-.35,1.12,1.12,0,0,0-.52-0.18q-0.26,0-.38.76,1.89,0.5,1.88,1.17v6a2.57,2.57,0,0,1-1,2.2,7,7,0,0,1-6.25,0,2.57,2.57,0,0,1-1-2.2v-6.84a1.77,1.77,0,0,0-.61-1.46,3.2,3.2,0,0,0-2-.49,3.15,3.15,0,0,0-2,.49,1.76,1.76,0,0,0-.62,1.46v4.88a2.46,2.46,0,0,1,1.61.45,1.63,1.63,0,0,1,.54,1.34,3.76,3.76,0,0,1-.61,2.25,2.12,2.12,0,0,1-1.84.85q-1.46,0-1.46-.85v-8.92Zm1.76,5.86v2.64a1,1,0,0,0,.88-0.46,2.57,2.57,0,0,0,.29-1.37,0.68,0.68,0,0,0-.29-0.61A1.54,1.54,0,0,0,230.91,126.74Z"/><path class="cls-2" d="M254.88,122.53a1.27,1.27,0,0,0-1.27-1.16,6.23,6.23,0,0,1,.81-2.29A1.89,1.89,0,0,1,255.5,118a1.76,1.76,0,0,1,.88.36l0.54,0.37a1,1,0,0,0,.57.16,1.9,1.9,0,0,0,.36,0,2.55,2.55,0,0,1-.36,1,1,1,0,0,1-.67.51h-0.1a2,2,0,0,1-1-.35,1.12,1.12,0,0,0-.52-0.18q-0.26,0-.38.76,1.79,0.5,1.79,1.17v6a1.76,1.76,0,0,0,.62,1.46,3.77,3.77,0,0,0,3.71,0,1.77,1.77,0,0,0,.61-1.46v-5.19a1.27,1.27,0,0,0-1.27-1.16,6.77,6.77,0,0,1,.76-2.29,1.78,1.78,0,0,1,1-1.13,1.76,1.76,0,0,1,.88.36l0.54,0.37a0.85,0.85,0,0,0,.44.16,0.56,0.56,0,0,0,.36-0.14,2.71,2.71,0,0,1-.29,1.19,0.84,0.84,0,0,1-.62.45h-0.1a2,2,0,0,1-1-.35,1.12,1.12,0,0,0-.52-0.18q-0.26,0-.38.76,1.89,0.5,1.88,1.17v6a2.57,2.57,0,0,1-1,2.2,7.56,7.56,0,0,1-6.49,0l-0.1-.08-0.1.08a7.56,7.56,0,0,1-6.49,0,2.57,2.57,0,0,1-1-2.2v-2.93a4.56,4.56,0,0,1,.49-2.19,2.77,2.77,0,0,0,.19-0.42h-0.19q-1.46,0-1.46-2.11a2.44,2.44,0,0,1,.44-1.59A1.62,1.62,0,0,1,249,118a1.42,1.42,0,0,1,1.25.61,3.26,3.26,0,0,1,.41,1.82,8.05,8.05,0,0,1-.34,2.37,7,7,0,0,0-.34,2v2.93a1.76,1.76,0,0,0,.62,1.46,3.77,3.77,0,0,0,3.71,0,1.77,1.77,0,0,0,.61-1.46v-5.19Zm-5.71-2.16a3.08,3.08,0,0,0-.12-1,0.42,0.42,0,0,0-.37-0.33,0.38,0.38,0,0,0-.36.25,1.76,1.76,0,0,0-.13.76q0,1.17.49,1.17h0.41A5.11,5.11,0,0,0,249.17,120.37Z"/><path class="cls-2" d="M262.84,132.6V137h-1.46v-3.42a0.79,0.79,0,0,1-.78-1,1,1,0,0,1,1.17-1A0.91,0.91,0,0,1,262.84,132.6Z"/><path class="cls-2" d="M258.94,111.6a2.26,2.26,0,0,1,1.08.28,2,2,0,0,1,.82.81,2.22,2.22,0,0,1,0,2.2,2,2,0,0,1-.81.82,2.22,2.22,0,0,1-2.19,0,2,2,0,0,1-.82-0.82,2.19,2.19,0,0,1,0-2.2,2,2,0,0,1,.82-0.81A2.23,2.23,0,0,1,258.94,111.6ZM258.46,113a0.91,0.91,0,0,0-.37.36,1,1,0,0,0,0,1,0.91,0.91,0,0,0,.37.36,1,1,0,0,0,.48.13,1,1,0,0,0,.49-0.13,0.88,0.88,0,0,0,.36-0.36,1,1,0,0,0,.13-0.49,1,1,0,0,0-.13-0.49,0.91,0.91,0,0,0-.36-0.36A1,1,0,0,0,258.46,113Z"/><path class="cls-2" d="M271.39,121.37h0.2a5.8,5.8,0,0,1,3.37.73,2.57,2.57,0,0,1,1,2.2v3.42a1.76,1.76,0,0,0,.62,1.46,2.69,2.69,0,0,0,1.73.49,2.74,2.74,0,0,0,1.74-.49,1.77,1.77,0,0,0,.61-1.46v-5.19a1.27,1.27,0,0,0-1.27-1.16,6.77,6.77,0,0,1,.76-2.29,1.78,1.78,0,0,1,1-1.13,1.76,1.76,0,0,1,.88.36l0.54,0.37a0.85,0.85,0,0,0,.44.16,0.56,0.56,0,0,0,.36-0.14,2.71,2.71,0,0,1-.29,1.19,0.84,0.84,0,0,1-.62.45h-0.1a2,2,0,0,1-1-.35,1.12,1.12,0,0,0-.52-0.18q-0.26,0-.38.76,1.89,0.5,1.88,1.17v6a2.57,2.57,0,0,1-1,2.2,7,7,0,0,1-6.25,0,2.57,2.57,0,0,1-1-2.2V124.3a1.77,1.77,0,0,0-.61-1.46,3.2,3.2,0,0,0-2-.49,3.15,3.15,0,0,0-2,.49,1.76,1.76,0,0,0-.62,1.46v2.12h0.44a1.74,1.74,0,0,1,1.28.42,1.7,1.7,0,0,1,.43,1.27,3.1,3.1,0,0,1-.49,1.9,1.73,1.73,0,0,1-1.46.63,2.68,2.68,0,0,1-1.46-.32,1,1,0,0,1-.49-0.95V124.3a2.57,2.57,0,0,1,1-2.2,3.09,3.09,0,0,1,1-.47,2.69,2.69,0,0,0-1.2-.75,5.75,5.75,0,0,1,1.39-2.06,2.41,2.41,0,0,1,1.4-.87h0.11a3.75,3.75,0,0,1,1.17.55,4.18,4.18,0,0,0,1,.52h0.15a1,1,0,0,0,.33-0.06,3,3,0,0,1-.54,1.14,1,1,0,0,1-.77.39,2,2,0,0,1-1.05-.42,1.93,1.93,0,0,0-1-.42,1.09,1.09,0,0,0-.73.72A7.86,7.86,0,0,1,271.39,121.37Zm-2,6H269v2c0,0.13.11,0.2,0.34,0.2a0.73,0.73,0,0,0,.59-0.31,1.93,1.93,0,0,0,.24-1.15,0.71,0.71,0,0,0-.18-0.57A0.87,0.87,0,0,0,269.43,127.39Z"/><path class="cls-2" d="M293.66,120.83l0.19,0.08a2.12,2.12,0,0,1,1.22,2.12v7.62H293.6l-2.93-2.54-2.93,2.54h-1.46v-5.08a1.15,1.15,0,0,1-1-1,1.55,1.55,0,0,1,.39-1.1,1.39,1.39,0,0,1,1.07-.42q1.27,0,1.27.84V129l2.64-2.2,2.64,2.29V123a1.63,1.63,0,0,0-.27-1.15,3.83,3.83,0,0,0-.62-0.45,6,6,0,0,1-2.91.76,4,4,0,0,1-2.35-.59,2.28,2.28,0,0,1-.87-2,3.38,3.38,0,0,1,.24-1.26,3.43,3.43,0,0,0,.24-1.28,0.82,0.82,0,0,0-1-.86,0.81,0.81,0,0,1,1-.84,1.53,1.53,0,0,1,1.76,1.7,3.16,3.16,0,0,1-.24,1.33,2.85,2.85,0,0,0-.24,1.21,1.46,1.46,0,0,0,.39,1.16,1.61,1.61,0,0,0,1.07.33,7.23,7.23,0,0,0,2-.28,2,2,0,0,1-1-1.39q0-1.52,1.86-1.52t1.76,1.51l1.56-1a3.41,3.41,0,0,1,1.79-.55,4.44,4.44,0,0,1,2.52,1.1,3,3,0,0,1,1.46,2v9.55h-1.76V121.1a1.8,1.8,0,0,0-.9-1,3,3,0,0,0-1.71-.64A12.14,12.14,0,0,0,293.66,120.83Zm-0.84-1.36a0.44,0.44,0,0,0-.49-0.51q-0.68,0-.68.51a1.41,1.41,0,0,0,.81.76A1.07,1.07,0,0,0,292.82,119.47Z"/><path class="cls-2" d="M290.67,132.6a5.15,5.15,0,0,0-1.83.24,0.8,0.8,0,0,0-.62.73V137h-1.46v-3.43a1.56,1.56,0,0,1,1-1.46,9,9,0,0,1,5.86,0,1.57,1.57,0,0,1,1,1.47V137h-1.46v-3.42a0.8,0.8,0,0,0-.62-0.73A5.15,5.15,0,0,0,290.67,132.6Z"/><path class="cls-2" d="M304.83,120.23a1.24,1.24,0,0,1,.59-0.87l0.6-.46a4.21,4.21,0,0,1,1.46-.95,2.66,2.66,0,0,1,1.18.61,2.87,2.87,0,0,0,1.12.61,2.8,2.8,0,0,0,1-.61,2.45,2.45,0,0,1,1.11-.61,3.15,3.15,0,0,1,1.28.7,4.1,4.1,0,0,0,1.1.71,0.41,0.41,0,0,0,.29-0.14q-0.32,1.27-1.11,1.27a2.25,2.25,0,0,1-1.09-.47,2.24,2.24,0,0,0-1-.47,1.89,1.89,0,0,0-1,.47,2,2,0,0,1-1.09.47A2.31,2.31,0,0,1,308,120a2.12,2.12,0,0,0-1-.47,0.84,0.84,0,0,0-.59.19,0.6,0.6,0,0,0-.2.46q0,0.38,1.25.63l-1.4.6A1.17,1.17,0,0,1,304.83,120.23Zm2.25,6.19h0.44a1.74,1.74,0,0,1,1.28.42,1.7,1.7,0,0,1,.43,1.27,3.1,3.1,0,0,1-.49,1.9,1.73,1.73,0,0,1-1.46.63,2.68,2.68,0,0,1-1.46-.32,1,1,0,0,1-.49-0.95V124.3a2.57,2.57,0,0,1,1-2.2,8.34,8.34,0,0,1,6.84,0,2.57,2.57,0,0,1,1,2.2v6.35h-1.76V124.3a1.77,1.77,0,0,0-.61-1.46,3.3,3.3,0,0,0-2-.49,3.25,3.25,0,0,0-2,.49,1.76,1.76,0,0,0-.62,1.46v2.12Zm0.44,1h-0.44v2c0,0.13.11,0.2,0.34,0.2a0.73,0.73,0,0,0,.59-0.31,1.93,1.93,0,0,0,.24-1.15,0.71,0.71,0,0,0-.18-0.57A0.87,0.87,0,0,0,307.52,127.39Z"/><path class="cls-2" d="M310.45,111.6V115a0.76,0.76,0,1,1-1.46,0V111.6h1.46Z"/></svg>