<svg id="Layer_1" data-name="Layer 1" xmlns="http://www.w3.org/2000/svg" viewBox="0 0 400 200"><defs><style>.cls-1{fill:#4e77bb;stroke:#3e66b0;stroke-miterlimit:10;}.cls-2{fill:#fff;}</style></defs><title>API Button</title><rect class="cls-1" x="33.5" y="34.5" width="333" height="131" rx="3" ry="3"/><path class="cls-2" d="M198.32,83.08a5.74,5.74,0,0,0-.94-0.08,3.36,3.36,0,0,0-2.42.94,3.55,3.55,0,0,0-1,2.69,5.55,5.55,0,0,0,1.56,4.1q1.56,1.58,5.54,1.58,3.67,0,5.37-1.91t1.68-7.69V80.77q0-5.41-1.78-7.61A6.3,6.3,0,0,0,201.17,71q-5.52,0-7.2,4.43,0,1.78-2.15,1.78-1.54,0-1.54-1.78v-7.1q0-2.07-3.08-2.07,0-2.38,2.67-2.38,4.1,0,4.1,4.45v2.4a10.74,10.74,0,0,1,7.2-2.4q4.9,0,7.55,2.65,3.1,3.1,3.1,9.8v1.95q0,7.12-2.87,9.78Q206.28,95,201.07,95q-5.91,0-8.35-2.52a8.18,8.18,0,0,1-2.44-5.82,5.44,5.44,0,0,1,2.44-4.53,7.53,7.53,0,0,1,4.61-1.48q0.59,0,1.21.06,3.38,0.39,4.53,2.11a3.41,3.41,0,0,1,.59,1.91,4.71,4.71,0,0,1-.53,2.07,1.77,1.77,0,0,1-1.66,1.15,2.73,2.73,0,0,1-1-.23,1.6,1.6,0,0,1-1.33-1.44,1.92,1.92,0,0,1,.25-0.88,1.81,1.81,0,0,1,1.21-1.09Q200.37,83.43,198.32,83.08Z"/><path class="cls-2" d="M75.3,120.88a2.57,2.57,0,0,1,1-2.2,5.8,5.8,0,0,1,3.37-.73,5.8,5.8,0,0,1,3.37.73,2.57,2.57,0,0,1,1,2.2v6.84a1.76,1.76,0,0,0,.62,1.46,2.69,2.69,0,0,0,1.73.49,2.74,2.74,0,0,0,1.74-.49,1.77,1.77,0,0,0,.61-1.46v-5.19a1.27,1.27,0,0,0-1.27-1.16,6.75,6.75,0,0,1,.76-2.29,1.09,1.09,0,0,1,1.9-.77l0.54,0.37a0.84,0.84,0,0,0,.44.16,0.56,0.56,0,0,0,.36-0.14,2.71,2.71,0,0,1-.29,1.19,0.84,0.84,0,0,1-.62.45h-0.1a2,2,0,0,1-1-.35,1.13,1.13,0,0,0-.52-0.18q-0.26,0-.38.76,1.88,0.5,1.88,1.17v6a2.57,2.57,0,0,1-1,2.2,7,7,0,0,1-6.25,0,2.57,2.57,0,0,1-1-2.2v-6.84a1.77,1.77,0,0,0-.61-1.46,3.2,3.2,0,0,0-2-.49,3.15,3.15,0,0,0-2,.49,1.76,1.76,0,0,0-.62,1.46v4.88a2.46,2.46,0,0,1,1.61.45,1.63,1.63,0,0,1,.54,1.34,3.76,3.76,0,0,1-.61,2.25,2.12,2.12,0,0,1-1.84.85q-1.46,0-1.46-.85v-8.92Zm1.76,5.86v2.64a1,1,0,0,0,.88-0.46,2.57,2.57,0,0,0,.29-1.37,0.68,0.68,0,0,0-.29-0.61A1.54,1.54,0,0,0,77.06,126.74Z"/><path class="cls-2" d="M81.79,113.56q0-2,3.13-2a5.53,5.53,0,0,1,3.66,1.46l1.71,1.46v1H84.23Q81.79,115.51,81.79,113.56Zm2.44,0.68h4a4.35,4.35,0,0,0-3.32-1.46q-2,0-2,.78T84.23,114.24Z"/><path class="cls-2" d="M94.34,125.52l4.28-1.63q2.75-1,2.75-2.55a2.43,2.43,0,0,0-.61-1.81,2.82,2.82,0,0,0-2-.61,2.92,2.92,0,0,0-1.8.46,2.23,2.23,0,0,0-.77,1.38,1.53,1.53,0,0,1,.43.13,1.16,1.16,0,0,1,.49.42,1,1,0,0,1,0,1.14,1.18,1.18,0,0,1-.49.42A1.49,1.49,0,0,1,96,123a2.27,2.27,0,0,1-.95-0.15,1.18,1.18,0,0,1-.49-0.42,1,1,0,0,1-.18-0.57v-0.55a3.17,3.17,0,0,1,1-2.54,5.26,5.26,0,0,1,3.42-.85,5.26,5.26,0,0,1,3.42.85,3.17,3.17,0,0,1,1,2.54q0,2.15-4,3.62l-3.08,1.23v1.06a2.43,2.43,0,0,0,.62,1.81,2.79,2.79,0,0,0,2,.61,2.83,2.83,0,0,0,2-.61,2.45,2.45,0,0,0,.61-1.81v-1.69h1.76v1.69a3.19,3.19,0,0,1-1,2.54,5.26,5.26,0,0,1-3.42.85,5.26,5.26,0,0,1-3.42-.85,3.19,3.19,0,0,1-1-2.54v-1.74Z"/><path class="cls-2" d="M94.49,113.56q0-2,3.13-2a5.53,5.53,0,0,1,3.66,1.46l1.71,1.46v1H96.93Q94.49,115.51,94.49,113.56Zm2.44,0.68h4a4.35,4.35,0,0,0-3.32-1.46q-2,0-2,.78T96.93,114.24Z"/><path class="cls-2" d="M106.55,120.23a1.24,1.24,0,0,1,.59-0.87l0.6-.46a4.21,4.21,0,0,1,1.46-.95,2.66,2.66,0,0,1,1.18.61,2.88,2.88,0,0,0,1.12.61,2.79,2.79,0,0,0,1-.61,2.45,2.45,0,0,1,1.11-.61,3.16,3.16,0,0,1,1.28.7,4.09,4.09,0,0,0,1.1.71,0.41,0.41,0,0,0,.29-0.14q-0.32,1.27-1.11,1.27a2.25,2.25,0,0,1-1.09-.47,2.24,2.24,0,0,0-1-.47,1.89,1.89,0,0,0-1,.47,2,2,0,0,1-1.09.47,2.31,2.31,0,0,1-1.32-.47,2.12,2.12,0,0,0-1-.47,0.84,0.84,0,0,0-.59.19,0.6,0.6,0,0,0-.2.46q0,0.38,1.25.63l-1.4.6A1.17,1.17,0,0,1,106.55,120.23Zm2.25,6.19h0.44a1.74,1.74,0,0,1,1.28.42,1.7,1.7,0,0,1,.43,1.27,3.1,3.1,0,0,1-.49,1.9,1.73,1.73,0,0,1-1.46.63,2.69,2.69,0,0,1-1.46-.32,1,1,0,0,1-.49-0.95V124.3a2.57,2.57,0,0,1,1-2.2,8.34,8.34,0,0,1,6.84,0,2.57,2.57,0,0,1,1,2.2v6.35h-1.76V124.3a1.77,1.77,0,0,0-.61-1.46,3.3,3.3,0,0,0-2-.49,3.25,3.25,0,0,0-2,.49,1.76,1.76,0,0,0-.62,1.46v2.12Zm0.44,1h-0.44v2c0,0.13.11,0.2,0.34,0.2a0.72,0.72,0,0,0,.59-0.31,1.94,1.94,0,0,0,.24-1.15,0.7,0.7,0,0,0-.18-0.57A0.87,0.87,0,0,0,109.23,127.39Z"/><path class="cls-2" d="M126.76,122.53a1.27,1.27,0,0,0-1.27-1.16,6.75,6.75,0,0,1,.76-2.29,1.09,1.09,0,0,1,1.9-.77l0.54,0.37a0.84,0.84,0,0,0,.44.16,0.56,0.56,0,0,0,.36-0.14,2.71,2.71,0,0,1-.29,1.19,0.84,0.84,0,0,1-.62.45h-0.1a2,2,0,0,1-1-.35,1.13,1.13,0,0,0-.52-0.18q-0.26,0-.38.76,1.88,0.5,1.88,1.17v6a2.57,2.57,0,0,1-1,2.2,8.34,8.34,0,0,1-6.84,0,2.57,2.57,0,0,1-1-2.2v-5.19a1.27,1.27,0,0,0-1.27-1.16,6.23,6.23,0,0,1,.81-2.29,1.89,1.89,0,0,1,1.07-1.13,1.76,1.76,0,0,1,.88.36l0.54,0.37a1,1,0,0,0,.57.16,1.9,1.9,0,0,0,.36,0,2.55,2.55,0,0,1-.36,1,1,1,0,0,1-.67.51h-0.1a2,2,0,0,1-1-.35,1.13,1.13,0,0,0-.52-0.18q-0.26,0-.38.76,1.79,0.5,1.79,1.17v6a1.76,1.76,0,0,0,.62,1.46,3.26,3.26,0,0,0,2,.49,3.3,3.3,0,0,0,2-.49,1.77,1.77,0,0,0,.61-1.46v-5.19Z"/><path class="cls-2" d="M147.49,120.28a2.33,2.33,0,0,1,.08.61v9.77h-1.76v-9.77a1.77,1.77,0,0,0-.66-1.37,2.55,2.55,0,0,0-3.25,0,1.76,1.76,0,0,0-.67,1.37v9.77h-1.76v-9.77q0-1.54-.78-1.54a1.76,1.76,0,0,0-1.33,1,0.58,0.58,0,0,1-1.05,0,1.74,1.74,0,0,0-1.32-1q-0.79,0-.79,1.54v4.88a2.46,2.46,0,0,1,1.61.45,1.63,1.63,0,0,1,.54,1.34,3.76,3.76,0,0,1-.61,2.25,2.12,2.12,0,0,1-1.84.85q-1.46,0-1.46-.85v-8.92a3.09,3.09,0,0,1,.73-2.06,2.14,2.14,0,0,1,1.66-.87,2.89,2.89,0,0,1,2,1.31,2.92,2.92,0,0,1,2-1.31,2.13,2.13,0,0,1,1.65.87l0,0h0l0,0a5.39,5.39,0,0,1,5.87,0,4.76,4.76,0,0,1,.46.42l1.24-.74a3.41,3.41,0,0,1,1.79-.55,4.44,4.44,0,0,1,2.52,1.1,2.94,2.94,0,0,1,1.46,2v9.55h-1.76V121.1a1.8,1.8,0,0,0-.9-1,3,3,0,0,0-1.71-.64A5.18,5.18,0,0,0,147.49,120.28Zm-13.3,9.1a1,1,0,0,0,.88-0.46,2.57,2.57,0,0,0,.29-1.37,0.68,0.68,0,0,0-.29-0.61,1.54,1.54,0,0,0-.88-0.21v2.64Z"/><path class="cls-2" d="M148.75,133.17q0.24,0,.24.32a0.66,0.66,0,0,1-.49.63l-0.22.08-0.24.08v0.08a3.62,3.62,0,0,1-.5,1.74,1.58,1.58,0,0,1-1.47.9,2.3,2.3,0,0,1-1-.25,4.32,4.32,0,0,1-1-.78l-0.36-.34-0.38.34a5.39,5.39,0,0,1-1.07.78,2.12,2.12,0,0,1-1,.25,1.57,1.57,0,0,1-1.46-.91,3.68,3.68,0,0,1-.49-1.74,3.51,3.51,0,0,1,.49-2,1.68,1.68,0,0,1,1.46-.68,0.49,0.49,0,1,1,0,1,0.46,0.46,0,0,0-.36.44,5,5,0,0,0-.13,1.31,5.88,5.88,0,0,0,.13,1q0.12,0.66.36,0.66a1.41,1.41,0,0,0,.62-0.2,4.45,4.45,0,0,0,.84-0.63l1-.91,1,0.91a2.82,2.82,0,0,0,1.48.83q0.23,0,.36-0.62a6.8,6.8,0,0,0,.13-0.87H146.1a1.47,1.47,0,1,1,0-2.93,1.75,1.75,0,0,1,1.25.44,2.29,2.29,0,0,1,.63,1.31l0.27-.07,0.26-.08,0.1,0,0.07,0h0.07Zm-2.66-.57a0.49,0.49,0,0,0-.36.12,0.5,0.5,0,0,0-.13.37,0.42,0.42,0,0,0,.47.49h0.48Q146.45,132.6,146.1,132.6Z"/><path class="cls-2" d="M157.33,120.23a1.24,1.24,0,0,1,.59-0.87l0.6-.46A4.21,4.21,0,0,1,160,118a2.66,2.66,0,0,1,1.18.61,2.88,2.88,0,0,0,1.12.61,2.79,2.79,0,0,0,1-.61,2.45,2.45,0,0,1,1.11-.61,3.16,3.16,0,0,1,1.28.7,4.09,4.09,0,0,0,1.1.71,0.41,0.41,0,0,0,.29-0.14q-0.32,1.27-1.11,1.27a2.25,2.25,0,0,1-1.09-.47,2.24,2.24,0,0,0-1-.47,1.89,1.89,0,0,0-1,.47,2,2,0,0,1-1.09.47,2.31,2.31,0,0,1-1.32-.47,2.12,2.12,0,0,0-1-.47,0.84,0.84,0,0,0-.59.19,0.6,0.6,0,0,0-.2.46q0,0.38,1.25.63l-1.4.6A1.17,1.17,0,0,1,157.33,120.23Zm2.25,10.42h-1.76V124.3a2.57,2.57,0,0,1,1-2.2,8.34,8.34,0,0,1,6.84,0,2.57,2.57,0,0,1,1,2.2v6.35h-1.76V124.3a1.77,1.77,0,0,0-.61-1.46,3.3,3.3,0,0,0-2-.49,3.25,3.25,0,0,0-2,.49,1.76,1.76,0,0,0-.62,1.46v6.35Z"/><path class="cls-2" d="M162.94,111.6V115a0.76,0.76,0,1,1-1.46,0V111.6h1.46Z"/><path class="cls-2" d="M179.3,121.3a1,1,0,0,1-.18.57,1.18,1.18,0,0,1-.49.42,2.27,2.27,0,0,1-.95.15,1.49,1.49,0,0,1-.65-0.15,1.18,1.18,0,0,1-.49-0.42,1,1,0,0,1,0-1.14,1.16,1.16,0,0,1,.49-0.42l0.26-.1a2,2,0,0,0-.61-0.82,2.92,2.92,0,0,0-1.8-.46,2.82,2.82,0,0,0-2,.61,2.43,2.43,0,0,0-.61,1.81v0.71a2.63,2.63,0,0,0,1,2.22,4.58,4.58,0,0,0,2.85.74q0-1.56,2-1.56a1.08,1.08,0,0,1,1.22,1.23,1.23,1.23,0,0,1-1.46,1.31v2.12a2.39,2.39,0,0,1-.73,1.9,3.28,3.28,0,0,1-2.2.63,3.84,3.84,0,0,1-2.41-.63,2.27,2.27,0,0,1-.81-1.9v-1.44h1.76v1.44a1.64,1.64,0,0,0,.37,1.17,1.42,1.42,0,0,0,1.09.39,1,1,0,0,0,.88-0.39,1.94,1.94,0,0,0,.29-1.17V126a7.21,7.21,0,0,1-4.17-1,3.37,3.37,0,0,1-1.4-2.95v-0.71a3.17,3.17,0,0,1,1-2.54,7.3,7.3,0,0,1,6.84,0,2.71,2.71,0,0,1,1,2.15v0.35ZM177.84,125c0.33,0,.49-0.11.49-0.33a0.2,0.2,0,0,0-.24-0.21C177.92,124.46,177.84,124.65,177.84,125Z"/><path class="cls-2" d="M170.66,113.56q0-2,3.13-2a5.53,5.53,0,0,1,3.66,1.46l1.71,1.46v1H173.1Q170.66,115.51,170.66,113.56Zm2.44,0.68h4a4.35,4.35,0,0,0-3.32-1.46q-2,0-2,.78T173.1,114.24Z"/><path class="cls-2" d="M192,130.65h-1.76v-9.77q0-1.54-.78-1.54a1.76,1.76,0,0,0-1.33,1,0.58,0.58,0,0,1-1.05,0,1.74,1.74,0,0,0-1.32-1q-0.79,0-.79,1.54v4.88a2.46,2.46,0,0,1,1.61.45,1.63,1.63,0,0,1,.54,1.34,3.76,3.76,0,0,1-.61,2.25,2.12,2.12,0,0,1-1.84.85q-1.46,0-1.46-.85v-8.92a3.09,3.09,0,0,1,.73-2.06,2.14,2.14,0,0,1,1.66-.87,2.89,2.89,0,0,1,2,1.31,2.92,2.92,0,0,1,2-1.31,2.13,2.13,0,0,1,1.65.87l0,0h0l0,0a5.39,5.39,0,0,1,5.87,0,2.56,2.56,0,0,1,1.11,2.06v9.77h-1.76v-9.77a1.77,1.77,0,0,0-.66-1.37,2.55,2.55,0,0,0-3.25,0,1.76,1.76,0,0,0-.67,1.37v9.77Zm4.59,2.6a0.52,0.52,0,0,0-.63-0.52,0.55,0.55,0,1,1,0-1.1q2.39,0,2.39,1.62a2.49,2.49,0,0,1-1.12,2.15q-1.57,1.11-5.33,1.11a11.48,11.48,0,0,1-4.82-1,9.35,9.35,0,0,1-3.46-2.71,1.19,1.19,0,0,1-.4-0.82,0.41,0.41,0,0,1,.51-0.4,1,1,0,0,1,.8.4,9.32,9.32,0,0,0,3.24,2.26,10.74,10.74,0,0,0,4.13.76q3.09,0,3.9-.56A1.55,1.55,0,0,0,196.59,133.24ZM185,129.38a1,1,0,0,0,.88-0.46,2.57,2.57,0,0,0,.29-1.37,0.68,0.68,0,0,0-.29-0.61,1.54,1.54,0,0,0-.88-0.21v2.64Z"/><path class="cls-2" d="M202.25,120.88a2.57,2.57,0,0,1,1-2.2,8.12,8.12,0,0,1,6.74,0,2.57,2.57,0,0,1,1,2.2v6.84a1.76,1.76,0,0,0,.62,1.46,2.69,2.69,0,0,0,1.73.49,2.74,2.74,0,0,0,1.74-.49,1.77,1.77,0,0,0,.61-1.46v-5.19a1.27,1.27,0,0,0-1.27-1.16,6.73,6.73,0,0,1,.76-2.29,1.09,1.09,0,0,1,1.9-.77l0.54,0.37a0.84,0.84,0,0,0,.44.16,0.56,0.56,0,0,0,.36-0.14,2.73,2.73,0,0,1-.29,1.19,0.84,0.84,0,0,1-.62.45h-0.1a2,2,0,0,1-1-.35,1.13,1.13,0,0,0-.52-0.18q-0.26,0-.38.76,1.88,0.5,1.88,1.17v6a2.57,2.57,0,0,1-1,2.2,7,7,0,0,1-6.25,0,2.57,2.57,0,0,1-1-2.2v-6.84a1.77,1.77,0,0,0-.61-1.46,3.2,3.2,0,0,0-2-.49,3.15,3.15,0,0,0-2,.49,1.76,1.76,0,0,0-.62,1.46v4.88a2.46,2.46,0,0,1,1.61.45,1.63,1.63,0,0,1,.54,1.34,3.77,3.77,0,0,1-.61,2.25,2.12,2.12,0,0,1-1.84.85q-1.46,0-1.46-.85v-8.92Zm1.76,5.86v2.64a1,1,0,0,0,.88-0.46,2.57,2.57,0,0,0,.29-1.37,0.68,0.68,0,0,0-.29-0.61A1.54,1.54,0,0,0,204,126.74Z"/><path class="cls-2" d="M220.81,120.23a1.24,1.24,0,0,1,.59-0.87l0.6-.46a4.21,4.21,0,0,1,1.46-.95,2.66,2.66,0,0,1,1.18.61,2.87,2.87,0,0,0,1.12.61,2.8,2.8,0,0,0,1-.61,2.45,2.45,0,0,1,1.11-.61,3.16,3.16,0,0,1,1.28.7,4.09,4.09,0,0,0,1.1.71,0.41,0.41,0,0,0,.29-0.14q-0.32,1.27-1.11,1.27a2.25,2.25,0,0,1-1.09-.47,2.24,2.24,0,0,0-1-.47,1.89,1.89,0,0,0-1,.47,2,2,0,0,1-1.09.47A2.31,2.31,0,0,1,224,120a2.12,2.12,0,0,0-1-.47,0.84,0.84,0,0,0-.59.19,0.6,0.6,0,0,0-.2.46q0,0.38,1.25.63l-1.4.6A1.17,1.17,0,0,1,220.81,120.23Zm2.25,10.42h-1.76V124.3a2.57,2.57,0,0,1,1-2.2,8.34,8.34,0,0,1,6.84,0,2.57,2.57,0,0,1,1,2.2v6.35h-1.76V124.3a1.77,1.77,0,0,0-.61-1.46,3.3,3.3,0,0,0-2-.49,3.25,3.25,0,0,0-2,.49,1.76,1.76,0,0,0-.62,1.46v6.35Z"/><path class="cls-2" d="M226.42,111.6V115a0.76,0.76,0,1,1-1.46,0V111.6h1.46Z"/><path class="cls-2" d="M244.14,121.37h0.2a5.8,5.8,0,0,1,3.37.73,2.57,2.57,0,0,1,1,2.2v3.42a1.76,1.76,0,0,0,.62,1.46,2.69,2.69,0,0,0,1.73.49,2.74,2.74,0,0,0,1.74-.49,1.77,1.77,0,0,0,.61-1.46v-5.19a1.27,1.27,0,0,0-1.27-1.16,6.77,6.77,0,0,1,.76-2.29,1.78,1.78,0,0,1,1-1.13,1.76,1.76,0,0,1,.88.36l0.54,0.37a0.85,0.85,0,0,0,.44.16,0.56,0.56,0,0,0,.36-0.14,2.71,2.71,0,0,1-.29,1.19,0.84,0.84,0,0,1-.62.45h-0.1a2,2,0,0,1-1-.35,1.12,1.12,0,0,0-.52-0.18q-0.26,0-.38.76,1.89,0.5,1.88,1.17v6a2.57,2.57,0,0,1-1,2.2,7,7,0,0,1-6.25,0,2.57,2.57,0,0,1-1-2.2V124.3a1.77,1.77,0,0,0-.61-1.46,3.2,3.2,0,0,0-2-.49,3.15,3.15,0,0,0-2,.49,1.76,1.76,0,0,0-.62,1.46v2.12h0.44a1.74,1.74,0,0,1,1.28.42,1.7,1.7,0,0,1,.43,1.27,3.1,3.1,0,0,1-.49,1.9,1.73,1.73,0,0,1-1.46.63,2.68,2.68,0,0,1-1.46-.32,1,1,0,0,1-.49-0.95V124.3a2.57,2.57,0,0,1,1-2.2,3.09,3.09,0,0,1,1-.47,2.69,2.69,0,0,0-1.2-.75,5.75,5.75,0,0,1,1.39-2.06,2.41,2.41,0,0,1,1.4-.87h0.11a3.75,3.75,0,0,1,1.17.55,4.18,4.18,0,0,0,1,.52H246a1,1,0,0,0,.33-0.06,3,3,0,0,1-.54,1.14,1,1,0,0,1-.77.39,2,2,0,0,1-1.05-.42,1.93,1.93,0,0,0-1-.42,1.09,1.09,0,0,0-.73.72A7.86,7.86,0,0,1,244.14,121.37Zm-2,6h-0.44v2c0,0.13.11,0.2,0.34,0.2a0.73,0.73,0,0,0,.59-0.31,1.93,1.93,0,0,0,.24-1.15,0.71,0.71,0,0,0-.18-0.57A0.87,0.87,0,0,0,242.18,127.39Z"/><path class="cls-2" d="M258.54,120.23a1.24,1.24,0,0,1,.59-0.87l0.6-.46a4.21,4.21,0,0,1,1.46-.95,2.66,2.66,0,0,1,1.18.61,2.87,2.87,0,0,0,1.12.61,2.8,2.8,0,0,0,1-.61,2.45,2.45,0,0,1,1.11-.61,3.15,3.15,0,0,1,1.28.7,4.1,4.1,0,0,0,1.1.71,0.41,0.41,0,0,0,.29-0.14q-0.32,1.27-1.11,1.27a2.25,2.25,0,0,1-1.09-.47,2.24,2.24,0,0,0-1-.47,1.89,1.89,0,0,0-1,.47,2,2,0,0,1-1.09.47,2.31,2.31,0,0,1-1.32-.47,2.12,2.12,0,0,0-1-.47,0.84,0.84,0,0,0-.59.19,0.6,0.6,0,0,0-.2.46q0,0.38,1.25.63l-1.4.6A1.17,1.17,0,0,1,258.54,120.23Zm2.25,6.19h0.44a1.74,1.74,0,0,1,1.28.42,1.7,1.7,0,0,1,.43,1.27,3.1,3.1,0,0,1-.49,1.9,1.73,1.73,0,0,1-1.46.63,2.68,2.68,0,0,1-1.46-.32,1,1,0,0,1-.49-0.95V124.3a2.57,2.57,0,0,1,1-2.2,8.34,8.34,0,0,1,6.84,0,2.57,2.57,0,0,1,1,2.2v6.35h-1.76V124.3a1.77,1.77,0,0,0-.61-1.46,3.3,3.3,0,0,0-2-.49,3.25,3.25,0,0,0-2,.49,1.76,1.76,0,0,0-.62,1.46v2.12Zm0.44,1h-0.44v2c0,0.13.11,0.2,0.34,0.2a0.73,0.73,0,0,0,.59-0.31,1.93,1.93,0,0,0,.24-1.15,0.71,0.71,0,0,0-.18-0.57A0.87,0.87,0,0,0,261.23,127.39Z"/><path class="cls-2" d="M265.82,135.87a5.5,5.5,0,0,1-3.37,1.13,4.48,4.48,0,0,1-2.2-.42,1.47,1.47,0,0,1-.73-1.37v-0.89a11.33,11.33,0,0,0,3.34-.51,6.61,6.61,0,0,0,3-2.18q1.46,0,1.46,1A3.83,3.83,0,0,1,265.82,135.87Zm-1.07-1.75a6.5,6.5,0,0,1-1.66.74,8.23,8.23,0,0,1-2.11.34,0.65,0.65,0,0,0,.37.65,2.79,2.79,0,0,0,1.1.17,3.61,3.61,0,0,0,2.42-.82,2.48,2.48,0,0,0,1-1.87l0,0-0.25.21Q265.41,133.68,264.75,134.12Z"/><path class="cls-2" d="M280.46,120.26a4,4,0,0,1,0,.63v9.77h-1.76v-9.77q0-1.54-.78-1.54a1.76,1.76,0,0,0-1.33,1,0.58,0.58,0,0,1-1.05,0,1.74,1.74,0,0,0-1.32-1q-0.79,0-.79,1.54v4.88a2.46,2.46,0,0,1,1.61.45,1.63,1.63,0,0,1,.54,1.34,3.77,3.77,0,0,1-.61,2.25,2.12,2.12,0,0,1-1.84.85q-1.46,0-1.46-.85v-8.92a3.09,3.09,0,0,1,.73-2.06,2.14,2.14,0,0,1,1.66-.87,2.89,2.89,0,0,1,2,1.31,2.92,2.92,0,0,1,2-1.31,2.13,2.13,0,0,1,1.65.87,3.38,3.38,0,0,1,.23.32l1.07-.64a3.41,3.41,0,0,1,1.79-.55,4.44,4.44,0,0,1,2.52,1.1,3,3,0,0,1,1.46,2v9.55H285.1V121.1a1.8,1.8,0,0,0-.9-1,3,3,0,0,0-1.71-.64A5.07,5.07,0,0,0,280.46,120.26Zm-7,9.12a1,1,0,0,0,.88-0.46,2.57,2.57,0,0,0,.29-1.37,0.68,0.68,0,0,0-.29-0.61,1.54,1.54,0,0,0-.88-0.21v2.64Z"/><path class="cls-2" d="M290.77,122.53a1.27,1.27,0,0,0-1.27-1.16,6.23,6.23,0,0,1,.81-2.29,1.89,1.89,0,0,1,1.07-1.13,1.76,1.76,0,0,1,.88.36l0.54,0.37a1,1,0,0,0,.57.16,1.9,1.9,0,0,0,.36,0,2.55,2.55,0,0,1-.36,1,1,1,0,0,1-.67.51h-0.1a2,2,0,0,1-1-.35,1.12,1.12,0,0,0-.52-0.18q-0.26,0-.38.76,1.79,0.5,1.79,1.17v6a1.76,1.76,0,0,0,.62,1.46,3.77,3.77,0,0,0,3.71,0,1.77,1.77,0,0,0,.61-1.46v-6.84a2.57,2.57,0,0,1,1-2.2,7.56,7.56,0,0,1,6.49,0,2.57,2.57,0,0,1,1,2.2v9.77h-1.76v-9.77a1.77,1.77,0,0,0-.61-1.46,3.77,3.77,0,0,0-3.71,0,1.76,1.76,0,0,0-.62,1.46v6.84a2.57,2.57,0,0,1-1,2.2,7.56,7.56,0,0,1-6.49,0,2.57,2.57,0,0,1-1-2.2v-5.19Z"/><path class="cls-2" d="M311.57,121.34a2.2,2.2,0,0,0,.88,1.67,8.19,8.19,0,0,0,2.64,1.38l3.52,1.23v2.49q0,2.54-2.78,2.54a3,3,0,0,1-2.29-1.21,2.74,2.74,0,0,0-2-1.2v2.41h-1.76v-5.08h1.76v1.69a3.23,3.23,0,0,1,2.34,1.2,3,3,0,0,0,1.9,1.21q1,0,1-1.56v-1.89L313.33,125a6.57,6.57,0,0,1-2.64-1.52,3,3,0,0,1-.88-2.14,3.17,3.17,0,0,1,1-2.54,7.3,7.3,0,0,1,6.84,0,3.17,3.17,0,0,1,1,2.54v0.55a1,1,0,0,1-.18.57,1.19,1.19,0,0,1-.49.42,2.27,2.27,0,0,1-.95.15,1.49,1.49,0,0,1-.65-0.15,1.19,1.19,0,0,1-.49-0.42,1,1,0,0,1,0-1.14,1.16,1.16,0,0,1,.49-0.42,1.53,1.53,0,0,1,.43-0.13,2.23,2.23,0,0,0-.77-1.38,2.92,2.92,0,0,0-1.8-.46,2.82,2.82,0,0,0-2,.61A2.43,2.43,0,0,0,311.57,121.34Z"/><path class="cls-2" d="M323.48,118.24a1.08,1.08,0,0,1,.6.19,1.29,1.29,0,0,1,.45.54,1.71,1.71,0,0,1,0,1.46,1.3,1.3,0,0,1-.45.54,1,1,0,0,1-1.22,0,1.29,1.29,0,0,1-.45-0.54,1.71,1.71,0,0,1-.16-0.73,1.74,1.74,0,0,1,.16-0.73,1.25,1.25,0,0,1,.45-0.54A1.1,1.1,0,0,1,323.48,118.24Zm0,9.18a1.08,1.08,0,0,1,.6.19,1.29,1.29,0,0,1,.45.54,1.71,1.71,0,0,1,0,1.46,1.3,1.3,0,0,1-.45.54,1,1,0,0,1-1.22,0,1.29,1.29,0,0,1-.45-0.54,1.71,1.71,0,0,1-.16-0.73,1.74,1.74,0,0,1,.16-0.73,1.25,1.25,0,0,1,.45-0.54A1.1,1.1,0,0,1,323.48,127.42Z"/></svg>