<svg id="Layer_1" data-name="Layer 1" xmlns="http://www.w3.org/2000/svg" viewBox="0 0 400 200"><defs><style>.cls-1{fill:#4e77bb;stroke:#3e66b0;stroke-miterlimit:10;}.cls-2{fill:#fff;}</style></defs><title>API Button</title><rect class="cls-1" x="33.5" y="34.5" width="333" height="131" rx="3" ry="3"/><path class="cls-2" d="M190.28,80.5q0-6,8.92-8.57t8.92-4.63q0-1.27-2.21-1.27,0-1.8,2.05-1.8,3.86,0,3.86,3.08,0,3.79-8.92,6.44T194,80.5v9q0,1,1.68,1.89a8.51,8.51,0,0,0,3.86.84H208q-3.53-4-3.53-5.43V82.31q0-3.61,3.69-3.61a4.54,4.54,0,0,1,2,.44,2.71,2.71,0,0,1,1.33,1.25,4.08,4.08,0,0,1,.4,1.83,3,3,0,0,1-.72,1.9q-0.72.91-3,.91v1.8A5.92,5.92,0,0,0,210,90.69l1.85,2V95h-12.3a12.83,12.83,0,0,1-6.67-1.54,4.5,4.5,0,0,1-2.56-3.9v-9Zm19.07,1.8a0.79,0.79,0,0,0,.21-0.64q0-.55-1.44-0.92v1.76A2.14,2.14,0,0,0,209.35,82.31Z"/><path class="cls-2" d="M110.94,120.88a2.57,2.57,0,0,1,1-2.2,8.12,8.12,0,0,1,6.74,0,2.57,2.57,0,0,1,1,2.2v6.84a1.76,1.76,0,0,0,.62,1.46,2.7,2.7,0,0,0,1.73.49,2.74,2.74,0,0,0,1.74-.49,1.77,1.77,0,0,0,.61-1.46v-5.19a1.27,1.27,0,0,0-1.27-1.16,6.73,6.73,0,0,1,.76-2.29,1.09,1.09,0,0,1,1.9-.77l0.54,0.37a0.84,0.84,0,0,0,.44.16,0.56,0.56,0,0,0,.36-0.14,2.73,2.73,0,0,1-.29,1.19,0.84,0.84,0,0,1-.62.45H126a2,2,0,0,1-1-.35,1.13,1.13,0,0,0-.52-0.18q-0.26,0-.38.76,1.88,0.5,1.88,1.17v6a2.57,2.57,0,0,1-1,2.2,7,7,0,0,1-6.25,0,2.57,2.57,0,0,1-1-2.2v-6.84a1.77,1.77,0,0,0-.61-1.46,3.2,3.2,0,0,0-2-.49,3.15,3.15,0,0,0-2,.49,1.76,1.76,0,0,0-.62,1.46v4.88a2.46,2.46,0,0,1,1.61.45,1.63,1.63,0,0,1,.54,1.34,3.76,3.76,0,0,1-.61,2.25,2.12,2.12,0,0,1-1.84.85q-1.46,0-1.46-.85v-8.92Zm1.76,5.86v2.64a1,1,0,0,0,.88-0.46,2.57,2.57,0,0,0,.29-1.37,0.68,0.68,0,0,0-.29-0.61A1.54,1.54,0,0,0,112.7,126.74Z"/><path class="cls-2" d="M117.43,113.56q0-2,3.13-2a5.53,5.53,0,0,1,3.66,1.46l1.71,1.46v1h-6.05Q117.43,115.51,117.43,113.56Zm2.44,0.68h4a4.35,4.35,0,0,0-3.32-1.46q-2,0-2,.78T119.87,114.24Z"/><path class="cls-2" d="M130,125.52l4.28-1.63q2.75-1,2.75-2.55a2.43,2.43,0,0,0-.61-1.81,2.83,2.83,0,0,0-2-.61,2.92,2.92,0,0,0-1.8.46,2.23,2.23,0,0,0-.77,1.38,1.53,1.53,0,0,1,.43.13,1.16,1.16,0,0,1,.49.42,1,1,0,0,1,0,1.14,1.18,1.18,0,0,1-.49.42,1.49,1.49,0,0,1-.65.15,2.27,2.27,0,0,1-.95-0.15,1.18,1.18,0,0,1-.49-0.42,1,1,0,0,1-.18-0.57v-0.55a3.17,3.17,0,0,1,1-2.54,7.3,7.3,0,0,1,6.84,0,3.17,3.17,0,0,1,1,2.54q0,2.15-4,3.62l-3.08,1.23v1.06a2.43,2.43,0,0,0,.62,1.81,2.79,2.79,0,0,0,2,.61,2.83,2.83,0,0,0,2-.61,2.45,2.45,0,0,0,.61-1.81v-1.69h1.76v1.69a3.19,3.19,0,0,1-1,2.54,7.3,7.3,0,0,1-6.84,0,3.19,3.19,0,0,1-1-2.54v-1.74Z"/><path class="cls-2" d="M130.13,113.56q0-2,3.13-2a5.53,5.53,0,0,1,3.66,1.46l1.71,1.46v1h-6.05Q130.13,115.51,130.13,113.56Zm2.44,0.68h4a4.35,4.35,0,0,0-3.32-1.46q-2,0-2,.78T132.57,114.24Z"/><path class="cls-2" d="M142.19,120.23a1.24,1.24,0,0,1,.59-0.87l0.6-.46a4.21,4.21,0,0,1,1.46-.95,2.66,2.66,0,0,1,1.18.61,2.88,2.88,0,0,0,1.12.61,2.78,2.78,0,0,0,1-.61,2.45,2.45,0,0,1,1.11-.61,3.16,3.16,0,0,1,1.28.7,4.09,4.09,0,0,0,1.1.71,0.41,0.41,0,0,0,.29-0.14q-0.32,1.27-1.11,1.27a2.25,2.25,0,0,1-1.09-.47,2.24,2.24,0,0,0-1-.47,1.89,1.89,0,0,0-1,.47,2,2,0,0,1-1.09.47,2.31,2.31,0,0,1-1.32-.47,2.12,2.12,0,0,0-1-.47,0.84,0.84,0,0,0-.59.19,0.6,0.6,0,0,0-.2.46q0,0.38,1.25.63l-1.4.6A1.17,1.17,0,0,1,142.19,120.23Zm2.25,6.19h0.44a1.74,1.74,0,0,1,1.28.42,1.7,1.7,0,0,1,.43,1.27,3.1,3.1,0,0,1-.49,1.9,1.74,1.74,0,0,1-1.46.63,2.69,2.69,0,0,1-1.46-.32,1,1,0,0,1-.49-0.95V124.3a2.57,2.57,0,0,1,1-2.2,8.34,8.34,0,0,1,6.84,0,2.57,2.57,0,0,1,1,2.2v6.35h-1.76V124.3a1.77,1.77,0,0,0-.61-1.46,3.3,3.3,0,0,0-2-.49,3.25,3.25,0,0,0-2,.49,1.76,1.76,0,0,0-.62,1.46v2.12Zm0.44,1h-0.44v2c0,0.13.11,0.2,0.34,0.2a0.72,0.72,0,0,0,.59-0.31,1.94,1.94,0,0,0,.24-1.15,0.71,0.71,0,0,0-.18-0.57A0.86,0.86,0,0,0,144.87,127.39Z"/><path class="cls-2" d="M162.4,122.53a1.27,1.27,0,0,0-1.27-1.16,6.73,6.73,0,0,1,.76-2.29,1.09,1.09,0,0,1,1.9-.77l0.54,0.37a0.84,0.84,0,0,0,.44.16,0.56,0.56,0,0,0,.36-0.14,2.73,2.73,0,0,1-.29,1.19,0.84,0.84,0,0,1-.62.45h-0.1a2,2,0,0,1-1-.35,1.13,1.13,0,0,0-.52-0.18q-0.26,0-.38.76,1.88,0.5,1.88,1.17v6a2.57,2.57,0,0,1-1,2.2,8.34,8.34,0,0,1-6.84,0,2.57,2.57,0,0,1-1-2.2v-5.19a1.27,1.27,0,0,0-1.27-1.16,6.23,6.23,0,0,1,.81-2.29A1.89,1.89,0,0,1,156,118a1.77,1.77,0,0,1,.88.36l0.54,0.37a1,1,0,0,0,.57.16,1.9,1.9,0,0,0,.36,0,2.55,2.55,0,0,1-.36,1,1,1,0,0,1-.67.51h-0.1a2,2,0,0,1-1-.35,1.13,1.13,0,0,0-.52-0.18q-0.26,0-.38.76,1.79,0.5,1.79,1.17v6a1.76,1.76,0,0,0,.62,1.46,3.26,3.26,0,0,0,2,.49,3.3,3.3,0,0,0,2-.49,1.77,1.77,0,0,0,.61-1.46v-5.19Z"/><path class="cls-2" d="M183.12,120.28a2.31,2.31,0,0,1,.08.61v9.77h-1.76v-9.77a1.77,1.77,0,0,0-.66-1.37,2.55,2.55,0,0,0-3.25,0,1.76,1.76,0,0,0-.67,1.37v9.77H175.1v-9.77q0-1.54-.78-1.54a1.76,1.76,0,0,0-1.33,1,0.58,0.58,0,0,1-1.05,0,1.74,1.74,0,0,0-1.32-1q-0.79,0-.79,1.54v4.88a2.46,2.46,0,0,1,1.61.45,1.63,1.63,0,0,1,.54,1.34,3.76,3.76,0,0,1-.61,2.25,2.12,2.12,0,0,1-1.84.85q-1.46,0-1.46-.85v-8.92a3.09,3.09,0,0,1,.73-2.06,2.14,2.14,0,0,1,1.66-.87,2.89,2.89,0,0,1,2,1.31,2.91,2.91,0,0,1,2-1.31,2.13,2.13,0,0,1,1.65.87l0,0h0l0,0a4.7,4.7,0,0,1,6.33.42l1.24-.74a3.41,3.41,0,0,1,1.79-.55,4.45,4.45,0,0,1,2.52,1.1,2.94,2.94,0,0,1,1.46,2v9.55h-1.76V121.1a1.8,1.8,0,0,0-.9-1,3,3,0,0,0-1.71-.64A5.19,5.19,0,0,0,183.12,120.28Zm-13.3,9.1a1,1,0,0,0,.88-0.46,2.57,2.57,0,0,0,.29-1.37,0.68,0.68,0,0,0-.29-0.61,1.54,1.54,0,0,0-.88-0.21v2.64Z"/><path class="cls-2" d="M184.39,133.17c0.16,0,.24.11,0.24,0.32a0.66,0.66,0,0,1-.49.63l-0.22.08-0.24.08v0.08a3.62,3.62,0,0,1-.5,1.74,1.58,1.58,0,0,1-1.47.9,2.3,2.3,0,0,1-1-.25,4.31,4.31,0,0,1-1-.78l-0.36-.34-0.38.34a5.37,5.37,0,0,1-1.07.78,2.12,2.12,0,0,1-1,.25,1.57,1.57,0,0,1-1.46-.91,3.67,3.67,0,0,1-.49-1.74,3.5,3.5,0,0,1,.49-2,1.68,1.68,0,0,1,1.46-.68,0.49,0.49,0,1,1,0,1,0.46,0.46,0,0,0-.36.44,5.07,5.07,0,0,0-.13,1.31,5.93,5.93,0,0,0,.13,1c0.08,0.44.2,0.66,0.36,0.66a1.41,1.41,0,0,0,.62-0.2,4.45,4.45,0,0,0,.84-0.63l1-.91,1,0.91a2.82,2.82,0,0,0,1.48.83c0.16,0,.28-0.21.36-0.62a6.71,6.71,0,0,0,.13-0.87h-0.49a1.47,1.47,0,1,1,0-2.93,1.75,1.75,0,0,1,1.25.44,2.29,2.29,0,0,1,.63,1.31l0.27-.07,0.26-.08,0.1,0,0.07,0h0.07Zm-2.66-.57a0.49,0.49,0,0,0-.36.12,0.5,0.5,0,0,0-.13.37,0.42,0.42,0,0,0,.47.49h0.48Q182.09,132.6,181.74,132.6Z"/><path class="cls-2" d="M193,120.23a1.24,1.24,0,0,1,.59-0.87l0.6-.46a4.21,4.21,0,0,1,1.46-.95,2.66,2.66,0,0,1,1.18.61,2.88,2.88,0,0,0,1.12.61,2.78,2.78,0,0,0,1-.61,2.45,2.45,0,0,1,1.11-.61,3.16,3.16,0,0,1,1.28.7,4.09,4.09,0,0,0,1.1.71,0.41,0.41,0,0,0,.29-0.14q-0.32,1.27-1.11,1.27a2.25,2.25,0,0,1-1.09-.47,2.24,2.24,0,0,0-1-.47,1.89,1.89,0,0,0-1,.47,2,2,0,0,1-1.09.47,2.31,2.31,0,0,1-1.32-.47,2.12,2.12,0,0,0-1-.47,0.84,0.84,0,0,0-.59.19,0.6,0.6,0,0,0-.2.46q0,0.38,1.25.63l-1.4.6A1.17,1.17,0,0,1,193,120.23Zm2.25,10.42h-1.76V124.3a2.57,2.57,0,0,1,1-2.2,8.34,8.34,0,0,1,6.84,0,2.57,2.57,0,0,1,1,2.2v6.35h-1.76V124.3a1.77,1.77,0,0,0-.61-1.46,3.3,3.3,0,0,0-2-.49,3.25,3.25,0,0,0-2,.49,1.76,1.76,0,0,0-.62,1.46v6.35Z"/><path class="cls-2" d="M198.58,111.6V115a0.76,0.76,0,1,1-1.46,0V111.6h1.46Z"/><path class="cls-2" d="M206.15,122.53q0-.89-1.46-1.16a6.58,6.58,0,0,1,.8-2.29,1.83,1.83,0,0,1,1.07-1.13,1.86,1.86,0,0,1,.92.36l0.57,0.37a0.91,0.91,0,0,0,.46.16,0.61,0.61,0,0,0,.38-0.14,2.57,2.57,0,0,1-.3,1.19,0.89,0.89,0,0,1-.65.45h-0.1a2.19,2.19,0,0,1-1-.35,1.19,1.19,0,0,0-.54-0.18c-0.19,0-.32.25-0.4,0.76q2,0.5,2,1.17v4.66q1.46,0,1.46,1.72,0,2.51-1.46,2.51h-0.78a0.86,0.86,0,0,1-1-1v-7.16Zm1.76,7q0.49,0,.49-1.41,0-.74-0.49-0.74v2.15Z"/><path class="cls-2" d="M211.82,120.88a2.57,2.57,0,0,1,1-2.2,8.12,8.12,0,0,1,6.74,0,2.57,2.57,0,0,1,1,2.2v6.84a1.76,1.76,0,0,0,.62,1.46,2.7,2.7,0,0,0,1.73.49,2.74,2.74,0,0,0,1.74-.49,1.77,1.77,0,0,0,.61-1.46v-5.19a1.27,1.27,0,0,0-1.27-1.16,6.73,6.73,0,0,1,.76-2.29,1.09,1.09,0,0,1,1.9-.77l0.54,0.37a0.84,0.84,0,0,0,.44.16,0.56,0.56,0,0,0,.36-0.14,2.73,2.73,0,0,1-.29,1.19,0.84,0.84,0,0,1-.62.45h-0.1a2,2,0,0,1-1-.35,1.13,1.13,0,0,0-.52-0.18q-0.26,0-.38.76,1.88,0.5,1.88,1.17v6a2.57,2.57,0,0,1-1,2.2,7,7,0,0,1-6.25,0,2.57,2.57,0,0,1-1-2.2v-6.84a1.77,1.77,0,0,0-.61-1.46,3.2,3.2,0,0,0-2-.49,3.15,3.15,0,0,0-2,.49,1.76,1.76,0,0,0-.62,1.46v4.88a2.46,2.46,0,0,1,1.61.45,1.63,1.63,0,0,1,.54,1.34,3.76,3.76,0,0,1-.61,2.25,2.12,2.12,0,0,1-1.84.85q-1.46,0-1.46-.85v-8.92Zm1.76,5.86v2.64a1,1,0,0,0,.88-0.46,2.57,2.57,0,0,0,.29-1.37,0.68,0.68,0,0,0-.29-0.61A1.54,1.54,0,0,0,213.57,126.74Z"/><path class="cls-2" d="M225.54,113.45V111.6h1.27v3.91h-6.05q-2.44,0-2.44-2t3.13-2a5.53,5.53,0,0,1,3.66,1.46Zm-4.79.79h4a4.35,4.35,0,0,0-3.32-1.46q-2,0-2,.78T220.75,114.24Z"/><path class="cls-2" d="M230.86,122.53q0-.89-1.46-1.16a6.58,6.58,0,0,1,.8-2.29,1.83,1.83,0,0,1,1.07-1.13,1.86,1.86,0,0,1,.92.36l0.57,0.37a0.91,0.91,0,0,0,.46.16,0.61,0.61,0,0,0,.38-0.14,2.57,2.57,0,0,1-.3,1.19,0.89,0.89,0,0,1-.65.45h-0.1a2.19,2.19,0,0,1-1-.35,1.19,1.19,0,0,0-.54-0.18c-0.19,0-.32.25-0.4,0.76q2,0.5,2,1.17v12.79a1.18,1.18,0,0,0,.71,1.1,3.1,3.1,0,0,0,1.44.37,2.46,2.46,0,0,0,1.41-.37,1.22,1.22,0,0,0,.55-1.09v-2.93h1.46v2.93a2,2,0,0,1-.92,1.83,4.44,4.44,0,0,1-2.5.62,5.87,5.87,0,0,1-2.74-.61,2,2,0,0,1-1.16-1.84v-12Z"/><path class="cls-2" d="M243.55,122.53a1.27,1.27,0,0,0-1.27-1.16,6.77,6.77,0,0,1,.76-2.29,1.78,1.78,0,0,1,1-1.13,1.76,1.76,0,0,1,.88.36l0.54,0.37a0.85,0.85,0,0,0,.44.16,0.56,0.56,0,0,0,.36-0.14,2.71,2.71,0,0,1-.29,1.19,0.84,0.84,0,0,1-.62.45h-0.1a2,2,0,0,1-1-.35,1.12,1.12,0,0,0-.52-0.18q-0.26,0-.38.76,1.89,0.5,1.88,1.17v6a2.57,2.57,0,0,1-1,2.2,8.34,8.34,0,0,1-6.84,0,2.57,2.57,0,0,1-1-2.2v-5.19a1.27,1.27,0,0,0-1.27-1.16,6.23,6.23,0,0,1,.81-2.29,1.89,1.89,0,0,1,1.07-1.13,1.77,1.77,0,0,1,.88.36l0.54,0.37a1,1,0,0,0,.57.16,1.9,1.9,0,0,0,.36,0,2.55,2.55,0,0,1-.36,1,1,1,0,0,1-.67.51h-0.1a2,2,0,0,1-1-.35,1.13,1.13,0,0,0-.52-0.18q-0.26,0-.38.76,1.79,0.5,1.79,1.17v6a1.76,1.76,0,0,0,.62,1.46,3.26,3.26,0,0,0,2,.49,3.3,3.3,0,0,0,2-.49,1.77,1.77,0,0,0,.61-1.46v-5.19Z"/><path class="cls-2" d="M251,129.69a0.85,0.85,0,0,1-1,1h-0.78q-1.46,0-1.46-2.61a1.37,1.37,0,0,1,1.46-1.62v-3.89q0-.89-1.46-1.16a5.4,5.4,0,0,1,.66-2.29,1.78,1.78,0,0,1,1-1.13,1.76,1.76,0,0,1,.88.36l0.25,0.18,0.1,0c0.2,0,.3-0.26.3-0.77s-0.33-.62-1-0.62a0.81,0.81,0,1,1,0-1.59q2,0,2,2.22v0.48a3.14,3.14,0,0,1-.39,1.75,1,1,0,0,1-.71.39,2,2,0,0,1-1-.35,1.12,1.12,0,0,0-.52-0.18q-0.36,0-.48.76,2.08,0.5,2.08,1.17v7.93Zm-1.76-2.29q-0.49,0-.49.64,0,1.5.49,1.5v-2.15Z"/><path class="cls-2" d="M254.39,120.23a1.24,1.24,0,0,1,.59-0.87l0.6-.46A4.21,4.21,0,0,1,257,118a2.66,2.66,0,0,1,1.18.61,2.87,2.87,0,0,0,1.12.61,2.8,2.8,0,0,0,1-.61,2.45,2.45,0,0,1,1.11-.61,3.15,3.15,0,0,1,1.28.7,4.1,4.1,0,0,0,1.1.71,0.41,0.41,0,0,0,.29-0.14q-0.32,1.27-1.11,1.27A2.25,2.25,0,0,1,262,120a2.24,2.24,0,0,0-1-.47,1.89,1.89,0,0,0-1,.47,2,2,0,0,1-1.09.47,2.31,2.31,0,0,1-1.32-.47,2.12,2.12,0,0,0-1-.47,0.84,0.84,0,0,0-.59.19,0.6,0.6,0,0,0-.2.46q0,0.38,1.25.63l-1.4.6A1.17,1.17,0,0,1,254.39,120.23Zm2.25,6.19h0.44a1.74,1.74,0,0,1,1.28.42,1.7,1.7,0,0,1,.43,1.27,3.1,3.1,0,0,1-.49,1.9,1.73,1.73,0,0,1-1.46.63,2.68,2.68,0,0,1-1.46-.32,1,1,0,0,1-.49-0.95V124.3a2.57,2.57,0,0,1,1-2.2,8.34,8.34,0,0,1,6.84,0,2.57,2.57,0,0,1,1,2.2v6.35h-1.76V124.3a1.77,1.77,0,0,0-.61-1.46,3.3,3.3,0,0,0-2-.49,3.25,3.25,0,0,0-2,.49,1.76,1.76,0,0,0-.62,1.46v2.12Zm0.44,1h-0.44v2c0,0.13.11,0.2,0.34,0.2a0.73,0.73,0,0,0,.59-0.31,1.93,1.93,0,0,0,.24-1.15,0.71,0.71,0,0,0-.18-0.57A0.87,0.87,0,0,0,257.08,127.39Z"/><path class="cls-2" d="M255,113.56q0-2,3.13-2a5.54,5.54,0,0,1,3.66,1.46l1.71,1.46v1h-6.05Q255,115.51,255,113.56Zm2.44,0.68h4a4.35,4.35,0,0,0-3.32-1.46q-2,0-2,.78T257.47,114.24Z"/><path class="cls-2" d="M256.84,134.06h0.49a1.17,1.17,0,0,1,1.37,1.27q0,1.66-1.86,1.66-1.46,0-1.46-1v-2.44a1.56,1.56,0,0,1,1-1.46,9,9,0,0,1,5.86,0,1.56,1.56,0,0,1,1,1.46V137h-1.46v-3.42a0.8,0.8,0,0,0-.62-0.73,7,7,0,0,0-3.65,0,0.8,0.8,0,0,0-.62.73v0.49Zm0,2q0.88,0,.88-0.67a0.31,0.31,0,0,0-.39-0.3h-0.49v1Z"/><path class="cls-2" d="M271.25,120.38l0.82,0q2,0,2.4-.5a1.65,1.65,0,0,0,.43-1.12,0.62,0.62,0,0,0-.68-0.71,0.76,0.76,0,0,1-.78-0.93,0.64,0.64,0,0,1,.78-0.64,2.12,2.12,0,0,1,1.61.57,2.44,2.44,0,0,1,.54,1.72,2.37,2.37,0,0,1-1,1.75,5.1,5.1,0,0,1-3.32.85l-0.94,0q-3.56-.17-3.55-1.7a1.71,1.71,0,0,1,.46-1.31,2.2,2.2,0,0,1,2.61.06,1.34,1.34,0,0,1,.35,1,1.44,1.44,0,0,1-.31,1ZM269.34,129l2.64-2.2,2.64,2.29v-7h1.76v8.5H274.9L272,128.11,269,130.65h-1.46v-8.5h1.76V129Zm0-9.06h0.22c0.33,0,.49-0.12.49-0.36a0.31,0.31,0,0,0-.11-0.25,0.62,0.62,0,0,0-.38-0.1,0.65,0.65,0,0,0-.37.09,0.31,0.31,0,0,0-.12.26A0.42,0.42,0,0,0,269.31,120Z"/><path class="cls-2" d="M275,113.45V111.6h1.27v3.91h-6.05q-2.44,0-2.44-2t3.13-2a5.54,5.54,0,0,1,3.66,1.46Zm-4.79.79h4a4.35,4.35,0,0,0-3.32-1.46q-2,0-2,.78T270.17,114.24Z"/><path class="cls-2" d="M280.27,121.66a1.61,1.61,0,0,1-1-1.44,1.24,1.24,0,0,1,.62-0.87l0.63-.46a4.44,4.44,0,0,1,1.54-.95,2.9,2.9,0,0,1,1.24.61,3.07,3.07,0,0,0,1.17.61,2.93,2.93,0,0,0,1.08-.61,2.62,2.62,0,0,1,1.16-.61,3.37,3.37,0,0,1,1.35.7,4.33,4.33,0,0,0,1.16.71,0.44,0.44,0,0,0,.3-0.14,1.35,1.35,0,0,1-1.17,1.27,2.4,2.4,0,0,1-1.14-.47,2.44,2.44,0,0,0-1-.47,2.07,2.07,0,0,0-1.06.47,2.14,2.14,0,0,1-1.14.47,2.53,2.53,0,0,1-1.39-.47,2.26,2.26,0,0,0-1.05-.47,0.91,0.91,0,0,0-.62.19,0.59,0.59,0,0,0-.21.46q0,0.38,1.32.92V129l2.64-2.2,2.64,2.29v-4.8a1.09,1.09,0,0,1-.68-1,1.58,1.58,0,0,1,.39-1.1,1.39,1.39,0,0,1,1.07-.42,0.81,0.81,0,0,1,1,.85v8H287.6l-2.93-2.54-2.93,2.54h-1.46v-9Z"/><path class="cls-2" d="M279.2,135a4,4,0,0,1,.73-2.44,2.57,2.57,0,0,1,2.2-1,2.91,2.91,0,0,1,2,.69,4.56,4.56,0,0,1,1.22,1.67,7.72,7.72,0,0,0,.81,1.5,1.07,1.07,0,0,0,.78.53q0.38,0,.78-1.22t0.81-3.17H290a21.53,21.53,0,0,1-1.42,3.91Q287.82,137,287,137a2.75,2.75,0,0,1-1.79-.58,3.52,3.52,0,0,1-1.07-1.55,5.92,5.92,0,0,0-.87-1.62,1.42,1.42,0,0,0-1.13-.64,1.16,1.16,0,0,0-1.09.73,3.74,3.74,0,0,0-.37,1.71q0,1,.49,1t0.49-1a0.86,0.86,0,0,1,1,1,0.82,0.82,0,0,1-.37.73A1.91,1.91,0,0,1,279.2,135Z"/><path class="cls-2" d="M287.65,113.45V111.6h1.27v3.91h-6.05q-2.44,0-2.44-2t3.13-2a5.54,5.54,0,0,1,3.66,1.46Zm-4.79.79h4a4.35,4.35,0,0,0-3.32-1.46q-2,0-2,.78T282.86,114.24Z"/></svg>